<svg viewBox="0 0 64 64" xmlns="http://www.w3.org/2000/svg" aria-labelledby="title"
aria-describedby="desc" role="img" xmlns:xlink="http://www.w3.org/1999/xlink">
  <title>Markers</title>
  <desc>A line styled icon from Orion Icon Library.</desc>
  <path stroke-width="3"
  stroke-miterlimit="10" stroke="#6f6a87" fill="none" d="M42.9 43.3A61 61 0 0 0 48 49s14-13.4 14-26a14 14 0 0 0-23.3-10.5m-13.5 0A14 14 0 0 0 2 23c0 12.6 14 26 14 26a61 61 0 0 0 4.9-5.5"
  data-name="layer2" stroke-linejoin="round" stroke-linecap="round"></path>
  <path stroke-width="3" stroke-miterlimit="10" stroke="#d2ccf8"
  fill="none" d="M31.9 11a16 16 0 0 0-16 16c0 14.4 16 32 16 32s16-17.6 16-32a16 16 0 0 0-16-16z"
  data-name="layer1" stroke-linejoin="round" stroke-linecap="round"></path>
  <circle stroke-width="3" stroke-miterlimit="10" stroke="#d2ccf8"
  fill="none" r="6" cy="27" cx="32" data-name="layer1" stroke-linejoin="round"
  stroke-linecap="round"></circle>
</svg>