<svg xmlns="http://www.w3.org/2000/svg" xmlns:xlink="http://www.w3.org/1999/xlink" width="48" height="48"><defs><path id="a" d="M24 0c13.255 0 24 10.745 24 24S37.255 48 24 48 0 37.255 0 24 10.745 0 24 0z"/><linearGradient id="c" x1="50%" x2="50%" y1="142.333%" y2="-116.533%"><stop offset="0%" stop-color="#273A9B"/><stop offset="56%" stop-color="#202F65"/><stop offset="100%" stop-color="#021E2F"/></linearGradient></defs><g fill="none" fill-rule="evenodd"><mask id="b" fill="#fff"><use xlink:href="#a"/></mask><use fill="#DFE6FF" xlink:href="#a"/><g mask="url(#b)"><path fill="#FFF" d="M61.404 11H21.236a2.596 2.596 0 0 0-2.596 2.596v27.216c0 .835.677 1.512 1.512 1.512h41.252A2.596 2.596 0 0 0 64 39.728V13.596A2.596 2.596 0 0 0 61.404 11z"/><path fill="url(#c)" fill-rule="nonzero" d="M17.816 11.918H2.596C1.162 11.918 0 9.948 0 7.518v-6.6h45.36v6.6c0 2.43-1.162 4.4-2.596 4.4H27.531v2.046c0 1.468.728 2.658 1.625 2.658.785.114 1.407 1.131 1.477 2.415.079 1.462-.582 2.752-1.477 2.881H16.191c-.785-.113-1.407-1.13-1.476-2.414-.08-1.462.582-2.752 1.476-2.882.898 0 1.625-1.19 1.625-2.658v-2.046z" transform="matrix(-1 0 0 1 64 36)"/><path fill="#157AEE" fill-rule="nonzero" d="M28.166 57.63a3.634 3.634 0 0 0 3.634-3.634V22.234a3.634 3.634 0 0 0-3.634-3.634H16.769a3.634 3.634 0 0 0-3.635 3.634v31.762a3.634 3.634 0 0 0 3.635 3.634h11.397z"/><path fill="#DFE6FF" fill-rule="nonzero" d="M16.661 20.675h2.258c.37-.003.705.27.839.687l.064.208c.134.417.468.69.839.687h3.613c.37.003.704-.27.838-.687l.065-.208c.136-.426.481-.701.86-.687h2.258c.801 0 1.451.784 1.451 1.75v26.5c0 .966-.65 1.75-1.451 1.75H16.66c-.801 0-1.451-.784-1.451-1.75v-26.5c0-.966.65-1.75 1.451-1.75z"/></g></g></svg>