<svg xmlns="http://www.w3.org/2000/svg" xmlns:xlink="http://www.w3.org/1999/xlink" width="48" height="48"><defs><path id="a" d="M24 0c13.255 0 24 10.745 24 24S37.255 48 24 48 0 37.255 0 24 10.745 0 24 0z"/><linearGradient id="c" x1="50%" x2="50%" y1="142.333%" y2="-116.533%"><stop offset="0%" stop-color="#273A9B"/><stop offset="56%" stop-color="#202F65"/><stop offset="100%" stop-color="#021E2F"/></linearGradient><linearGradient id="d" x1="50.002%" x2="50.002%" y1="-274.002%" y2="-1100.002%"><stop offset="0%" stop-color="#FFF"/><stop offset="52%" stop-color="#CCE2E6"/><stop offset="100%" stop-color="#8FA1BB"/></linearGradient></defs><g fill="none" fill-rule="evenodd"><mask id="b" fill="#fff"><use xlink:href="#a"/></mask><use fill="#DFEEFE" xlink:href="#a"/><g mask="url(#b)"><path fill="#8EC3FB" d="M15 25h34v21.6a5.4 5.4 0 0 1-5.4 5.4H20.4a5.4 5.4 0 0 1-5.4-5.4V25z"/><path fill="#FFF" d="M48.331 16H14.67l-3.376 6.77A2.926 2.926 0 0 0 11 23.995v2.097c0 .5.323.907.722.907h39.556c.399 0 .722-.406.722-.907v-2.06a2.926 2.926 0 0 0-.293-1.227L48.331 16z"/><path fill="url(#c)" fill-rule="nonzero" d="M5.827 0h29.346C36.182 0 37 .57 37 1.273V4H4V1.273C4 .57 4.818 0 5.827 0z" transform="translate(11 11)"/><path fill="#157AEE" fill-rule="nonzero" d="M11.001 23.744v2.273c0 .543.324.983.723.983h39.554c.399 0 .722-.44.722-.983v-2.273c0-.252-.026-.502-.078-.744H11.06a3.582 3.582 0 0 0-.059.744z"/><path fill="url(#d)" fill-rule="nonzero" d="M1.707.293A1 1 0 1 1 .293 1.707 1 1 0 0 1 1.707.293m4 0a1 1 0 1 1-1.414 1.414A1 1 0 0 1 5.707.293m4 0a1 1 0 1 1-1.414 1.414A1 1 0 0 1 9.707.293" transform="translate(18 12)"/><path fill="#DFE6FF" fill-rule="nonzero" d="M22.42 33h4.16c1.337 0 2.42 1.364 2.42 3.048V49h-9V36.093c-.02-1.683 1.047-3.067 2.383-3.093h.037z"/></g></g></svg>