<svg viewBox="0 0 64 64" xmlns="http://www.w3.org/2000/svg"><g style="fill:none;stroke:#028dff;stroke-miterlimit:10;stroke-width:3;stroke-linejoin:round;stroke-linecap:round"><ellipse cx="44" cy="7.1" rx="18" ry="5.1"/><path d="m26 14.9c0 2.8 8.1 5.1 18 5.1s18-2.3 18-5.1m-36 8c0 2.8 8.1 5.1 18 5.1s18-2.3 18-5.1m-36 8c0 2.8 8.1 5.1 18 5.1s18-2.3 18-5.1m-24 12.8c1.9.2 3.9.3 6 .3 9.9 0 18-2.3 18-5.1m-36-2.8v-28.6"/><path d="m62 7.1v39.8c0 2.8-8.1 5.1-18 5.1-2.1 0-4.1-.1-6-.3"/><ellipse cx="20" cy="40.9" rx="18" ry="5.1"/><path d="m2 48.9c0 2.8 8 5.1 18 5.1s18-2.3 18-5.1"/><path d="m38 40.9v16c0 2.8-8.1 5.1-18 5.1s-18-2.3-18-5.1v-15.6"/></g></svg>