<svg viewBox="0 0 64 64" xmlns="http://www.w3.org/2000/svg"><g fill="none" stroke="#028dff" stroke-linecap="round" stroke-linejoin="round" stroke-width="3"><path d="m38 42v16a4 4 0 0 1 -4 4h-26a4 4 0 0 1 -4-4v-52a4 4 0 0 1 4-4h22m-26 8h24m-24 38h34"/><circle cx="21" cy="55" r="1"/><path d="m59.4 2h-28.8a2.6 2.6 0 0 0 -2.6 2.6v18.8a2.6 2.6 0 0 0 2.6 2.6h7.4v7l7-7h14.4a2.6 2.6 0 0 0 2.6-2.6v-18.8a2.6 2.6 0 0 0 -2.6-2.6z"/><circle cx="45" cy="14" r="1"/><circle cx="37" cy="14" r="1"/><circle cx="53" cy="14" r="1"/></g></svg>