<svg viewBox="0 0 64 64" xmlns="http://www.w3.org/2000/svg"><g style="fill:none;stroke:#028dff;stroke-miterlimit:10;stroke-width:3;stroke-linejoin:round;stroke-linecap:round"><path d="m14.9 26h-13m22-11v-13m-8 16-9.2-9.2m42.2 29.2h13m-22 11v13m8-16 9.2 9.2"/><path d="m27 41.1a4.7 4.7 0 0 1 0 6.6l-8.3 8.3a4.7 4.7 0 0 1 -6.6 0l-4-4a4.7 4.7 0 0 1 0-6.6l8.3-8.3a4.7 4.7 0 0 1 6.6 0l2.2-4.2a9.4 9.4 0 0 0 -12.2.9l-8.2 8.3a9.3 9.3 0 0 0 0 13.2l4 4a9.3 9.3 0 0 0 13.2 0l8.3-8.3a9.4 9.4 0 0 0 .9-12.2zm10.2-18.2a4.7 4.7 0 0 1 0-6.6l8.3-8.3a4.7 4.7 0 0 1 6.6 0l4 4a4.7 4.7 0 0 1 0 6.6l-8.3 8.3a4.7 4.7 0 0 1 -6.6 0l-2.2 4.2a9.4 9.4 0 0 0 12.2-.9l8.3-8.3a9.3 9.3 0 0 0 0-13.2l-4-4a9.3 9.3 0 0 0 -13.2 0l-8.4 8.3a9.4 9.4 0 0 0 -.9 12.2z"/></g></svg>