<svg xmlns="http://www.w3.org/2000/svg" width="60" height="58" viewBox="0 0 60 58">
  <g fill="none">
    <path fill="#233651" d="M4.24874988,24.0160651 C-0.801013531,28.7879493 -1.42351789,36.3246773 2.77908612,41.7799813 L14.500016,57 L26.2209459,41.7799813 C30.4234722,36.3247508 29.8010456,28.7878023 24.7512822,24.0160651 C19.0912188,18.6613116 9.90850225,18.6613116 4.24859441,24.0160651 L4.24874988,24.0160651 Z M14.5004824,40.9016347 C10.0458605,40.9016347 6.43544412,37.4878434 6.43544412,33.2758225 C6.43544412,29.0638016 10.0458605,25.6500102 14.5004824,25.6500102 C18.9551043,25.6500102 22.5655207,29.0638016 22.5655207,33.2758225 C22.5655207,37.4878434 18.9551043,40.9016347 14.5004824,40.9016347 Z"/>
    <path fill="#AEC1E1" d="M57.0718142,2.82161196 C53.1666965,-0.94053732 46.8349506,-0.94053732 42.9293778,2.82161196 C39.4479643,6.17556906 39.0183437,11.4706678 41.9160831,15.3041374 L49.9987756,26 L58.0814681,15.3041374 C60.9821656,11.4705947 60.5525451,6.17571521 57.0711316,2.82161196 L57.0718142,2.82161196 Z M49.9993066,14.6873916 C46.9267305,14.6873916 44.4379044,12.2896828 44.4379044,9.32959531 C44.4379044,6.36950785 46.9267305,3.971799 49.9993066,3.971799 C53.0718827,3.971799 55.5607087,6.36950785 55.5607087,9.32959531 C55.5607087,12.2896828 53.0718827,14.6873916 49.9993066,14.6873916 Z"/>
    <path fill="#657386" d="M31.4493274,55.6791682 L36.175328,55.6791682 L36.175328,58 L31.4493274,58 L31.4493274,55.6791682 Z M34.8724156,33.4489417 L32.5978704,33.9102859 C32.4876238,33.3706647 32.4325016,32.8136651 32.4325016,32.2566654 C32.4325016,30.9569996 32.7255325,29.7153361 33.3057641,28.560713 L35.3801154,29.6021537 C34.9652526,30.428964 34.7534653,31.3224657 34.7534653,32.2565912 C34.7534653,32.6569625 34.7940834,33.0573041 34.8724156,33.4489417 Z M22,55.6791682 L26.7260006,55.6791682 L26.7260006,58 L22,58 L22,55.6791682 Z M48.6761725,47.8900854 L50.997099,47.8233569 L51,48.0960564 C51,49.79899 50.5590611,51.4786781 49.7264241,52.9553212 L47.7042843,51.8151801 C48.3425428,50.6866988 48.6790735,49.401515 48.6790735,48.0960564 L48.6761725,47.8900854 Z M41.0954694,55.6791682 C42.4155382,55.6791682 43.7123605,55.3339696 44.8466809,54.6870405 L45.9984546,56.7032306 C44.5130616,57.5503379 42.8187481,58 41.0954694,58 L40.9010909,58 L40.9010909,55.6791682 L41.0954694,55.6791682 Z M45.5226832,39.2335685 C47.1241596,40.0342369 48.4818831,41.2584478 49.4479827,42.7728184 L47.4926114,44.0202748 C46.7528114,42.8627553 45.7112538,41.9257482 44.4840964,41.3107315 L45.5226832,39.2335685 Z M42.2822984,24 L42.2822984,26.3237133 L40.6895858,26.3237133 C39.8018407,26.3237133 38.9488538,26.5122837 38.1539457,26.889417 L37.1617775,24.7919792 C38.2700292,24.2668994 39.4565611,24 40.6895858,24 L42.2822984,24 Z M35.348484,38.551801 L36.8512486,36.7850724 C37.8753528,37.6524619 39.1257566,38.1398388 40.466101,38.1891571 L40.3790644,40.5070925 C38.53688,40.4375046 36.752626,39.7441515 35.348484,38.551801 Z" opacity=".246"/>
  </g>
</svg>
