<svg xmlns="http://www.w3.org/2000/svg" xmlns:xlink="http://www.w3.org/1999/xlink" width="58" height="60" viewBox="0 0 58 60">
  <defs>
    <path id="icon-pub-1-a" d="M24.5,11 C38.0309764,11 49,21.9690236 49,35.5 C49,49.0309764 38.0309764,60 24.5,60 C10.9690236,60 1.65706669e-15,49.0309764 0,35.5 C-1.65706669e-15,21.9690236 10.9690236,11 24.5,11 Z"/>
    <filter id="icon-pub-1-b" width="110.2%" height="110.2%" x="-5.1%" y="-5.1%" filterUnits="objectBoundingBox">
      <feOffset dx="5" dy="-5" in="SourceAlpha" result="shadowOffsetInner1"/>
      <feComposite in="shadowOffsetInner1" in2="SourceAlpha" k2="-1" k3="1" operator="arithmetic" result="shadowInnerInner1"/>
      <feColorMatrix in="shadowInnerInner1" values="0 0 0 0 0.836759164   0 0 0 0 0.843547859   0 0 0 0 0.918223505  0 0 0 1 0"/>
    </filter>
  </defs>
  <g fill="none" fill-rule="evenodd">
    <use fill="#F4F3FB" xlink:href="#icon-pub-1-a"/>
    <use fill="#000" filter="url(#icon-pub-1-b)" xlink:href="#icon-pub-1-a"/>
    <path fill="#233651" fill-rule="nonzero" d="M27.6913386,22.6740315 L37.3487453,28.1089603 C38.0136771,28.4831661 38.8535721,28.2985967 39.3003523,27.6800891 L57.215944,2.87833948 C57.7010375,2.20679216 57.5498868,1.26914952 56.8783395,0.784056021 C56.2067922,0.298962522 55.2691495,0.450113205 54.784056,1.12166052 L37.6527856,24.8376218 L28.0700714,19.4447279 C27.4375919,19.0887855 26.6410033,19.236711 26.1784801,19.7959941 L11.8440718,37.1291618 C11.3161182,37.7675634 11.4056539,38.713081 12.0440555,39.2410346 C12.682457,39.7689882 13.6279746,39.6794524 14.1559282,39.0410509 L27.6913386,22.6740315 Z"/>
    <g fill-rule="nonzero" transform="translate(37 31)">
      <path fill="#AEC1E1" d="M16.2163396,16.2191702 C19.9278868,12.5082689 19.9278868,6.49407732 16.2163396,2.783176 C12.5047925,-0.927725332 6.49520751,-0.927725332 2.78366036,2.783176 C-0.927886787,6.4995277 -0.927886787,12.5082689 2.78366036,16.2191702 C6.48955428,19.9238137 12.5047925,19.9300715 16.2163396,16.2191702 Z"/>
      <path fill="#FFF" d="M4.92179256,9.70031383 C5.15365574,9.468491 5.53379505,9.468491 5.764891,9.70031383 L7.70108176,11.6298695 L13.2351898,6.10843266 C13.472585,5.88290804 13.8471922,5.88290804 14.0782882,6.11395228 C14.3101514,6.34577511 14.3101514,6.71955006 14.0782882,6.95137289 L8.11594806,12.8882498 C8.00316815,13.0073184 7.84859068,13.0601507 7.70031454,13.0601507 C7.54573303,13.0601507 7.39746295,13.0065311 7.27838171,12.8882498 L4.92098496,10.5431733 C4.6899092,10.3113505 4.6899092,9.93127732 4.92177379,9.70022158 L4.92179256,9.70031383 Z"/>
    </g>
  </g>
</svg>
