<svg xmlns="http://www.w3.org/2000/svg" width="656" height="672"><g fill="none" fill-rule="evenodd" stroke="#A8A4B2" stroke-dasharray="0 16" stroke-linecap="round" stroke-linejoin="round" stroke-width="2"><path d="M549.5 2v528.644M585.5 2v579.852M618.5 2v656m36-656v475.766M514.5 1v568.322M480.5 2v579.852M445.5 2v656m-35-656v656m-34-656v484.389M342.5 2v656m-35-656v554.95M274.5 14v364.9M239.5 2v656"/><path d="M206.5 14v500.586" opacity=".741"/><path d="M171.5 2v637.344" opacity=".694"/><path d="M138.5 14v500.586" opacity=".6"/><path d="M103.5 2v615.434" opacity=".5"/><path d="M69.5 14v657" opacity=".4"/><path d="M35.5 2v656" opacity=".417"/><path d="M1.5 14v657" opacity=".175"/></g></svg>