<svg xmlns="http://www.w3.org/2000/svg" width="434" height="53" viewBox="0 0 434 53">
  <g fill="#D3E0E7" fill-rule="evenodd" opacity=".477" transform="rotate(-180 217 24.703)">
    <path d="M416.816931,46.5382099 C416.220999,44.7087781 417.224725,42.7438594 419.058817,42.1494409 C420.89291,41.5550225 422.862834,42.5561987 423.458766,44.3856304 C424.054699,46.2150622 423.050973,48.179981 421.21688,48.7743994 C419.382788,49.3688178 417.412864,48.3676417 416.816931,46.5382099 Z" opacity=".828"/>
    <path d="M388.874834,46.5382099 C388.278901,44.7087781 389.282628,42.7438594 391.11672,42.1494409 C392.950812,41.5550225 394.920737,42.5561987 395.516669,44.3856304 C396.112602,46.2150622 395.108875,48.179981 393.274783,48.7743994 C391.440691,49.3688178 389.470767,48.3676417 388.874834,46.5382099 Z" opacity=".566"/>
    <path d="M360.932737,46.5382099 C360.336804,44.7087781 361.340531,42.7438594 363.174623,42.1494409 C365.008715,41.5550225 366.978639,42.5561987 367.574572,44.3856304 C368.170505,46.2150622 367.166778,48.179981 365.332686,48.7743994 C363.498594,49.3688178 361.528669,48.3676417 360.932737,46.5382099 Z" opacity=".018"/>
    <path d="M346.961688,46.5382099 C346.365755,44.7087781 347.369482,42.7438594 349.203574,42.1494409 C351.037666,41.5550225 353.007591,42.5561987 353.603523,44.3856304 C354.199456,46.2150622 353.195729,48.179981 351.361637,48.7743994 C349.527545,49.3688178 347.557621,48.3676417 346.961688,46.5382099 Z" opacity=".396"/>
    <path d="M208.80354,46.5382099 C208.207608,44.7087781 209.211334,42.7438594 211.045426,42.1494409 C212.879518,41.5550225 214.849443,42.5561987 215.445375,44.3856304 C216.041308,46.2150622 215.037581,48.179981 213.203489,48.7743994 C211.369397,49.3688178 209.399473,48.3676417 208.80354,46.5382099 Z" opacity=".129"/>
    <path d="M180.861443,46.5382099 C180.26551,44.7087781 181.269237,42.7438594 183.103329,42.1494409 C184.937421,41.5550225 186.907345,42.5561987 187.503278,44.3856304 C188.099211,46.2150622 187.095484,48.179981 185.261392,48.7743994 C183.4273,49.3688178 181.457376,48.3676417 180.861443,46.5382099 Z" opacity=".383"/>
    <path d="M166.890394,46.5382099 C166.294462,44.7087781 167.298188,42.7438594 169.13228,42.1494409 C170.966372,41.5550225 172.936297,42.5561987 173.532229,44.3856304 C174.128162,46.2150622 173.124435,48.179981 171.290343,48.7743994 C169.456251,49.3688178 167.486327,48.3676417 166.890394,46.5382099 Z" opacity=".072"/>
    <path d="M70.6453923,46.5382099 C70.0494597,44.7087781 71.0531862,42.7438594 72.8872784,42.1494409 C74.7213705,41.5550225 76.6912948,42.5561987 77.2872275,44.3856304 C77.8831601,46.2150622 76.8794335,48.179981 75.0453414,48.7743994 C73.2112493,49.3688178 71.241325,48.3676417 70.6453923,46.5382099 Z" opacity=".292"/>
    <path d="M28.7322463,46.5382099 C28.1363137,44.7087781 29.1400402,42.7438594 30.9741324,42.1494409 C32.8082245,41.5550225 34.7781488,42.5561987 35.3740815,44.3856304 C35.9700141,46.2150622 34.9662876,48.179981 33.1321954,48.7743994 C31.2981033,49.3688178 29.328179,48.3676417 28.7322463,46.5382099 Z" opacity=".974"/>
    <path d="M416.816931,32.6026613 C416.220999,30.7732295 417.224725,28.8083107 419.058817,28.2138923 C420.89291,27.6194739 422.862834,28.6206501 423.458766,30.4500818 C424.054699,32.2795136 423.050973,34.2444323 421.21688,34.8388508 C419.382788,35.4332692 417.412864,34.432093 416.816931,32.6026613 Z" opacity=".393"/>
    <path d="M388.874834,32.6026613 C388.278901,30.7732295 389.282628,28.8083107 391.11672,28.2138923 C392.950812,27.6194739 394.920737,28.6206501 395.516669,30.4500818 C396.112602,32.2795136 395.108875,34.2444323 393.274783,34.8388508 C391.440691,35.4332692 389.470767,34.432093 388.874834,32.6026613 Z" opacity=".515"/>
    <path d="M360.932737,32.6026613 C360.336804,30.7732295 361.340531,28.8083107 363.174623,28.2138923 C365.008715,27.6194739 366.978639,28.6206501 367.574572,30.4500818 C368.170505,32.2795136 367.166778,34.2444323 365.332686,34.8388508 C363.498594,35.4332692 361.528669,34.432093 360.932737,32.6026613 Z" opacity=".765"/>
    <path d="M346.961688,32.6026613 C346.365755,30.7732295 347.369482,28.8083107 349.203574,28.2138923 C351.037666,27.6194739 353.007591,28.6206501 353.603523,30.4500818 C354.199456,32.2795136 353.195729,34.2444323 351.361637,34.8388508 C349.527545,35.4332692 347.557621,34.432093 346.961688,32.6026613 Z" opacity=".377"/>
    <path d="M333.766809,32.6026613 C333.170876,30.7732295 334.174603,28.8083107 336.008695,28.2138923 C337.842787,27.6194739 339.812711,28.6206501 340.408644,30.4500818 C341.004577,32.2795136 340.00085,34.2444323 338.166758,34.8388508 C336.332666,35.4332692 334.362741,34.432093 333.766809,32.6026613 Z" opacity=".31"/>
    <path d="M319.79576,32.6026613 C319.199827,30.7732295 320.203554,28.8083107 322.037646,28.2138923 C323.871738,27.6194739 325.841663,28.6206501 326.437595,30.4500818 C327.033528,32.2795136 326.029801,34.2444323 324.195709,34.8388508 C322.361617,35.4332692 320.391693,34.432093 319.79576,32.6026613 Z" opacity=".028"/>
    <path d="M263.993421,32.4076345 C263.397489,30.5782028 264.401215,28.613284 266.235307,28.0188656 C268.0694,27.4244472 270.039324,28.4256233 270.635257,30.255055 C271.231189,32.0844868 270.227463,34.0494056 268.39337,34.643824 C266.559278,35.2382424 264.589354,34.2370663 263.993421,32.4076345 Z" opacity=".921"/>
    <path d="M250.716686,32.6026613 C250.120754,30.7732295 251.12448,28.8083107 252.958572,28.2138923 C254.792664,27.6194739 256.762589,28.6206501 257.358521,30.4500818 C257.954454,32.2795136 256.950727,34.2444323 255.116635,34.8388508 C253.282543,35.4332692 251.312619,34.432093 250.716686,32.6026613 Z" opacity=".055"/>
    <path d="M236.745638,32.6026613 C236.149705,30.7732295 237.153431,28.8083107 238.987524,28.2138923 C240.821616,27.6194739 242.79154,28.6206501 243.387473,30.4500818 C243.983405,32.2795136 242.979679,34.2444323 241.145587,34.8388508 C239.311494,35.4332692 237.34157,34.432093 236.745638,32.6026613 Z" opacity=".46"/>
    <path d="M208.80354,32.6026613 C208.207608,30.7732295 209.211334,28.8083107 211.045426,28.2138923 C212.879518,27.6194739 214.849443,28.6206501 215.445375,30.4500818 C216.041308,32.2795136 215.037581,34.2444323 213.203489,34.8388508 C211.369397,35.4332692 209.399473,34.432093 208.80354,32.6026613 Z" opacity=".359"/>
    <path d="M180.861443 32.6026613C180.26551 30.7732295 181.269237 28.8083107 183.103329 28.2138923 184.937421 27.6194739 186.907345 28.6206501 187.503278 30.4500818 188.099211 32.2795136 187.095484 34.2444323 185.261392 34.8388508 183.4273 35.4332692 181.457376 34.432093 180.861443 32.6026613zM180.861443 4.73156405C180.26551 2.90213229 181.269237.937213505 183.103329.342795095 184.937421-.251623314 186.907345.749552815 187.503278 2.57898457 188.099211 4.40841632 187.095484 6.37333511 185.261392 6.96775352 183.4273 7.56217193 181.457376 6.5609958 180.861443 4.73156405z" opacity=".296"/>
    <path d="M166.890394,32.6026613 C166.294462,30.7732295 167.298188,28.8083107 169.13228,28.2138923 C170.966372,27.6194739 172.936297,28.6206501 173.532229,30.4500818 C174.128162,32.2795136 173.124435,34.2444323 171.290343,34.8388508 C169.456251,35.4332692 167.486327,34.432093 166.890394,32.6026613 Z" opacity=".527"/>
    <path d="M70.6453923,32.6026613 C70.0494597,30.7732295 71.0531862,28.8083107 72.8872784,28.2138923 C74.7213705,27.6194739 76.6912948,28.6206501 77.2872275,30.4500818 C77.8831601,32.2795136 76.8794335,34.2444323 75.0453414,34.8388508 C73.2112493,35.4332692 71.241325,34.432093 70.6453923,32.6026613 Z" opacity=".523"/>
    <path d="M42.703295,32.6026613 C42.1073623,30.7732295 43.1110889,28.8083107 44.945181,28.2138923 C46.7792732,27.6194739 48.7491975,28.6206501 49.3451301,30.4500818 C49.9410628,32.2795136 48.9373362,34.2444323 47.1032441,34.8388508 C45.269152,35.4332692 43.2992276,34.432093 42.703295,32.6026613 Z" opacity=".4"/>
    <path d="M28.7322463,32.6026613 C28.1363137,30.7732295 29.1400402,28.8083107 30.9741324,28.2138923 C32.8082245,27.6194739 34.7781488,28.6206501 35.3740815,30.4500818 C35.9700141,32.2795136 34.9662876,34.2444323 33.1321954,34.8388508 C31.2981033,35.4332692 29.328179,34.432093 28.7322463,32.6026613 Z" opacity=".564"/>
    <path d="M14.7611977,32.6026613 C14.165265,30.7732295 15.1689916,28.8083107 17.0030837,28.2138923 C18.8371758,27.6194739 20.8071002,28.6206501 21.4030328,30.4500818 C21.9989655,32.2795136 20.9952389,34.2444323 19.1611468,34.8388508 C17.3270546,35.4332692 15.3571303,34.432093 14.7611977,32.6026613 Z" opacity=".015"/>
    <path d="M0.790149007,32.6026613 C0.194216349,30.7732295 1.19794292,28.8083107 3.03203505,28.2138923 C4.86612718,27.6194739 6.83605149,28.6206501 7.43198415,30.4500818 C8.02791681,32.2795136 7.02419024,34.2444323 5.19009811,34.8388508 C3.35600598,35.4332692 1.38608166,34.432093 0.790149007,32.6026613 Z" opacity=".444"/>
    <path d="M416.816931,18.6671127 C416.220999,16.8376809 417.224725,14.8727621 419.058817,14.2783437 C420.89291,13.6839253 422.862834,14.6851014 423.458766,16.5145332 C424.054699,18.3439649 423.050973,20.3088837 421.21688,20.9033021 C419.382788,21.4977205 417.412864,20.4965444 416.816931,18.6671127 Z" opacity=".499"/>
    <path d="M402.845883,18.6671127 C402.24995,16.8376809 403.253677,14.8727621 405.087769,14.2783437 C406.921861,13.6839253 408.891785,14.6851014 409.487718,16.5145332 C410.08365,18.3439649 409.079924,20.3088837 407.245832,20.9033021 C405.41174,21.4977205 403.441815,20.4965444 402.845883,18.6671127 Z" opacity=".633"/>
    <path d="M388.874834,18.6671127 C388.278901,16.8376809 389.282628,14.8727621 391.11672,14.2783437 C392.950812,13.6839253 394.920737,14.6851014 395.516669,16.5145332 C396.112602,18.3439649 395.108875,20.3088837 393.274783,20.9033021 C391.440691,21.4977205 389.470767,20.4965444 388.874834,18.6671127 Z" opacity=".033"/>
    <path d="M360.932737,18.6671127 C360.336804,16.8376809 361.340531,14.8727621 363.174623,14.2783437 C365.008715,13.6839253 366.978639,14.6851014 367.574572,16.5145332 C368.170505,18.3439649 367.166778,20.3088837 365.332686,20.9033021 C363.498594,21.4977205 361.528669,20.4965444 360.932737,18.6671127 Z" opacity=".865"/>
    <path d="M346.961688,18.6671127 C346.365755,16.8376809 347.369482,14.8727621 349.203574,14.2783437 C351.037666,13.6839253 353.007591,14.6851014 353.603523,16.5145332 C354.199456,18.3439649 353.195729,20.3088837 351.361637,20.9033021 C349.527545,21.4977205 347.557621,20.4965444 346.961688,18.6671127 Z" opacity=".202"/>
    <path d="M333.766809,18.6671127 C333.170876,16.8376809 334.174603,14.8727621 336.008695,14.2783437 C337.842787,13.6839253 339.812711,14.6851014 340.408644,16.5145332 C341.004577,18.3439649 340.00085,20.3088837 338.166758,20.9033021 C336.332666,21.4977205 334.362741,20.4965444 333.766809,18.6671127 Z" opacity=".737"/>
    <path d="M319.79576,18.6671127 C319.199827,16.8376809 320.203554,14.8727621 322.037646,14.2783437 C323.871738,13.6839253 325.841663,14.6851014 326.437595,16.5145332 C327.033528,18.3439649 326.029801,20.3088837 324.195709,20.9033021 C322.361617,21.4977205 320.391693,20.4965444 319.79576,18.6671127 Z" opacity=".73"/>
    <path d="M263.911565,18.6671127 C263.315633,16.8376809 264.319359,14.8727621 266.153451,14.2783437 C267.987544,13.6839253 269.957468,14.6851014 270.553401,16.5145332 C271.149333,18.3439649 270.145607,20.3088837 268.311515,20.9033021 C266.477422,21.4977205 264.507498,20.4965444 263.911565,18.6671127 Z" opacity=".011"/>
    <path d="M250.716686,18.6671127 C250.120754,16.8376809 251.12448,14.8727621 252.958572,14.2783437 C254.792664,13.6839253 256.762589,14.6851014 257.358521,16.5145332 C257.954454,18.3439649 256.950727,20.3088837 255.116635,20.9033021 C253.282543,21.4977205 251.312619,20.4965444 250.716686,18.6671127 Z" opacity=".753"/>
    <path d="M236.745638,18.6671127 C236.149705,16.8376809 237.153431,14.8727621 238.987524,14.2783437 C240.821616,13.6839253 242.79154,14.6851014 243.387473,16.5145332 C243.983405,18.3439649 242.979679,20.3088837 241.145587,20.9033021 C239.311494,21.4977205 237.34157,20.4965444 236.745638,18.6671127 Z" opacity=".322"/>
    <path d="M208.80354,18.6671127 C208.207608,16.8376809 209.211334,14.8727621 211.045426,14.2783437 C212.879518,13.6839253 214.849443,14.6851014 215.445375,16.5145332 C216.041308,18.3439649 215.037581,20.3088837 213.203489,20.9033021 C211.369397,21.4977205 209.399473,20.4965444 208.80354,18.6671127 Z" opacity=".372"/>
    <path d="M194.832492,18.6671127 C194.236559,16.8376809 195.240285,14.8727621 197.074378,14.2783437 C198.90847,13.6839253 200.878394,14.6851014 201.474327,16.5145332 C202.070259,18.3439649 201.066533,20.3088837 199.232441,20.9033021 C197.398348,21.4977205 195.428424,20.4965444 194.832492,18.6671127 Z" opacity=".456"/>
    <path d="M180.861443,18.6671127 C180.26551,16.8376809 181.269237,14.8727621 183.103329,14.2783437 C184.937421,13.6839253 186.907345,14.6851014 187.503278,16.5145332 C188.099211,18.3439649 187.095484,20.3088837 185.261392,20.9033021 C183.4273,21.4977205 181.457376,20.4965444 180.861443,18.6671127 Z" opacity=".476"/>
    <path d="M166.748608,18.9330582 C166.152675,17.1036265 167.156402,15.1387077 168.990494,14.5442893 C170.824586,13.9498709 172.794511,14.951047 173.390443,16.7804788 C173.986376,18.6099105 172.982649,20.5748293 171.148557,21.1692477 C169.314465,21.7636661 167.344541,20.76249 166.748608,18.9330582 Z" opacity=".288"/>
    <path d="M125.753418,18.6671127 C125.157485,16.8376809 126.161211,14.8727621 127.995304,14.2783437 C129.829396,13.6839253 131.79932,14.6851014 132.395253,16.5145332 C132.991185,18.3439649 131.987459,20.3088837 130.153367,20.9033021 C128.319275,21.4977205 126.34935,20.4965444 125.753418,18.6671127 Z" opacity=".773"/>
    <path d="M83.8402716,18.6671127 C83.2443389,16.8376809 84.2480655,14.8727621 86.0821576,14.2783437 C87.9162498,13.6839253 89.8861741,14.6851014 90.4821067,16.5145332 C91.0780394,18.3439649 90.0743128,20.3088837 88.2402207,20.9033021 C86.4061286,21.4977205 84.4362043,20.4965444 83.8402716,18.6671127 Z" opacity=".515"/>
    <path d="M70.6453923,18.6671127 C70.0494597,16.8376809 71.0531862,14.8727621 72.8872784,14.2783437 C74.7213705,13.6839253 76.6912948,14.6851014 77.2872275,16.5145332 C77.8831601,18.3439649 76.8794335,20.3088837 75.0453414,20.9033021 C73.2112493,21.4977205 71.241325,20.4965444 70.6453923,18.6671127 Z" opacity=".062"/>
    <path d="M42.703295,18.6671127 C42.1073623,16.8376809 43.1110889,14.8727621 44.945181,14.2783437 C46.7792732,13.6839253 48.7491975,14.6851014 49.3451301,16.5145332 C49.9410628,18.3439649 48.9373362,20.3088837 47.1032441,20.9033021 C45.269152,21.4977205 43.2992276,20.4965444 42.703295,18.6671127 Z" opacity=".961"/>
    <path d="M28.7322463,18.6671127 C28.1363137,16.8376809 29.1400402,14.8727621 30.9741324,14.2783437 C32.8082245,13.6839253 34.7781488,14.6851014 35.3740815,16.5145332 C35.9700141,18.3439649 34.9662876,20.3088837 33.1321954,20.9033021 C31.2981033,21.4977205 29.328179,20.4965444 28.7322463,18.6671127 Z" opacity=".627"/>
    <path d="M14.7611977,18.6671127 C14.165265,16.8376809 15.1689916,14.8727621 17.0030837,14.2783437 C18.8371758,13.6839253 20.8071002,14.6851014 21.4030328,16.5145332 C21.9989655,18.3439649 20.9952389,20.3088837 19.1611468,20.9033021 C17.3270546,21.4977205 15.3571303,20.4965444 14.7611977,18.6671127 Z" opacity=".013"/>
    <path d="M0.790149007,18.6671127 C0.194216349,16.8376809 1.19794292,14.8727621 3.03203505,14.2783437 C4.86612718,13.6839253 6.83605149,14.6851014 7.43198415,16.5145332 C8.02791681,18.3439649 7.02419024,20.3088837 5.19009811,20.9033021 C3.35600598,21.4977205 1.38608166,20.4965444 0.790149007,18.6671127 Z" opacity=".831"/>
    <path d="M416.816931,4.73156405 C416.220999,2.90213229 417.224725,0.937213505 419.058817,0.342795095 C420.89291,-0.251623314 422.862834,0.749552815 423.458766,2.57898457 C424.054699,4.40841632 423.050973,6.37333511 421.21688,6.96775352 C419.382788,7.56217193 417.412864,6.5609958 416.816931,4.73156405 Z" opacity=".689"/>
    <path d="M402.845883,4.73156405 C402.24995,2.90213229 403.253677,0.937213505 405.087769,0.342795095 C406.921861,-0.251623314 408.891785,0.749552815 409.487718,2.57898457 C410.08365,4.40841632 409.079924,6.37333511 407.245832,6.96775352 C405.41174,7.56217193 403.441815,6.5609958 402.845883,4.73156405 Z" opacity=".014"/>
    <path d="M388.874834,4.73156405 C388.278901,2.90213229 389.282628,0.937213505 391.11672,0.342795095 C392.950812,-0.251623314 394.920737,0.749552815 395.516669,2.57898457 C396.112602,4.40841632 395.108875,6.37333511 393.274783,6.96775352 C391.440691,7.56217193 389.470767,6.5609958 388.874834,4.73156405 Z" opacity=".408"/>
    <path d="M360.932737,4.73156405 C360.336804,2.90213229 361.340531,0.937213505 363.174623,0.342795095 C365.008715,-0.251623314 366.978639,0.749552815 367.574572,2.57898457 C368.170505,4.40841632 367.166778,6.37333511 365.332686,6.96775352 C363.498594,7.56217193 361.528669,6.5609958 360.932737,4.73156405 Z" opacity=".998"/>
    <path d="M346.961688,4.73156405 C346.365755,2.90213229 347.369482,0.937213505 349.203574,0.342795095 C351.037666,-0.251623314 353.007591,0.749552815 353.603523,2.57898457 C354.199456,4.40841632 353.195729,6.37333511 351.361637,6.96775352 C349.527545,7.56217193 347.557621,6.5609958 346.961688,4.73156405 Z" opacity=".062"/>
    <path d="M333.766809,4.73156405 C333.170876,2.90213229 334.174603,0.937213505 336.008695,0.342795095 C337.842787,-0.251623314 339.812711,0.749552815 340.408644,2.57898457 C341.004577,4.40841632 340.00085,6.37333511 338.166758,6.96775352 C336.332666,7.56217193 334.362741,6.5609958 333.766809,4.73156405 Z" opacity=".523"/>
    <path d="M319.79576,4.73156405 C319.199827,2.90213229 320.203554,0.937213505 322.037646,0.342795095 C323.871738,-0.251623314 325.841663,0.749552815 326.437595,2.57898457 C327.033528,4.40841632 326.029801,6.37333511 324.195709,6.96775352 C322.361617,7.56217193 320.391693,6.5609958 319.79576,4.73156405 Z" opacity=".804"/>
    <path d="M374.79576,4.73156405 C374.199827,2.90213229 375.203554,0.937213505 377.037646,0.342795095 C378.871738,-0.251623314 380.841663,0.749552815 381.437595,2.57898457 C382.033528,4.40841632 381.029801,6.37333511 379.195709,6.96775352 C377.361617,7.56217193 375.391693,6.5609958 374.79576,4.73156405 Z" opacity=".271"/>
    <path d="M305.824711,4.73156405 C305.228779,2.90213229 306.232505,0.937213505 308.066597,0.342795095 C309.90069,-0.251623314 311.870614,0.749552815 312.466547,2.57898457 C313.062479,4.40841632 312.058753,6.37333511 310.224661,6.96775352 C308.390568,7.56217193 306.420644,6.5609958 305.824711,4.73156405 Z" opacity=".266"/>
    <path d="M291.853663,4.73156405 C291.25773,2.90213229 292.261457,0.937213505 294.095549,0.342795095 C295.929641,-0.251623314 297.899565,0.749552815 298.495498,2.57898457 C299.091431,4.40841632 298.087704,6.37333511 296.253612,6.96775352 C294.41952,7.56217193 292.449595,6.5609958 291.853663,4.73156405 Z" opacity=".875"/>
    <path d="M277.882614,4.73156405 C277.286681,2.90213229 278.290408,0.937213505 280.1245,0.342795095 C281.958592,-0.251623314 283.928517,0.749552815 284.524449,2.57898457 C285.120382,4.40841632 284.116655,6.37333511 282.282563,6.96775352 C280.448471,7.56217193 278.478547,6.5609958 277.882614,4.73156405 Z" opacity=".013"/>
    <path d="M263.911565,4.73156405 C263.315633,2.90213229 264.319359,0.937213505 266.153451,0.342795095 C267.987544,-0.251623314 269.957468,0.749552815 270.553401,2.57898457 C271.149333,4.40841632 270.145607,6.37333511 268.311515,6.96775352 C266.477422,7.56217193 264.507498,6.5609958 263.911565,4.73156405 Z" opacity=".021"/>
    <path d="M250.716686,4.73156405 C250.120754,2.90213229 251.12448,0.937213505 252.958572,0.342795095 C254.792664,-0.251623314 256.762589,0.749552815 257.358521,2.57898457 C257.954454,4.40841632 256.950727,6.37333511 255.116635,6.96775352 C253.282543,7.56217193 251.312619,6.5609958 250.716686,4.73156405 Z" opacity=".29"/>
    <path d="M236.745638 4.73156405C236.149705 2.90213229 237.153431.937213505 238.987524.342795095 240.821616-.251623314 242.79154.749552815 243.387473 2.57898457 243.983405 4.40841632 242.979679 6.37333511 241.145587 6.96775352 239.311494 7.56217193 237.34157 6.5609958 236.745638 4.73156405zM263.993421 4.56017689C263.397489 2.73074514 264.401215.765826351 266.235307.171407941 268.0694-.423010468 270.039324.578165661 270.635257 2.40759741 271.231189 4.23702917 270.227463 6.20194796 268.39337 6.79636637 266.559278 7.39078478 264.589354 6.38960865 263.993421 4.56017689z" opacity=".546"/>
    <path d="M208.80354,4.73156405 C208.207608,2.90213229 209.211334,0.937213505 211.045426,0.342795095 C212.879518,-0.251623314 214.849443,0.749552815 215.445375,2.57898457 C216.041308,4.40841632 215.037581,6.37333511 213.203489,6.96775352 C211.369397,7.56217193 209.399473,6.5609958 208.80354,4.73156405 Z" opacity=".948"/>
    <path d="M194.832492,4.73156405 C194.236559,2.90213229 195.240285,0.937213505 197.074378,0.342795095 C198.90847,-0.251623314 200.878394,0.749552815 201.474327,2.57898457 C202.070259,4.40841632 201.066533,6.37333511 199.232441,6.96775352 C197.398348,7.56217193 195.428424,6.5609958 194.832492,4.73156405 Z" opacity=".167"/>
    <path d="M180.861443,4.73156405 C180.26551,2.90213229 181.269237,0.937213505 183.103329,0.342795095 C184.937421,-0.251623314 186.907345,0.749552815 187.503278,2.57898457 C188.099211,4.40841632 187.095484,6.37333511 185.261392,6.96775352 C183.4273,7.56217193 181.457376,6.5609958 180.861443,4.73156405 Z" opacity=".009"/>
    <path d="M166.890394,4.73156405 C166.294462,2.90213229 167.298188,0.937213505 169.13228,0.342795095 C170.966372,-0.251623314 172.936297,0.749552815 173.532229,2.57898457 C174.128162,4.40841632 173.124435,6.37333511 171.290343,6.96775352 C169.456251,7.56217193 167.486327,6.5609958 166.890394,4.73156405 Z" opacity=".087"/>
    <path d="M153.38417,4.73156405 C152.788237,2.90213229 153.791964,0.937213505 155.626056,0.342795095 C157.460148,-0.251623314 159.430073,0.749552815 160.026005,2.57898457 C160.621938,4.40841632 159.618211,6.37333511 157.784119,6.96775352 C155.950027,7.56217193 153.980103,6.5609958 153.38417,4.73156405 Z" opacity=".546"/>
    <path d="M278.541846,4.73156405 C277.945914,2.90213229 278.94964,0.937213505 280.783733,0.342795095 C282.617825,-0.251623314 284.587749,0.749552815 285.183682,2.57898457 C285.779614,4.40841632 284.775888,6.37333511 282.941796,6.96775352 C281.107703,7.56217193 279.137779,6.5609958 278.541846,4.73156405 Z" opacity=".288"/>
    <path d="M278.541846,18.6671127 C277.945914,16.8376809 278.94964,14.8727621 280.783733,14.2783437 C282.617825,13.6839253 284.587749,14.6851014 285.183682,16.5145332 C285.779614,18.3439649 284.775888,20.3088837 282.941796,20.9033021 C281.107703,21.4977205 279.137779,20.4965444 278.541846,18.6671127 Z" opacity=".087"/>
    <path d="M154.142799,18.9330582 C153.546866,17.1036265 154.550593,15.1387077 156.384685,14.5442893 C158.218777,13.9498709 160.188701,14.951047 160.784634,16.7804788 C161.380567,18.6099105 160.37684,20.5748293 158.542748,21.1692477 C156.708656,21.7636661 154.738732,20.76249 154.142799,18.9330582 Z" opacity=".255"/>
    <path d="M139.73616,18.9330582 C139.140227,17.1036265 140.143954,15.1387077 141.978046,14.5442893 C143.812138,13.9498709 145.782062,14.951047 146.377995,16.7804788 C146.973928,18.6099105 145.970201,20.5748293 144.136109,21.1692477 C142.302017,21.7636661 140.332093,20.76249 139.73616,18.9330582 Z" opacity=".161"/>
    <path d="M125.753418 4.73156405C125.157485 2.90213229 126.161211.937213505 127.995304.342795095 129.829396-.251623314 131.79932.749552815 132.395253 2.57898457 132.991185 4.40841632 131.987459 6.37333511 130.153367 6.96775352 128.319275 7.56217193 126.34935 6.5609958 125.753418 4.73156405zM112.247194 4.73156405C111.651261 2.90213229 112.654987.937213505 114.48908.342795095 116.323172-.251623314 118.293096.749552815 118.889029 2.57898457 119.484961 4.40841632 118.481235 6.37333511 116.647143 6.96775352 114.81305 7.56217193 112.843126 6.5609958 112.247194 4.73156405z" opacity=".414"/>
    <path d="M97.8113203,4.73156405 C97.2153876,2.90213229 98.2191142,0.937213505 100.053206,0.342795095 C101.887298,-0.251623314 103.857223,0.749552815 104.453155,2.57898457 C105.049088,4.40841632 104.045361,6.37333511 102.211269,6.96775352 C100.377177,7.56217193 98.4072529,6.5609958 97.8113203,4.73156405 Z" opacity=".4"/>
    <path d="M83.8402716,4.73156405 C83.2443389,2.90213229 84.2480655,0.937213505 86.0821576,0.342795095 C87.9162498,-0.251623314 89.8861741,0.749552815 90.4821067,2.57898457 C91.0780394,4.40841632 90.0743128,6.37333511 88.2402207,6.96775352 C86.4061286,7.56217193 84.4362043,6.5609958 83.8402716,4.73156405 Z" opacity=".699"/>
    <path d="M70.6453923,4.73156405 C70.0494597,2.90213229 71.0531862,0.937213505 72.8872784,0.342795095 C74.7213705,-0.251623314 76.6912948,0.749552815 77.2872275,2.57898457 C77.8831601,4.40841632 76.8794335,6.37333511 75.0453414,6.96775352 C73.2112493,7.56217193 71.241325,6.5609958 70.6453923,4.73156405 Z" opacity=".153"/>
    <path d="M56.6743437,4.73156405 C56.078411,2.90213229 57.0821376,0.937213505 58.9162297,0.342795095 C60.7503218,-0.251623314 62.7202461,0.749552815 63.3161788,2.57898457 C63.9121115,4.40841632 62.9083849,6.37333511 61.0742928,6.96775352 C59.2402006,7.56217193 57.2702763,6.5609958 56.6743437,4.73156405 Z" opacity=".654"/>
    <path d="M42.703295,4.73156405 C42.1073623,2.90213229 43.1110889,0.937213505 44.945181,0.342795095 C46.7792732,-0.251623314 48.7491975,0.749552815 49.3451301,2.57898457 C49.9410628,4.40841632 48.9373362,6.37333511 47.1032441,6.96775352 C45.269152,7.56217193 43.2992276,6.5609958 42.703295,4.73156405 Z" opacity=".116"/>
    <path d="M28.7322463,4.73156405 C28.1363137,2.90213229 29.1400402,0.937213505 30.9741324,0.342795095 C32.8082245,-0.251623314 34.7781488,0.749552815 35.3740815,2.57898457 C35.9700141,4.40841632 34.9662876,6.37333511 33.1321954,6.96775352 C31.2981033,7.56217193 29.328179,6.5609958 28.7322463,4.73156405 Z" opacity=".965"/>
    <path d="M14.7611977,4.73156405 C14.165265,2.90213229 15.1689916,0.937213505 17.0030837,0.342795095 C18.8371758,-0.251623314 20.8071002,0.749552815 21.4030328,2.57898457 C21.9989655,4.40841632 20.9952389,6.37333511 19.1611468,6.96775352 C17.3270546,7.56217193 15.3571303,6.5609958 14.7611977,4.73156405 Z" opacity=".723"/>
    <path d="M0.790149007,4.73156405 C0.194216349,2.90213229 1.19794292,0.937213505 3.03203505,0.342795095 C4.86612718,-0.251623314 6.83605149,0.749552815 7.43198415,2.57898457 C8.02791681,4.40841632 7.02419024,6.37333511 5.19009811,6.96775352 C3.35600598,7.56217193 1.38608166,6.5609958 0.790149007,4.73156405 Z" opacity=".609"/>
  </g>
</svg>
