<svg xmlns="http://www.w3.org/2000/svg" width="862" height="212"><g fill="#D3E0E7" fill-rule="evenodd"><path d="M775.295 207.856a6 6 0 1 1 11.413-3.708 6 6 0 0 1-11.413 3.708z" opacity=".608"/><path d="M725.295 207.856a6 6 0 1 1 11.413-3.708 6 6 0 0 1-11.413 3.708z" opacity=".319"/><path d="M700.295 207.856a6 6 0 1 1 11.413-3.708 6 6 0 0 1-11.413 3.708z" opacity=".222"/><path d="M675.295 207.856a6 6 0 1 1 11.413-3.708 6 6 0 0 1-11.413 3.708z" opacity=".014"/><path d="M650.295 207.856a6 6 0 1 1 11.413-3.708 6 6 0 0 1-11.413 3.708z" opacity=".207"/><path d="M500.295 207.856a6 6 0 1 1 11.413-3.708 6 6 0 0 1-11.413 3.708z" opacity=".337"/><path d="M400.295 207.856a6 6 0 1 1 11.413-3.708 6 6 0 0 1-11.413 3.708z" opacity=".704"/><path d="M275.295 207.856a6 6 0 1 1 11.413-3.708 6 6 0 0 1-11.413 3.708z" opacity=".143"/><path d="M150.295 207.856a6 6 0 1 1 11.413-3.708 6 6 0 0 1-11.413 3.708z" opacity=".326"/><path d="M125.295 207.856a6 6 0 1 1 11.413-3.708 6 6 0 0 1-11.413 3.708z" opacity=".087"/><path d="M825.295 182.856a6 6 0 1 1 11.413-3.708 6 6 0 0 1-11.413 3.708z" opacity=".828"/><path d="M775.295 182.856a6 6 0 1 1 11.413-3.708 6 6 0 0 1-11.413 3.708z" opacity=".566"/><path d="M725.295 182.856a6 6 0 1 1 11.413-3.708 6 6 0 0 1-11.413 3.708z" opacity=".018"/><path d="M700.295 182.856a6 6 0 1 1 11.413-3.708 6 6 0 0 1-11.413 3.708z" opacity=".396"/><path d="M675.295 182.856a6 6 0 1 1 11.413-3.708 6 6 0 0 1-11.413 3.708z" opacity=".712"/><path d="M650.295 182.856a6 6 0 1 1 11.413-3.708 6 6 0 0 1-11.413 3.708z" opacity=".587"/><path d="M550.295 182.856a6 6 0 1 1 11.413-3.708 6 6 0 0 1-11.413 3.708z" opacity=".822"/><path d="M500.295 182.856a6 6 0 1 1 11.413-3.708 6 6 0 0 1-11.413 3.708z" opacity=".469"/><path d="M450.295 182.856a6 6 0 1 1 11.413-3.708 6 6 0 0 1-11.413 3.708z" opacity=".129"/><path d="M400.295 182.856a6 6 0 1 1 11.413-3.708 6 6 0 0 1-11.413 3.708z" opacity=".383"/><path d="M375.295 182.856a6 6 0 1 1 11.413-3.708 6 6 0 0 1-11.413 3.708z" opacity=".072"/><path d="M200.295 182.856a6 6 0 1 1 11.413-3.708 6 6 0 0 1-11.413 3.708z" opacity=".292"/><path d="M150.295 182.856a6 6 0 1 1 11.413-3.708 6 6 0 0 1-11.413 3.708z" opacity=".475"/><path d="M125.295 182.856a6 6 0 1 1 11.413-3.708 6 6 0 0 1-11.413 3.708z" opacity=".974"/><path d="M825.295 157.856a6 6 0 1 1 11.413-3.708 6 6 0 0 1-11.413 3.708z" opacity=".393"/><path d="M775.295 157.856a6 6 0 1 1 11.413-3.708 6 6 0 0 1-11.413 3.708z" opacity=".515"/><path d="M725.295 157.856a6 6 0 1 1 11.413-3.708 6 6 0 0 1-11.413 3.708z" opacity=".765"/><path d="M700.295 157.856a6 6 0 1 1 11.413-3.708 6 6 0 0 1-11.413 3.708z" opacity=".377"/><path d="M675.295 157.856a6 6 0 1 1 11.413-3.708 6 6 0 0 1-11.413 3.708z" opacity=".31"/><path d="M650.295 157.856a6 6 0 1 1 11.413-3.708 6 6 0 0 1-11.413 3.708z" opacity=".028"/><path d="M550.295 157.856a6 6 0 1 1 11.413-3.708 6 6 0 0 1-11.413 3.708z" opacity=".921"/><path d="M525.295 157.856a6 6 0 1 1 11.413-3.708 6 6 0 0 1-11.413 3.708z" opacity=".055"/><path d="M500.295 157.856a6 6 0 1 1 11.413-3.708 6 6 0 0 1-11.413 3.708z" opacity=".46"/><path d="M450.295 157.856a6 6 0 1 1 11.413-3.708 6 6 0 0 1-11.413 3.708z" opacity=".359"/><path d="M400.295 157.856a6 6 0 1 1 11.413-3.708 6 6 0 0 1-11.413 3.708zm0-49.998a6 6 0 1 1 11.413-3.708 6 6 0 0 1-11.413 3.708z" opacity=".296"/><path d="M375.295 157.856a6 6 0 1 1 11.413-3.708 6 6 0 0 1-11.413 3.708z" opacity=".527"/><path d="M200.295 157.856a6 6 0 1 1 11.413-3.708 6 6 0 0 1-11.413 3.708z" opacity=".523"/><path d="M150.295 157.856a6 6 0 1 1 11.413-3.708 6 6 0 0 1-11.413 3.708z" opacity=".4"/><path d="M125.295 157.856a6 6 0 1 1 11.413-3.708 6 6 0 0 1-11.413 3.708z" opacity=".564"/><path d="M100.295 157.856a6 6 0 1 1 11.413-3.708 6 6 0 0 1-11.413 3.708z" opacity=".015"/><path d="M75.295 157.856a6 6 0 1 1 11.413-3.708 6 6 0 0 1-11.413 3.708z" opacity=".444"/><path d="M825.295 132.856a6 6 0 1 1 11.413-3.708 6 6 0 0 1-11.413 3.708z" opacity=".499"/><path d="M800.295 132.856a6 6 0 1 1 11.413-3.708 6 6 0 0 1-11.413 3.708z" opacity=".633"/><path d="M775.295 132.856a6 6 0 1 1 11.413-3.708 6 6 0 0 1-11.413 3.708z" opacity=".033"/><path d="M725.295 132.856a6 6 0 1 1 11.413-3.708 6 6 0 0 1-11.413 3.708z" opacity=".865"/><path d="M700.295 132.856a6 6 0 1 1 11.413-3.708 6 6 0 0 1-11.413 3.708z" opacity=".202"/><path d="M675.295 132.856a6 6 0 1 1 11.413-3.708 6 6 0 0 1-11.413 3.708z" opacity=".737"/><path d="M650.295 132.856a6 6 0 1 1 11.413-3.708 6 6 0 0 1-11.413 3.708z" opacity=".73"/><path d="M550.295 132.856a6 6 0 1 1 11.413-3.708 6 6 0 0 1-11.413 3.708z" opacity=".011"/><path d="M525.295 132.856a6 6 0 1 1 11.413-3.708 6 6 0 0 1-11.413 3.708z" opacity=".753"/><path d="M500.295 132.856a6 6 0 1 1 11.413-3.708 6 6 0 0 1-11.413 3.708z" opacity=".322"/><path d="M450.295 132.856a6 6 0 1 1 11.413-3.708 6 6 0 0 1-11.413 3.708z" opacity=".372"/><path d="M425.295 132.856a6 6 0 1 1 11.413-3.708 6 6 0 0 1-11.413 3.708z" opacity=".456"/><path d="M400.295 132.856a6 6 0 1 1 11.413-3.708 6 6 0 0 1-11.413 3.708z" opacity=".476"/><path d="M375.295 132.856a6 6 0 1 1 11.413-3.708 6 6 0 0 1-11.413 3.708z" opacity=".288"/><path d="M300.295 132.856a6 6 0 1 1 11.413-3.708 6 6 0 0 1-11.413 3.708z" opacity=".773"/><path d="M225.295 132.856a6 6 0 1 1 11.413-3.708 6 6 0 0 1-11.413 3.708z" opacity=".515"/><path d="M200.295 132.856a6 6 0 1 1 11.413-3.708 6 6 0 0 1-11.413 3.708z" opacity=".062"/><path d="M150.295 132.856a6 6 0 1 1 11.413-3.708 6 6 0 0 1-11.413 3.708z" opacity=".961"/><path d="M125.295 132.856a6 6 0 1 1 11.413-3.708 6 6 0 0 1-11.413 3.708z" opacity=".627"/><path d="M100.295 132.856a6 6 0 1 1 11.413-3.708 6 6 0 0 1-11.413 3.708z" opacity=".013"/><path d="M75.295 132.856a6 6 0 1 1 11.413-3.708 6 6 0 0 1-11.413 3.708z" opacity=".831"/><path d="M825.295 107.856a6 6 0 1 1 11.413-3.708 6 6 0 0 1-11.413 3.708z" opacity=".689"/><path d="M800.295 107.856a6 6 0 1 1 11.413-3.708 6 6 0 0 1-11.413 3.708z" opacity=".014"/><path d="M775.295 107.856a6 6 0 1 1 11.413-3.708 6 6 0 0 1-11.413 3.708z" opacity=".408"/><path d="M725.295 107.856a6 6 0 1 1 11.413-3.708 6 6 0 0 1-11.413 3.708z" opacity=".998"/><path d="M700.295 107.856a6 6 0 1 1 11.413-3.708 6 6 0 0 1-11.413 3.708z" opacity=".062"/><path d="M675.295 107.856a6 6 0 1 1 11.413-3.708 6 6 0 0 1-11.413 3.708z" opacity=".523"/><path d="M650.295 107.856a6 6 0 1 1 11.413-3.708 6 6 0 0 1-11.413 3.708z" opacity=".804"/><path d="M625.295 107.856a6 6 0 1 1 11.413-3.708 6 6 0 0 1-11.413 3.708z" opacity=".266"/><path d="M600.295 107.856a6 6 0 1 1 11.413-3.708 6 6 0 0 1-11.413 3.708z" opacity=".875"/><path d="M575.295 107.856a6 6 0 1 1 11.413-3.708 6 6 0 0 1-11.413 3.708z" opacity=".013"/><path d="M550.295 107.856a6 6 0 1 1 11.413-3.708 6 6 0 0 1-11.413 3.708z" opacity=".021"/><path d="M525.295 107.856a6 6 0 1 1 11.413-3.708 6 6 0 0 1-11.413 3.708z" opacity=".29"/><path d="M500.295 107.856a6 6 0 1 1 11.413-3.708 6 6 0 0 1-11.413 3.708z" opacity=".546"/><path d="M450.295 107.856a6 6 0 1 1 11.413-3.708 6 6 0 0 1-11.413 3.708z" opacity=".948"/><path d="M425.295 107.856a6 6 0 1 1 11.413-3.708 6 6 0 0 1-11.413 3.708z" opacity=".167"/><path d="M400.295 107.856a6 6 0 1 1 11.413-3.708 6 6 0 0 1-11.413 3.708z" opacity=".009"/><path d="M375.295 107.856a6 6 0 1 1 11.413-3.708 6 6 0 0 1-11.413 3.708z" opacity=".087"/><path d="M350.295 107.856a6 6 0 1 1 11.413-3.708 6 6 0 0 1-11.413 3.708z" opacity=".255"/><path d="M325.295 107.856a6 6 0 1 1 11.413-3.708 6 6 0 0 1-11.413 3.708z" opacity=".161"/><path d="M300.295 107.856a6 6 0 1 1 11.413-3.708 6 6 0 0 1-11.413 3.708z" opacity=".414"/><path d="M250.295 107.856a6 6 0 1 1 11.413-3.708 6 6 0 0 1-11.413 3.708z" opacity=".4"/><path d="M225.295 107.856a6 6 0 1 1 11.413-3.708 6 6 0 0 1-11.413 3.708z" opacity=".699"/><path d="M200.295 107.856a6 6 0 1 1 11.413-3.708 6 6 0 0 1-11.413 3.708z" opacity=".153"/><path d="M175.295 107.856a6 6 0 1 1 11.413-3.708 6 6 0 0 1-11.413 3.708z" opacity=".654"/><path d="M150.295 107.856a6 6 0 1 1 11.413-3.708 6 6 0 0 1-11.413 3.708z" opacity=".116"/><path d="M125.295 107.856a6 6 0 1 1 11.413-3.708 6 6 0 0 1-11.413 3.708z" opacity=".965"/><path d="M100.295 107.856a6 6 0 1 1 11.413-3.708 6 6 0 0 1-11.413 3.708z" opacity=".723"/><path d="M75.295 107.856a6 6 0 1 1 11.413-3.708 6 6 0 0 1-11.413 3.708z" opacity=".609"/><path d="M850.295 82.856a6 6 0 1 1 11.413-3.708 6 6 0 0 1-11.413 3.708z" opacity=".285"/><path d="M825.295 82.856a6 6 0 1 1 11.413-3.708 6 6 0 0 1-11.413 3.708z" opacity=".115"/><path d="M800.295 82.856a6 6 0 1 1 11.413-3.708 6 6 0 0 1-11.413 3.708z" opacity=".526"/><path d="M775.295 82.856a6 6 0 1 1 11.413-3.708 6 6 0 0 1-11.413 3.708z" opacity=".656"/><path d="M725.295 82.856a6 6 0 1 1 11.413-3.708 6 6 0 0 1-11.413 3.708z" opacity=".092"/><path d="M700.295 82.856a6 6 0 1 1 11.413-3.708 6 6 0 0 1-11.413 3.708z" opacity=".442"/><path d="M675.295 82.856a6 6 0 1 1 11.413-3.708 6 6 0 0 1-11.413 3.708z" opacity=".457"/><path d="M650.295 82.856a6 6 0 1 1 11.413-3.708 6 6 0 0 1-11.413 3.708z" opacity=".134"/><path d="M625.295 82.856a6 6 0 1 1 11.413-3.708 6 6 0 0 1-11.413 3.708z" opacity=".407"/><path d="M600.295 82.856a6 6 0 1 1 11.413-3.708 6 6 0 0 1-11.413 3.708z" opacity=".627"/><path d="M575.295 82.856a6 6 0 1 1 11.413-3.708 6 6 0 0 1-11.413 3.708z" opacity=".614"/><path d="M550.295 82.856a6 6 0 1 1 11.413-3.708 6 6 0 0 1-11.413 3.708z" opacity=".156"/><path d="M525.295 82.856a6 6 0 1 1 11.413-3.708 6 6 0 0 1-11.413 3.708z" opacity=".693"/><path d="M500.295 82.856a6 6 0 1 1 11.413-3.708 6 6 0 0 1-11.413 3.708z" opacity=".981"/><path d="M475.295 82.856a6 6 0 1 1 11.413-3.708 6 6 0 0 1-11.413 3.708z" opacity=".113"/><path d="M450.295 82.856a6 6 0 1 1 11.413-3.708 6 6 0 0 1-11.413 3.708z" opacity=".822"/><path d="M425.295 82.856a6 6 0 1 1 11.413-3.708 6 6 0 0 1-11.413 3.708z" opacity=".697"/><path d="M400.295 82.856a6 6 0 1 1 11.413-3.708 6 6 0 0 1-11.413 3.708z" opacity=".554"/><path d="M375.295 82.856a6 6 0 1 1 11.413-3.708 6 6 0 0 1-11.413 3.708z" opacity=".189"/><path d="M350.295 82.856a6 6 0 1 1 11.413-3.708 6 6 0 0 1-11.413 3.708z" opacity=".972"/><path d="M325.295 82.856a6 6 0 1 1 11.413-3.708 6 6 0 0 1-11.413 3.708z" opacity=".868"/><path d="M300.295 82.856a6 6 0 1 1 11.413-3.708 6 6 0 0 1-11.413 3.708z" opacity=".937"/><path d="M250.295 82.856a6 6 0 1 1 11.413-3.708 6 6 0 0 1-11.413 3.708z" opacity=".366"/><path d="M225.295 82.856a6 6 0 1 1 11.413-3.708 6 6 0 0 1-11.413 3.708z" opacity=".319"/><path d="M200.295 82.856a6 6 0 1 1 11.413-3.708 6 6 0 0 1-11.413 3.708z" opacity=".557"/><path d="M175.295 82.856a6 6 0 1 1 11.413-3.708 6 6 0 0 1-11.413 3.708z" opacity=".171"/><path d="M150.295 82.856a6 6 0 1 1 11.413-3.708 6 6 0 0 1-11.413 3.708z" opacity=".38"/><path d="M125.295 82.856a6 6 0 1 1 11.413-3.708 6 6 0 0 1-11.413 3.708z" opacity=".369"/><path d="M100.295 82.856a6 6 0 1 1 11.413-3.708 6 6 0 0 1-11.413 3.708z" opacity=".514"/><path d="M75.295 82.856a6 6 0 1 1 11.413-3.708 6 6 0 0 1-11.413 3.708z" opacity=".183"/><path d="M850.295 57.856a6 6 0 1 1 11.413-3.708 6 6 0 0 1-11.413 3.708z" opacity=".142"/><path d="M825.295 57.856a6 6 0 1 1 11.413-3.708 6 6 0 0 1-11.413 3.708z" opacity=".533"/><path d="M800.295 57.856a6 6 0 1 1 11.413-3.708 6 6 0 0 1-11.413 3.708z" opacity=".937"/><path d="M775.295 57.856a6 6 0 1 1 11.413-3.708 6 6 0 0 1-11.413 3.708z" opacity=".79"/><path d="M725.295 57.856a6 6 0 1 1 11.413-3.708 6 6 0 0 1-11.413 3.708z" opacity=".249"/><path d="M700.295 57.856a6 6 0 1 1 11.413-3.708 6 6 0 0 1-11.413 3.708z" opacity=".586"/><path d="M675.295 57.856a6 6 0 1 1 11.413-3.708 6 6 0 0 1-11.413 3.708z" opacity=".786"/><path d="M650.295 57.856a6 6 0 1 1 11.413-3.708 6 6 0 0 1-11.413 3.708z" opacity=".797"/><path d="M625.295 57.856a6 6 0 1 1 11.413-3.708 6 6 0 0 1-11.413 3.708z" opacity=".598"/><path d="M600.295 57.856a6 6 0 1 1 11.413-3.708 6 6 0 0 1-11.413 3.708z" opacity=".253"/><path d="M575.295 57.856a6 6 0 1 1 11.413-3.708 6 6 0 0 1-11.413 3.708z" opacity=".059"/><path d="M550.295 57.856a6 6 0 1 1 11.413-3.708 6 6 0 0 1-11.413 3.708z" opacity=".219"/><path d="M525.295 57.856a6 6 0 1 1 11.413-3.708 6 6 0 0 1-11.413 3.708z" opacity=".581"/><path d="M500.295 57.856a6 6 0 1 1 11.413-3.708 6 6 0 0 1-11.413 3.708z" opacity=".031"/><path d="M475.295 57.856a6 6 0 1 1 11.413-3.708 6 6 0 0 1-11.413 3.708z" opacity=".214"/><path d="M450.295 57.856a6 6 0 1 1 11.413-3.708 6 6 0 0 1-11.413 3.708z" opacity=".669"/><path d="M425.295 57.856a6 6 0 1 1 11.413-3.708 6 6 0 0 1-11.413 3.708z" opacity=".512"/><path d="M400.295 57.856a6 6 0 1 1 11.413-3.708 6 6 0 0 1-11.413 3.708z" opacity=".613"/><path d="M375.295 57.856a6 6 0 1 1 11.413-3.708 6 6 0 0 1-11.413 3.708z" opacity=".755"/><path d="M350.295 57.856a6 6 0 1 1 11.413-3.708 6 6 0 0 1-11.413 3.708z" opacity=".705"/><path d="M325.295 57.856a6 6 0 1 1 11.413-3.708 6 6 0 0 1-11.413 3.708z" opacity=".25"/><path d="M300.295 57.856a6 6 0 1 1 11.413-3.708 6 6 0 0 1-11.413 3.708z" opacity=".668"/><path d="M250.295 57.856a6 6 0 1 1 11.413-3.708 6 6 0 0 1-11.413 3.708z" opacity=".876"/><path d="M225.295 57.856a6 6 0 1 1 11.413-3.708 6 6 0 0 1-11.413 3.708z" opacity=".211"/><path d="M200.295 57.856a6 6 0 1 1 11.413-3.708 6 6 0 0 1-11.413 3.708z" opacity=".575"/><path d="M175.295 57.856a6 6 0 1 1 11.413-3.708 6 6 0 0 1-11.413 3.708z" opacity=".858"/><path d="M150.295 57.856a6 6 0 1 1 11.413-3.708 6 6 0 0 1-11.413 3.708z" opacity=".418"/><path d="M125.295 57.856a6 6 0 1 1 11.413-3.708 6 6 0 0 1-11.413 3.708z" opacity=".014"/><path d="M100.295 57.856a6 6 0 1 1 11.413-3.708 6 6 0 0 1-11.413 3.708z" opacity=".661"/><path d="M75.295 57.856a6 6 0 1 1 11.413-3.708 6 6 0 0 1-11.413 3.708z" opacity=".866"/><path d="M850.295 32.856a6 6 0 1 1 11.413-3.708 6 6 0 0 1-11.413 3.708z" opacity=".282"/><path d="M825.295 32.856a6 6 0 1 1 11.413-3.708 6 6 0 0 1-11.413 3.708z" opacity=".883"/><path d="M800.295 32.856a6 6 0 1 1 11.413-3.708 6 6 0 0 1-11.413 3.708z" opacity=".055"/><path d="M775.295 32.856a6 6 0 1 1 11.413-3.708 6 6 0 0 1-11.413 3.708z" opacity=".586"/><path d="M725.295 32.856a6 6 0 1 1 11.413-3.708 6 6 0 0 1-11.413 3.708z" opacity=".265"/><path d="M700.295 32.856a6 6 0 1 1 11.413-3.708 6 6 0 0 1-11.413 3.708z" opacity=".02"/><path d="M675.295 32.856a6 6 0 1 1 11.413-3.708 6 6 0 0 1-11.413 3.708z" opacity=".074"/><path d="M650.295 32.856a6 6 0 1 1 11.413-3.708 6 6 0 0 1-11.413 3.708z" opacity=".631"/><path d="M625.295 32.856a6 6 0 1 1 11.413-3.708 6 6 0 0 1-11.413 3.708z" opacity=".265"/><path d="M600.295 32.856a6 6 0 1 1 11.413-3.708 6 6 0 0 1-11.413 3.708z" opacity=".289"/><path d="M575.295 32.856a6 6 0 1 1 11.413-3.708 6 6 0 0 1-11.413 3.708z" opacity=".15"/><path d="M550.295 32.856a6 6 0 1 1 11.413-3.708 6 6 0 0 1-11.413 3.708z" opacity=".617"/><path d="M525.295 32.856a6 6 0 1 1 11.413-3.708 6 6 0 0 1-11.413 3.708z" opacity=".224"/><path d="M500.295 32.856a6 6 0 1 1 11.413-3.708 6 6 0 0 1-11.413 3.708z" opacity=".432"/><path d="M475.295 32.856a6 6 0 1 1 11.413-3.708 6 6 0 0 1-11.413 3.708z" opacity=".047"/><path d="M450.295 32.856a6 6 0 1 1 11.413-3.708 6 6 0 0 1-11.413 3.708z" opacity=".295"/><path d="M425.295 32.856a6 6 0 1 1 11.413-3.708 6 6 0 0 1-11.413 3.708z" opacity=".182"/><path d="M400.295 32.856a6 6 0 1 1 11.413-3.708 6 6 0 0 1-11.413 3.708z" opacity=".227"/><path d="M375.295 32.856a6 6 0 1 1 11.413-3.708 6 6 0 0 1-11.413 3.708z" opacity=".547"/><path d="M350.295 32.856a6 6 0 1 1 11.413-3.708 6 6 0 0 1-11.413 3.708z" opacity=".608"/><path d="M325.295 32.856a6 6 0 1 1 11.413-3.708 6 6 0 0 1-11.413 3.708z" opacity=".042"/><path d="M300.295 32.856a6 6 0 1 1 11.413-3.708 6 6 0 0 1-11.413 3.708z" opacity=".431"/><path d="M275.295 32.856a6 6 0 1 1 11.413-3.708 6 6 0 0 1-11.413 3.708z" opacity=".216"/><path d="M250.295 32.856a6 6 0 1 1 11.413-3.708 6 6 0 0 1-11.413 3.708z" opacity=".403"/><path d="M225.295 32.856a6 6 0 1 1 11.413-3.708 6 6 0 0 1-11.413 3.708z" opacity=".447"/><path d="M200.295 32.856a6 6 0 1 1 11.413-3.708 6 6 0 0 1-11.413 3.708z" opacity=".296"/><path d="M175.295 32.856a6 6 0 1 1 11.413-3.708 6 6 0 0 1-11.413 3.708z" opacity=".095"/><path d="M150.295 32.856a6 6 0 1 1 11.413-3.708 6 6 0 0 1-11.413 3.708z" opacity=".778"/><path d="M125.295 32.856a6 6 0 1 1 11.413-3.708 6 6 0 0 1-11.413 3.708z" opacity=".63"/><path d="M100.295 32.856a6 6 0 1 1 11.413-3.708 6 6 0 0 1-11.413 3.708z" opacity=".049"/><path d="M75.295 32.856a6 6 0 1 1 11.413-3.708 6 6 0 0 1-11.413 3.708z" opacity=".915"/><path d="M50.295 32.856a6 6 0 1 1 11.413-3.708 6 6 0 0 1-11.413 3.708z" opacity=".852"/><path d="M25.295 32.856a6 6 0 1 1 11.413-3.708 6 6 0 0 1-11.413 3.708z" opacity=".926"/><path d="M.295 32.856a6 6 0 1 1 11.413-3.708A6 6 0 0 1 .295 32.856z" opacity=".094"/><path d="M850.295 7.856a6 6 0 1 1 11.413-3.708 6 6 0 0 1-11.413 3.708z" opacity=".414"/><path d="M825.295 7.856a6 6 0 1 1 11.413-3.708 6 6 0 0 1-11.413 3.708z" opacity=".245"/><path d="M800.295 7.856a6 6 0 1 1 11.413-3.708 6 6 0 0 1-11.413 3.708z" opacity=".12"/><path d="M775.295 7.856a6 6 0 1 1 11.413-3.708 6 6 0 0 1-11.413 3.708z" opacity=".774"/><path d="M750.295 7.856a6 6 0 1 1 11.413-3.708 6 6 0 0 1-11.413 3.708z" opacity=".886"/><path d="M725.295 7.856a6 6 0 1 1 11.413-3.708 6 6 0 0 1-11.413 3.708z" opacity=".477"/><path d="M700.295 7.856a6 6 0 1 1 11.413-3.708 6 6 0 0 1-11.413 3.708z" opacity=".665"/><path d="M675.295 7.856a6 6 0 1 1 11.413-3.708 6 6 0 0 1-11.413 3.708z" opacity=".483"/><path d="M650.295 7.856a6 6 0 1 1 11.413-3.708 6 6 0 0 1-11.413 3.708z" opacity=".191"/><path d="M625.295 7.856a6 6 0 1 1 11.413-3.708 6 6 0 0 1-11.413 3.708z" opacity=".395"/><path d="M600.295 7.856a6 6 0 1 1 11.413-3.708 6 6 0 0 1-11.413 3.708z" opacity=".092"/><path d="M575.295 7.856a6 6 0 1 1 11.413-3.708 6 6 0 0 1-11.413 3.708z" opacity=".314"/><path d="M550.295 7.856a6 6 0 1 1 11.413-3.708 6 6 0 0 1-11.413 3.708zm0 125.002a6 6 0 1 1 11.413-3.708 6 6 0 0 1-11.413 3.708z" opacity=".413"/><path d="M525.295 7.856a6 6 0 1 1 11.413-3.708 6 6 0 0 1-11.413 3.708z" opacity=".766"/><path d="M500.295 7.856a6 6 0 1 1 11.413-3.708 6 6 0 0 1-11.413 3.708z" opacity=".262"/><path d="M475.295 7.856a6 6 0 1 1 11.413-3.708 6 6 0 0 1-11.413 3.708z" opacity=".836"/><path d="M450.295 7.856a6 6 0 1 1 11.413-3.708 6 6 0 0 1-11.413 3.708z" opacity=".465"/><path d="M425.295 7.856a6 6 0 1 1 11.413-3.708 6 6 0 0 1-11.413 3.708z" opacity=".796"/><path d="M400.295 7.856a6 6 0 1 1 11.413-3.708 6 6 0 0 1-11.413 3.708z" opacity=".866"/><path d="M375.295 7.856a6 6 0 1 1 11.413-3.708 6 6 0 0 1-11.413 3.708z" opacity=".382"/><path d="M350.295 7.856a6 6 0 1 1 11.413-3.708 6 6 0 0 1-11.413 3.708z" opacity=".186"/><path d="M325.295 7.856a6 6 0 1 1 11.413-3.708 6 6 0 0 1-11.413 3.708z" opacity=".173"/><path d="M300.295 7.856a6 6 0 1 1 11.413-3.708 6 6 0 0 1-11.413 3.708z" opacity=".988"/><path d="M275.295 7.856a6 6 0 1 1 11.413-3.708 6 6 0 0 1-11.413 3.708z" opacity=".244"/><path d="M250.295 7.856a6 6 0 1 1 11.413-3.708 6 6 0 0 1-11.413 3.708z" opacity=".547"/><path d="M225.295 7.856a6 6 0 1 1 11.413-3.708 6 6 0 0 1-11.413 3.708z" opacity=".238"/><path d="M200.295 7.856a6 6 0 1 1 11.413-3.708 6 6 0 0 1-11.413 3.708z" opacity=".868"/><path d="M175.295 7.856a6 6 0 1 1 11.413-3.708 6 6 0 0 1-11.413 3.708z" opacity=".173"/><path d="M150.295 7.856a6 6 0 1 1 11.413-3.708 6 6 0 0 1-11.413 3.708z" opacity=".392"/><path d="M125.295 7.856a6 6 0 1 1 11.413-3.708 6 6 0 0 1-11.413 3.708z" opacity=".975"/><path d="M100.295 7.856a6 6 0 1 1 11.413-3.708 6 6 0 0 1-11.413 3.708z" opacity=".048"/><path d="M75.295 7.856a6 6 0 1 1 11.413-3.708 6 6 0 0 1-11.413 3.708z" opacity=".423"/><path d="M50.295 7.856a6 6 0 1 1 11.413-3.708 6 6 0 0 1-11.413 3.708z" opacity=".409"/><path d="M25.295 7.856a6 6 0 1 1 11.413-3.708 6 6 0 0 1-11.413 3.708z" opacity=".438"/><path d="M.295 7.856a6 6 0 1 1 11.413-3.708A6 6 0 0 1 .295 7.856z" opacity=".156"/></g></svg>