<svg xmlns="http://www.w3.org/2000/svg" xmlns:xlink="http://www.w3.org/1999/xlink" width="77" height="77" viewBox="0 0 77 77">
  <defs>
    <path id="icon-pub-dark-1-copy-a" d="M38.5000017,0 C59.7629645,-3.90594291e-15 77.0000017,17.2370371 77.0000017,38.5 C77.0000017,59.7629629 59.7629645,77 38.5000017,77 C17.2370388,77 1.66893006e-06,59.7629629 1.66893005e-06,38.5 C1.66893005e-06,17.2370371 17.2370388,3.90594291e-15 38.5000017,0 Z"/>
    <linearGradient id="icon-pub-dark-1-copy-c" x1="50%" x2="50%" y1="142.333%" y2="-116.533%">
      <stop offset="0%" stop-color="#273A9B"/>
      <stop offset="56%" stop-color="#202F65"/>
      <stop offset="100%" stop-color="#021E2F"/>
    </linearGradient>
  </defs>
  <g fill="none" fill-rule="evenodd">
    <mask id="icon-pub-dark-1-copy-b" fill="#fff">
      <use xlink:href="#icon-pub-dark-1-copy-a"/>
    </mask>
    <use fill="#DFE6FF" xlink:href="#icon-pub-dark-1-copy-a"/>
    <g mask="url(#icon-pub-dark-1-copy-b)">
      <g transform="matrix(-1 0 0 1 98.667 17.646)">
        <path fill="#FFF" d="M4.16378395,1.0658141e-14 L68.6013669,1.0658141e-14 L68.6013667,1.0658141e-14 C70.9009677,1.0658141e-14 72.7651503,1.8641892 72.7651503,4.16378422 C72.7651503,4.16378422 72.7651503,4.16378422 72.7651503,4.16378422 L72.7651503,47.8228743 L72.7651503,47.8228743 C72.7651503,49.1624443 71.6792153,50.2483793 70.3396453,50.2483793 L4.16378377,50.2483793 L4.16378359,50.2483793 C1.86418251,50.2483793 -5.32907052e-14,48.3841887 -5.32907052e-14,46.0845957 C-5.32907052e-14,46.0845957 -5.32907052e-14,46.0845957 -5.32907052e-14,46.0845957 L-5.32907052e-14,4.16378422 L-5.32907052e-14,4.16378359 C-5.32907052e-14,1.86418251 1.86419059,1.0658141e-14 4.16378359,1.0658141e-14 L4.16378395,1.0658141e-14 Z"/>
        <path fill="url(#icon-pub-dark-1-copy-c)" fill-rule="nonzero" d="M28.5805342,18.1188649 L4.16378395,18.1188649 C1.86418894,18.1188649 3.64009658e-07,14.9587531 3.64009658e-07,11.0605326 L3.64009658e-07,0.473031584 L72.7651503,0.473031584 L72.7651503,11.0605316 C72.7651503,14.9587429 70.9009677,18.1188649 68.6013669,18.1188649 L44.1644038,18.1188649 L44.1644038,21.4010871 C44.1644038,23.7561203 45.3317852,25.6652537 46.7718218,25.6652538 C48.0306933,25.8470263 49.0286204,27.4790485 49.1397817,29.5378113 C49.2664537,31.8837244 48.2062776,33.9533833 46.7718218,34.1605316 L25.9731164,34.1605316 C24.7142429,33.9787591 23.7163178,32.3467369 23.6051565,30.2879741 C23.4784845,27.942061 24.5386606,25.8724021 25.9731163,25.6652538 C27.4131528,25.6652538 28.5805342,23.7561203 28.5805342,21.4010871 L28.5805342,18.1188649 Z" transform="translate(0 41.104)"/>
        <g transform="translate(51.654 12.192)">
          <path fill="#157AEE" fill-rule="nonzero" d="M5.82983533,62.6113572 C2.61012766,62.6113572 0,60.0012295 0,56.7815218 L0,5.82983533 C0,2.61012766 2.61012766,7.10542736e-15 5.82983533,7.10542736e-15 L24.1127509,7.10542736e-15 C27.3324585,7.10542736e-15 29.9425862,2.61012766 29.9425862,5.82983533 L29.9425862,56.7815218 C29.9425862,60.0012295 27.3324585,62.6113572 24.1127509,62.6113572 L5.82983533,62.6113572 Z"/>
          <path fill="#DFE6FF" fill-rule="nonzero" d="M24.2852312,3.32901558 L20.6631442,3.32901558 L20.6631442,3.32901558 C20.0683285,3.32374008 19.5327805,3.76251351 19.3177976,4.4312541 L19.2143094,4.76400536 L19.2143094,4.76400531 C18.9993265,5.43274591 18.4637785,5.87152003 17.8689628,5.86624384 L12.0736235,5.86624384 L12.0736236,5.86624384 C11.4788079,5.87151934 10.9432599,5.43274591 10.728277,4.76400531 L10.6247888,4.43125406 L10.6247888,4.43125421 C10.4054577,3.74798279 9.85228907,3.30610369 9.24494614,3.32901569 L5.6228591,3.32901569 L5.622859,3.32901569 C4.33687322,3.32901576 3.29437447,4.58601682 3.29437447,6.13660439 C3.29437447,6.13660439 3.29437447,6.13660439 3.29437447,6.13660439 L3.29437447,48.645577 L3.29437447,48.6455765 C3.29437447,50.1961641 4.33687149,51.4531652 5.622859,51.4531652 C5.622859,51.4531652 5.622859,51.4531652 5.622859,51.4531652 L24.2852313,51.4531652 L24.2852312,51.4531652 C25.5712169,51.4531652 26.6137157,50.1961641 26.6137157,48.6455765 C26.6137157,48.6455765 26.6137157,48.6455765 26.6137157,48.6455765 L26.6137157,6.13660396 L26.6137157,6.13660396 C26.6137157,4.5860164 25.5712169,3.32901526 24.2852312,3.32901526 C24.2852312,3.32901526 24.2852312,3.32901526 24.2852312,3.32901526 L24.2852312,3.32901558 Z"/>
        </g>
      </g>
    </g>
  </g>
</svg>
