<svg xmlns="http://www.w3.org/2000/svg" width="66" height="58" viewBox="0 0 66 58">
  <g fill="none">
    <path fill="#657386" d="M9.44932743,31.6791682 L14.175328,31.6791682 L14.175328,34 L9.44932743,34 L9.44932743,31.6791682 Z M12.8724156,9.4489417 L10.5978704,9.91028593 C10.4876238,9.37066469 10.4325016,8.81366506 10.4325016,8.25666543 C10.4325016,6.95699963 10.7255325,5.71533606 11.3057641,4.56071296 L13.3801154,5.60215373 C12.9652526,6.42896398 12.7534653,7.32246565 12.7534653,8.25659116 C12.7534653,8.6569625 12.7940834,9.05730412 12.8724156,9.4489417 Z M1.97175609e-13,31.6791682 L4.72600057,31.6791682 L4.72600057,34 L1.97175609e-13,34 L1.97175609e-13,31.6791682 Z M26.6761725,23.8900854 L28.997099,23.8233569 L29,24.0960564 C29,25.79899 28.5590611,27.4786781 27.7264241,28.9553212 L25.7042843,27.8151801 C26.3425428,26.6866988 26.6790735,25.401515 26.6790735,24.0960564 L26.6761725,23.8900854 Z M19.0954694,31.6791682 C20.4155382,31.6791682 21.7123605,31.3339696 22.8466809,30.6870405 L23.9984546,32.7032306 C22.5130616,33.5503379 20.8187481,34 19.0954694,34 L18.9010909,34 L18.9010909,31.6791682 L19.0954694,31.6791682 Z M23.5226832,15.2335685 C25.1241596,16.0342369 26.4818831,17.2584478 27.4479827,18.7728184 L25.4926114,20.0202748 C24.7528114,18.8627553 23.7112538,17.9257482 22.4840964,17.3107315 L23.5226832,15.2335685 Z M20.2822984,-5.70654635e-14 L20.2822984,2.32371333 L18.6895858,2.32371333 C17.8018407,2.32371333 16.9488538,2.5122837 16.1539457,2.88941701 L15.1617775,0.791979205 C16.2700292,0.266899369 17.4565611,-5.70654635e-14 18.6895858,-5.70654635e-14 L20.2822984,-5.70654635e-14 Z M13.348484,14.551801 L14.8512486,12.7850724 C15.8753528,13.6524619 17.1257566,14.1398388 18.466101,14.1891571 L18.3790644,16.5070925 C16.53688,16.4375046 14.752626,15.7441515 13.348484,14.551801 Z" opacity=".246" transform="translate(23 24)"/>
    <path fill="#233651" d="M14.4724032 16.7475152C22.4240161 16.7475152 28.8297419 22.5708182 28.8297419 29.7228939L28.8297419 30.5540227.169790323 30.5540227C.114975645 30.2769767.114975645 29.9999212.114975645 29.7228939.114975645 22.5694091 6.57542726 16.7475152 14.4723144 16.7475152L14.4724032 16.7475152zM21.5965806 7.59781818C21.5965806 11.5480636 18.4064403 14.751303 14.472871 14.751303 10.5393016 14.751303 7.34916129 11.5478288 7.34916129 7.59781818 7.34916129 3.64757273 10.5393016.444333333 14.472871.444333333 18.4064403.444333333 21.5965806 3.64780758 21.5965806 7.59781818" transform="translate(0 27)"/>
    <path fill="#AEC1E1" d="M9.98096774 11.3450909C15.4648387 11.3450909 19.8825806 15.2899091 19.8825806 20.1348636L19.8825806 20.6978864.117096774 20.6978864C.0792935484 20.51021.0792935484 20.3225273.0792935484 20.1348636.0792935484 15.2889545 4.53477742 11.3450909 9.98090645 11.3450909L9.98096774 11.3450909zM14.8941935 5.14690909C14.8941935 7.82288182 12.6940968 9.99281818 9.98129032 9.99281818 7.26848387 9.99281818 5.0683871 7.82272273 5.0683871 5.14690909 5.0683871 2.47093636 7.26848387.301 9.98129032.301 12.6940968.301 14.8941935 2.47109545 14.8941935 5.14690909" transform="translate(46)"/>
  </g>
</svg>
