<svg xmlns="http://www.w3.org/2000/svg" width="50" height="50"><g fill="none"><path fill="#3D3F5B" d="M25 50C11.215 50 0 38.785 0 25S11.215 0 25 0s25 11.215 25 25-11.215 25-25 25zm0-47.765C12.447 2.235 2.235 12.448 2.235 25c0 12.553 10.213 22.765 22.765 22.765 12.553 0 22.765-10.212 22.765-22.765S37.553 2.235 25 2.235z"/><path fill="#028DFF" fill-opacity=".76" d="M35.506 29.45l-2.574 1.096a1.118 1.118 0 0 1-.876-2.057l4.85-2.066a1.119 1.119 0 0 1 1.466.59l2.065 4.85a1.118 1.118 0 1 1-2.056.876l-.924-2.17c-2.167 4.861-7.066 8.163-12.553 8.163-6.471 0-12.125-4.592-13.443-10.92a1.118 1.118 0 0 1 2.189-.455c1.103 5.296 5.836 9.14 11.254 9.14 4.674 0 8.839-2.861 10.602-7.048zm-21.205-8.9l2.575-1.096a1.118 1.118 0 0 1 .876 2.056l-4.85 2.066a1.116 1.116 0 0 1-1.466-.59l-2.065-4.85a1.117 1.117 0 1 1 2.056-.875l.924 2.169c2.167-4.861 7.066-8.162 12.553-8.162 6.471 0 12.125 4.592 13.443 10.919a1.118 1.118 0 0 1-2.189.456c-1.103-5.296-5.836-9.14-11.254-9.14-4.674 0-8.84 2.861-10.603 7.047z"/></g></svg>