<svg xmlns="http://www.w3.org/2000/svg" xmlns:xlink="http://www.w3.org/1999/xlink" width="48" height="48" viewBox="0 0 48 48">
  <defs>
    <path id="icon-dropdown-1-a" d="M24,0 C37.254834,-2.4348735e-15 48,10.745166 48,24 C48,37.254834 37.254834,48 24,48 C10.745166,48 1.623249e-15,37.254834 0,24 C-1.623249e-15,10.745166 10.745166,2.4348735e-15 24,0 Z"/>
    <linearGradient id="icon-dropdown-1-c" x1="50%" x2="50%" y1="142.333%" y2="-116.533%">
      <stop offset="0%" stop-color="#273A9B"/>
      <stop offset="56%" stop-color="#202F65"/>
      <stop offset="100%" stop-color="#021E2F"/>
    </linearGradient>
    <linearGradient id="icon-dropdown-1-d" x1="50.002%" x2="50.002%" y1="-274.002%" y2="-1100.002%">
      <stop offset="0%" stop-color="#FFF"/>
      <stop offset="52%" stop-color="#CCE2E6"/>
      <stop offset="100%" stop-color="#8FA1BB"/>
    </linearGradient>
  </defs>
  <g fill="none" fill-rule="evenodd">
    <mask id="icon-dropdown-1-b" fill="#fff">
      <use xlink:href="#icon-dropdown-1-a"/>
    </mask>
    <use fill="#DFEEFE" xlink:href="#icon-dropdown-1-a"/>
    <g mask="url(#icon-dropdown-1-b)">
      <g transform="translate(11 11)">
        <path fill="#8EC3FB" d="M4,14 L38,14 L38,35.5999996 C38,38.5823375 35.5823375,41 32.5999996,41 L9.40000043,41 C6.41766254,41 4,38.5823375 4,35.5999996 L4,14 Z"/>
        <path fill="#FFF" d="M37.3312709,5 L3.66872928,5 L0.29271786,11.7692306 L0.292717753,11.7692308 C0.11047851,12.1382188 0.00946356497,12.5614086 0,12.9955407 L0,15.0925305 L0,15.0925307 C0,15.5937125 0.323266754,16 0.722037125,16 L40.2779629,16 L40.2779628,16 C40.6767332,16 41,15.5937125 41,15.0925307 C41,15.0925307 41,15.0925307 41,15.0925307 L41,13.0323301 L41,13.0323314 C40.9905364,12.5981993 40.8895225,12.1750096 40.7072832,11.8060215 L37.3312709,5 Z"/>
        <path fill="url(#icon-dropdown-1-c)" fill-rule="nonzero" d="M5.8269566,0 L35.1730436,0 L35.1730435,0 C36.18204,0 37,0.570090667 37,1.27333333 L37,4 L4,4 L4,1.27333333 L4,1.27333353 C4,0.570093526 4.81795617,0 5.82695652,0 L5.8269566,0 Z"/>
        <path fill="#157AEE" fill-rule="nonzero" d="M0.00116288055,12.7441819 L0.00116288055,15.0166099 L0.00116288055,15.0166101 C0.00116294078,15.5597217 0.324574252,16 0.723523019,16 L40.2776214,16 L40.2776214,16 C40.6765701,16 41,15.5597217 41,15.0166101 C41,15.0166101 41,15.0166101 41,15.0166101 L41,12.744182 L41,12.744187 C41.0007997,12.4922624 40.9744895,12.2415352 40.9218897,12 L0.0597337453,12 L0.0597336871,12 C0.014523704,12.2430584 -0.00519497066,12.4936022 0.00116404373,12.744182 L0.00116288055,12.7441819 Z"/>
        <path fill="url(#icon-dropdown-1-d)" fill-rule="nonzero" d="M1.7071069.292893098C2.09763103.683417228 2.09763103 1.31658277 1.7071069 1.7071069 1.31658277 2.09763103.683417228 2.09763103.292893098 1.7071069-.0976310325 1.31658277-.0976310325.683417228.292893098.292893098.683417228-.0976310325 1.31658277-.0976310325 1.7071069.292893098M5.7071069.292893098C6.09763103.683417228 6.09763103 1.31658277 5.7071069 1.7071069 5.31658277 2.09763103 4.68341723 2.09763103 4.2928931 1.7071069 3.90236897 1.31658277 3.90236897.683417228 4.2928931.292893098 4.68341723-.0976310325 5.31658277-.0976310325 5.7071069.292893098M9.7071069.292893098C10.097631.683417228 10.097631 1.31658277 9.7071069 1.7071069 9.31658277 2.09763103 8.68341723 2.09763103 8.2928931 1.7071069 7.90236897 1.31658277 7.90236897.683417228 8.2928931.292893098 8.68341723-.0976310325 9.31658277-.0976310325 9.7071069.292893098" transform="translate(7 1)"/>
        <path fill="#DFE6FF" fill-rule="nonzero" d="M11.4195581,22 L15.58072,22 L15.5807198,22 C16.916852,22 18,23.3644648 18,25.047619 L18,38 L9.00027784,38 L9.00027784,25.0933333 L9.00027776,25.0933266 C8.98023874,23.4103551 10.0470204,22.0255932 11.3830026,22.0003437 C11.3951889,22 11.4073763,22 11.419564,22 L11.4195581,22 Z"/>
      </g>
    </g>
  </g>
</svg>
