<svg xmlns="http://www.w3.org/2000/svg" xmlns:xlink="http://www.w3.org/1999/xlink" width="77" height="77" viewBox="0 0 77 77">
  <defs>
    <path id="icon-natl-dark-1-a" d="M38.5,0 C59.7629629,-3.90594291e-15 77,17.2370371 77,38.5 C77,59.7629629 59.7629629,77 38.5,77 C17.2370371,77 2.60396194e-15,59.7629629 0,38.5 C-2.60396194e-15,17.2370371 17.2370371,3.90594291e-15 38.5,0 Z"/>
    <linearGradient id="icon-natl-dark-1-c" x1="50%" x2="50%" y1="142.333%" y2="-116.533%">
      <stop offset="0%" stop-color="#273A9B"/>
      <stop offset="56%" stop-color="#202F65"/>
      <stop offset="100%" stop-color="#021E2F"/>
    </linearGradient>
    <linearGradient id="icon-natl-dark-1-d" x1="50.002%" x2="50.002%" y1="-274.002%" y2="-1100.002%">
      <stop offset="0%" stop-color="#FFF"/>
      <stop offset="52%" stop-color="#CCE2E6"/>
      <stop offset="100%" stop-color="#8FA1BB"/>
    </linearGradient>
  </defs>
  <g fill="none" fill-rule="evenodd">
    <mask id="icon-natl-dark-1-b" fill="#fff">
      <use xlink:href="#icon-natl-dark-1-a"/>
    </mask>
    <use fill="#DFE6FF" xlink:href="#icon-natl-dark-1-a"/>
    <g mask="url(#icon-natl-dark-1-b)">
      <g transform="translate(17.646 17.646)">
        <path fill="#8EC3FB" d="M6.41666681,22.4583338 L60.9583347,22.4583338 L60.9583347,57.1083339 C60.9583347,61.892501 57.0800009,65.7708348 52.2958338,65.7708348 L15.0791677,65.7708348 C10.2950006,65.7708348 6.41666681,61.892501 6.41666681,57.1083339 L6.41666681,22.4583338 Z"/>
        <path fill="#FFF" d="M59.8855818,8.02083351 L5.88525335,8.02083351 L0.469568244,18.8798078 L0.469568073,18.8798081 C0.177225947,19.4717265 0.0151811358,20.1505933 0,20.8470136 L0,24.2109349 L0,24.2109352 C0,25.0149143 0.518573762,25.6666672 1.15826791,25.6666672 L64.6125668,25.6666672 L64.6125668,25.6666672 C65.2522609,25.6666672 65.7708348,25.0149143 65.7708348,24.2109352 C65.7708348,24.2109352 65.7708348,24.2109352 65.7708348,24.2109352 L65.7708348,20.90603 L65.7708348,20.9060321 C65.7556536,20.2096119 65.5936104,19.530745 65.3012683,18.9388266 L59.8855818,8.02083351 Z"/>
        <path fill="url(#icon-natl-dark-1-c)" fill-rule="nonzero" d="M9.34740975,0 L56.4234253,0 L56.4234251,0 C58.0420238,0 59.354168,0.914520464 59.354168,2.04263893 L59.354168,6.41666681 L6.41666681,6.41666681 L6.41666681,2.04263893 L6.41666681,2.04263924 C6.41666681,0.91452505 7.72880486,0 9.34740962,0 L9.34740975,0 Z"/>
        <path fill="#157AEE" fill-rule="nonzero" d="M0.00186545425,20.4437922 L0.00186545425,24.0891456 L0.00186545425,24.0891459 C0.00186555088,24.9603875 0.520671208,25.6666672 1.16065153,25.6666672 L64.6120191,25.6666672 L64.612019,25.6666672 C65.2519993,25.6666672 65.7708348,24.9603875 65.7708348,24.0891459 C65.7708348,24.0891459 65.7708348,24.0891459 65.7708348,24.0891459 L65.7708348,20.4437925 L65.7708348,20.4438004 C65.7721176,20.0396714 65.7299117,19.6374631 65.6455328,19.2500004 L0.0958228852,19.2500004 L0.0958227917,19.2500004 C0.0232984424,19.6399066 -0.00833359894,20.0418207 0.0018673202,20.4437923 L0.00186545425,20.4437922 Z"/>
        <path fill="url(#icon-natl-dark-1-d)" fill-rule="nonzero" d="M2.73848405.469849354C3.36494985 1.09631516 3.36494985 2.11201824 2.73848405 2.73848405 2.11201824 3.36494985 1.09631516 3.36494985.469849354 2.73848405-.156616451 2.11201824-.156616451 1.09631516.469849354.469849354 1.09631516-.156616451 2.11201824-.156616451 2.73848405.469849354M9.15515085.469849354C9.78161666 1.09631516 9.78161666 2.11201824 9.15515085 2.73848405 8.52868505 3.36494985 7.51298197 3.36494985 6.88651616 2.73848405 6.26005035 2.11201824 6.26005035 1.09631516 6.88651616.469849354 7.51298197-.156616451 8.52868505-.156616451 9.15515085.469849354M15.5718177.469849354C16.1982835 1.09631516 16.1982835 2.11201824 15.5718177 2.73848405 14.9453519 3.36494985 13.9296488 3.36494985 13.303183 2.73848405 12.6767172 2.11201824 12.6767172 1.09631516 13.303183.469849354 13.9296488-.156616451 14.9453519-.156616451 15.5718177.469849354" transform="translate(11.23 1.604)"/>
        <path fill="#DFEEFE" d="M18.3188748,35.2916674 L24.9940721,35.2916674 L24.994072,35.2916674 C27.1374507,35.2916674 28.8750006,37.4804964 28.8750006,40.1805564 L28.8750006,60.9583347 L14.437946,60.9583347 L14.437946,40.2538898 L14.4379459,40.2538789 C14.4058,37.5541122 16.1170956,35.3327232 18.2602337,35.2922188 C18.2797825,35.2916674 18.2993333,35.2916674 18.3188842,35.2916674 L18.3188748,35.2916674 Z"/>
      </g>
    </g>
  </g>
</svg>
