<svg xmlns="http://www.w3.org/2000/svg" width="69" height="69" viewBox="0 0 69 69">
  <g fill="none" fill-rule="evenodd">
    <path fill="#E9E7F5" d="M34.5,0 C53.5538239,-3.50013066e-15 69,15.4461761 69,34.5 C69,53.5538239 53.5538239,69 34.5,69 C15.4461761,69 2.33342044e-15,53.5538239 0,34.5 C-2.33342044e-15,15.4461761 15.4461761,3.50013066e-15 34.5,0 Z"/>
    <path stroke="#6953BC" stroke-linecap="round" stroke-linejoin="round" stroke-width="2.917" d="M23.79161 26.62493L23.79161 23.70827 23.79161 23.70827C23.79161 20.4866149 21.1799451 17.87495 17.95829 17.87495L6.29165 17.87495 6.29164975 17.87495C3.06999461 17.87495.458329745 20.4866149.458329745 23.70827.458329745 23.70827.458329745 23.70827.458329745 23.70827L.458329745 26.62493M16.2497106 2.08352568C18.5277679 4.36158297 18.5277679 8.05503703 16.2497106 10.3330797 13.9716533 12.611137 10.2781992 12.611137 8.00015651 10.3330797 5.72209922 8.05502245 5.72209922 4.36156839 8.00015651 2.08352568 10.2782138-.194531615 13.9716679-.194531615 16.2497106 2.08352568M32.5415902 26.62493L32.5415902 23.70827 32.5415902 23.708593C32.5397545 21.0502324 30.7408298 18.729344 28.1669065 18.064608M22.33328.5645729L22.33328.5645729C25.4542524 1.36366929 27.3365189 4.54151182 26.5374124 7.66249844 26.0089486 9.72648747 24.3972548 11.3381755 22.33328 11.8666305" transform="translate(18 21)"/>
  </g>
</svg>
