<svg height="606" width="736" xmlns="http://www.w3.org/2000/svg" xmlns:xlink="http://www.w3.org/1999/xlink"><filter id="a" height="146.7%" width="130.2%" x="-15.1%" y="-23.4%"><feOffset dy="32" in="SourceAlpha" result="shadowOffsetOuter1"/><feGaussianBlur in="shadowOffsetOuter1" result="shadowBlurOuter1" stdDeviation="22"/><feColorMatrix in="shadowBlurOuter1" result="shadowMatrixOuter1" values="0 0 0 0 0.1033364 0 0 0 0 0.445209462 0 0 0 0 0.844061368 0 0 0 0.306490385 0"/><feMerge><feMergeNode in="shadowMatrixOuter1"/><feMergeNode in="SourceGraphic"/></feMerge></filter><linearGradient id="b" x1="50%" x2="54.261%" y1="30.449%" y2="68.258%"><stop offset="0" stop-color="#6ca1ff"/><stop offset="1" stop-color="#506ffd"/></linearGradient><g fill="none" fill-rule="evenodd"><path d="m228.819 68h679.181c25.957 0 47 21.043 47 47v531c0 25.957-21.043 47-47 47h-871.784c-25.957 0-47-21.043-47-47a47 47 0 0 1 2.817-16.026l192.603-531c6.743-18.593 24.404-30.974 44.183-30.974z" fill="#0206fd" opacity=".08"/><g filter="url(#a)" transform="translate(44 12)"><path d="m241.819 0h679.181c25.957 0 47 21.043 47 47v531c0 25.957-21.043 47-47 47h-871.784c-25.957 0-47-21.043-47-47a47 47 0 0 1 2.817-16.026l192.603-531c6.743-18.593 24.404-30.974 44.183-30.974z" fill="url(#b)"/></g></g></svg>