<svg xmlns="http://www.w3.org/2000/svg" width="69" height="69" viewBox="0 0 69 69">
  <g fill="none" fill-rule="evenodd">
    <path fill="#DAF7FB" d="M34.5,0 C53.5538239,-3.50013066e-15 69,15.4461761 69,34.5 C69,53.5538239 53.5538239,69 34.5,69 C15.4461761,69 2.33342044e-15,53.5538239 0,34.5 C-2.33342044e-15,15.4461761 15.4461761,3.50013066e-15 34.5,0 Z"/>
    <path stroke="#23AFD6" stroke-linecap="round" stroke-linejoin="round" stroke-width="2.917" d="M17.5623303 8.43758971C18.7013575 9.5766169 18.7013575 11.4233454 17.5623303 12.562374 16.4233031 13.7014012 14.5765746 13.7014012 13.437546 12.562374 12.2985188 11.4233468 12.2985188 9.57661836 13.437546 8.43758971 14.5765732 7.29856253 16.4233016 7.29856253 17.5623303 8.43758971M21.6832788 4.3166408L21.6832788 4.3166408C25.1022613 7.73181668 25.1053384 13.2719978 21.6901621 16.6909795 21.6878689 16.6932752 21.6855745 16.6955696 21.6832788 16.6978628M9.3166406 16.6832795L9.3166406 16.6832795C5.89765851 13.2681038 5.89458144 7.7279227 9.30975737 4.30894093 9.31205051 4.30664524 9.31434491 4.30435083 9.3166406 4.3020577M25.8103525.18956665L25.8103525.18956665C31.5034103 5.8843453 31.5034103 15.1155742 25.8103525 20.8103529M5.18956792 20.8103536L5.18956792 20.8103536C-.503489897 15.115575-.503489897 5.88434607 5.18956792.189567424" transform="translate(19 24)"/>
  </g>
</svg>
