<?xml version="1.0" encoding="UTF-8"?>
<svg width="101px" height="33px" viewBox="0 0 101 33" version="1.1" xmlns="http://www.w3.org/2000/svg" xmlns:xlink="http://www.w3.org/1999/xlink">
    <!-- Generator: Sketch 44.1 (41455) - http://www.bohemiancoding.com/sketch -->
    <title>empyr_logo-white</title>
    <desc>Created with Sketch.</desc>
    <defs></defs>
    <g id="Page-1" stroke="none" stroke-width="1" fill="none" fill-rule="evenodd">
        <g id="Desktop-HD" transform="translate(-162.000000, -33.000000)" fill="#FFFFFF">
            <g id="empyr_logo-white" transform="translate(162.000000, 33.000000)">
                <path d="M58.6599353,16.072878 C57.9257077,19.3951463 57.1854089,21.0821707 55.1763552,21.0821707 C54.6543379,21.0821707 54.2422432,20.9062602 53.9511093,20.5593577 C53.5155583,20.0403902 53.3907341,19.1502846 53.6088315,18.1168211 L54.5871885,13.5736423 C55.0268789,12.0065447 56.0698097,11.033 57.3094053,11.033 C57.961674,11.033 58.3981448,11.192813 58.6832996,11.5358699 C59.2243579,12.1865691 59.217367,13.5435935 58.6599353,16.072878 Z M60.978612,6.47282927 C59.0184026,6.47282927 57.3632168,7.13560163 56.0730291,8.24570732 L55.6814472,8.56998374 L56.0072596,7.07156911 L49.938429,7.10492683 L44.7135647,30.9324472 C44.5969271,31.464561 44.7030783,31.9623333 45.0124253,32.3342764 C45.3217723,32.7057724 45.8004645,32.9105691 46.3600118,32.9105691 L50.4954007,32.9105691 L52.3696958,24.8498049 L52.5287386,24.8873659 C53.0871821,25.0192764 53.511051,25.1328537 53.851673,25.2241626 C54.8332495,25.4873577 55.2393652,25.5961951 56.7127878,25.5961951 C59.5805255,25.5961951 63.6025883,24.6434878 65.4124016,16.4060976 C66.2819399,12.4414472 66.0386384,9.60899187 64.6891202,7.98760976 C63.8526047,6.98258537 62.6042705,6.47282927 60.978612,6.47282927 L60.978612,6.47282927 Z" id="Fill-1"></path>
                <path d="M38.5326958,22.9871382 C38.4133907,23.519252 38.5171503,24.0167561 38.8248415,24.3881626 C39.1320729,24.7593008 39.6092933,24.963561 40.1685647,24.963561 L44.3030337,24.963561 L47.198459,12.1176179 C47.6263752,10.1890407 47.4317341,8.66317073 46.6361521,7.70482927 C45.9573916,6.88734146 44.8529226,6.47282927 43.3533761,6.47282927 C41.2068042,6.47282927 39.2570811,7.0411626 37.5265592,8.43977236 L37.3628251,8.57221951 L37.2765428,8.38298374 C36.6276776,6.96434146 35.4134699,6.47282927 33.3756248,6.47282927 C31.5145756,6.47282927 29.6961157,7.37947967 28.4613953,8.31170732 L28.1163579,8.57221951 L28.4618552,7.10555285 L22.1847696,7.10555285 L18.5824362,22.9868699 C18.4615674,23.5194309 18.5642231,24.0172033 18.8713625,24.3887886 C19.177582,24.7595691 19.6542505,24.963561 20.2129699,24.963561 L24.347531,24.963561 L27.3825902,11.7063252 C28.0594189,11.2442358 28.7370756,11.0100163 29.3965191,11.0100163 C29.9757514,11.0100163 30.3956648,11.1669675 30.6445774,11.4766667 C30.9163944,11.8147154 30.9700219,12.3143659 30.805184,12.957374 L28.5548525,22.9871382 C28.4356393,23.519252 28.5392149,24.0167561 28.8469982,24.3881626 C29.1544135,24.7593008 29.6314499,24.963561 30.1908133,24.963561 L34.3252823,24.963561 L37.3550984,11.7449593 C38.0333989,11.2434309 38.6751812,11.0100163 39.3742705,11.0100163 C39.9535027,11.0100163 40.3733242,11.1669675 40.6222368,11.4766667 C40.8940537,11.8147154 40.9477732,12.3143659 40.7829353,12.957374 L38.5326958,22.9871382" id="Fill-2"></path>
                <path d="M18.931429,4.6825122 C19.9478679,4.6825122 20.9468297,3.8963252 21.1582122,2.93065041 L21.7743306,0.0504390244 L5.45114845,0.0504390244 L0,24.9903008 L14.8546348,24.9903008 C15.8710738,24.9903008 16.8704035,24.203935 17.081878,23.2374553 L17.7118862,20.3582276 L7.5383898,20.3582276 L8.79785428,14.6435041 L16.8061976,14.6435041 L17.7845546,10.1166911 L9.77538342,10.1166911 L10.9621794,4.6825122 L18.931429,4.6825122" id="Fill-3"></path>
                <path d="M94.4487978,7.97804065 L93.6871585,8.55433333 L94.0229053,7.07022764 L87.7593415,7.07022764 L84.1560883,22.9514553 C84.0352195,23.4840163 84.1378752,23.9819675 84.4447386,24.3535528 C84.7512341,24.7241545 85.2276266,24.9283252 85.7864381,24.9283252 L89.9209991,24.9283252 L92.6771585,12.9141789 C93.6788798,12.0166504 94.6548452,11.5018862 95.798224,11.5018862 C96.3860109,11.5018862 97.2580328,11.9183659 97.5864208,12.0865854 L100.946648,7.35739024 C100.476603,7.1254065 99.8842168,6.47282927 98.2266393,6.47282927 C97.2166393,6.47282927 96.0686612,6.86069106 94.4487978,7.97804065" id="Fill-4"></path>
                <polyline id="Fill-5" points="80.1904126 7.09938211 74.9908443 16.6886992 72.2867486 7.06486179 66.104592 7.06486179 71.0940656 23.8750976 66.1947377 32.9105691 72.5380528 32.9105691 86.5825719 7.09938211 80.1904126 7.09938211"></polyline>
            </g>
        </g>
    </g>
</svg>