<svg xmlns="http://www.w3.org/2000/svg" xmlns:xlink="http://www.w3.org/1999/xlink" width="850" height="494"><defs><path id="a" d="M0 0.091L36.77 0.091 36.77 36.912 0 36.912z"/><path id="c" d="M0.137 28.431L235.866 123.123 247.099 95.042 11.369 0.351z"/><linearGradient id="d" x1="2.274%" x2="97.726%" y1="40.469%" y2="59.531%"><stop offset="0%" stop-color="#D4EEFF"/><stop offset="100%" stop-color="#D4EEFF"/></linearGradient><path id="f" d="M0.209 23.274L196.476 102.114 205.658 79.159 9.39 0.32z"/><linearGradient id="g" x1="2.235%" x2="97.765%" y1="40.493%" y2="59.507%"><stop offset="0%" stop-color="#D4EEFF"/><stop offset="100%" stop-color="#D4EEFF"/></linearGradient><path id="i" d="M0.268 0.385L159.939 0.385 159.939 160.396 0.268 160.396z"/><path id="k" d="M0.432 0.149L626.976 0.149 626.976 2.519 0.432 2.519z"/><linearGradient id="m" x1="50.954%" x2="49.764%" y1="-25.777%" y2="68.741%"><stop offset="0%" stop-color="#151686"/><stop offset="100%" stop-color="#2438B6"/></linearGradient><linearGradient id="n" x1="50.954%" x2="49.765%" y1="-25.777%" y2="68.741%"><stop offset="0%" stop-color="#151686"/><stop offset="100%" stop-color="#2438B6"/></linearGradient><path id="o" d="M56.741.435v9.604a80.573 80.573 0 0 0-11.056 7.064c-14.651 11.11-25.868 27.021-33.661 47.72C4.235 85.53.339 110.149.339 138.677c0 28.282 3.942 52.834 11.84 73.664 7.894 20.834 19.167 36.741 33.818 47.725a81.574 81.574 0 0 0 10.744 6.827v9.649h40.831c19.734 0 36.874-5.492 51.42-16.476 14.54-10.984 25.762-26.89 33.662-47.725 7.893-20.83 11.84-45.382 11.84-73.664 0-28.528-3.896-53.146-11.685-73.854-7.793-20.699-18.964-36.61-33.505-47.72C134.758 5.993 117.518.435 97.572.435h-40.83z"/><linearGradient id="p" x1="50.807%" x2="49.701%" y1="94.269%" y2="33.7%"><stop offset="0%" stop-color="#151686"/><stop offset="100%" stop-color="#2438B6"/></linearGradient><path id="r" d="M0.432 45.805L3.603 89.887 20.427 76.942 16.031 0.021z"/></defs><g fill="none" fill-rule="evenodd"><path fill="#C3E4FF" d="M221.742 42.958c0 10.168-8.23 18.41-18.384 18.41s-18.385-8.242-18.385-18.41 8.231-18.41 18.385-18.41c10.153 0 18.384 8.242 18.384 18.41m513.81 193.763c0 10.168-8.232 18.41-18.386 18.41-10.153 0-18.384-8.242-18.384-18.41s8.23-18.41 18.384-18.41 18.385 8.242 18.385 18.41"/><path fill="#D6EEFF" d="M823.004 42.958c0 10.168-8.23 18.41-18.385 18.41-10.153 0-18.384-8.242-18.384-18.41s8.23-18.41 18.384-18.41 18.385 8.242 18.385 18.41"/><g transform="translate(0 192.532)"><mask id="b" fill="#fff"><use xlink:href="#a"/></mask><path fill="#D6EEFF" d="M36.77 18.502c0 10.168-8.232 18.41-18.385 18.41C8.231 36.912 0 28.67 0 18.502S8.23.092 18.385.092c10.153 0 18.385 8.242 18.385 18.41" mask="url(#b)"/></g><path fill="#C3E4FF" d="M395.937 345.458c0 .881-.06 1.748-.181 2.594-1.152 8.2-7.706 14.667-15.945 15.68-.74.09-1.494.136-2.258.136-10.156 0-18.384-8.24-18.384-18.41 0-4.302 1.468-8.256 3.933-11.388 3.36-4.262 8.55-7.002 14.39-7.022h.06c10.156 0 18.385 8.24 18.385 18.41"/><path fill="#D6EEFF" d="M395.756 348.052c-1.152 8.2-7.706 14.667-15.945 15.68a12.785 12.785 0 0 1-.438-3.335c0-7.092 5.744-12.849 12.832-12.849 1.232 0 2.424.176 3.55.504m-18.202-19.997a8.477 8.477 0 0 1-1.052 4.1 8.508 8.508 0 0 1-3.661 3.501 8.472 8.472 0 0 1-9.738-1.587c3.36-4.26 8.55-7 14.39-7.021.04.327.06.665.06 1.007"/><path fill="#D6EEFF" d="M379.375 335.409a3.275 3.275 0 0 1-3.273 3.277 3.275 3.275 0 0 1-3.273-3.277 3.275 3.275 0 0 1 3.273-3.278 3.275 3.275 0 0 1 3.273 3.278"/><g transform="translate(5.397)"><g transform="translate(191.563 173.948)"><mask id="e" fill="#fff"><use xlink:href="#c"/></mask><path fill="url(#d)" mask="url(#e)" d="M0.137 28.431L235.866 123.123 247.099 95.042 11.369 0.351z"/></g><g transform="translate(358.487 170.421)"><mask id="h" fill="#fff"><use xlink:href="#f"/></mask><path fill="url(#g)" mask="url(#h)" d="M0.209 23.274L196.476 102.114 205.658 79.159 9.39 0.32z"/></g><path fill="#D6EEFF" d="M571.006 265.657c-2.535 6.339-9.718 9.417-16.043 6.877-6.325-2.541-9.398-9.74-6.862-16.078 2.535-6.338 9.718-9.417 16.043-6.876 6.325 2.54 9.397 9.739 6.862 16.077m-123.95 23c-3.102 7.755-11.89 11.521-19.627 8.413-7.738-3.108-11.496-11.914-8.395-19.668 3.102-7.755 11.889-11.521 19.627-8.413 7.737 3.109 11.496 11.914 8.395 19.669"/><path fill="#AAD5FF" d="M441.112 286.27c-1.786 4.465-6.845 6.634-11.301 4.844s-6.62-6.86-4.834-11.325c1.786-4.465 6.846-6.634 11.302-4.844 4.455 1.79 6.62 6.86 4.833 11.325m124.6-22.74a6.63 6.63 0 0 1-8.627 3.698c-3.402-1.365-5.054-5.237-3.69-8.645a6.63 6.63 0 0 1 8.627-3.698c3.401 1.366 5.054 5.237 3.69 8.646"/><path fill="#D6EEFF" d="M199.733 261.262c-3.476 0-6.296 8.57-6.296 19.141 0-10.57-2.818-19.14-6.296-19.14 3.478 0 6.296-8.571 6.296-19.142 0 10.57 2.82 19.141 6.296 19.141"/><path fill="#C3E4FF" d="M86.175 302.26a4.545 4.545 0 0 1-4.54 4.55 4.546 4.546 0 0 1-4.541-4.55 4.545 4.545 0 0 1 4.54-4.55 4.545 4.545 0 0 1 4.54 4.55m205.232-10.518a4.545 4.545 0 0 1-4.54 4.55 4.546 4.546 0 0 1-4.54-4.55 4.545 4.545 0 0 1 4.54-4.55 4.545 4.545 0 0 1 4.54 4.55"/><path fill="#AAD5FF" d="M250.569 142.984c0 4.25-3.439 7.697-7.68 7.697-4.242 0-7.681-3.446-7.681-7.697 0-4.251 3.439-7.697 7.68-7.697 4.242 0 7.681 3.446 7.681 7.697"/><path fill="#D6EEFF" d="M308.877 29.05a4.545 4.545 0 0 1-4.54 4.55 4.545 4.545 0 0 1-4.54-4.55 4.545 4.545 0 0 1 4.54-4.55 4.545 4.545 0 0 1 4.54 4.55m-110.9 45.768a4.545 4.545 0 0 1-4.54 4.55 4.545 4.545 0 0 1-4.54-4.55 4.545 4.545 0 0 1 4.54-4.55 4.545 4.545 0 0 1 4.54 4.55M9.358 31.893a4.545 4.545 0 0 1-4.54 4.55 4.545 4.545 0 0 1-4.541-4.55 4.546 4.546 0 0 1 4.54-4.55 4.545 4.545 0 0 1 4.54 4.55m771.538-13.65a4.545 4.545 0 0 1-4.54 4.55 4.545 4.545 0 0 1-4.54-4.55 4.545 4.545 0 0 1 4.54-4.55 4.545 4.545 0 0 1 4.54 4.55m53.828 78.41a4.545 4.545 0 0 1-4.54 4.55 4.545 4.545 0 0 1-4.541-4.55 4.545 4.545 0 0 1 4.54-4.55 4.545 4.545 0 0 1 4.54 4.55m-235.405 62.416a4.545 4.545 0 0 1-4.54 4.55 4.545 4.545 0 0 1-4.54-4.55 4.545 4.545 0 0 1 4.54-4.55 4.545 4.545 0 0 1 4.54 4.55m14.619-131.726a4.545 4.545 0 0 1-4.54 4.55 4.545 4.545 0 0 1-4.54-4.55 4.545 4.545 0 0 1 4.54-4.55 4.545 4.545 0 0 1 4.54 4.55"/><path fill="#C3E4FF" d="M808.352 306.21a4.545 4.545 0 0 1-4.54 4.55 4.546 4.546 0 0 1-4.54-4.55 4.545 4.545 0 0 1 4.54-4.55 4.545 4.545 0 0 1 4.54 4.55"/><path fill="#E8F6FF" d="M384.426 31.893c-4.162 0-7.538 10.262-7.538 22.918 0-12.656-3.374-22.918-7.538-22.918 4.164 0 7.538-10.262 7.538-22.918 0 12.656 3.376 22.918 7.538 22.918m238.63 278.867c-5.036 0-9.121 12.416-9.121 27.73 0-15.314-4.082-27.73-9.12-27.73 5.038 0 9.12-12.417 9.12-27.73 0 15.313 4.085 27.73 9.121 27.73"/><path fill="#D6EEFF" d="M263.217 363.984c-4.63 0-8.385 11.415-8.385 25.494 0-14.08-3.754-25.494-8.385-25.494 4.631 0 8.385-11.416 8.385-25.495 0 14.079 3.756 25.495 8.385 25.495M830.181 208.35c-3.948 0-7.15 9.734-7.15 21.74 0-12.006-3.2-21.74-7.15-21.74 3.95 0 7.15-9.734 7.15-21.74 0 12.006 3.202 21.74 7.15 21.74m-355.61 171.181c0 2.15-1.74 3.893-3.885 3.893a3.888 3.888 0 0 1-3.884-3.893c0-2.15 1.74-3.893 3.884-3.893a3.889 3.889 0 0 1 3.884 3.893m-51.093-271.854a5.506 5.506 0 0 1-5.5 5.512 5.507 5.507 0 0 1-5.502-5.512 5.507 5.507 0 0 1 5.501-5.512c3.038 0 5.5 2.468 5.5 5.512"/><path fill="#C3E4FF" d="M337.336 80.063a3.396 3.396 0 0 1-3.391 3.399 3.395 3.395 0 0 1-3.392-3.4 3.395 3.395 0 0 1 3.392-3.398 3.396 3.396 0 0 1 3.391 3.399"/><path fill="#D6EEFF" d="M479.766 37.288c0 5.508-4.455 9.974-9.952 9.974s-9.952-4.466-9.952-9.974 4.455-9.973 9.952-9.973 9.952 4.465 9.952 9.973"/><path fill="#AAD5FF" d="M740.255 383.425a5.018 5.018 0 0 1-5.012 5.023 5.018 5.018 0 0 1-5.012-5.023 5.017 5.017 0 0 1 5.012-5.023 5.017 5.017 0 0 1 5.012 5.023m-574.32-10.943a3.155 3.155 0 0 1-3.152 3.158 3.155 3.155 0 0 1-3.152-3.158 3.155 3.155 0 0 1 3.152-3.159 3.155 3.155 0 0 1 3.151 3.159m338.81-197.77a3.155 3.155 0 0 1-3.15 3.158 3.155 3.155 0 0 1-3.152-3.159 3.155 3.155 0 0 1 3.151-3.158 3.155 3.155 0 0 1 3.152 3.158"/><path fill="#D6EEFF" d="M366.905 208.351a3.155 3.155 0 0 1-3.152 3.158 3.155 3.155 0 0 1-3.151-3.158 3.155 3.155 0 0 1 3.151-3.158 3.155 3.155 0 0 1 3.152 3.158m-105.043-54.31a3.155 3.155 0 0 1-3.151 3.158 3.155 3.155 0 0 1-3.152-3.159 3.155 3.155 0 0 1 3.152-3.158 3.155 3.155 0 0 1 3.151 3.158M16.503 325.218a3.155 3.155 0 0 1-3.151 3.158 3.155 3.155 0 0 1-3.152-3.158 3.155 3.155 0 0 1 3.152-3.158 3.155 3.155 0 0 1 3.151 3.158m212.86-116.867a3.155 3.155 0 0 1-3.15 3.158 3.155 3.155 0 0 1-3.153-3.158 3.155 3.155 0 0 1 3.152-3.158 3.155 3.155 0 0 1 3.152 3.158m-135.537 21.74a3.83 3.83 0 0 1-3.826 3.834 3.83 3.83 0 0 1-3.826-3.835A3.83 3.83 0 0 1 90 226.256a3.83 3.83 0 0 1 3.826 3.834"/><g transform="translate(13.074 .118)"><mask id="j" fill="#fff"><use xlink:href="#i"/></mask><path fill="#D6EEFF" d="M69.947 159.737c43.728 5.621 83.725-25.346 89.334-69.168 5.61-43.822-25.292-83.903-69.02-89.525C46.53-4.576 6.534 26.39.925 70.212c-5.61 43.822 25.292 83.903 69.02 89.525" mask="url(#j)"/></g><path fill="#E8F6FF" d="M121.6 46.755c6.62.851 12.678-3.838 13.527-10.474.85-6.636-3.83-12.706-10.452-13.557-6.621-.851-12.679 3.838-13.528 10.474-.85 6.636 3.83 12.706 10.452 13.557m.881 18.523a4.822 4.822 0 0 0 5.393-4.176 4.828 4.828 0 0 0-4.167-5.405 4.821 4.821 0 0 0-5.393 4.176 4.828 4.828 0 0 0 4.167 5.405m-53.908 63.718a4.822 4.822 0 0 0 5.394-4.175 4.828 4.828 0 0 0-4.167-5.405 4.822 4.822 0 0 0-5.394 4.175 4.828 4.828 0 0 0 4.167 5.405"/><path fill="#C3E4FF" d="M43.054 93.842c24.932 20.327 45.057-10.701 45.057-10.701-34.474 10.574-44.013-22.538-3.959-35.677 24.843-8.15 22.004-30.682 16.263-46.62C57.839-3.068 19.485 27.484 14 70.333c-1.795 14.018.145 27.653 5.05 39.901 1.673-2.335 2.957-4.603 3.612-6.434 2.91-8.125 2.137-24.84 20.392-9.957m39.967 66.015c43.73 5.622 83.726-25.35 89.335-69.168 1.569-12.254.281-24.215-3.34-35.211-2.602 4.293-7.757 8.365-17.49 2.99-16.61-9.166-20.002 16.495-6.538 25.492 7.596 5.076 14.302 14.375 4.914 21.148-10.313 7.442-27.99-25.321-44.348-13.281-21.968 16.17 16.554 40.463 1.854 47.717-9.19 4.534-15.777-8.184-15.777-8.184s-20.082 18.738-38.269 3.11c-6.05-5.199-14.434-5.802-18.844.3 12.277 13.344 29.134 22.598 48.503 25.087"/><path fill="#D6EEFF" d="M758.53 121.292c-7.503 43.734-48.964 73.093-92.605 65.575-43.642-7.519-72.939-49.068-65.436-92.803 7.503-43.734 48.964-73.093 92.605-65.574 43.642 7.518 72.938 49.067 65.436 92.802"/><path fill="#E8F6FF" d="M759.68 105.808c-17.21 3.416-59.952 9.296-93.483-7.623-31.474-15.887-34.611-31.274-49.8-40.087a78.953 78.953 0 0 1 8.235-8.999c15.928.771 42.27 5.286 68.846 23.969 22.565 15.866 46.815 18.87 64.543 18.214a79.989 79.989 0 0 1 1.659 14.526m-105.6 6.036c-1.176.469-22.982 8.813-54.763-3.698-.02-4.64.357-9.346 1.171-14.083a80.743 80.743 0 0 1 4.375-15.76c11.323 12.223 37.08 37.975 49.217 33.541M754.33 136.6a79.802 79.802 0 0 1-13.64 23.03c-20.026-7.431-58.041-19-86.56-12.454-16.008 3.673-30.765 3.915-42.756 2.856a80.414 80.414 0 0 1-9.105-20.728c17.19-.232 49.946-1.733 77.242-9.13 28.005-7.588 55.045 8.858 74.82 16.426m-27.367 35.849a80.135 80.135 0 0 1-11.036 6.817c-19.734-7.946-44.994-16.526-58.625-14.123 1.685-.363 30.077-6.087 69.661 7.306m25.622-97.859c-15.36-1.048-47.041-6.106-72.602-29.117-14.073-12.667 11.342-10.183 46.874-2.656 11.187 8.213 20.04 19.202 25.728 31.773M688.53 187.54c-7.35.83-14.943.65-22.605-.67-17.225-2.968-32.213-11.237-43.581-22.85 13.886.901 41.801 5.103 66.186 23.52M662.205 42.921c-2.548-.232-12.926-1.406-20.89-5.89a80.1 80.1 0 0 1 12.921-5.623c2.896 5.558 6.07 10.828 7.97 11.513m.587.045c-.176.046-.366.026-.577-.045l.577.045"/><path stroke="#AAD5FF" stroke-linecap="round" stroke-width="17.64" d="M780.154 108.736c34.68 11.18 56.095 22.844 54.605 31.53-2.613 15.229-74.674 15.526-160.954.661-86.279-14.864-154.104-39.26-151.491-54.49 1.53-8.922 26.892-12.719 64.984-11.346"/><g transform="translate(89.027 117.393)"><g transform="translate(.47 373.983)"><mask id="l" fill="#fff"><use xlink:href="#k"/></mask><path fill="#121274" fill-opacity=".226" d="M626.976 1.334c0 .655-140.257 1.186-313.272 1.186S.432 1.989.432 1.334C.432.68 140.69.15 313.704.15S626.976.68 626.976 1.334" mask="url(#l)"/></g><path fill="#2438B7" d="M155.266 167.964v-93.17l-56.097 93.17h56.097zm-6.857 44.313H46.19v-34.844L150.279 6.24h46.748v161.723h32.1v44.313h-32.1v58.705h-48.618v-58.705zm228.127-10.983c8.516-14.895 12.777-35.472 12.777-61.735 0-26.513-4.207-47.344-12.621-62.493-8.415-15.15-20.52-22.725-36.307-22.725-15.792 0-27.893 7.575-36.307 22.725-8.415 15.15-12.622 35.98-12.622 62.493 0 26.263 4.256 46.84 12.777 61.735 8.518 14.9 20.57 22.346 36.152 22.346s27.63-7.445 36.15-22.346m-87.728 58.895c-14.648-10.984-25.92-26.891-33.814-47.722-7.898-20.831-11.842-45.384-11.842-73.666 0-28.53 3.895-53.148 11.686-73.855 7.792-20.7 19.011-36.608 33.658-47.722C303.142 6.116 320.44.56 340.385.56s37.188 5.556 51.733 16.664c14.54 11.114 25.711 27.022 33.502 47.722 7.792 20.707 11.687 45.325 11.687 73.855 0 28.282-3.949 52.835-11.842 73.666-7.899 20.83-19.118 36.738-33.658 47.722-14.546 10.983-31.686 16.475-51.422 16.475-19.741 0-36.931-5.492-51.578-16.475m271.598-92.225v-93.17l-56.097 93.17h56.097zm-6.857 44.313h-102.22v-34.844L555.418 6.24h46.747v161.723h32.1v44.313h-32.1v58.705h-48.617v-58.705z"/><path fill="#2438B7" d="M299.556 276.664L340.978 276.664 340.978 0.558 299.556 0.558z"/><path fill="#2438B7" d="M155.266 167.964v-93.17l-56.097 93.17h56.097zm-6.857 44.313H46.19v-34.844L150.279 6.24h46.748v161.723h32.1v44.313h-32.1v58.705h-48.618v-58.705zm411.996-44.313v-93.17l-56.097 93.17h56.097zm-6.857 44.313h-102.22v-34.844L555.418 6.24h46.747v161.723h32.1v44.313h-32.1v58.705h-48.617v-58.705z"/></g><path fill="url(#m)" d="M651.047 388.376L691.192 388.376 691.192 329.67 651.047 329.67z"/><path fill="url(#n)" d="M245.904 388.376L286.049 388.376 286.049 329.67 245.904 329.67z"/><g transform="translate(331.84 117.516)"><mask id="q" fill="#fff"><use xlink:href="#o"/></mask><path fill="url(#p)" d="M56.741.435v9.604a80.573 80.573 0 0 0-11.056 7.064c-14.651 11.11-25.868 27.021-33.661 47.72C4.235 85.53.339 110.149.339 138.677c0 28.282 3.942 52.834 11.84 73.664 7.894 20.834 19.167 36.741 33.818 47.725a81.574 81.574 0 0 0 10.744 6.827v9.649h40.831c19.734 0 36.874-5.492 51.42-16.476 14.54-10.984 25.762-26.89 33.662-47.725 7.893-20.83 11.84-45.382 11.84-73.664 0-28.528-3.896-53.146-11.685-73.854-7.793-20.699-18.964-36.61-33.505-47.72C134.758 5.993 117.518.435 97.572.435h-40.83z" mask="url(#q)"/></g><g><path fill="#0D0D0F" d="M438.195 256.95c0 26.265-4.263 46.843-12.775 61.737-8.523 14.899-20.57 22.346-36.156 22.346-15.581 0-27.632-7.447-36.15-22.346-8.522-14.894-12.775-35.472-12.775-61.738 0-26.507 4.207-47.342 12.62-62.493 8.416-15.145 20.513-22.723 36.305-22.723 15.787 0 27.894 7.578 36.311 22.723 8.412 15.151 12.62 35.986 12.62 62.493"/><path fill="#FFF" d="M385.128 190.445c-1.831 0-3.315 3.65-3.315 8.154 0-4.503-1.483-8.154-3.313-8.154 1.83 0 3.313-3.65 3.313-8.154 0 4.503 1.484 8.154 3.315 8.154m25.617 16.495c-3.01 0-5.45 6.003-5.45 13.409 0-7.406-2.44-13.41-5.45-13.41 3.01 0 5.45-6.003 5.45-13.408 0 7.405 2.44 13.409 5.45 13.409m-33.647 33.866c-2.24 0-4.056 4.468-4.056 9.979 0-5.511-1.816-9.979-4.056-9.979 2.24 0 4.056-4.467 4.056-9.979 0 5.512 1.815 9.98 4.056 9.98m48.974 1.682c-1.36 0-2.464 2.714-2.464 6.063 0-3.349-1.103-6.063-2.464-6.063 1.36 0 2.464-2.715 2.464-6.063 0 3.348 1.103 6.063 2.464 6.063m-25.38 59.202c-2.669 0-4.832 5.323-4.832 11.888 0-6.565-2.163-11.888-4.832-11.888 2.669 0 4.832-5.322 4.832-11.888 0 6.566 2.163 11.888 4.832 11.888m-40.074-28.846c-2.045 0-3.702 4.078-3.702 9.108 0-5.03-1.657-9.108-3.7-9.108 2.043 0 3.7-4.077 3.7-9.107 0 5.03 1.657 9.107 3.702 9.107"/><path fill="#285FD7" d="M204.147 285.357v-93.17l-56.097 93.17h56.097zm-6.857 44.313H95.07v-34.844l104.09-171.192h46.748v161.723h32.1v44.313h-32.1v58.705H197.29V329.67zm228.13-10.983c-8.523 14.898-20.57 22.345-36.156 22.345-15.58 0-27.633-7.447-36.15-22.345-8.522-14.894-12.775-35.472-12.775-61.738 0-26.507 4.207-47.342 12.62-62.493 8.416-15.146 20.513-22.723 36.305-22.723 15.787 0 27.894 7.577 36.311 22.723 8.411 15.151 12.62 35.986 12.62 62.493 0 26.266-4.263 46.844-12.775 61.738m49.08-136.348c-7.787-20.699-18.959-36.61-33.5-47.72-14.545-11.11-31.79-16.668-51.736-16.668-19.946 0-37.24 5.558-51.887 16.668-14.646 11.11-25.869 27.021-33.656 47.72-5.345 14.198-8.854 30.236-10.534 48.108-.769 8.197-1.156 16.778-1.156 25.747 0 11.523.654 22.426 1.965 32.715 1.906 14.954 5.2 28.604 9.88 40.948 7.894 20.834 19.167 36.741 33.813 47.725 14.646 10.984 31.836 16.476 51.575 16.476 19.74 0 36.88-5.492 51.425-16.476 14.54-10.984 25.758-26.89 33.656-47.725 7.894-20.83 11.846-45.382 11.846-73.663 0-28.529-3.897-53.147-11.69-73.855m134.785 103.018v-93.17l-56.097 93.17h56.097zm-6.856 44.313H500.21v-34.844L604.3 123.634h46.747v161.723h32.1v44.313h-32.1v58.705H602.43V329.67z"/></g><g transform="translate(439.435 291.85)"><mask id="s" fill="#fff"><use xlink:href="#r"/></mask><path mask="url(#s)" d="M0.432 45.805L3.603 89.887 20.427 76.942 16.031 0.021z"/></g></g><g transform="translate(246.483 147.6)"><path fill="#EF3C86" d="M4.618 331.241L10.648 315.243 23.034 323.105 16.368 337.427z"/><path fill="#0B096F" d="M5.325 329.208L.07 344.413l53.396.116s-9.462-10.488-34.121-13.5l-14.021-1.821z"/><path fill="#131318" d="M42.286 157.128L36.676 240.402 1.953 325.877 25.344 328.7 63.653 252.559 79.902 165.854z"/><path fill="#FF77CA" d="M69.691 68.444L127.93 56.71s3.186.417 4.256 4.182c1.07 3.765-.61 5.937-.61 5.937L71.632 91.573l-1.94-23.13z"/><path fill="#FF77CA" d="M63.468 84.588L99.7 95.225 107.592 69.637 115.854 72.814 110.488 115.511 59.756 107.162z"/><path fill="#FE7A00" d="M71.029 66.83L31.979 77.118 78.857 88.817z"/><path stroke="#0B096F" stroke-width="5.67" d="M10.892 20.251L14.177 28.688 11.225 30.904 3.987 25.931"/><path fill="#0B096F" d="M59.123 18.945s16.164 12.257 1.17 20.872l-1.17-20.872z"/><path fill="#FF77CA" d="M23.799 50.561c-2.141-3.168-14.08-4.565-14.499 3.993-.539 11.035 20.074 11.024 20.074 11.024l3.375 14.948 18.341-2.395L47.54 64.98s17.368-3.4 20.407-6.24c0 0-1.892-17.42-7.71-28.528l-17.449-8.788-22.073 7.931L23.8 50.561z"/><path fill="#0B096F" d="M13.772 48.606S1.602 47.174 10.7 30.379c9.097-16.796 22.347-13.077 22.347-13.077S32.532 2.909 41.41.482c12.646-3.456 19.995 15.616 19.995 15.616s3.43-12.437 7.47-11.919c4.04.519 13.892 35.92-41.118 32.627 0 0 7.01 8.57-3.957 13.755 0 0-3.156-3.612-10.027-1.955"/><path fill="#FFF" d="M48.747 56.798c-.716-1.614 1.404-4.098 4.586-4.485 4.716-.574 7.876 2.918 6.226 5.47-1.58 2.444-4.692-.04-7.338.45-1.44.267-2.93-.207-3.474-1.435"/><path fill="#EF3C86" d="M47.539 64.979L35.69 65.678 48.902 70.141z"/><path fill="#285FD7" d="M55.809 41.206L62.288 49.629 57.672 50.976z"/><path fill="#EF3C86" d="M83.769 86.563L71.449 68.009 78.31 88.817z"/><path fill="#EF3C86" d="M84.342 111.208L80.504 89.589 79.632 110.433z"/><path fill="#0B096F" d="M51.944 42.405a2.447 2.447 0 0 1-1.135 3.26 2.424 2.424 0 0 1-3.242-1.14 2.447 2.447 0 0 1 1.134-3.26 2.424 2.424 0 0 1 3.243 1.14M63.6 39.53a2.447 2.447 0 0 1-1.135 3.26 2.423 2.423 0 0 1-3.242-1.14 2.447 2.447 0 0 1 1.134-3.26 2.424 2.424 0 0 1 3.243 1.14"/><path fill="#FFC100" d="M41.927 161.03S3.47 103.97 31.979 77.118c6.639-6.254 48.684 8.673 48.684 8.673l-1.405 33.585-8.229-1.714 15.856 25.012 8.63 22.188s-22.091-5.01-46.778-3.642c-1.701.095-6.81-.19-6.81-.19"/><path fill="#EF3C86" d="M194.769 186.031L185.416 175.848 196.334 164.481 203.868 177.688z"/><path fill="#2D2D32" d="M198 161.429l-44.423-51.758c-5.95-6.484-16.07-6.695-22.284-.465l-44.408 33.468s-6.297 17.387-41.903 18.833c0 0 13.505 31.284 44.822 20.197 14.106-4.995 54.026-39.338 54.026-39.338l44.905 43.768 9.266-24.705z"/><path stroke="#0B096F" stroke-width="4.41" d="M47.325 36.54l-4.197 3.866m15.454-6.43l6.874 1.11"/><path fill="#0B096F" d="M194.769 186.031l9.1 9.603 9.69-51.986s-7.07 9.824-13.384 25.552l-5.406 16.831z"/><path fill="#FE7A00" d="M71.029 117.662L51.296 112.669 75.672 124.985z"/><path fill="#FF77CA" d="M116.825 57.377c-.331.387-.737 1.605-.737 1.605s-4.733 3.703-8.1 9.534c-3.367 5.831 6.823 8.085 6.823 8.085s3.145.567 4.046-.21c.901-.779 2.011-.395 2.666-.814.655-.418 1.154-2.615 2.834-3.565 1.68-.95.54-4.318-.189-4.889-.728-.57-5.164-1.991-4.116-5.532.94-3.176-1.46-6.277-3.227-4.214"/><path stroke="#EF3C86" stroke-width="1.89" d="M105.737 77.765l2.504-8.417s.003-5.106 8.474-10.258m3.198-.764s.739 1.132 0 3.948c-.74 2.817 3.228 3.856 4.255 4.849 1.027.993 1.005 2.35 1.005 2.35m-9.838 7.495l.519-4.58"/></g></g></svg>