<svg xmlns="http://www.w3.org/2000/svg" width="656" height="672" viewBox="0 0 656 672">
  <g fill="none" fill-rule="evenodd" stroke="#A8A4B2" stroke-dasharray="0 16" stroke-linecap="round" stroke-linejoin="round" stroke-width="2" transform="translate(1 1)">
    <path d="M548.5 1L548.5 529.643875M584.5 1L584.5 580.851563M617.5 1L617.5 657M653.5 1L653.5 476.765625M513.5 0L513.5 568.3222M479.5 1L479.5 580.851563M444.5 1L444.5 657M409.5 1L409.5 657M375.5 1L375.5 485.389003M341.5 1L341.5 657M306.5 1L306.5 555.949235M273.5 13L273.5 377.90024M238.5 1L238.5 657"/>
    <path d="M205.5,13 L205.5,513.585938" opacity=".741"/>
    <path d="M170.5,1 L170.5,638.34375" opacity=".694"/>
    <path d="M137.5,13 L137.5,513.585938" opacity=".6"/>
    <path d="M102.5,1 L102.5,616.433565" opacity=".5"/>
    <path d="M68.5,13 L68.5,670" opacity=".4"/>
    <path d="M34.5,1 L34.5,657" opacity=".417"/>
    <path d="M0.5,13 L0.5,670" opacity=".175"/>
  </g>
</svg>
