<svg xmlns="http://www.w3.org/2000/svg" width="434" height="53"><g fill="#D3E0E7" fill-rule="evenodd" opacity=".477"><path d="M17.183 2.868a3.481 3.481 0 0 1-2.242 4.389 3.494 3.494 0 0 1-4.4-2.237A3.481 3.481 0 0 1 12.783.632a3.494 3.494 0 0 1 4.4 2.236z" opacity=".828"/><path d="M45.125 2.868a3.481 3.481 0 0 1-2.242 4.389 3.494 3.494 0 0 1-4.4-2.237A3.481 3.481 0 0 1 40.725.632a3.494 3.494 0 0 1 4.4 2.236z" opacity=".566"/><path d="M73.067 2.868a3.481 3.481 0 0 1-2.242 4.389 3.494 3.494 0 0 1-4.4-2.237A3.481 3.481 0 0 1 68.667.632a3.494 3.494 0 0 1 4.4 2.236z" opacity=".018"/><path d="M87.038 2.868a3.481 3.481 0 0 1-2.242 4.389 3.494 3.494 0 0 1-4.4-2.237A3.481 3.481 0 0 1 82.638.632a3.494 3.494 0 0 1 4.4 2.236z" opacity=".396"/><path d="M225.196 2.868a3.481 3.481 0 0 1-2.241 4.389 3.494 3.494 0 0 1-4.4-2.237 3.481 3.481 0 0 1 2.242-4.388 3.494 3.494 0 0 1 4.4 2.236z" opacity=".129"/><path d="M253.139 2.868a3.481 3.481 0 0 1-2.242 4.389 3.494 3.494 0 0 1-4.4-2.237 3.481 3.481 0 0 1 2.242-4.388 3.494 3.494 0 0 1 4.4 2.236z" opacity=".383"/><path d="M267.11 2.868a3.481 3.481 0 0 1-2.242 4.389 3.494 3.494 0 0 1-4.4-2.237A3.481 3.481 0 0 1 262.71.632a3.494 3.494 0 0 1 4.4 2.236z" opacity=".072"/><path d="M363.355 2.868a3.481 3.481 0 0 1-2.242 4.389 3.494 3.494 0 0 1-4.4-2.237 3.481 3.481 0 0 1 2.242-4.388 3.494 3.494 0 0 1 4.4 2.236z" opacity=".292"/><path d="M405.268 2.868a3.481 3.481 0 0 1-2.242 4.389 3.494 3.494 0 0 1-4.4-2.237 3.481 3.481 0 0 1 2.242-4.388 3.494 3.494 0 0 1 4.4 2.236z" opacity=".974"/><path d="M17.183 16.803a3.481 3.481 0 0 1-2.242 4.39 3.494 3.494 0 0 1-4.4-2.237 3.481 3.481 0 0 1 2.242-4.389 3.494 3.494 0 0 1 4.4 2.236z" opacity=".393"/><path d="M45.125 16.803a3.481 3.481 0 0 1-2.242 4.39 3.494 3.494 0 0 1-4.4-2.237 3.481 3.481 0 0 1 2.242-4.389 3.494 3.494 0 0 1 4.4 2.236z" opacity=".515"/><path d="M73.067 16.803a3.481 3.481 0 0 1-2.242 4.39 3.494 3.494 0 0 1-4.4-2.237 3.481 3.481 0 0 1 2.242-4.389 3.494 3.494 0 0 1 4.4 2.236z" opacity=".765"/><path d="M87.038 16.803a3.481 3.481 0 0 1-2.242 4.39 3.494 3.494 0 0 1-4.4-2.237 3.481 3.481 0 0 1 2.242-4.389 3.494 3.494 0 0 1 4.4 2.236z" opacity=".377"/><path d="M100.233 16.803a3.481 3.481 0 0 1-2.242 4.39 3.494 3.494 0 0 1-4.4-2.237 3.481 3.481 0 0 1 2.242-4.389 3.494 3.494 0 0 1 4.4 2.236z" opacity=".31"/><path d="M114.204 16.803a3.481 3.481 0 0 1-2.242 4.39 3.494 3.494 0 0 1-4.4-2.237 3.481 3.481 0 0 1 2.242-4.389 3.494 3.494 0 0 1 4.4 2.236z" opacity=".028"/><path d="M170.007 16.998a3.481 3.481 0 0 1-2.242 4.39 3.494 3.494 0 0 1-4.4-2.237 3.481 3.481 0 0 1 2.242-4.389 3.494 3.494 0 0 1 4.4 2.236z" opacity=".921"/><path d="M183.283 16.803a3.481 3.481 0 0 1-2.242 4.39 3.494 3.494 0 0 1-4.4-2.237 3.481 3.481 0 0 1 2.242-4.389 3.494 3.494 0 0 1 4.4 2.236z" opacity=".055"/><path d="M197.254 16.803a3.481 3.481 0 0 1-2.242 4.39 3.494 3.494 0 0 1-4.4-2.237 3.481 3.481 0 0 1 2.242-4.389 3.494 3.494 0 0 1 4.4 2.236z" opacity=".46"/><path d="M225.196 16.803a3.481 3.481 0 0 1-2.241 4.39 3.494 3.494 0 0 1-4.4-2.237 3.481 3.481 0 0 1 2.242-4.389 3.494 3.494 0 0 1 4.4 2.236z" opacity=".359"/><path d="M253.139 16.803a3.481 3.481 0 0 1-2.242 4.39 3.494 3.494 0 0 1-4.4-2.237 3.481 3.481 0 0 1 2.242-4.389 3.494 3.494 0 0 1 4.4 2.236zm0 27.871a3.481 3.481 0 0 1-2.242 4.39 3.494 3.494 0 0 1-4.4-2.237 3.481 3.481 0 0 1 2.242-4.389 3.494 3.494 0 0 1 4.4 2.236z" opacity=".296"/><path d="M267.11 16.803a3.481 3.481 0 0 1-2.242 4.39 3.494 3.494 0 0 1-4.4-2.237 3.481 3.481 0 0 1 2.242-4.389 3.494 3.494 0 0 1 4.4 2.236z" opacity=".527"/><path d="M363.355 16.803a3.481 3.481 0 0 1-2.242 4.39 3.494 3.494 0 0 1-4.4-2.237 3.481 3.481 0 0 1 2.242-4.389 3.494 3.494 0 0 1 4.4 2.236z" opacity=".523"/><path d="M391.297 16.803a3.481 3.481 0 0 1-2.242 4.39 3.494 3.494 0 0 1-4.4-2.237 3.481 3.481 0 0 1 2.242-4.389 3.494 3.494 0 0 1 4.4 2.236z" opacity=".4"/><path d="M405.268 16.803a3.481 3.481 0 0 1-2.242 4.39 3.494 3.494 0 0 1-4.4-2.237 3.481 3.481 0 0 1 2.242-4.389 3.494 3.494 0 0 1 4.4 2.236z" opacity=".564"/><path d="M419.239 16.803a3.481 3.481 0 0 1-2.242 4.39 3.494 3.494 0 0 1-4.4-2.237 3.481 3.481 0 0 1 2.242-4.389 3.494 3.494 0 0 1 4.4 2.236z" opacity=".015"/><path d="M433.21 16.803a3.481 3.481 0 0 1-2.242 4.39 3.494 3.494 0 0 1-4.4-2.237 3.481 3.481 0 0 1 2.242-4.389 3.494 3.494 0 0 1 4.4 2.236z" opacity=".444"/><path d="M17.183 30.739a3.481 3.481 0 0 1-2.242 4.389 3.494 3.494 0 0 1-4.4-2.237 3.481 3.481 0 0 1 2.242-4.388 3.494 3.494 0 0 1 4.4 2.236z" opacity=".499"/><path d="M31.154 30.739a3.481 3.481 0 0 1-2.242 4.389 3.494 3.494 0 0 1-4.4-2.237 3.481 3.481 0 0 1 2.242-4.388 3.494 3.494 0 0 1 4.4 2.236z" opacity=".633"/><path d="M45.125 30.739a3.481 3.481 0 0 1-2.242 4.389 3.494 3.494 0 0 1-4.4-2.237 3.481 3.481 0 0 1 2.242-4.388 3.494 3.494 0 0 1 4.4 2.236z" opacity=".033"/><path d="M73.067 30.739a3.481 3.481 0 0 1-2.242 4.389 3.494 3.494 0 0 1-4.4-2.237 3.481 3.481 0 0 1 2.242-4.388 3.494 3.494 0 0 1 4.4 2.236z" opacity=".865"/><path d="M87.038 30.739a3.481 3.481 0 0 1-2.242 4.389 3.494 3.494 0 0 1-4.4-2.237 3.481 3.481 0 0 1 2.242-4.388 3.494 3.494 0 0 1 4.4 2.236z" opacity=".202"/><path d="M100.233 30.739a3.481 3.481 0 0 1-2.242 4.389 3.494 3.494 0 0 1-4.4-2.237 3.481 3.481 0 0 1 2.242-4.388 3.494 3.494 0 0 1 4.4 2.236z" opacity=".737"/><path d="M114.204 30.739a3.481 3.481 0 0 1-2.242 4.389 3.494 3.494 0 0 1-4.4-2.237 3.481 3.481 0 0 1 2.242-4.388 3.494 3.494 0 0 1 4.4 2.236z" opacity=".73"/><path d="M170.088 30.739a3.481 3.481 0 0 1-2.241 4.389 3.494 3.494 0 0 1-4.4-2.237 3.481 3.481 0 0 1 2.241-4.388 3.494 3.494 0 0 1 4.4 2.236z" opacity=".011"/><path d="M183.283 30.739a3.481 3.481 0 0 1-2.242 4.389 3.494 3.494 0 0 1-4.4-2.237 3.481 3.481 0 0 1 2.242-4.388 3.494 3.494 0 0 1 4.4 2.236z" opacity=".753"/><path d="M197.254 30.739a3.481 3.481 0 0 1-2.242 4.389 3.494 3.494 0 0 1-4.4-2.237 3.481 3.481 0 0 1 2.242-4.388 3.494 3.494 0 0 1 4.4 2.236z" opacity=".322"/><path d="M225.196 30.739a3.481 3.481 0 0 1-2.241 4.389 3.494 3.494 0 0 1-4.4-2.237 3.481 3.481 0 0 1 2.242-4.388 3.494 3.494 0 0 1 4.4 2.236z" opacity=".372"/><path d="M239.168 30.739a3.481 3.481 0 0 1-2.242 4.389 3.494 3.494 0 0 1-4.4-2.237 3.481 3.481 0 0 1 2.242-4.388 3.494 3.494 0 0 1 4.4 2.236z" opacity=".456"/><path d="M253.139 30.739a3.481 3.481 0 0 1-2.242 4.389 3.494 3.494 0 0 1-4.4-2.237 3.481 3.481 0 0 1 2.242-4.388 3.494 3.494 0 0 1 4.4 2.236z" opacity=".476"/><path d="M267.251 30.473a3.481 3.481 0 0 1-2.241 4.389 3.494 3.494 0 0 1-4.4-2.236 3.481 3.481 0 0 1 2.241-4.39 3.494 3.494 0 0 1 4.4 2.237z" opacity=".288"/><path d="M308.247 30.739a3.481 3.481 0 0 1-2.242 4.389 3.494 3.494 0 0 1-4.4-2.237 3.481 3.481 0 0 1 2.242-4.388 3.494 3.494 0 0 1 4.4 2.236z" opacity=".773"/><path d="M350.16 30.739a3.481 3.481 0 0 1-2.242 4.389 3.494 3.494 0 0 1-4.4-2.237 3.481 3.481 0 0 1 2.242-4.388 3.494 3.494 0 0 1 4.4 2.236z" opacity=".515"/><path d="M363.355 30.739a3.481 3.481 0 0 1-2.242 4.389 3.494 3.494 0 0 1-4.4-2.237 3.481 3.481 0 0 1 2.242-4.388 3.494 3.494 0 0 1 4.4 2.236z" opacity=".062"/><path d="M391.297 30.739a3.481 3.481 0 0 1-2.242 4.389 3.494 3.494 0 0 1-4.4-2.237 3.481 3.481 0 0 1 2.242-4.388 3.494 3.494 0 0 1 4.4 2.236z" opacity=".961"/><path d="M405.268 30.739a3.481 3.481 0 0 1-2.242 4.389 3.494 3.494 0 0 1-4.4-2.237 3.481 3.481 0 0 1 2.242-4.388 3.494 3.494 0 0 1 4.4 2.236z" opacity=".627"/><path d="M419.239 30.739a3.481 3.481 0 0 1-2.242 4.389 3.494 3.494 0 0 1-4.4-2.237 3.481 3.481 0 0 1 2.242-4.388 3.494 3.494 0 0 1 4.4 2.236z" opacity=".013"/><path d="M433.21 30.739a3.481 3.481 0 0 1-2.242 4.389 3.494 3.494 0 0 1-4.4-2.237 3.481 3.481 0 0 1 2.242-4.388 3.494 3.494 0 0 1 4.4 2.236z" opacity=".831"/><path d="M17.183 44.674a3.481 3.481 0 0 1-2.242 4.39 3.494 3.494 0 0 1-4.4-2.237 3.481 3.481 0 0 1 2.242-4.389 3.494 3.494 0 0 1 4.4 2.236z" opacity=".689"/><path d="M31.154 44.674a3.481 3.481 0 0 1-2.242 4.39 3.494 3.494 0 0 1-4.4-2.237 3.481 3.481 0 0 1 2.242-4.389 3.494 3.494 0 0 1 4.4 2.236z" opacity=".014"/><path d="M45.125 44.674a3.481 3.481 0 0 1-2.242 4.39 3.494 3.494 0 0 1-4.4-2.237 3.481 3.481 0 0 1 2.242-4.389 3.494 3.494 0 0 1 4.4 2.236z" opacity=".408"/><path d="M73.067 44.674a3.481 3.481 0 0 1-2.242 4.39 3.494 3.494 0 0 1-4.4-2.237 3.481 3.481 0 0 1 2.242-4.389 3.494 3.494 0 0 1 4.4 2.236z" opacity=".998"/><path d="M87.038 44.674a3.481 3.481 0 0 1-2.242 4.39 3.494 3.494 0 0 1-4.4-2.237 3.481 3.481 0 0 1 2.242-4.389 3.494 3.494 0 0 1 4.4 2.236z" opacity=".062"/><path d="M100.233 44.674a3.481 3.481 0 0 1-2.242 4.39 3.494 3.494 0 0 1-4.4-2.237 3.481 3.481 0 0 1 2.242-4.389 3.494 3.494 0 0 1 4.4 2.236z" opacity=".523"/><path d="M114.204 44.674a3.481 3.481 0 0 1-2.242 4.39 3.494 3.494 0 0 1-4.4-2.237 3.481 3.481 0 0 1 2.242-4.389 3.494 3.494 0 0 1 4.4 2.236z" opacity=".804"/><path d="M59.204 44.674a3.481 3.481 0 0 1-2.242 4.39 3.494 3.494 0 0 1-4.4-2.237 3.481 3.481 0 0 1 2.242-4.389 3.494 3.494 0 0 1 4.4 2.236z" opacity=".271"/><path d="M128.175 44.674a3.481 3.481 0 0 1-2.242 4.39 3.494 3.494 0 0 1-4.4-2.237 3.481 3.481 0 0 1 2.242-4.389 3.494 3.494 0 0 1 4.4 2.236z" opacity=".266"/><path d="M142.146 44.674a3.481 3.481 0 0 1-2.242 4.39 3.494 3.494 0 0 1-4.4-2.237 3.481 3.481 0 0 1 2.242-4.389 3.494 3.494 0 0 1 4.4 2.236z" opacity=".875"/><path d="M156.117 44.674a3.481 3.481 0 0 1-2.242 4.39 3.494 3.494 0 0 1-4.4-2.237 3.481 3.481 0 0 1 2.242-4.389 3.494 3.494 0 0 1 4.4 2.236z" opacity=".013"/><path d="M170.088 44.674a3.481 3.481 0 0 1-2.241 4.39 3.494 3.494 0 0 1-4.4-2.237 3.481 3.481 0 0 1 2.241-4.389 3.494 3.494 0 0 1 4.4 2.236z" opacity=".021"/><path d="M183.283 44.674a3.481 3.481 0 0 1-2.242 4.39 3.494 3.494 0 0 1-4.4-2.237 3.481 3.481 0 0 1 2.242-4.389 3.494 3.494 0 0 1 4.4 2.236z" opacity=".29"/><path d="M197.254 44.674a3.481 3.481 0 0 1-2.242 4.39 3.494 3.494 0 0 1-4.4-2.237 3.481 3.481 0 0 1 2.242-4.389 3.494 3.494 0 0 1 4.4 2.236zm-27.247.172a3.481 3.481 0 0 1-2.242 4.389 3.494 3.494 0 0 1-4.4-2.237 3.481 3.481 0 0 1 2.242-4.388 3.494 3.494 0 0 1 4.4 2.236z" opacity=".546"/><path d="M225.196 44.674a3.481 3.481 0 0 1-2.241 4.39 3.494 3.494 0 0 1-4.4-2.237 3.481 3.481 0 0 1 2.242-4.389 3.494 3.494 0 0 1 4.4 2.236z" opacity=".948"/><path d="M239.168 44.674a3.481 3.481 0 0 1-2.242 4.39 3.494 3.494 0 0 1-4.4-2.237 3.481 3.481 0 0 1 2.242-4.389 3.494 3.494 0 0 1 4.4 2.236z" opacity=".167"/><path d="M253.139 44.674a3.481 3.481 0 0 1-2.242 4.39 3.494 3.494 0 0 1-4.4-2.237 3.481 3.481 0 0 1 2.242-4.389 3.494 3.494 0 0 1 4.4 2.236z" opacity=".009"/><path d="M267.11 44.674a3.481 3.481 0 0 1-2.242 4.39 3.494 3.494 0 0 1-4.4-2.237 3.481 3.481 0 0 1 2.242-4.389 3.494 3.494 0 0 1 4.4 2.236z" opacity=".087"/><path d="M280.616 44.674a3.481 3.481 0 0 1-2.242 4.39 3.494 3.494 0 0 1-4.4-2.237 3.481 3.481 0 0 1 2.242-4.389 3.494 3.494 0 0 1 4.4 2.236z" opacity=".546"/><path d="M155.458 44.674a3.481 3.481 0 0 1-2.242 4.39 3.494 3.494 0 0 1-4.4-2.237 3.481 3.481 0 0 1 2.242-4.389 3.494 3.494 0 0 1 4.4 2.236z" opacity=".288"/><path d="M155.458 30.739a3.481 3.481 0 0 1-2.242 4.389 3.494 3.494 0 0 1-4.4-2.237 3.481 3.481 0 0 1 2.242-4.388 3.494 3.494 0 0 1 4.4 2.236z" opacity=".087"/><path d="M279.857 30.473a3.481 3.481 0 0 1-2.242 4.389 3.494 3.494 0 0 1-4.4-2.236 3.481 3.481 0 0 1 2.242-4.39 3.494 3.494 0 0 1 4.4 2.237z" opacity=".255"/><path d="M294.264 30.473a3.481 3.481 0 0 1-2.242 4.389 3.494 3.494 0 0 1-4.4-2.236 3.481 3.481 0 0 1 2.242-4.39 3.494 3.494 0 0 1 4.4 2.237z" opacity=".161"/><path d="M308.247 44.674a3.481 3.481 0 0 1-2.242 4.39 3.494 3.494 0 0 1-4.4-2.237 3.481 3.481 0 0 1 2.242-4.389 3.494 3.494 0 0 1 4.4 2.236zm13.506 0a3.481 3.481 0 0 1-2.242 4.39 3.494 3.494 0 0 1-4.4-2.237 3.481 3.481 0 0 1 2.242-4.389 3.494 3.494 0 0 1 4.4 2.236z" opacity=".414"/><path d="M336.189 44.674a3.481 3.481 0 0 1-2.242 4.39 3.494 3.494 0 0 1-4.4-2.237 3.481 3.481 0 0 1 2.242-4.389 3.494 3.494 0 0 1 4.4 2.236z" opacity=".4"/><path d="M350.16 44.674a3.481 3.481 0 0 1-2.242 4.39 3.494 3.494 0 0 1-4.4-2.237 3.481 3.481 0 0 1 2.242-4.389 3.494 3.494 0 0 1 4.4 2.236z" opacity=".699"/><path d="M363.355 44.674a3.481 3.481 0 0 1-2.242 4.39 3.494 3.494 0 0 1-4.4-2.237 3.481 3.481 0 0 1 2.242-4.389 3.494 3.494 0 0 1 4.4 2.236z" opacity=".153"/><path d="M377.326 44.674a3.481 3.481 0 0 1-2.242 4.39 3.494 3.494 0 0 1-4.4-2.237 3.481 3.481 0 0 1 2.242-4.389 3.494 3.494 0 0 1 4.4 2.236z" opacity=".654"/><path d="M391.297 44.674a3.481 3.481 0 0 1-2.242 4.39 3.494 3.494 0 0 1-4.4-2.237 3.481 3.481 0 0 1 2.242-4.389 3.494 3.494 0 0 1 4.4 2.236z" opacity=".116"/><path d="M405.268 44.674a3.481 3.481 0 0 1-2.242 4.39 3.494 3.494 0 0 1-4.4-2.237 3.481 3.481 0 0 1 2.242-4.389 3.494 3.494 0 0 1 4.4 2.236z" opacity=".965"/><path d="M419.239 44.674a3.481 3.481 0 0 1-2.242 4.39 3.494 3.494 0 0 1-4.4-2.237 3.481 3.481 0 0 1 2.242-4.389 3.494 3.494 0 0 1 4.4 2.236z" opacity=".723"/><path d="M433.21 44.674a3.481 3.481 0 0 1-2.242 4.39 3.494 3.494 0 0 1-4.4-2.237 3.481 3.481 0 0 1 2.242-4.389 3.494 3.494 0 0 1 4.4 2.236z" opacity=".609"/></g></svg>