<svg xmlns="http://www.w3.org/2000/svg" width="862" height="212" viewBox="0 0 862 212">
  <g fill="#D3E0E7" fill-rule="evenodd">
    <path d="M775.295294,207.856075 C774.271256,204.70441 775.996039,201.319332 779.147705,200.295294 C782.29937,199.271256 785.684448,200.996039 786.708486,204.147705 C787.732524,207.29937 786.007741,210.684448 782.856075,211.708486 C779.70441,212.732524 776.319332,211.007741 775.295294,207.856075 Z" opacity=".608"/>
    <path d="M725.295294,207.856075 C724.271256,204.70441 725.996039,201.319332 729.147705,200.295294 C732.29937,199.271256 735.684448,200.996039 736.708486,204.147705 C737.732524,207.29937 736.007741,210.684448 732.856075,211.708486 C729.70441,212.732524 726.319332,211.007741 725.295294,207.856075 Z" opacity=".319"/>
    <path d="M700.295294,207.856075 C699.271256,204.70441 700.996039,201.319332 704.147705,200.295294 C707.29937,199.271256 710.684448,200.996039 711.708486,204.147705 C712.732524,207.29937 711.007741,210.684448 707.856075,211.708486 C704.70441,212.732524 701.319332,211.007741 700.295294,207.856075 Z" opacity=".222"/>
    <path d="M675.295294,207.856075 C674.271256,204.70441 675.996039,201.319332 679.147705,200.295294 C682.29937,199.271256 685.684448,200.996039 686.708486,204.147705 C687.732524,207.29937 686.007741,210.684448 682.856075,211.708486 C679.70441,212.732524 676.319332,211.007741 675.295294,207.856075 Z" opacity=".014"/>
    <path d="M650.295294,207.856075 C649.271256,204.70441 650.996039,201.319332 654.147705,200.295294 C657.29937,199.271256 660.684448,200.996039 661.708486,204.147705 C662.732524,207.29937 661.007741,210.684448 657.856075,211.708486 C654.70441,212.732524 651.319332,211.007741 650.295294,207.856075 Z" opacity=".207"/>
    <path d="M500.295294,207.856075 C499.271256,204.70441 500.996039,201.319332 504.147705,200.295294 C507.29937,199.271256 510.684448,200.996039 511.708486,204.147705 C512.732524,207.29937 511.007741,210.684448 507.856075,211.708486 C504.70441,212.732524 501.319332,211.007741 500.295294,207.856075 Z" opacity=".337"/>
    <path d="M400.295294,207.856075 C399.271256,204.70441 400.996039,201.319332 404.147705,200.295294 C407.29937,199.271256 410.684448,200.996039 411.708486,204.147705 C412.732524,207.29937 411.007741,210.684448 407.856075,211.708486 C404.70441,212.732524 401.319332,211.007741 400.295294,207.856075 Z" opacity=".704"/>
    <path d="M275.295294,207.856075 C274.271256,204.70441 275.996039,201.319332 279.147705,200.295294 C282.29937,199.271256 285.684448,200.996039 286.708486,204.147705 C287.732524,207.29937 286.007741,210.684448 282.856075,211.708486 C279.70441,212.732524 276.319332,211.007741 275.295294,207.856075 Z" opacity=".143"/>
    <path d="M150.295294,207.856075 C149.271256,204.70441 150.996039,201.319332 154.147705,200.295294 C157.29937,199.271256 160.684448,200.996039 161.708486,204.147705 C162.732524,207.29937 161.007741,210.684448 157.856075,211.708486 C154.70441,212.732524 151.319332,211.007741 150.295294,207.856075 Z" opacity=".326"/>
    <path d="M125.295294,207.856075 C124.271256,204.70441 125.996039,201.319332 129.147705,200.295294 C132.29937,199.271256 135.684448,200.996039 136.708486,204.147705 C137.732524,207.29937 136.007741,210.684448 132.856075,211.708486 C129.70441,212.732524 126.319332,211.007741 125.295294,207.856075 Z" opacity=".087"/>
    <path d="M825.295294,182.856075 C824.271256,179.70441 825.996039,176.319332 829.147705,175.295294 C832.29937,174.271256 835.684448,175.996039 836.708486,179.147705 C837.732524,182.29937 836.007741,185.684448 832.856075,186.708486 C829.70441,187.732524 826.319332,186.007741 825.295294,182.856075 Z" opacity=".828"/>
    <path d="M775.295294,182.856075 C774.271256,179.70441 775.996039,176.319332 779.147705,175.295294 C782.29937,174.271256 785.684448,175.996039 786.708486,179.147705 C787.732524,182.29937 786.007741,185.684448 782.856075,186.708486 C779.70441,187.732524 776.319332,186.007741 775.295294,182.856075 Z" opacity=".566"/>
    <path d="M725.295294,182.856075 C724.271256,179.70441 725.996039,176.319332 729.147705,175.295294 C732.29937,174.271256 735.684448,175.996039 736.708486,179.147705 C737.732524,182.29937 736.007741,185.684448 732.856075,186.708486 C729.70441,187.732524 726.319332,186.007741 725.295294,182.856075 Z" opacity=".018"/>
    <path d="M700.295294,182.856075 C699.271256,179.70441 700.996039,176.319332 704.147705,175.295294 C707.29937,174.271256 710.684448,175.996039 711.708486,179.147705 C712.732524,182.29937 711.007741,185.684448 707.856075,186.708486 C704.70441,187.732524 701.319332,186.007741 700.295294,182.856075 Z" opacity=".396"/>
    <path d="M675.295294,182.856075 C674.271256,179.70441 675.996039,176.319332 679.147705,175.295294 C682.29937,174.271256 685.684448,175.996039 686.708486,179.147705 C687.732524,182.29937 686.007741,185.684448 682.856075,186.708486 C679.70441,187.732524 676.319332,186.007741 675.295294,182.856075 Z" opacity=".712"/>
    <path d="M650.295294,182.856075 C649.271256,179.70441 650.996039,176.319332 654.147705,175.295294 C657.29937,174.271256 660.684448,175.996039 661.708486,179.147705 C662.732524,182.29937 661.007741,185.684448 657.856075,186.708486 C654.70441,187.732524 651.319332,186.007741 650.295294,182.856075 Z" opacity=".587"/>
    <path d="M550.295294,182.856075 C549.271256,179.70441 550.996039,176.319332 554.147705,175.295294 C557.29937,174.271256 560.684448,175.996039 561.708486,179.147705 C562.732524,182.29937 561.007741,185.684448 557.856075,186.708486 C554.70441,187.732524 551.319332,186.007741 550.295294,182.856075 Z" opacity=".822"/>
    <path d="M500.295294,182.856075 C499.271256,179.70441 500.996039,176.319332 504.147705,175.295294 C507.29937,174.271256 510.684448,175.996039 511.708486,179.147705 C512.732524,182.29937 511.007741,185.684448 507.856075,186.708486 C504.70441,187.732524 501.319332,186.007741 500.295294,182.856075 Z" opacity=".469"/>
    <path d="M450.295294,182.856075 C449.271256,179.70441 450.996039,176.319332 454.147705,175.295294 C457.29937,174.271256 460.684448,175.996039 461.708486,179.147705 C462.732524,182.29937 461.007741,185.684448 457.856075,186.708486 C454.70441,187.732524 451.319332,186.007741 450.295294,182.856075 Z" opacity=".129"/>
    <path d="M400.295294,182.856075 C399.271256,179.70441 400.996039,176.319332 404.147705,175.295294 C407.29937,174.271256 410.684448,175.996039 411.708486,179.147705 C412.732524,182.29937 411.007741,185.684448 407.856075,186.708486 C404.70441,187.732524 401.319332,186.007741 400.295294,182.856075 Z" opacity=".383"/>
    <path d="M375.295294,182.856075 C374.271256,179.70441 375.996039,176.319332 379.147705,175.295294 C382.29937,174.271256 385.684448,175.996039 386.708486,179.147705 C387.732524,182.29937 386.007741,185.684448 382.856075,186.708486 C379.70441,187.732524 376.319332,186.007741 375.295294,182.856075 Z" opacity=".072"/>
    <path d="M200.295294,182.856075 C199.271256,179.70441 200.996039,176.319332 204.147705,175.295294 C207.29937,174.271256 210.684448,175.996039 211.708486,179.147705 C212.732524,182.29937 211.007741,185.684448 207.856075,186.708486 C204.70441,187.732524 201.319332,186.007741 200.295294,182.856075 Z" opacity=".292"/>
    <path d="M150.295294,182.856075 C149.271256,179.70441 150.996039,176.319332 154.147705,175.295294 C157.29937,174.271256 160.684448,175.996039 161.708486,179.147705 C162.732524,182.29937 161.007741,185.684448 157.856075,186.708486 C154.70441,187.732524 151.319332,186.007741 150.295294,182.856075 Z" opacity=".475"/>
    <path d="M125.295294,182.856075 C124.271256,179.70441 125.996039,176.319332 129.147705,175.295294 C132.29937,174.271256 135.684448,175.996039 136.708486,179.147705 C137.732524,182.29937 136.007741,185.684448 132.856075,186.708486 C129.70441,187.732524 126.319332,186.007741 125.295294,182.856075 Z" opacity=".974"/>
    <path d="M825.295294,157.856075 C824.271256,154.70441 825.996039,151.319332 829.147705,150.295294 C832.29937,149.271256 835.684448,150.996039 836.708486,154.147705 C837.732524,157.29937 836.007741,160.684448 832.856075,161.708486 C829.70441,162.732524 826.319332,161.007741 825.295294,157.856075 Z" opacity=".393"/>
    <path d="M775.295294,157.856075 C774.271256,154.70441 775.996039,151.319332 779.147705,150.295294 C782.29937,149.271256 785.684448,150.996039 786.708486,154.147705 C787.732524,157.29937 786.007741,160.684448 782.856075,161.708486 C779.70441,162.732524 776.319332,161.007741 775.295294,157.856075 Z" opacity=".515"/>
    <path d="M725.295294,157.856075 C724.271256,154.70441 725.996039,151.319332 729.147705,150.295294 C732.29937,149.271256 735.684448,150.996039 736.708486,154.147705 C737.732524,157.29937 736.007741,160.684448 732.856075,161.708486 C729.70441,162.732524 726.319332,161.007741 725.295294,157.856075 Z" opacity=".765"/>
    <path d="M700.295294,157.856075 C699.271256,154.70441 700.996039,151.319332 704.147705,150.295294 C707.29937,149.271256 710.684448,150.996039 711.708486,154.147705 C712.732524,157.29937 711.007741,160.684448 707.856075,161.708486 C704.70441,162.732524 701.319332,161.007741 700.295294,157.856075 Z" opacity=".377"/>
    <path d="M675.295294,157.856075 C674.271256,154.70441 675.996039,151.319332 679.147705,150.295294 C682.29937,149.271256 685.684448,150.996039 686.708486,154.147705 C687.732524,157.29937 686.007741,160.684448 682.856075,161.708486 C679.70441,162.732524 676.319332,161.007741 675.295294,157.856075 Z" opacity=".31"/>
    <path d="M650.295294,157.856075 C649.271256,154.70441 650.996039,151.319332 654.147705,150.295294 C657.29937,149.271256 660.684448,150.996039 661.708486,154.147705 C662.732524,157.29937 661.007741,160.684448 657.856075,161.708486 C654.70441,162.732524 651.319332,161.007741 650.295294,157.856075 Z" opacity=".028"/>
    <path d="M550.295294,157.856075 C549.271256,154.70441 550.996039,151.319332 554.147705,150.295294 C557.29937,149.271256 560.684448,150.996039 561.708486,154.147705 C562.732524,157.29937 561.007741,160.684448 557.856075,161.708486 C554.70441,162.732524 551.319332,161.007741 550.295294,157.856075 Z" opacity=".921"/>
    <path d="M525.295294,157.856075 C524.271256,154.70441 525.996039,151.319332 529.147705,150.295294 C532.29937,149.271256 535.684448,150.996039 536.708486,154.147705 C537.732524,157.29937 536.007741,160.684448 532.856075,161.708486 C529.70441,162.732524 526.319332,161.007741 525.295294,157.856075 Z" opacity=".055"/>
    <path d="M500.295294,157.856075 C499.271256,154.70441 500.996039,151.319332 504.147705,150.295294 C507.29937,149.271256 510.684448,150.996039 511.708486,154.147705 C512.732524,157.29937 511.007741,160.684448 507.856075,161.708486 C504.70441,162.732524 501.319332,161.007741 500.295294,157.856075 Z" opacity=".46"/>
    <path d="M450.295294,157.856075 C449.271256,154.70441 450.996039,151.319332 454.147705,150.295294 C457.29937,149.271256 460.684448,150.996039 461.708486,154.147705 C462.732524,157.29937 461.007741,160.684448 457.856075,161.708486 C454.70441,162.732524 451.319332,161.007741 450.295294,157.856075 Z" opacity=".359"/>
    <path d="M400.295294 157.856075C399.271256 154.70441 400.996039 151.319332 404.147705 150.295294 407.29937 149.271256 410.684448 150.996039 411.708486 154.147705 412.732524 157.29937 411.007741 160.684448 407.856075 161.708486 404.70441 162.732524 401.319332 161.007741 400.295294 157.856075zM400.295294 107.857965C399.271256 104.7063 400.996039 101.321222 404.147705 100.297184 407.29937 99.2731459 410.684448 100.997929 411.708486 104.149595 412.732524 107.30126 411.007741 110.686338 407.856075 111.710376 404.70441 112.734414 401.319332 111.009631 400.295294 107.857965z" opacity=".296"/>
    <path d="M375.295294,157.856075 C374.271256,154.70441 375.996039,151.319332 379.147705,150.295294 C382.29937,149.271256 385.684448,150.996039 386.708486,154.147705 C387.732524,157.29937 386.007741,160.684448 382.856075,161.708486 C379.70441,162.732524 376.319332,161.007741 375.295294,157.856075 Z" opacity=".527"/>
    <path d="M200.295294,157.856075 C199.271256,154.70441 200.996039,151.319332 204.147705,150.295294 C207.29937,149.271256 210.684448,150.996039 211.708486,154.147705 C212.732524,157.29937 211.007741,160.684448 207.856075,161.708486 C204.70441,162.732524 201.319332,161.007741 200.295294,157.856075 Z" opacity=".523"/>
    <path d="M150.295294,157.856075 C149.271256,154.70441 150.996039,151.319332 154.147705,150.295294 C157.29937,149.271256 160.684448,150.996039 161.708486,154.147705 C162.732524,157.29937 161.007741,160.684448 157.856075,161.708486 C154.70441,162.732524 151.319332,161.007741 150.295294,157.856075 Z" opacity=".4"/>
    <path d="M125.295294,157.856075 C124.271256,154.70441 125.996039,151.319332 129.147705,150.295294 C132.29937,149.271256 135.684448,150.996039 136.708486,154.147705 C137.732524,157.29937 136.007741,160.684448 132.856075,161.708486 C129.70441,162.732524 126.319332,161.007741 125.295294,157.856075 Z" opacity=".564"/>
    <path d="M100.295294,157.856075 C99.2712559,154.70441 100.996039,151.319332 104.147705,150.295294 C107.29937,149.271256 110.684448,150.996039 111.708486,154.147705 C112.732524,157.29937 111.007741,160.684448 107.856075,161.708486 C104.70441,162.732524 101.319332,161.007741 100.295294,157.856075 Z" opacity=".015"/>
    <path d="M75.2952942,157.856075 C74.2712559,154.70441 75.9960388,151.319332 79.1477046,150.295294 C82.2993705,149.271256 85.6844475,150.996039 86.7084858,154.147705 C87.7325241,157.29937 86.0077412,160.684448 82.8560754,161.708486 C79.7044095,162.732524 76.3193325,161.007741 75.2952942,157.856075 Z" opacity=".444"/>
    <path d="M825.295294,132.856075 C824.271256,129.70441 825.996039,126.319332 829.147705,125.295294 C832.29937,124.271256 835.684448,125.996039 836.708486,129.147705 C837.732524,132.29937 836.007741,135.684448 832.856075,136.708486 C829.70441,137.732524 826.319332,136.007741 825.295294,132.856075 Z" opacity=".499"/>
    <path d="M800.295294,132.856075 C799.271256,129.70441 800.996039,126.319332 804.147705,125.295294 C807.29937,124.271256 810.684448,125.996039 811.708486,129.147705 C812.732524,132.29937 811.007741,135.684448 807.856075,136.708486 C804.70441,137.732524 801.319332,136.007741 800.295294,132.856075 Z" opacity=".633"/>
    <path d="M775.295294,132.856075 C774.271256,129.70441 775.996039,126.319332 779.147705,125.295294 C782.29937,124.271256 785.684448,125.996039 786.708486,129.147705 C787.732524,132.29937 786.007741,135.684448 782.856075,136.708486 C779.70441,137.732524 776.319332,136.007741 775.295294,132.856075 Z" opacity=".033"/>
    <path d="M725.295294,132.856075 C724.271256,129.70441 725.996039,126.319332 729.147705,125.295294 C732.29937,124.271256 735.684448,125.996039 736.708486,129.147705 C737.732524,132.29937 736.007741,135.684448 732.856075,136.708486 C729.70441,137.732524 726.319332,136.007741 725.295294,132.856075 Z" opacity=".865"/>
    <path d="M700.295294,132.856075 C699.271256,129.70441 700.996039,126.319332 704.147705,125.295294 C707.29937,124.271256 710.684448,125.996039 711.708486,129.147705 C712.732524,132.29937 711.007741,135.684448 707.856075,136.708486 C704.70441,137.732524 701.319332,136.007741 700.295294,132.856075 Z" opacity=".202"/>
    <path d="M675.295294,132.856075 C674.271256,129.70441 675.996039,126.319332 679.147705,125.295294 C682.29937,124.271256 685.684448,125.996039 686.708486,129.147705 C687.732524,132.29937 686.007741,135.684448 682.856075,136.708486 C679.70441,137.732524 676.319332,136.007741 675.295294,132.856075 Z" opacity=".737"/>
    <path d="M650.295294,132.856075 C649.271256,129.70441 650.996039,126.319332 654.147705,125.295294 C657.29937,124.271256 660.684448,125.996039 661.708486,129.147705 C662.732524,132.29937 661.007741,135.684448 657.856075,136.708486 C654.70441,137.732524 651.319332,136.007741 650.295294,132.856075 Z" opacity=".73"/>
    <path d="M550.295294,132.856075 C549.271256,129.70441 550.996039,126.319332 554.147705,125.295294 C557.29937,124.271256 560.684448,125.996039 561.708486,129.147705 C562.732524,132.29937 561.007741,135.684448 557.856075,136.708486 C554.70441,137.732524 551.319332,136.007741 550.295294,132.856075 Z" opacity=".011"/>
    <path d="M525.295294,132.856075 C524.271256,129.70441 525.996039,126.319332 529.147705,125.295294 C532.29937,124.271256 535.684448,125.996039 536.708486,129.147705 C537.732524,132.29937 536.007741,135.684448 532.856075,136.708486 C529.70441,137.732524 526.319332,136.007741 525.295294,132.856075 Z" opacity=".753"/>
    <path d="M500.295294,132.856075 C499.271256,129.70441 500.996039,126.319332 504.147705,125.295294 C507.29937,124.271256 510.684448,125.996039 511.708486,129.147705 C512.732524,132.29937 511.007741,135.684448 507.856075,136.708486 C504.70441,137.732524 501.319332,136.007741 500.295294,132.856075 Z" opacity=".322"/>
    <path d="M450.295294,132.856075 C449.271256,129.70441 450.996039,126.319332 454.147705,125.295294 C457.29937,124.271256 460.684448,125.996039 461.708486,129.147705 C462.732524,132.29937 461.007741,135.684448 457.856075,136.708486 C454.70441,137.732524 451.319332,136.007741 450.295294,132.856075 Z" opacity=".372"/>
    <path d="M425.295294,132.856075 C424.271256,129.70441 425.996039,126.319332 429.147705,125.295294 C432.29937,124.271256 435.684448,125.996039 436.708486,129.147705 C437.732524,132.29937 436.007741,135.684448 432.856075,136.708486 C429.70441,137.732524 426.319332,136.007741 425.295294,132.856075 Z" opacity=".456"/>
    <path d="M400.295294,132.856075 C399.271256,129.70441 400.996039,126.319332 404.147705,125.295294 C407.29937,124.271256 410.684448,125.996039 411.708486,129.147705 C412.732524,132.29937 411.007741,135.684448 407.856075,136.708486 C404.70441,137.732524 401.319332,136.007741 400.295294,132.856075 Z" opacity=".476"/>
    <path d="M375.295294,132.856075 C374.271256,129.70441 375.996039,126.319332 379.147705,125.295294 C382.29937,124.271256 385.684448,125.996039 386.708486,129.147705 C387.732524,132.29937 386.007741,135.684448 382.856075,136.708486 C379.70441,137.732524 376.319332,136.007741 375.295294,132.856075 Z" opacity=".288"/>
    <path d="M300.295294,132.856075 C299.271256,129.70441 300.996039,126.319332 304.147705,125.295294 C307.29937,124.271256 310.684448,125.996039 311.708486,129.147705 C312.732524,132.29937 311.007741,135.684448 307.856075,136.708486 C304.70441,137.732524 301.319332,136.007741 300.295294,132.856075 Z" opacity=".773"/>
    <path d="M225.295294,132.856075 C224.271256,129.70441 225.996039,126.319332 229.147705,125.295294 C232.29937,124.271256 235.684448,125.996039 236.708486,129.147705 C237.732524,132.29937 236.007741,135.684448 232.856075,136.708486 C229.70441,137.732524 226.319332,136.007741 225.295294,132.856075 Z" opacity=".515"/>
    <path d="M200.295294,132.856075 C199.271256,129.70441 200.996039,126.319332 204.147705,125.295294 C207.29937,124.271256 210.684448,125.996039 211.708486,129.147705 C212.732524,132.29937 211.007741,135.684448 207.856075,136.708486 C204.70441,137.732524 201.319332,136.007741 200.295294,132.856075 Z" opacity=".062"/>
    <path d="M150.295294,132.856075 C149.271256,129.70441 150.996039,126.319332 154.147705,125.295294 C157.29937,124.271256 160.684448,125.996039 161.708486,129.147705 C162.732524,132.29937 161.007741,135.684448 157.856075,136.708486 C154.70441,137.732524 151.319332,136.007741 150.295294,132.856075 Z" opacity=".961"/>
    <path d="M125.295294,132.856075 C124.271256,129.70441 125.996039,126.319332 129.147705,125.295294 C132.29937,124.271256 135.684448,125.996039 136.708486,129.147705 C137.732524,132.29937 136.007741,135.684448 132.856075,136.708486 C129.70441,137.732524 126.319332,136.007741 125.295294,132.856075 Z" opacity=".627"/>
    <path d="M100.295294,132.856075 C99.2712559,129.70441 100.996039,126.319332 104.147705,125.295294 C107.29937,124.271256 110.684448,125.996039 111.708486,129.147705 C112.732524,132.29937 111.007741,135.684448 107.856075,136.708486 C104.70441,137.732524 101.319332,136.007741 100.295294,132.856075 Z" opacity=".013"/>
    <path d="M75.2952942,132.856075 C74.2712559,129.70441 75.9960388,126.319332 79.1477046,125.295294 C82.2993705,124.271256 85.6844475,125.996039 86.7084858,129.147705 C87.7325241,132.29937 86.0077412,135.684448 82.8560754,136.708486 C79.7044095,137.732524 76.3193325,136.007741 75.2952942,132.856075 Z" opacity=".831"/>
    <path d="M825.295294,107.856075 C824.271256,104.70441 825.996039,101.319332 829.147705,100.295294 C832.29937,99.2712559 835.684448,100.996039 836.708486,104.147705 C837.732524,107.29937 836.007741,110.684448 832.856075,111.708486 C829.70441,112.732524 826.319332,111.007741 825.295294,107.856075 Z" opacity=".689"/>
    <path d="M800.295294,107.856075 C799.271256,104.70441 800.996039,101.319332 804.147705,100.295294 C807.29937,99.2712559 810.684448,100.996039 811.708486,104.147705 C812.732524,107.29937 811.007741,110.684448 807.856075,111.708486 C804.70441,112.732524 801.319332,111.007741 800.295294,107.856075 Z" opacity=".014"/>
    <path d="M775.295294,107.856075 C774.271256,104.70441 775.996039,101.319332 779.147705,100.295294 C782.29937,99.2712559 785.684448,100.996039 786.708486,104.147705 C787.732524,107.29937 786.007741,110.684448 782.856075,111.708486 C779.70441,112.732524 776.319332,111.007741 775.295294,107.856075 Z" opacity=".408"/>
    <path d="M725.295294,107.856075 C724.271256,104.70441 725.996039,101.319332 729.147705,100.295294 C732.29937,99.2712559 735.684448,100.996039 736.708486,104.147705 C737.732524,107.29937 736.007741,110.684448 732.856075,111.708486 C729.70441,112.732524 726.319332,111.007741 725.295294,107.856075 Z" opacity=".998"/>
    <path d="M700.295294,107.856075 C699.271256,104.70441 700.996039,101.319332 704.147705,100.295294 C707.29937,99.2712559 710.684448,100.996039 711.708486,104.147705 C712.732524,107.29937 711.007741,110.684448 707.856075,111.708486 C704.70441,112.732524 701.319332,111.007741 700.295294,107.856075 Z" opacity=".062"/>
    <path d="M675.295294,107.856075 C674.271256,104.70441 675.996039,101.319332 679.147705,100.295294 C682.29937,99.2712559 685.684448,100.996039 686.708486,104.147705 C687.732524,107.29937 686.007741,110.684448 682.856075,111.708486 C679.70441,112.732524 676.319332,111.007741 675.295294,107.856075 Z" opacity=".523"/>
    <path d="M650.295294,107.856075 C649.271256,104.70441 650.996039,101.319332 654.147705,100.295294 C657.29937,99.2712559 660.684448,100.996039 661.708486,104.147705 C662.732524,107.29937 661.007741,110.684448 657.856075,111.708486 C654.70441,112.732524 651.319332,111.007741 650.295294,107.856075 Z" opacity=".804"/>
    <path d="M625.295294,107.856075 C624.271256,104.70441 625.996039,101.319332 629.147705,100.295294 C632.29937,99.2712559 635.684448,100.996039 636.708486,104.147705 C637.732524,107.29937 636.007741,110.684448 632.856075,111.708486 C629.70441,112.732524 626.319332,111.007741 625.295294,107.856075 Z" opacity=".266"/>
    <path d="M600.295294,107.856075 C599.271256,104.70441 600.996039,101.319332 604.147705,100.295294 C607.29937,99.2712559 610.684448,100.996039 611.708486,104.147705 C612.732524,107.29937 611.007741,110.684448 607.856075,111.708486 C604.70441,112.732524 601.319332,111.007741 600.295294,107.856075 Z" opacity=".875"/>
    <path d="M575.295294,107.856075 C574.271256,104.70441 575.996039,101.319332 579.147705,100.295294 C582.29937,99.2712559 585.684448,100.996039 586.708486,104.147705 C587.732524,107.29937 586.007741,110.684448 582.856075,111.708486 C579.70441,112.732524 576.319332,111.007741 575.295294,107.856075 Z" opacity=".013"/>
    <path d="M550.295294,107.856075 C549.271256,104.70441 550.996039,101.319332 554.147705,100.295294 C557.29937,99.2712559 560.684448,100.996039 561.708486,104.147705 C562.732524,107.29937 561.007741,110.684448 557.856075,111.708486 C554.70441,112.732524 551.319332,111.007741 550.295294,107.856075 Z" opacity=".021"/>
    <path d="M525.295294,107.856075 C524.271256,104.70441 525.996039,101.319332 529.147705,100.295294 C532.29937,99.2712559 535.684448,100.996039 536.708486,104.147705 C537.732524,107.29937 536.007741,110.684448 532.856075,111.708486 C529.70441,112.732524 526.319332,111.007741 525.295294,107.856075 Z" opacity=".29"/>
    <path d="M500.295294,107.856075 C499.271256,104.70441 500.996039,101.319332 504.147705,100.295294 C507.29937,99.2712559 510.684448,100.996039 511.708486,104.147705 C512.732524,107.29937 511.007741,110.684448 507.856075,111.708486 C504.70441,112.732524 501.319332,111.007741 500.295294,107.856075 Z" opacity=".546"/>
    <path d="M450.295294,107.856075 C449.271256,104.70441 450.996039,101.319332 454.147705,100.295294 C457.29937,99.2712559 460.684448,100.996039 461.708486,104.147705 C462.732524,107.29937 461.007741,110.684448 457.856075,111.708486 C454.70441,112.732524 451.319332,111.007741 450.295294,107.856075 Z" opacity=".948"/>
    <path d="M425.295294,107.856075 C424.271256,104.70441 425.996039,101.319332 429.147705,100.295294 C432.29937,99.2712559 435.684448,100.996039 436.708486,104.147705 C437.732524,107.29937 436.007741,110.684448 432.856075,111.708486 C429.70441,112.732524 426.319332,111.007741 425.295294,107.856075 Z" opacity=".167"/>
    <path d="M400.295294,107.856075 C399.271256,104.70441 400.996039,101.319332 404.147705,100.295294 C407.29937,99.2712559 410.684448,100.996039 411.708486,104.147705 C412.732524,107.29937 411.007741,110.684448 407.856075,111.708486 C404.70441,112.732524 401.319332,111.007741 400.295294,107.856075 Z" opacity=".009"/>
    <path d="M375.295294,107.856075 C374.271256,104.70441 375.996039,101.319332 379.147705,100.295294 C382.29937,99.2712559 385.684448,100.996039 386.708486,104.147705 C387.732524,107.29937 386.007741,110.684448 382.856075,111.708486 C379.70441,112.732524 376.319332,111.007741 375.295294,107.856075 Z" opacity=".087"/>
    <path d="M350.295294,107.856075 C349.271256,104.70441 350.996039,101.319332 354.147705,100.295294 C357.29937,99.2712559 360.684448,100.996039 361.708486,104.147705 C362.732524,107.29937 361.007741,110.684448 357.856075,111.708486 C354.70441,112.732524 351.319332,111.007741 350.295294,107.856075 Z" opacity=".255"/>
    <path d="M325.295294,107.856075 C324.271256,104.70441 325.996039,101.319332 329.147705,100.295294 C332.29937,99.2712559 335.684448,100.996039 336.708486,104.147705 C337.732524,107.29937 336.007741,110.684448 332.856075,111.708486 C329.70441,112.732524 326.319332,111.007741 325.295294,107.856075 Z" opacity=".161"/>
    <path d="M300.295294,107.856075 C299.271256,104.70441 300.996039,101.319332 304.147705,100.295294 C307.29937,99.2712559 310.684448,100.996039 311.708486,104.147705 C312.732524,107.29937 311.007741,110.684448 307.856075,111.708486 C304.70441,112.732524 301.319332,111.007741 300.295294,107.856075 Z" opacity=".414"/>
    <path d="M250.295294,107.856075 C249.271256,104.70441 250.996039,101.319332 254.147705,100.295294 C257.29937,99.2712559 260.684448,100.996039 261.708486,104.147705 C262.732524,107.29937 261.007741,110.684448 257.856075,111.708486 C254.70441,112.732524 251.319332,111.007741 250.295294,107.856075 Z" opacity=".4"/>
    <path d="M225.295294,107.856075 C224.271256,104.70441 225.996039,101.319332 229.147705,100.295294 C232.29937,99.2712559 235.684448,100.996039 236.708486,104.147705 C237.732524,107.29937 236.007741,110.684448 232.856075,111.708486 C229.70441,112.732524 226.319332,111.007741 225.295294,107.856075 Z" opacity=".699"/>
    <path d="M200.295294,107.856075 C199.271256,104.70441 200.996039,101.319332 204.147705,100.295294 C207.29937,99.2712559 210.684448,100.996039 211.708486,104.147705 C212.732524,107.29937 211.007741,110.684448 207.856075,111.708486 C204.70441,112.732524 201.319332,111.007741 200.295294,107.856075 Z" opacity=".153"/>
    <path d="M175.295294,107.856075 C174.271256,104.70441 175.996039,101.319332 179.147705,100.295294 C182.29937,99.2712559 185.684448,100.996039 186.708486,104.147705 C187.732524,107.29937 186.007741,110.684448 182.856075,111.708486 C179.70441,112.732524 176.319332,111.007741 175.295294,107.856075 Z" opacity=".654"/>
    <path d="M150.295294,107.856075 C149.271256,104.70441 150.996039,101.319332 154.147705,100.295294 C157.29937,99.2712559 160.684448,100.996039 161.708486,104.147705 C162.732524,107.29937 161.007741,110.684448 157.856075,111.708486 C154.70441,112.732524 151.319332,111.007741 150.295294,107.856075 Z" opacity=".116"/>
    <path d="M125.295294,107.856075 C124.271256,104.70441 125.996039,101.319332 129.147705,100.295294 C132.29937,99.2712559 135.684448,100.996039 136.708486,104.147705 C137.732524,107.29937 136.007741,110.684448 132.856075,111.708486 C129.70441,112.732524 126.319332,111.007741 125.295294,107.856075 Z" opacity=".965"/>
    <path d="M100.295294,107.856075 C99.2712559,104.70441 100.996039,101.319332 104.147705,100.295294 C107.29937,99.2712559 110.684448,100.996039 111.708486,104.147705 C112.732524,107.29937 111.007741,110.684448 107.856075,111.708486 C104.70441,112.732524 101.319332,111.007741 100.295294,107.856075 Z" opacity=".723"/>
    <path d="M75.2952942,107.856075 C74.2712559,104.70441 75.9960388,101.319332 79.1477046,100.295294 C82.2993705,99.2712559 85.6844475,100.996039 86.7084858,104.147705 C87.7325241,107.29937 86.0077412,110.684448 82.8560754,111.708486 C79.7044095,112.732524 76.3193325,111.007741 75.2952942,107.856075 Z" opacity=".609"/>
    <path d="M850.295294,82.8560754 C849.271256,79.7044095 850.996039,76.3193325 854.147705,75.2952942 C857.29937,74.2712559 860.684448,75.9960388 861.708486,79.1477046 C862.732524,82.2993705 861.007741,85.6844475 857.856075,86.7084858 C854.70441,87.7325241 851.319332,86.0077412 850.295294,82.8560754 Z" opacity=".285"/>
    <path d="M825.295294,82.8560754 C824.271256,79.7044095 825.996039,76.3193325 829.147705,75.2952942 C832.29937,74.2712559 835.684448,75.9960388 836.708486,79.1477046 C837.732524,82.2993705 836.007741,85.6844475 832.856075,86.7084858 C829.70441,87.7325241 826.319332,86.0077412 825.295294,82.8560754 Z" opacity=".115"/>
    <path d="M800.295294,82.8560754 C799.271256,79.7044095 800.996039,76.3193325 804.147705,75.2952942 C807.29937,74.2712559 810.684448,75.9960388 811.708486,79.1477046 C812.732524,82.2993705 811.007741,85.6844475 807.856075,86.7084858 C804.70441,87.7325241 801.319332,86.0077412 800.295294,82.8560754 Z" opacity=".526"/>
    <path d="M775.295294,82.8560754 C774.271256,79.7044095 775.996039,76.3193325 779.147705,75.2952942 C782.29937,74.2712559 785.684448,75.9960388 786.708486,79.1477046 C787.732524,82.2993705 786.007741,85.6844475 782.856075,86.7084858 C779.70441,87.7325241 776.319332,86.0077412 775.295294,82.8560754 Z" opacity=".656"/>
    <path d="M725.295294,82.8560754 C724.271256,79.7044095 725.996039,76.3193325 729.147705,75.2952942 C732.29937,74.2712559 735.684448,75.9960388 736.708486,79.1477046 C737.732524,82.2993705 736.007741,85.6844475 732.856075,86.7084858 C729.70441,87.7325241 726.319332,86.0077412 725.295294,82.8560754 Z" opacity=".092"/>
    <path d="M700.295294,82.8560754 C699.271256,79.7044095 700.996039,76.3193325 704.147705,75.2952942 C707.29937,74.2712559 710.684448,75.9960388 711.708486,79.1477046 C712.732524,82.2993705 711.007741,85.6844475 707.856075,86.7084858 C704.70441,87.7325241 701.319332,86.0077412 700.295294,82.8560754 Z" opacity=".442"/>
    <path d="M675.295294,82.8560754 C674.271256,79.7044095 675.996039,76.3193325 679.147705,75.2952942 C682.29937,74.2712559 685.684448,75.9960388 686.708486,79.1477046 C687.732524,82.2993705 686.007741,85.6844475 682.856075,86.7084858 C679.70441,87.7325241 676.319332,86.0077412 675.295294,82.8560754 Z" opacity=".457"/>
    <path d="M650.295294,82.8560754 C649.271256,79.7044095 650.996039,76.3193325 654.147705,75.2952942 C657.29937,74.2712559 660.684448,75.9960388 661.708486,79.1477046 C662.732524,82.2993705 661.007741,85.6844475 657.856075,86.7084858 C654.70441,87.7325241 651.319332,86.0077412 650.295294,82.8560754 Z" opacity=".134"/>
    <path d="M625.295294,82.8560754 C624.271256,79.7044095 625.996039,76.3193325 629.147705,75.2952942 C632.29937,74.2712559 635.684448,75.9960388 636.708486,79.1477046 C637.732524,82.2993705 636.007741,85.6844475 632.856075,86.7084858 C629.70441,87.7325241 626.319332,86.0077412 625.295294,82.8560754 Z" opacity=".407"/>
    <path d="M600.295294,82.8560754 C599.271256,79.7044095 600.996039,76.3193325 604.147705,75.2952942 C607.29937,74.2712559 610.684448,75.9960388 611.708486,79.1477046 C612.732524,82.2993705 611.007741,85.6844475 607.856075,86.7084858 C604.70441,87.7325241 601.319332,86.0077412 600.295294,82.8560754 Z" opacity=".627"/>
    <path d="M575.295294,82.8560754 C574.271256,79.7044095 575.996039,76.3193325 579.147705,75.2952942 C582.29937,74.2712559 585.684448,75.9960388 586.708486,79.1477046 C587.732524,82.2993705 586.007741,85.6844475 582.856075,86.7084858 C579.70441,87.7325241 576.319332,86.0077412 575.295294,82.8560754 Z" opacity=".614"/>
    <path d="M550.295294,82.8560754 C549.271256,79.7044095 550.996039,76.3193325 554.147705,75.2952942 C557.29937,74.2712559 560.684448,75.9960388 561.708486,79.1477046 C562.732524,82.2993705 561.007741,85.6844475 557.856075,86.7084858 C554.70441,87.7325241 551.319332,86.0077412 550.295294,82.8560754 Z" opacity=".156"/>
    <path d="M525.295294,82.8560754 C524.271256,79.7044095 525.996039,76.3193325 529.147705,75.2952942 C532.29937,74.2712559 535.684448,75.9960388 536.708486,79.1477046 C537.732524,82.2993705 536.007741,85.6844475 532.856075,86.7084858 C529.70441,87.7325241 526.319332,86.0077412 525.295294,82.8560754 Z" opacity=".693"/>
    <path d="M500.295294,82.8560754 C499.271256,79.7044095 500.996039,76.3193325 504.147705,75.2952942 C507.29937,74.2712559 510.684448,75.9960388 511.708486,79.1477046 C512.732524,82.2993705 511.007741,85.6844475 507.856075,86.7084858 C504.70441,87.7325241 501.319332,86.0077412 500.295294,82.8560754 Z" opacity=".981"/>
    <path d="M475.295294,82.8560754 C474.271256,79.7044095 475.996039,76.3193325 479.147705,75.2952942 C482.29937,74.2712559 485.684448,75.9960388 486.708486,79.1477046 C487.732524,82.2993705 486.007741,85.6844475 482.856075,86.7084858 C479.70441,87.7325241 476.319332,86.0077412 475.295294,82.8560754 Z" opacity=".113"/>
    <path d="M450.295294,82.8560754 C449.271256,79.7044095 450.996039,76.3193325 454.147705,75.2952942 C457.29937,74.2712559 460.684448,75.9960388 461.708486,79.1477046 C462.732524,82.2993705 461.007741,85.6844475 457.856075,86.7084858 C454.70441,87.7325241 451.319332,86.0077412 450.295294,82.8560754 Z" opacity=".822"/>
    <path d="M425.295294,82.8560754 C424.271256,79.7044095 425.996039,76.3193325 429.147705,75.2952942 C432.29937,74.2712559 435.684448,75.9960388 436.708486,79.1477046 C437.732524,82.2993705 436.007741,85.6844475 432.856075,86.7084858 C429.70441,87.7325241 426.319332,86.0077412 425.295294,82.8560754 Z" opacity=".697"/>
    <path d="M400.295294,82.8560754 C399.271256,79.7044095 400.996039,76.3193325 404.147705,75.2952942 C407.29937,74.2712559 410.684448,75.9960388 411.708486,79.1477046 C412.732524,82.2993705 411.007741,85.6844475 407.856075,86.7084858 C404.70441,87.7325241 401.319332,86.0077412 400.295294,82.8560754 Z" opacity=".554"/>
    <path d="M375.295294,82.8560754 C374.271256,79.7044095 375.996039,76.3193325 379.147705,75.2952942 C382.29937,74.2712559 385.684448,75.9960388 386.708486,79.1477046 C387.732524,82.2993705 386.007741,85.6844475 382.856075,86.7084858 C379.70441,87.7325241 376.319332,86.0077412 375.295294,82.8560754 Z" opacity=".189"/>
    <path d="M350.295294,82.8560754 C349.271256,79.7044095 350.996039,76.3193325 354.147705,75.2952942 C357.29937,74.2712559 360.684448,75.9960388 361.708486,79.1477046 C362.732524,82.2993705 361.007741,85.6844475 357.856075,86.7084858 C354.70441,87.7325241 351.319332,86.0077412 350.295294,82.8560754 Z" opacity=".972"/>
    <path d="M325.295294,82.8560754 C324.271256,79.7044095 325.996039,76.3193325 329.147705,75.2952942 C332.29937,74.2712559 335.684448,75.9960388 336.708486,79.1477046 C337.732524,82.2993705 336.007741,85.6844475 332.856075,86.7084858 C329.70441,87.7325241 326.319332,86.0077412 325.295294,82.8560754 Z" opacity=".868"/>
    <path d="M300.295294,82.8560754 C299.271256,79.7044095 300.996039,76.3193325 304.147705,75.2952942 C307.29937,74.2712559 310.684448,75.9960388 311.708486,79.1477046 C312.732524,82.2993705 311.007741,85.6844475 307.856075,86.7084858 C304.70441,87.7325241 301.319332,86.0077412 300.295294,82.8560754 Z" opacity=".937"/>
    <path d="M250.295294,82.8560754 C249.271256,79.7044095 250.996039,76.3193325 254.147705,75.2952942 C257.29937,74.2712559 260.684448,75.9960388 261.708486,79.1477046 C262.732524,82.2993705 261.007741,85.6844475 257.856075,86.7084858 C254.70441,87.7325241 251.319332,86.0077412 250.295294,82.8560754 Z" opacity=".366"/>
    <path d="M225.295294,82.8560754 C224.271256,79.7044095 225.996039,76.3193325 229.147705,75.2952942 C232.29937,74.2712559 235.684448,75.9960388 236.708486,79.1477046 C237.732524,82.2993705 236.007741,85.6844475 232.856075,86.7084858 C229.70441,87.7325241 226.319332,86.0077412 225.295294,82.8560754 Z" opacity=".319"/>
    <path d="M200.295294,82.8560754 C199.271256,79.7044095 200.996039,76.3193325 204.147705,75.2952942 C207.29937,74.2712559 210.684448,75.9960388 211.708486,79.1477046 C212.732524,82.2993705 211.007741,85.6844475 207.856075,86.7084858 C204.70441,87.7325241 201.319332,86.0077412 200.295294,82.8560754 Z" opacity=".557"/>
    <path d="M175.295294,82.8560754 C174.271256,79.7044095 175.996039,76.3193325 179.147705,75.2952942 C182.29937,74.2712559 185.684448,75.9960388 186.708486,79.1477046 C187.732524,82.2993705 186.007741,85.6844475 182.856075,86.7084858 C179.70441,87.7325241 176.319332,86.0077412 175.295294,82.8560754 Z" opacity=".171"/>
    <path d="M150.295294,82.8560754 C149.271256,79.7044095 150.996039,76.3193325 154.147705,75.2952942 C157.29937,74.2712559 160.684448,75.9960388 161.708486,79.1477046 C162.732524,82.2993705 161.007741,85.6844475 157.856075,86.7084858 C154.70441,87.7325241 151.319332,86.0077412 150.295294,82.8560754 Z" opacity=".38"/>
    <path d="M125.295294,82.8560754 C124.271256,79.7044095 125.996039,76.3193325 129.147705,75.2952942 C132.29937,74.2712559 135.684448,75.9960388 136.708486,79.1477046 C137.732524,82.2993705 136.007741,85.6844475 132.856075,86.7084858 C129.70441,87.7325241 126.319332,86.0077412 125.295294,82.8560754 Z" opacity=".369"/>
    <path d="M100.295294,82.8560754 C99.2712559,79.7044095 100.996039,76.3193325 104.147705,75.2952942 C107.29937,74.2712559 110.684448,75.9960388 111.708486,79.1477046 C112.732524,82.2993705 111.007741,85.6844475 107.856075,86.7084858 C104.70441,87.7325241 101.319332,86.0077412 100.295294,82.8560754 Z" opacity=".514"/>
    <path d="M75.2952942,82.8560754 C74.2712559,79.7044095 75.9960388,76.3193325 79.1477046,75.2952942 C82.2993705,74.2712559 85.6844475,75.9960388 86.7084858,79.1477046 C87.7325241,82.2993705 86.0077412,85.6844475 82.8560754,86.7084858 C79.7044095,87.7325241 76.3193325,86.0077412 75.2952942,82.8560754 Z" opacity=".183"/>
    <path d="M850.295294,57.8560754 C849.271256,54.7044095 850.996039,51.3193325 854.147705,50.2952942 C857.29937,49.2712559 860.684448,50.9960388 861.708486,54.1477046 C862.732524,57.2993705 861.007741,60.6844475 857.856075,61.7084858 C854.70441,62.7325241 851.319332,61.0077412 850.295294,57.8560754 Z" opacity=".142"/>
    <path d="M825.295294,57.8560754 C824.271256,54.7044095 825.996039,51.3193325 829.147705,50.2952942 C832.29937,49.2712559 835.684448,50.9960388 836.708486,54.1477046 C837.732524,57.2993705 836.007741,60.6844475 832.856075,61.7084858 C829.70441,62.7325241 826.319332,61.0077412 825.295294,57.8560754 Z" opacity=".533"/>
    <path d="M800.295294,57.8560754 C799.271256,54.7044095 800.996039,51.3193325 804.147705,50.2952942 C807.29937,49.2712559 810.684448,50.9960388 811.708486,54.1477046 C812.732524,57.2993705 811.007741,60.6844475 807.856075,61.7084858 C804.70441,62.7325241 801.319332,61.0077412 800.295294,57.8560754 Z" opacity=".937"/>
    <path d="M775.295294,57.8560754 C774.271256,54.7044095 775.996039,51.3193325 779.147705,50.2952942 C782.29937,49.2712559 785.684448,50.9960388 786.708486,54.1477046 C787.732524,57.2993705 786.007741,60.6844475 782.856075,61.7084858 C779.70441,62.7325241 776.319332,61.0077412 775.295294,57.8560754 Z" opacity=".79"/>
    <path d="M725.295294,57.8560754 C724.271256,54.7044095 725.996039,51.3193325 729.147705,50.2952942 C732.29937,49.2712559 735.684448,50.9960388 736.708486,54.1477046 C737.732524,57.2993705 736.007741,60.6844475 732.856075,61.7084858 C729.70441,62.7325241 726.319332,61.0077412 725.295294,57.8560754 Z" opacity=".249"/>
    <path d="M700.295294,57.8560754 C699.271256,54.7044095 700.996039,51.3193325 704.147705,50.2952942 C707.29937,49.2712559 710.684448,50.9960388 711.708486,54.1477046 C712.732524,57.2993705 711.007741,60.6844475 707.856075,61.7084858 C704.70441,62.7325241 701.319332,61.0077412 700.295294,57.8560754 Z" opacity=".586"/>
    <path d="M675.295294,57.8560754 C674.271256,54.7044095 675.996039,51.3193325 679.147705,50.2952942 C682.29937,49.2712559 685.684448,50.9960388 686.708486,54.1477046 C687.732524,57.2993705 686.007741,60.6844475 682.856075,61.7084858 C679.70441,62.7325241 676.319332,61.0077412 675.295294,57.8560754 Z" opacity=".786"/>
    <path d="M650.295294,57.8560754 C649.271256,54.7044095 650.996039,51.3193325 654.147705,50.2952942 C657.29937,49.2712559 660.684448,50.9960388 661.708486,54.1477046 C662.732524,57.2993705 661.007741,60.6844475 657.856075,61.7084858 C654.70441,62.7325241 651.319332,61.0077412 650.295294,57.8560754 Z" opacity=".797"/>
    <path d="M625.295294,57.8560754 C624.271256,54.7044095 625.996039,51.3193325 629.147705,50.2952942 C632.29937,49.2712559 635.684448,50.9960388 636.708486,54.1477046 C637.732524,57.2993705 636.007741,60.6844475 632.856075,61.7084858 C629.70441,62.7325241 626.319332,61.0077412 625.295294,57.8560754 Z" opacity=".598"/>
    <path d="M600.295294,57.8560754 C599.271256,54.7044095 600.996039,51.3193325 604.147705,50.2952942 C607.29937,49.2712559 610.684448,50.9960388 611.708486,54.1477046 C612.732524,57.2993705 611.007741,60.6844475 607.856075,61.7084858 C604.70441,62.7325241 601.319332,61.0077412 600.295294,57.8560754 Z" opacity=".253"/>
    <path d="M575.295294,57.8560754 C574.271256,54.7044095 575.996039,51.3193325 579.147705,50.2952942 C582.29937,49.2712559 585.684448,50.9960388 586.708486,54.1477046 C587.732524,57.2993705 586.007741,60.6844475 582.856075,61.7084858 C579.70441,62.7325241 576.319332,61.0077412 575.295294,57.8560754 Z" opacity=".059"/>
    <path d="M550.295294,57.8560754 C549.271256,54.7044095 550.996039,51.3193325 554.147705,50.2952942 C557.29937,49.2712559 560.684448,50.9960388 561.708486,54.1477046 C562.732524,57.2993705 561.007741,60.6844475 557.856075,61.7084858 C554.70441,62.7325241 551.319332,61.0077412 550.295294,57.8560754 Z" opacity=".219"/>
    <path d="M525.295294,57.8560754 C524.271256,54.7044095 525.996039,51.3193325 529.147705,50.2952942 C532.29937,49.2712559 535.684448,50.9960388 536.708486,54.1477046 C537.732524,57.2993705 536.007741,60.6844475 532.856075,61.7084858 C529.70441,62.7325241 526.319332,61.0077412 525.295294,57.8560754 Z" opacity=".581"/>
    <path d="M500.295294,57.8560754 C499.271256,54.7044095 500.996039,51.3193325 504.147705,50.2952942 C507.29937,49.2712559 510.684448,50.9960388 511.708486,54.1477046 C512.732524,57.2993705 511.007741,60.6844475 507.856075,61.7084858 C504.70441,62.7325241 501.319332,61.0077412 500.295294,57.8560754 Z" opacity=".031"/>
    <path d="M475.295294,57.8560754 C474.271256,54.7044095 475.996039,51.3193325 479.147705,50.2952942 C482.29937,49.2712559 485.684448,50.9960388 486.708486,54.1477046 C487.732524,57.2993705 486.007741,60.6844475 482.856075,61.7084858 C479.70441,62.7325241 476.319332,61.0077412 475.295294,57.8560754 Z" opacity=".214"/>
    <path d="M450.295294,57.8560754 C449.271256,54.7044095 450.996039,51.3193325 454.147705,50.2952942 C457.29937,49.2712559 460.684448,50.9960388 461.708486,54.1477046 C462.732524,57.2993705 461.007741,60.6844475 457.856075,61.7084858 C454.70441,62.7325241 451.319332,61.0077412 450.295294,57.8560754 Z" opacity=".669"/>
    <path d="M425.295294,57.8560754 C424.271256,54.7044095 425.996039,51.3193325 429.147705,50.2952942 C432.29937,49.2712559 435.684448,50.9960388 436.708486,54.1477046 C437.732524,57.2993705 436.007741,60.6844475 432.856075,61.7084858 C429.70441,62.7325241 426.319332,61.0077412 425.295294,57.8560754 Z" opacity=".512"/>
    <path d="M400.295294,57.8560754 C399.271256,54.7044095 400.996039,51.3193325 404.147705,50.2952942 C407.29937,49.2712559 410.684448,50.9960388 411.708486,54.1477046 C412.732524,57.2993705 411.007741,60.6844475 407.856075,61.7084858 C404.70441,62.7325241 401.319332,61.0077412 400.295294,57.8560754 Z" opacity=".613"/>
    <path d="M375.295294,57.8560754 C374.271256,54.7044095 375.996039,51.3193325 379.147705,50.2952942 C382.29937,49.2712559 385.684448,50.9960388 386.708486,54.1477046 C387.732524,57.2993705 386.007741,60.6844475 382.856075,61.7084858 C379.70441,62.7325241 376.319332,61.0077412 375.295294,57.8560754 Z" opacity=".755"/>
    <path d="M350.295294,57.8560754 C349.271256,54.7044095 350.996039,51.3193325 354.147705,50.2952942 C357.29937,49.2712559 360.684448,50.9960388 361.708486,54.1477046 C362.732524,57.2993705 361.007741,60.6844475 357.856075,61.7084858 C354.70441,62.7325241 351.319332,61.0077412 350.295294,57.8560754 Z" opacity=".705"/>
    <path d="M325.295294,57.8560754 C324.271256,54.7044095 325.996039,51.3193325 329.147705,50.2952942 C332.29937,49.2712559 335.684448,50.9960388 336.708486,54.1477046 C337.732524,57.2993705 336.007741,60.6844475 332.856075,61.7084858 C329.70441,62.7325241 326.319332,61.0077412 325.295294,57.8560754 Z" opacity=".25"/>
    <path d="M300.295294,57.8560754 C299.271256,54.7044095 300.996039,51.3193325 304.147705,50.2952942 C307.29937,49.2712559 310.684448,50.9960388 311.708486,54.1477046 C312.732524,57.2993705 311.007741,60.6844475 307.856075,61.7084858 C304.70441,62.7325241 301.319332,61.0077412 300.295294,57.8560754 Z" opacity=".668"/>
    <path d="M250.295294,57.8560754 C249.271256,54.7044095 250.996039,51.3193325 254.147705,50.2952942 C257.29937,49.2712559 260.684448,50.9960388 261.708486,54.1477046 C262.732524,57.2993705 261.007741,60.6844475 257.856075,61.7084858 C254.70441,62.7325241 251.319332,61.0077412 250.295294,57.8560754 Z" opacity=".876"/>
    <path d="M225.295294,57.8560754 C224.271256,54.7044095 225.996039,51.3193325 229.147705,50.2952942 C232.29937,49.2712559 235.684448,50.9960388 236.708486,54.1477046 C237.732524,57.2993705 236.007741,60.6844475 232.856075,61.7084858 C229.70441,62.7325241 226.319332,61.0077412 225.295294,57.8560754 Z" opacity=".211"/>
    <path d="M200.295294,57.8560754 C199.271256,54.7044095 200.996039,51.3193325 204.147705,50.2952942 C207.29937,49.2712559 210.684448,50.9960388 211.708486,54.1477046 C212.732524,57.2993705 211.007741,60.6844475 207.856075,61.7084858 C204.70441,62.7325241 201.319332,61.0077412 200.295294,57.8560754 Z" opacity=".575"/>
    <path d="M175.295294,57.8560754 C174.271256,54.7044095 175.996039,51.3193325 179.147705,50.2952942 C182.29937,49.2712559 185.684448,50.9960388 186.708486,54.1477046 C187.732524,57.2993705 186.007741,60.6844475 182.856075,61.7084858 C179.70441,62.7325241 176.319332,61.0077412 175.295294,57.8560754 Z" opacity=".858"/>
    <path d="M150.295294,57.8560754 C149.271256,54.7044095 150.996039,51.3193325 154.147705,50.2952942 C157.29937,49.2712559 160.684448,50.9960388 161.708486,54.1477046 C162.732524,57.2993705 161.007741,60.6844475 157.856075,61.7084858 C154.70441,62.7325241 151.319332,61.0077412 150.295294,57.8560754 Z" opacity=".418"/>
    <path d="M125.295294,57.8560754 C124.271256,54.7044095 125.996039,51.3193325 129.147705,50.2952942 C132.29937,49.2712559 135.684448,50.9960388 136.708486,54.1477046 C137.732524,57.2993705 136.007741,60.6844475 132.856075,61.7084858 C129.70441,62.7325241 126.319332,61.0077412 125.295294,57.8560754 Z" opacity=".014"/>
    <path d="M100.295294,57.8560754 C99.2712559,54.7044095 100.996039,51.3193325 104.147705,50.2952942 C107.29937,49.2712559 110.684448,50.9960388 111.708486,54.1477046 C112.732524,57.2993705 111.007741,60.6844475 107.856075,61.7084858 C104.70441,62.7325241 101.319332,61.0077412 100.295294,57.8560754 Z" opacity=".661"/>
    <path d="M75.2952942,57.8560754 C74.2712559,54.7044095 75.9960388,51.3193325 79.1477046,50.2952942 C82.2993705,49.2712559 85.6844475,50.9960388 86.7084858,54.1477046 C87.7325241,57.2993705 86.0077412,60.6844475 82.8560754,61.7084858 C79.7044095,62.7325241 76.3193325,61.0077412 75.2952942,57.8560754 Z" opacity=".866"/>
    <path d="M850.295294,32.8560754 C849.271256,29.7044095 850.996039,26.3193325 854.147705,25.2952942 C857.29937,24.2712559 860.684448,25.9960388 861.708486,29.1477046 C862.732524,32.2993705 861.007741,35.6844475 857.856075,36.7084858 C854.70441,37.7325241 851.319332,36.0077412 850.295294,32.8560754 Z" opacity=".282"/>
    <path d="M825.295294,32.8560754 C824.271256,29.7044095 825.996039,26.3193325 829.147705,25.2952942 C832.29937,24.2712559 835.684448,25.9960388 836.708486,29.1477046 C837.732524,32.2993705 836.007741,35.6844475 832.856075,36.7084858 C829.70441,37.7325241 826.319332,36.0077412 825.295294,32.8560754 Z" opacity=".883"/>
    <path d="M800.295294,32.8560754 C799.271256,29.7044095 800.996039,26.3193325 804.147705,25.2952942 C807.29937,24.2712559 810.684448,25.9960388 811.708486,29.1477046 C812.732524,32.2993705 811.007741,35.6844475 807.856075,36.7084858 C804.70441,37.7325241 801.319332,36.0077412 800.295294,32.8560754 Z" opacity=".055"/>
    <path d="M775.295294,32.8560754 C774.271256,29.7044095 775.996039,26.3193325 779.147705,25.2952942 C782.29937,24.2712559 785.684448,25.9960388 786.708486,29.1477046 C787.732524,32.2993705 786.007741,35.6844475 782.856075,36.7084858 C779.70441,37.7325241 776.319332,36.0077412 775.295294,32.8560754 Z" opacity=".586"/>
    <path d="M725.295294,32.8560754 C724.271256,29.7044095 725.996039,26.3193325 729.147705,25.2952942 C732.29937,24.2712559 735.684448,25.9960388 736.708486,29.1477046 C737.732524,32.2993705 736.007741,35.6844475 732.856075,36.7084858 C729.70441,37.7325241 726.319332,36.0077412 725.295294,32.8560754 Z" opacity=".265"/>
    <path d="M700.295294,32.8560754 C699.271256,29.7044095 700.996039,26.3193325 704.147705,25.2952942 C707.29937,24.2712559 710.684448,25.9960388 711.708486,29.1477046 C712.732524,32.2993705 711.007741,35.6844475 707.856075,36.7084858 C704.70441,37.7325241 701.319332,36.0077412 700.295294,32.8560754 Z" opacity=".02"/>
    <path d="M675.295294,32.8560754 C674.271256,29.7044095 675.996039,26.3193325 679.147705,25.2952942 C682.29937,24.2712559 685.684448,25.9960388 686.708486,29.1477046 C687.732524,32.2993705 686.007741,35.6844475 682.856075,36.7084858 C679.70441,37.7325241 676.319332,36.0077412 675.295294,32.8560754 Z" opacity=".074"/>
    <path d="M650.295294,32.8560754 C649.271256,29.7044095 650.996039,26.3193325 654.147705,25.2952942 C657.29937,24.2712559 660.684448,25.9960388 661.708486,29.1477046 C662.732524,32.2993705 661.007741,35.6844475 657.856075,36.7084858 C654.70441,37.7325241 651.319332,36.0077412 650.295294,32.8560754 Z" opacity=".631"/>
    <path d="M625.295294,32.8560754 C624.271256,29.7044095 625.996039,26.3193325 629.147705,25.2952942 C632.29937,24.2712559 635.684448,25.9960388 636.708486,29.1477046 C637.732524,32.2993705 636.007741,35.6844475 632.856075,36.7084858 C629.70441,37.7325241 626.319332,36.0077412 625.295294,32.8560754 Z" opacity=".265"/>
    <path d="M600.295294,32.8560754 C599.271256,29.7044095 600.996039,26.3193325 604.147705,25.2952942 C607.29937,24.2712559 610.684448,25.9960388 611.708486,29.1477046 C612.732524,32.2993705 611.007741,35.6844475 607.856075,36.7084858 C604.70441,37.7325241 601.319332,36.0077412 600.295294,32.8560754 Z" opacity=".289"/>
    <path d="M575.295294,32.8560754 C574.271256,29.7044095 575.996039,26.3193325 579.147705,25.2952942 C582.29937,24.2712559 585.684448,25.9960388 586.708486,29.1477046 C587.732524,32.2993705 586.007741,35.6844475 582.856075,36.7084858 C579.70441,37.7325241 576.319332,36.0077412 575.295294,32.8560754 Z" opacity=".15"/>
    <path d="M550.295294,32.8560754 C549.271256,29.7044095 550.996039,26.3193325 554.147705,25.2952942 C557.29937,24.2712559 560.684448,25.9960388 561.708486,29.1477046 C562.732524,32.2993705 561.007741,35.6844475 557.856075,36.7084858 C554.70441,37.7325241 551.319332,36.0077412 550.295294,32.8560754 Z" opacity=".617"/>
    <path d="M525.295294,32.8560754 C524.271256,29.7044095 525.996039,26.3193325 529.147705,25.2952942 C532.29937,24.2712559 535.684448,25.9960388 536.708486,29.1477046 C537.732524,32.2993705 536.007741,35.6844475 532.856075,36.7084858 C529.70441,37.7325241 526.319332,36.0077412 525.295294,32.8560754 Z" opacity=".224"/>
    <path d="M500.295294,32.8560754 C499.271256,29.7044095 500.996039,26.3193325 504.147705,25.2952942 C507.29937,24.2712559 510.684448,25.9960388 511.708486,29.1477046 C512.732524,32.2993705 511.007741,35.6844475 507.856075,36.7084858 C504.70441,37.7325241 501.319332,36.0077412 500.295294,32.8560754 Z" opacity=".432"/>
    <path d="M475.295294,32.8560754 C474.271256,29.7044095 475.996039,26.3193325 479.147705,25.2952942 C482.29937,24.2712559 485.684448,25.9960388 486.708486,29.1477046 C487.732524,32.2993705 486.007741,35.6844475 482.856075,36.7084858 C479.70441,37.7325241 476.319332,36.0077412 475.295294,32.8560754 Z" opacity=".047"/>
    <path d="M450.295294,32.8560754 C449.271256,29.7044095 450.996039,26.3193325 454.147705,25.2952942 C457.29937,24.2712559 460.684448,25.9960388 461.708486,29.1477046 C462.732524,32.2993705 461.007741,35.6844475 457.856075,36.7084858 C454.70441,37.7325241 451.319332,36.0077412 450.295294,32.8560754 Z" opacity=".295"/>
    <path d="M425.295294,32.8560754 C424.271256,29.7044095 425.996039,26.3193325 429.147705,25.2952942 C432.29937,24.2712559 435.684448,25.9960388 436.708486,29.1477046 C437.732524,32.2993705 436.007741,35.6844475 432.856075,36.7084858 C429.70441,37.7325241 426.319332,36.0077412 425.295294,32.8560754 Z" opacity=".182"/>
    <path d="M400.295294,32.8560754 C399.271256,29.7044095 400.996039,26.3193325 404.147705,25.2952942 C407.29937,24.2712559 410.684448,25.9960388 411.708486,29.1477046 C412.732524,32.2993705 411.007741,35.6844475 407.856075,36.7084858 C404.70441,37.7325241 401.319332,36.0077412 400.295294,32.8560754 Z" opacity=".227"/>
    <path d="M375.295294,32.8560754 C374.271256,29.7044095 375.996039,26.3193325 379.147705,25.2952942 C382.29937,24.2712559 385.684448,25.9960388 386.708486,29.1477046 C387.732524,32.2993705 386.007741,35.6844475 382.856075,36.7084858 C379.70441,37.7325241 376.319332,36.0077412 375.295294,32.8560754 Z" opacity=".547"/>
    <path d="M350.295294,32.8560754 C349.271256,29.7044095 350.996039,26.3193325 354.147705,25.2952942 C357.29937,24.2712559 360.684448,25.9960388 361.708486,29.1477046 C362.732524,32.2993705 361.007741,35.6844475 357.856075,36.7084858 C354.70441,37.7325241 351.319332,36.0077412 350.295294,32.8560754 Z" opacity=".608"/>
    <path d="M325.295294,32.8560754 C324.271256,29.7044095 325.996039,26.3193325 329.147705,25.2952942 C332.29937,24.2712559 335.684448,25.9960388 336.708486,29.1477046 C337.732524,32.2993705 336.007741,35.6844475 332.856075,36.7084858 C329.70441,37.7325241 326.319332,36.0077412 325.295294,32.8560754 Z" opacity=".042"/>
    <path d="M300.295294,32.8560754 C299.271256,29.7044095 300.996039,26.3193325 304.147705,25.2952942 C307.29937,24.2712559 310.684448,25.9960388 311.708486,29.1477046 C312.732524,32.2993705 311.007741,35.6844475 307.856075,36.7084858 C304.70441,37.7325241 301.319332,36.0077412 300.295294,32.8560754 Z" opacity=".431"/>
    <path d="M275.295294,32.8560754 C274.271256,29.7044095 275.996039,26.3193325 279.147705,25.2952942 C282.29937,24.2712559 285.684448,25.9960388 286.708486,29.1477046 C287.732524,32.2993705 286.007741,35.6844475 282.856075,36.7084858 C279.70441,37.7325241 276.319332,36.0077412 275.295294,32.8560754 Z" opacity=".216"/>
    <path d="M250.295294,32.8560754 C249.271256,29.7044095 250.996039,26.3193325 254.147705,25.2952942 C257.29937,24.2712559 260.684448,25.9960388 261.708486,29.1477046 C262.732524,32.2993705 261.007741,35.6844475 257.856075,36.7084858 C254.70441,37.7325241 251.319332,36.0077412 250.295294,32.8560754 Z" opacity=".403"/>
    <path d="M225.295294,32.8560754 C224.271256,29.7044095 225.996039,26.3193325 229.147705,25.2952942 C232.29937,24.2712559 235.684448,25.9960388 236.708486,29.1477046 C237.732524,32.2993705 236.007741,35.6844475 232.856075,36.7084858 C229.70441,37.7325241 226.319332,36.0077412 225.295294,32.8560754 Z" opacity=".447"/>
    <path d="M200.295294,32.8560754 C199.271256,29.7044095 200.996039,26.3193325 204.147705,25.2952942 C207.29937,24.2712559 210.684448,25.9960388 211.708486,29.1477046 C212.732524,32.2993705 211.007741,35.6844475 207.856075,36.7084858 C204.70441,37.7325241 201.319332,36.0077412 200.295294,32.8560754 Z" opacity=".296"/>
    <path d="M175.295294,32.8560754 C174.271256,29.7044095 175.996039,26.3193325 179.147705,25.2952942 C182.29937,24.2712559 185.684448,25.9960388 186.708486,29.1477046 C187.732524,32.2993705 186.007741,35.6844475 182.856075,36.7084858 C179.70441,37.7325241 176.319332,36.0077412 175.295294,32.8560754 Z" opacity=".095"/>
    <path d="M150.295294,32.8560754 C149.271256,29.7044095 150.996039,26.3193325 154.147705,25.2952942 C157.29937,24.2712559 160.684448,25.9960388 161.708486,29.1477046 C162.732524,32.2993705 161.007741,35.6844475 157.856075,36.7084858 C154.70441,37.7325241 151.319332,36.0077412 150.295294,32.8560754 Z" opacity=".778"/>
    <path d="M125.295294,32.8560754 C124.271256,29.7044095 125.996039,26.3193325 129.147705,25.2952942 C132.29937,24.2712559 135.684448,25.9960388 136.708486,29.1477046 C137.732524,32.2993705 136.007741,35.6844475 132.856075,36.7084858 C129.70441,37.7325241 126.319332,36.0077412 125.295294,32.8560754 Z" opacity=".63"/>
    <path d="M100.295294,32.8560754 C99.2712559,29.7044095 100.996039,26.3193325 104.147705,25.2952942 C107.29937,24.2712559 110.684448,25.9960388 111.708486,29.1477046 C112.732524,32.2993705 111.007741,35.6844475 107.856075,36.7084858 C104.70441,37.7325241 101.319332,36.0077412 100.295294,32.8560754 Z" opacity=".049"/>
    <path d="M75.2952942,32.8560754 C74.2712559,29.7044095 75.9960388,26.3193325 79.1477046,25.2952942 C82.2993705,24.2712559 85.6844475,25.9960388 86.7084858,29.1477046 C87.7325241,32.2993705 86.0077412,35.6844475 82.8560754,36.7084858 C79.7044095,37.7325241 76.3193325,36.0077412 75.2952942,32.8560754 Z" opacity=".915"/>
    <path d="M50.2952942,32.8560754 C49.2712559,29.7044095 50.9960388,26.3193325 54.1477046,25.2952942 C57.2993705,24.2712559 60.6844475,25.9960388 61.7084858,29.1477046 C62.7325241,32.2993705 61.0077412,35.6844475 57.8560754,36.7084858 C54.7044095,37.7325241 51.3193325,36.0077412 50.2952942,32.8560754 Z" opacity=".852"/>
    <path d="M25.2952942,32.8560754 C24.2712559,29.7044095 25.9960388,26.3193325 29.1477046,25.2952942 C32.2993705,24.2712559 35.6844475,25.9960388 36.7084858,29.1477046 C37.7325241,32.2993705 36.0077412,35.6844475 32.8560754,36.7084858 C29.7044095,37.7325241 26.3193325,36.0077412 25.2952942,32.8560754 Z" opacity=".926"/>
    <path d="M0.295294182,32.8560754 C-0.728744126,29.7044095 0.996038777,26.3193325 4.14770462,25.2952942 C7.29937046,24.2712559 10.6844475,25.9960388 11.7084858,29.1477046 C12.7325241,32.2993705 11.0077412,35.6844475 7.85607538,36.7084858 C4.70440954,37.7325241 1.31933249,36.0077412 0.295294182,32.8560754 Z" opacity=".094"/>
    <path d="M850.295294,7.85607538 C849.271256,4.70440954 850.996039,1.31933249 854.147705,0.295294182 C857.29937,-0.728744126 860.684448,0.996038777 861.708486,4.14770462 C862.732524,7.29937046 861.007741,10.6844475 857.856075,11.7084858 C854.70441,12.7325241 851.319332,11.0077412 850.295294,7.85607538 Z" opacity=".414"/>
    <path d="M825.295294,7.85607538 C824.271256,4.70440954 825.996039,1.31933249 829.147705,0.295294182 C832.29937,-0.728744126 835.684448,0.996038777 836.708486,4.14770462 C837.732524,7.29937046 836.007741,10.6844475 832.856075,11.7084858 C829.70441,12.7325241 826.319332,11.0077412 825.295294,7.85607538 Z" opacity=".245"/>
    <path d="M800.295294,7.85607538 C799.271256,4.70440954 800.996039,1.31933249 804.147705,0.295294182 C807.29937,-0.728744126 810.684448,0.996038777 811.708486,4.14770462 C812.732524,7.29937046 811.007741,10.6844475 807.856075,11.7084858 C804.70441,12.7325241 801.319332,11.0077412 800.295294,7.85607538 Z" opacity=".12"/>
    <path d="M775.295294,7.85607538 C774.271256,4.70440954 775.996039,1.31933249 779.147705,0.295294182 C782.29937,-0.728744126 785.684448,0.996038777 786.708486,4.14770462 C787.732524,7.29937046 786.007741,10.6844475 782.856075,11.7084858 C779.70441,12.7325241 776.319332,11.0077412 775.295294,7.85607538 Z" opacity=".774"/>
    <path d="M750.295294,7.85607538 C749.271256,4.70440954 750.996039,1.31933249 754.147705,0.295294182 C757.29937,-0.728744126 760.684448,0.996038777 761.708486,4.14770462 C762.732524,7.29937046 761.007741,10.6844475 757.856075,11.7084858 C754.70441,12.7325241 751.319332,11.0077412 750.295294,7.85607538 Z" opacity=".886"/>
    <path d="M725.295294,7.85607538 C724.271256,4.70440954 725.996039,1.31933249 729.147705,0.295294182 C732.29937,-0.728744126 735.684448,0.996038777 736.708486,4.14770462 C737.732524,7.29937046 736.007741,10.6844475 732.856075,11.7084858 C729.70441,12.7325241 726.319332,11.0077412 725.295294,7.85607538 Z" opacity=".477"/>
    <path d="M700.295294,7.85607538 C699.271256,4.70440954 700.996039,1.31933249 704.147705,0.295294182 C707.29937,-0.728744126 710.684448,0.996038777 711.708486,4.14770462 C712.732524,7.29937046 711.007741,10.6844475 707.856075,11.7084858 C704.70441,12.7325241 701.319332,11.0077412 700.295294,7.85607538 Z" opacity=".665"/>
    <path d="M675.295294,7.85607538 C674.271256,4.70440954 675.996039,1.31933249 679.147705,0.295294182 C682.29937,-0.728744126 685.684448,0.996038777 686.708486,4.14770462 C687.732524,7.29937046 686.007741,10.6844475 682.856075,11.7084858 C679.70441,12.7325241 676.319332,11.0077412 675.295294,7.85607538 Z" opacity=".483"/>
    <path d="M650.295294,7.85607538 C649.271256,4.70440954 650.996039,1.31933249 654.147705,0.295294182 C657.29937,-0.728744126 660.684448,0.996038777 661.708486,4.14770462 C662.732524,7.29937046 661.007741,10.6844475 657.856075,11.7084858 C654.70441,12.7325241 651.319332,11.0077412 650.295294,7.85607538 Z" opacity=".191"/>
    <path d="M625.295294,7.85607538 C624.271256,4.70440954 625.996039,1.31933249 629.147705,0.295294182 C632.29937,-0.728744126 635.684448,0.996038777 636.708486,4.14770462 C637.732524,7.29937046 636.007741,10.6844475 632.856075,11.7084858 C629.70441,12.7325241 626.319332,11.0077412 625.295294,7.85607538 Z" opacity=".395"/>
    <path d="M600.295294,7.85607538 C599.271256,4.70440954 600.996039,1.31933249 604.147705,0.295294182 C607.29937,-0.728744126 610.684448,0.996038777 611.708486,4.14770462 C612.732524,7.29937046 611.007741,10.6844475 607.856075,11.7084858 C604.70441,12.7325241 601.319332,11.0077412 600.295294,7.85607538 Z" opacity=".092"/>
    <path d="M575.295294,7.85607538 C574.271256,4.70440954 575.996039,1.31933249 579.147705,0.295294182 C582.29937,-0.728744126 585.684448,0.996038777 586.708486,4.14770462 C587.732524,7.29937046 586.007741,10.6844475 582.856075,11.7084858 C579.70441,12.7325241 576.319332,11.0077412 575.295294,7.85607538 Z" opacity=".314"/>
    <path d="M550.295294 7.85607538C549.271256 4.70440954 550.996039 1.31933249 554.147705.295294182 557.29937-.728744126 560.684448.996038777 561.708486 4.14770462 562.732524 7.29937046 561.007741 10.6844475 557.856075 11.7084858 554.70441 12.7325241 551.319332 11.0077412 550.295294 7.85607538zM550.295294 132.857965C549.271256 129.7063 550.996039 126.321222 554.147705 125.297184 557.29937 124.273146 560.684448 125.997929 561.708486 129.149595 562.732524 132.30126 561.007741 135.686338 557.856075 136.710376 554.70441 137.734414 551.319332 136.009631 550.295294 132.857965z" opacity=".413"/>
    <path d="M525.295294,7.85607538 C524.271256,4.70440954 525.996039,1.31933249 529.147705,0.295294182 C532.29937,-0.728744126 535.684448,0.996038777 536.708486,4.14770462 C537.732524,7.29937046 536.007741,10.6844475 532.856075,11.7084858 C529.70441,12.7325241 526.319332,11.0077412 525.295294,7.85607538 Z" opacity=".766"/>
    <path d="M500.295294,7.85607538 C499.271256,4.70440954 500.996039,1.31933249 504.147705,0.295294182 C507.29937,-0.728744126 510.684448,0.996038777 511.708486,4.14770462 C512.732524,7.29937046 511.007741,10.6844475 507.856075,11.7084858 C504.70441,12.7325241 501.319332,11.0077412 500.295294,7.85607538 Z" opacity=".262"/>
    <path d="M475.295294,7.85607538 C474.271256,4.70440954 475.996039,1.31933249 479.147705,0.295294182 C482.29937,-0.728744126 485.684448,0.996038777 486.708486,4.14770462 C487.732524,7.29937046 486.007741,10.6844475 482.856075,11.7084858 C479.70441,12.7325241 476.319332,11.0077412 475.295294,7.85607538 Z" opacity=".836"/>
    <path d="M450.295294,7.85607538 C449.271256,4.70440954 450.996039,1.31933249 454.147705,0.295294182 C457.29937,-0.728744126 460.684448,0.996038777 461.708486,4.14770462 C462.732524,7.29937046 461.007741,10.6844475 457.856075,11.7084858 C454.70441,12.7325241 451.319332,11.0077412 450.295294,7.85607538 Z" opacity=".465"/>
    <path d="M425.295294,7.85607538 C424.271256,4.70440954 425.996039,1.31933249 429.147705,0.295294182 C432.29937,-0.728744126 435.684448,0.996038777 436.708486,4.14770462 C437.732524,7.29937046 436.007741,10.6844475 432.856075,11.7084858 C429.70441,12.7325241 426.319332,11.0077412 425.295294,7.85607538 Z" opacity=".796"/>
    <path d="M400.295294,7.85607538 C399.271256,4.70440954 400.996039,1.31933249 404.147705,0.295294182 C407.29937,-0.728744126 410.684448,0.996038777 411.708486,4.14770462 C412.732524,7.29937046 411.007741,10.6844475 407.856075,11.7084858 C404.70441,12.7325241 401.319332,11.0077412 400.295294,7.85607538 Z" opacity=".866"/>
    <path d="M375.295294,7.85607538 C374.271256,4.70440954 375.996039,1.31933249 379.147705,0.295294182 C382.29937,-0.728744126 385.684448,0.996038777 386.708486,4.14770462 C387.732524,7.29937046 386.007741,10.6844475 382.856075,11.7084858 C379.70441,12.7325241 376.319332,11.0077412 375.295294,7.85607538 Z" opacity=".382"/>
    <path d="M350.295294,7.85607538 C349.271256,4.70440954 350.996039,1.31933249 354.147705,0.295294182 C357.29937,-0.728744126 360.684448,0.996038777 361.708486,4.14770462 C362.732524,7.29937046 361.007741,10.6844475 357.856075,11.7084858 C354.70441,12.7325241 351.319332,11.0077412 350.295294,7.85607538 Z" opacity=".186"/>
    <path d="M325.295294,7.85607538 C324.271256,4.70440954 325.996039,1.31933249 329.147705,0.295294182 C332.29937,-0.728744126 335.684448,0.996038777 336.708486,4.14770462 C337.732524,7.29937046 336.007741,10.6844475 332.856075,11.7084858 C329.70441,12.7325241 326.319332,11.0077412 325.295294,7.85607538 Z" opacity=".173"/>
    <path d="M300.295294,7.85607538 C299.271256,4.70440954 300.996039,1.31933249 304.147705,0.295294182 C307.29937,-0.728744126 310.684448,0.996038777 311.708486,4.14770462 C312.732524,7.29937046 311.007741,10.6844475 307.856075,11.7084858 C304.70441,12.7325241 301.319332,11.0077412 300.295294,7.85607538 Z" opacity=".988"/>
    <path d="M275.295294,7.85607538 C274.271256,4.70440954 275.996039,1.31933249 279.147705,0.295294182 C282.29937,-0.728744126 285.684448,0.996038777 286.708486,4.14770462 C287.732524,7.29937046 286.007741,10.6844475 282.856075,11.7084858 C279.70441,12.7325241 276.319332,11.0077412 275.295294,7.85607538 Z" opacity=".244"/>
    <path d="M250.295294,7.85607538 C249.271256,4.70440954 250.996039,1.31933249 254.147705,0.295294182 C257.29937,-0.728744126 260.684448,0.996038777 261.708486,4.14770462 C262.732524,7.29937046 261.007741,10.6844475 257.856075,11.7084858 C254.70441,12.7325241 251.319332,11.0077412 250.295294,7.85607538 Z" opacity=".547"/>
    <path d="M225.295294,7.85607538 C224.271256,4.70440954 225.996039,1.31933249 229.147705,0.295294182 C232.29937,-0.728744126 235.684448,0.996038777 236.708486,4.14770462 C237.732524,7.29937046 236.007741,10.6844475 232.856075,11.7084858 C229.70441,12.7325241 226.319332,11.0077412 225.295294,7.85607538 Z" opacity=".238"/>
    <path d="M200.295294,7.85607538 C199.271256,4.70440954 200.996039,1.31933249 204.147705,0.295294182 C207.29937,-0.728744126 210.684448,0.996038777 211.708486,4.14770462 C212.732524,7.29937046 211.007741,10.6844475 207.856075,11.7084858 C204.70441,12.7325241 201.319332,11.0077412 200.295294,7.85607538 Z" opacity=".868"/>
    <path d="M175.295294,7.85607538 C174.271256,4.70440954 175.996039,1.31933249 179.147705,0.295294182 C182.29937,-0.728744126 185.684448,0.996038777 186.708486,4.14770462 C187.732524,7.29937046 186.007741,10.6844475 182.856075,11.7084858 C179.70441,12.7325241 176.319332,11.0077412 175.295294,7.85607538 Z" opacity=".173"/>
    <path d="M150.295294,7.85607538 C149.271256,4.70440954 150.996039,1.31933249 154.147705,0.295294182 C157.29937,-0.728744126 160.684448,0.996038777 161.708486,4.14770462 C162.732524,7.29937046 161.007741,10.6844475 157.856075,11.7084858 C154.70441,12.7325241 151.319332,11.0077412 150.295294,7.85607538 Z" opacity=".392"/>
    <path d="M125.295294,7.85607538 C124.271256,4.70440954 125.996039,1.31933249 129.147705,0.295294182 C132.29937,-0.728744126 135.684448,0.996038777 136.708486,4.14770462 C137.732524,7.29937046 136.007741,10.6844475 132.856075,11.7084858 C129.70441,12.7325241 126.319332,11.0077412 125.295294,7.85607538 Z" opacity=".975"/>
    <path d="M100.295294,7.85607538 C99.2712559,4.70440954 100.996039,1.31933249 104.147705,0.295294182 C107.29937,-0.728744126 110.684448,0.996038777 111.708486,4.14770462 C112.732524,7.29937046 111.007741,10.6844475 107.856075,11.7084858 C104.70441,12.7325241 101.319332,11.0077412 100.295294,7.85607538 Z" opacity=".048"/>
    <path d="M75.2952942,7.85607538 C74.2712559,4.70440954 75.9960388,1.31933249 79.1477046,0.295294182 C82.2993705,-0.728744126 85.6844475,0.996038777 86.7084858,4.14770462 C87.7325241,7.29937046 86.0077412,10.6844475 82.8560754,11.7084858 C79.7044095,12.7325241 76.3193325,11.0077412 75.2952942,7.85607538 Z" opacity=".423"/>
    <path d="M50.2952942,7.85607538 C49.2712559,4.70440954 50.9960388,1.31933249 54.1477046,0.295294182 C57.2993705,-0.728744126 60.6844475,0.996038777 61.7084858,4.14770462 C62.7325241,7.29937046 61.0077412,10.6844475 57.8560754,11.7084858 C54.7044095,12.7325241 51.3193325,11.0077412 50.2952942,7.85607538 Z" opacity=".409"/>
    <path d="M25.2952942,7.85607538 C24.2712559,4.70440954 25.9960388,1.31933249 29.1477046,0.295294182 C32.2993705,-0.728744126 35.6844475,0.996038777 36.7084858,4.14770462 C37.7325241,7.29937046 36.0077412,10.6844475 32.8560754,11.7084858 C29.7044095,12.7325241 26.3193325,11.0077412 25.2952942,7.85607538 Z" opacity=".438"/>
    <path d="M0.295294182,7.85607538 C-0.728744126,4.70440954 0.996038777,1.31933249 4.14770462,0.295294182 C7.29937046,-0.728744126 10.6844475,0.996038777 11.7084858,4.14770462 C12.7325241,7.29937046 11.0077412,10.6844475 7.85607538,11.7084858 C4.70440954,12.7325241 1.31933249,11.0077412 0.295294182,7.85607538 Z" opacity=".156"/>
  </g>
</svg>
