<svg xmlns="http://www.w3.org/2000/svg" xmlns:xlink="http://www.w3.org/1999/xlink" width="818" height="667" viewBox="0 0 818 667">
  <defs>
    <filter id="hero-publisher-a" width="118.6%" height="121.2%" x="-9.3%" y="-10.6%" filterUnits="objectBoundingBox">
      <feOffset dy="12" in="SourceAlpha" result="shadowOffsetOuter1"/>
      <feGaussianBlur in="shadowOffsetOuter1" result="shadowBlurOuter1" stdDeviation="11"/>
      <feColorMatrix in="shadowBlurOuter1" result="shadowMatrixOuter1" values="0 0 0 0 0.127266525   0 0 0 0 0.0889654473   0 0 0 0 0.216966712  0 0 0 0.294990166 0"/>
      <feMerge>
        <feMergeNode in="shadowMatrixOuter1"/>
        <feMergeNode in="SourceGraphic"/>
      </feMerge>
    </filter>
    <rect id="hero-publisher-b" width="711" height="623" x="0" y="0" rx="21"/>
    <rect id="hero-publisher-d" width="142" height="92" x="0" y="0" rx="7.7"/>
    <rect id="hero-publisher-f" width="142" height="92" x="0" y="0" rx="7.7"/>
    <rect id="hero-publisher-h" width="142" height="92" x="0" y="0" rx="7.7"/>
    <filter id="hero-publisher-j" width="140.4%" height="159.2%" x="-20.2%" y="-29.6%" filterUnits="objectBoundingBox">
      <feOffset dy="12" in="SourceAlpha" result="shadowOffsetOuter1"/>
      <feGaussianBlur in="shadowOffsetOuter1" result="shadowBlurOuter1" stdDeviation="11"/>
      <feColorMatrix in="shadowBlurOuter1" result="shadowMatrixOuter1" values="0 0 0 0 0.127266525   0 0 0 0 0.0889654473   0 0 0 0 0.216966712  0 0 0 0.294990166 0"/>
      <feMerge>
        <feMergeNode in="shadowMatrixOuter1"/>
        <feMergeNode in="SourceGraphic"/>
      </feMerge>
    </filter>
    <rect id="hero-publisher-k" width="327" height="223" x="0" y="0" rx="14.014"/>
  </defs>
  <g fill="none" fill-rule="evenodd" transform="translate(22 10)">
    <g filter="url(#hero-publisher-a)" transform="translate(63)">
      <mask id="hero-publisher-c" fill="#fff">
        <use xlink:href="#hero-publisher-b"/>
      </mask>
      <rect width="1066" height="639" y="49" fill="#FFF" mask="url(#hero-publisher-c)"/>
      <g mask="url(#hero-publisher-c)">
        <g transform="translate(91 74)">
          <g transform="translate(0 81)">
            <rect width="687" height="135" fill="#F9F9FC"/>
            <rect width="687" height="135" y="287" fill="#F9F9FC"/>
            <rect width="154" height="9" x="197" y="30" fill="#7E7DA0" rx="4.5"/>
            <rect width="118" height="9" x="197" y="79" fill="#D7D8D9" rx="4.5"/>
            <rect width="77" height="9" x="197" y="55" fill="#D0C778" rx="4.5"/>
            <g opacity=".131" transform="translate(28 22)">
              <mask id="hero-publisher-e" fill="#fff">
                <use xlink:href="#hero-publisher-d"/>
              </mask>
              <use fill="#142C38" opacity=".23" xlink:href="#hero-publisher-d"/>
              <rect width="142" height="22" fill="#47515D" mask="url(#hero-publisher-e)"/>
              <rect width="142" height="70" y="22" fill="#142C38" mask="url(#hero-publisher-e)"/>
              <rect width="48" height="6" x="9" y="8" fill="#FFF" mask="url(#hero-publisher-e)" rx="3"/>
              <rect width="20" height="6" x="9" y="31" fill="#008DFA" mask="url(#hero-publisher-e)" rx="3"/>
              <rect width="67" height="6" x="20" y="46" fill="#89919A" mask="url(#hero-publisher-e)" rx="3"/>
              <circle cx="12" cy="49" r="3" fill="#89919A" mask="url(#hero-publisher-e)"/>
              <circle cx="12" cy="63" r="3" fill="#89919A" mask="url(#hero-publisher-e)"/>
              <circle cx="12" cy="75" r="3" fill="#89919A" mask="url(#hero-publisher-e)"/>
              <rect width="38" height="6" x="20" y="60" fill="#89919A" mask="url(#hero-publisher-e)" rx="3"/>
              <rect width="50" height="6" x="20" y="72" fill="#89919A" mask="url(#hero-publisher-e)" rx="3"/>
            </g>
          </g>
          <g transform="translate(28 246)">
            <g transform="translate(169 8)">
              <rect width="114" height="9" fill="#7E7DA0" rx="4.5"/>
              <rect width="198" height="9" y="49" fill="#D7D8D9" rx="4.5"/>
              <rect width="77" height="9" y="25" fill="#D0C778" rx="4.5"/>
            </g>
            <mask id="hero-publisher-g" fill="#fff">
              <use xlink:href="#hero-publisher-f"/>
            </mask>
            <use fill="#142C38" opacity=".23" xlink:href="#hero-publisher-f"/>
            <rect width="142" height="22" fill="#47515D" mask="url(#hero-publisher-g)"/>
            <rect width="142" height="70" y="22" fill="#2A293F" mask="url(#hero-publisher-g)"/>
            <rect width="48" height="6" x="9" y="8" fill="#FFF" mask="url(#hero-publisher-g)" opacity=".62" rx="3"/>
            <rect width="20" height="6" x="9" y="31" fill="#4988FE" mask="url(#hero-publisher-g)" rx="3"/>
            <rect width="47" height="6" x="9" y="46" fill="#89919A" mask="url(#hero-publisher-g)" rx="3"/>
            <rect width="38" height="6" x="9" y="60" fill="#89919A" mask="url(#hero-publisher-g)" rx="3"/>
            <rect width="80" height="6" x="9" y="72" fill="#89919A" mask="url(#hero-publisher-g)" rx="3"/>
          </g>
          <g transform="translate(28 383)">
            <g transform="translate(169 8)">
              <rect width="114" height="9" fill="#7E7DA0" rx="4.5"/>
              <rect width="198" height="9" y="49" fill="#D7D8D9" rx="4.5"/>
              <rect width="77" height="9" y="25" fill="#D0C778" rx="4.5"/>
            </g>
            <mask id="hero-publisher-i" fill="#fff">
              <use xlink:href="#hero-publisher-h"/>
            </mask>
            <use fill="#142C38" opacity=".23" xlink:href="#hero-publisher-h"/>
            <rect width="142" height="22" fill="#47515D" mask="url(#hero-publisher-i)"/>
            <rect width="142" height="70" y="22" fill="#2A293F" mask="url(#hero-publisher-i)"/>
            <rect width="48" height="6" x="9" y="8" fill="#FFF" mask="url(#hero-publisher-i)" opacity=".62" rx="3"/>
            <rect width="20" height="6" x="9" y="31" fill="#4988FE" mask="url(#hero-publisher-i)" rx="3"/>
            <rect width="47" height="6" x="9" y="46" fill="#89919A" mask="url(#hero-publisher-i)" rx="3"/>
            <rect width="38" height="6" x="9" y="60" fill="#89919A" mask="url(#hero-publisher-i)" rx="3"/>
            <rect width="80" height="6" x="9" y="72" fill="#89919A" mask="url(#hero-publisher-i)" rx="3"/>
          </g>
          <g transform="translate(28)">
            <rect width="190" height="9" fill="#7E7DA0" opacity=".159" rx="4.5"/>
            <rect width="49" height="9" x="210" fill="#7E7DA0" opacity=".259" rx="4.5"/>
            <rect width="169" height="9" y="33" fill="#D7D8D9" rx="4.5"/>
          </g>
        </g>
      </g>
      <rect width="779" height="49" fill="#343358" mask="url(#hero-publisher-c)"/>
      <rect width="87" height="11" x="27" y="19" fill="#FFF" mask="url(#hero-publisher-c)" opacity=".121" rx="5.5"/>
      <g mask="url(#hero-publisher-c)">
        <g transform="translate(0 50)">
          <rect width="92" height="527" fill="#F9F9FC"/>
          <rect width="92" height="24" y="113" fill="#35556F" opacity=".077"/>
          <rect width="55" height="9" x="13" y="44" fill="#B9BDC3" rx="4.5"/>
          <rect width="55" height="9" x="13" y="71" fill="#D7D8D9" opacity=".517" rx="4.5"/>
          <rect width="55" height="9" x="13" y="96" fill="#D7D8D9" opacity=".517" rx="4.5"/>
          <rect width="33" height="9" x="13" y="120" fill="#000" opacity=".241" rx="4.5"/>
          <rect width="55" height="9" x="13" y="144" fill="#D7D8D9" opacity=".517" rx="4.5"/>
          <rect width="55" height="9" x="13" y="208" fill="#B9BDC3" rx="4.5"/>
          <rect width="61" height="9" x="13" y="308" fill="#D7D8D9" opacity=".517" rx="4.5"/>
          <rect width="61" height="9" x="13" y="258" fill="#D7D8D9" opacity=".517" rx="4.5"/>
          <rect width="48" height="9" x="13" y="233" fill="#D7D8D9" opacity=".517" rx="4.5"/>
          <rect width="48" height="9" x="13" y="283" fill="#D7D8D9" opacity=".517" rx="4.5"/>
        </g>
      </g>
    </g>
    <g filter="url(#hero-publisher-j)" transform="translate(0 73)">
      <mask id="hero-publisher-l" fill="#fff">
        <use xlink:href="#hero-publisher-k"/>
      </mask>
      <rect width="327" height="42" fill="#636274" mask="url(#hero-publisher-l)"/>
      <rect width="327" height="181" y="42" fill="#2A293F" mask="url(#hero-publisher-l)"/>
      <g mask="url(#hero-publisher-l)">
        <g transform="translate(25 62)">
          <g transform="translate(0 59)">
            <g fill-rule="nonzero" transform="translate(0 1)">
              <path fill="#FFF" fill-opacity=".144" d="M9.99999956,-5.32907052e-15 C15.5228496,-5.32907052e-15 19.9999996,4.47715044 19.9999996,10 C19.9999996,15.52285 15.5228496,20 9.99999956,20 C4.47714956,20 -4.37114073e-07,15.52285 -4.37114073e-07,10 C-4.37114073e-07,4.47715 4.47714956,-5.32907052e-15 9.99999956,-5.32907052e-15 Z M9.99999965,18 C14.4182797,18 17.9999997,14.41828 17.9999997,10 C17.9999997,5.58172 14.4182797,2 9.99999965,2 C5.58171965,2 1.99999965,5.58172 1.99999965,10 C1.99999965,14.41828 5.58171965,18 9.99999965,18 Z M10.7071,5.29289 C11.097624,5.683414 11.097624,6.31658 10.7071,6.7071 C10.316576,7.097624 9.68341,7.097624 9.29289,6.7071 C8.902366,6.316576 8.902366,5.68341 9.29289,5.29289 C9.683414,4.902366 10.31658,4.902366 10.7071,5.29289 Z M9.99999996,8 C10.552285,8 11,8.44771515 11,9 L11,14 C11,14.5522852 10.552285,15 9.99999996,15 C9.44771496,15 8.99999996,14.5522852 8.99999996,14 L8.99999996,9 C8.99999996,8.447715 9.44771496,8 9.99999996,8 Z"/>
              <path fill="#F8F7FD" d="M31.0869141,5.29858398 L31.0869141,8.71826172 L33.1967773,8.71826172 C34.3579102,8.71826172 35.0234375,8.09521484 35.0234375,7.01196289 C35.0234375,5.94995117 34.3154297,5.29858398 33.1542969,5.29858398 L31.0869141,5.29858398 Z M31.0869141,10.1696777 L31.0869141,14 L29.2602539,14 L29.2602539,3.78344727 L33.4091797,3.78344727 C35.5544434,3.78344727 36.8996582,5.01538086 36.8996582,6.9765625 C36.8996582,8.32177734 36.1916504,9.44750977 34.973877,9.88647461 L37.2041016,14 L35.1154785,14 L33.1118164,10.1696777 L31.0869141,10.1696777 Z M41.7929379,7.4934082 C40.7450864,7.4934082 40.0087582,8.24389648 39.9308774,9.37670898 L43.5771176,9.37670898 C43.5417172,8.22973633 42.8478696,7.4934082 41.7929379,7.4934082 Z M43.5912778,11.8688965 L45.2550961,11.8688965 C44.9223325,13.277832 43.6408383,14.1557617 41.8141782,14.1557617 C39.534393,14.1557617 38.1608578,12.6477051 38.1608578,10.1555176 C38.1608578,7.66333008 39.5556332,6.09863281 41.800018,6.09863281 C44.0090024,6.09863281 45.332977,7.56420898 45.332977,10.0068359 L45.332977,10.5732422 L39.9237973,10.5732422 L39.9237973,10.6652832 C39.9662778,11.9538574 40.709686,12.7609863 41.8637387,12.7609863 C42.7345883,12.7609863 43.336395,12.4423828 43.5912778,11.8688965 Z M47.5075067,4.35693359 L49.256286,4.35693359 L49.256286,6.30395508 L50.9130243,6.30395508 L50.9130243,7.70581055 L49.256286,7.70581055 L49.256286,11.5078125 C49.256286,12.2724609 49.5819696,12.6123047 50.3182977,12.6123047 C50.5661005,12.6123047 50.7006219,12.5981445 50.9130243,12.5769043 L50.9130243,13.9504395 C50.6581415,14 50.3324579,14.0354004 49.9926141,14.0354004 C48.2155145,14.0354004 47.5075067,13.4335938 47.5075067,11.9326172 L47.5075067,7.70581055 L46.2826532,7.70581055 L46.2826532,6.30395508 L47.5075067,6.30395508 L47.5075067,4.35693359 Z M55.169097,12.7468262 C56.2311087,12.7468262 57.0240774,12.0600586 57.0240774,11.1608887 L57.0240774,10.5449219 L55.2752982,10.6582031 C54.2911673,10.7219238 53.8309622,11.0759277 53.8309622,11.7060547 C53.8309622,12.3574219 54.3902884,12.7468262 55.169097,12.7468262 Z M54.6522513,14.1274414 C53.1583548,14.1274414 52.089263,13.2211914 52.089263,11.8051758 C52.089263,10.4033203 53.1441946,9.59619141 55.0274954,9.48291016 L57.0240774,9.36254883 L57.0240774,8.71118164 C57.0240774,7.95361328 56.5143118,7.52880859 55.5655814,7.52880859 C54.7584524,7.52880859 54.2062064,7.81201172 54.0433646,8.3359375 L52.3866263,8.3359375 C52.5282278,6.96948242 53.809722,6.09863281 55.6505423,6.09863281 C57.6400442,6.09863281 58.7586966,7.06860352 58.7586966,8.71118164 L58.7586966,14 L57.0665579,14 L57.0665579,12.9379883 L56.9461966,12.9379883 C56.5143118,13.6884766 55.6647024,14.1274414 54.6522513,14.1274414 Z M60.7420642,14 L60.7420642,6.25439453 L62.4908435,6.25439453 L62.4908435,14 L60.7420642,14 Z M61.6129138,4.99414062 C60.9757068,4.99414062 60.5296619,4.58349609 60.5296619,4.02416992 C60.5296619,3.46484375 60.9757068,3.05419922 61.6129138,3.05419922 C62.2572009,3.05419922 62.6961658,3.46484375 62.6961658,4.02416992 C62.6961658,4.58349609 62.2572009,4.99414062 61.6129138,4.99414062 Z M64.5874924,14 L64.5874924,3.25952148 L66.3433517,3.25952148 L66.3433517,14 L64.5874924,14 Z" opacity=".562"/>
            </g>
            <g fill-rule="nonzero" transform="translate(97)">
              <path fill="#F8F7FD" d="M26.532959,15 L26.532959,6.62426758 L26.4125977,6.62426758 L23.8708496,8.40844727 L23.8708496,6.65258789 L26.5400391,4.78344727 L28.3596191,4.78344727 L28.3596191,15 L26.532959,15 Z M32.0563657,15.1486816 C31.3908383,15.1486816 30.9235532,14.6672363 30.9235532,14.0300293 C30.9235532,13.3857422 31.3908383,12.911377 32.0563657,12.911377 C32.7289731,12.911377 33.1891782,13.3857422 33.1891782,14.0300293 C33.1891782,14.6672363 32.7289731,15.1486816 32.0563657,15.1486816 Z M39.8099969,15 L39.8099969,13.095459 L34.8185419,13.095459 L34.8185419,11.467041 C35.738952,9.77490234 37.1762079,7.50219727 38.9816278,4.78344727 L41.5587762,4.78344727 L41.5587762,11.552002 L42.9393915,11.552002 L42.9393915,13.095459 L41.5587762,13.095459 L41.5587762,15 L39.8099969,15 Z M36.5106805,11.4882812 L36.5106805,11.5944824 L39.8383173,11.5944824 L39.8383173,6.27026367 L39.7391962,6.27026367 C38.7621454,7.71459961 37.7001337,9.39257812 36.5106805,11.4882812 Z M44.6820364,15 L44.6820364,7.25439453 L46.3741751,7.25439453 L46.3741751,8.50756836 L46.4945364,8.50756836 C46.8273001,7.62255859 47.6202689,7.09863281 48.6468802,7.09863281 C49.715972,7.09863281 50.4593802,7.63671875 50.7850638,8.50756836 L50.9054251,8.50756836 C51.2877493,7.65795898 52.1798392,7.09863281 53.256011,7.09863281 C54.8065482,7.09863281 55.7411185,8.06860352 55.7411185,9.67578125 L55.7411185,15 L53.9923392,15 L53.9923392,10.1218262 C53.9923392,9.12353516 53.5179739,8.62792969 52.5763235,8.62792969 C51.6629935,8.62792969 51.0611868,9.29345703 51.0611868,10.1784668 L51.0611868,15 L49.354888,15 L49.354888,9.99438477 C49.354888,9.14477539 48.8168021,8.62792969 47.9530325,8.62792969 C47.0821829,8.62792969 46.4378958,9.34301758 46.4378958,10.291748 L46.4378958,15 L44.6820364,15 Z M57.6961658,15 L57.6961658,7.25439453 L59.4449451,7.25439453 L59.4449451,15 L57.6961658,15 Z M58.5670154,5.99414062 C57.9298083,5.99414062 57.4837634,5.58349609 57.4837634,5.02416992 C57.4837634,4.46484375 57.9298083,4.05419922 58.5670154,4.05419922 C59.2113025,4.05419922 59.6502673,4.46484375 59.6502673,5.02416992 C59.6502673,5.58349609 59.2113025,5.99414062 58.5670154,5.99414062 Z" opacity=".562"/>
              <g fill="#FFF" fill-opacity=".144">
                <path d="M16.7272727,8.36363636 C16.7272727,11.1784228 15.2316893,13.9203257 12.7714072,16.5172902 C11.9314339,17.4039287 11.0344462,18.2112176 10.1371313,18.9257461 C9.8224696,19.1763101 9.52956716,19.3978645 9.26553318,19.5885557 C9.10410614,19.7051419 8.98599766,19.786943 8.91833657,19.8320504 C8.58243715,20.0559833 8.14483557,20.0559833 7.80893616,19.8320504 C7.74127507,19.786943 7.62316659,19.7051419 7.46173955,19.5885557 C7.19770557,19.3978645 6.90480313,19.1763101 6.59014139,18.9257461 C5.69282652,18.2112176 4.7958388,17.4039287 3.95586549,16.5172902 C1.49558339,13.9203257 0,11.1784228 0,8.36363636 C0,3.74452761 3.74452757,1.09726727e-07 8.36363636,1.09726727e-07 C12.9827452,1.09726727e-07 16.7272727,3.74452761 16.7272727,8.36363636 Z M8.89127776,17.3611859 C9.71981516,16.7014246 10.5486797,15.9554465 11.3195019,15.1418009 C13.4614925,12.8808107 14.7272727,10.5602136 14.7272727,8.36363636 C14.7272727,4.84909711 11.8781757,2.00000011 8.36363636,2.00000011 C4.84909706,2.00000011 2,4.84909711 2,8.36363636 C2,10.5602136 3.26578025,12.8808107 5.40777087,15.1418009 C6.17859301,15.9554465 7.00745757,16.7014246 7.83599497,17.3611859 C8.02127913,17.508727 8.1977959,17.6449046 8.36363636,17.7691567 C8.52947683,17.6449046 8.7059936,17.508727 8.89127776,17.3611859 Z"/>
                <path d="M8.36363636,11.8181818 C10.2715291,11.8181818 11.8181818,10.2715291 11.8181818,8.36363636 C11.8181818,6.45574359 10.2715291,4.90909091 8.36363636,4.90909091 C6.45574359,4.90909091 4.90909091,6.45574359 4.90909091,8.36363636 C4.90909091,10.2715291 6.45574359,11.8181818 8.36363636,11.8181818 Z M8.36363636,9.81818182 C7.56031309,9.81818182 6.90909091,9.16695964 6.90909091,8.36363636 C6.90909091,7.56031309 7.56031309,6.90909091 8.36363636,6.90909091 C9.16695964,6.90909091 9.81818182,7.56031309 9.81818182,8.36363636 C9.81818182,9.16695964 9.16695964,9.81818182 8.36363636,9.81818182 Z"/>
              </g>
            </g>
            <g fill-rule="nonzero" transform="translate(182 1)">
              <path fill="#F8F7FD" d="M32.7507324,14.2548828 C30.6337891,14.2548828 29.1682129,12.9663086 29.083252,11.1679688 L30.7966309,11.1679688 C30.9099121,12.1096191 31.7099609,12.732666 32.7648926,12.732666 C33.9614258,12.732666 34.7756348,11.9255371 34.7756348,10.7077637 C34.7756348,9.48291016 33.9543457,8.65454102 32.7790527,8.65454102 C31.9365234,8.65454102 31.2780762,9.02978516 30.902832,9.65991211 L29.2460938,9.65991211 L29.7770996,3.78344727 L35.9296875,3.78344727 L35.9296875,5.3269043 L31.1931152,5.3269043 L30.9453125,8.19433594 L31.0656738,8.19433594 C31.5187988,7.58544922 32.2409668,7.23852539 33.2250977,7.23852539 C35.1650391,7.23852539 36.5385742,8.66162109 36.5385742,10.6652832 C36.5385742,12.7963867 35.0163574,14.2548828 32.7507324,14.2548828 Z M39.626434,12.916748 C38.9609067,12.916748 38.4936215,12.4353027 38.4936215,11.7980957 C38.4936215,11.1538086 38.9609067,10.6794434 39.626434,10.6794434 C40.2990414,10.6794434 40.7592465,11.1538086 40.7592465,11.7980957 C40.7592465,12.4353027 40.2990414,12.916748 39.626434,12.916748 Z M39.626434,7.60668945 C38.9609067,7.60668945 38.4936215,7.13232422 38.4936215,6.49511719 C38.4936215,5.85083008 38.9609067,5.37646484 39.626434,5.37646484 C40.2990414,5.37646484 40.7592465,5.85083008 40.7592465,6.49511719 C40.7592465,7.13232422 40.2990414,7.60668945 39.626434,7.60668945 Z M46.6154169,14.2548828 C44.1657098,14.2548828 42.7142938,12.2724609 42.7142938,8.88110352 C42.7142938,5.50390625 44.1869501,3.52856445 46.6154169,3.52856445 C49.0368036,3.52856445 50.5094598,5.50390625 50.5094598,8.89526367 C50.5094598,12.2724609 49.0580438,14.2548828 46.6154169,14.2548828 Z M46.6154169,12.7397461 C47.9110712,12.7397461 48.6615594,11.3945312 48.6615594,8.88110352 C48.6615594,6.38183594 47.896911,5.05078125 46.6154169,5.05078125 C45.3339227,5.05078125 44.5621942,6.38891602 44.5621942,8.88110352 C44.5621942,11.3945312 45.3197626,12.7397461 46.6154169,12.7397461 Z M56.1036673,14.2548828 C53.6539603,14.2548828 52.2025442,12.2724609 52.2025442,8.88110352 C52.2025442,5.50390625 53.6752005,3.52856445 56.1036673,3.52856445 C58.525054,3.52856445 59.9977103,5.50390625 59.9977103,8.89526367 C59.9977103,12.2724609 58.5462942,14.2548828 56.1036673,14.2548828 Z M56.1036673,12.7397461 C57.3993216,12.7397461 58.1498099,11.3945312 58.1498099,8.88110352 C58.1498099,6.38183594 57.3851614,5.05078125 56.1036673,5.05078125 C54.8221732,5.05078125 54.0504446,6.38891602 54.0504446,8.88110352 C54.0504446,11.3945312 54.808013,12.7397461 56.1036673,12.7397461 Z M66.066283,6.12695312 C68.0274646,6.12695312 69.2593982,7.64208984 69.2593982,10.1271973 C69.2593982,12.5981445 68.0416247,14.1274414 66.0875232,14.1274414 C64.9759509,14.1274414 64.1192615,13.6459961 63.7227771,12.824707 L63.6024158,12.824707 L63.6024158,16.5771484 L61.8465564,16.5771484 L61.8465564,6.25439453 L63.5386951,6.25439453 L63.5386951,7.53588867 L63.6590564,7.53588867 C64.1051013,6.65795898 65.0042712,6.12695312 66.066283,6.12695312 Z M65.5140369,12.6335449 C66.7318103,12.6335449 67.4539783,11.6918945 67.4539783,10.1271973 C67.4539783,8.5625 66.7247302,7.62084961 65.5211169,7.62084961 C64.3245837,7.62084961 63.5740955,8.58374023 63.5670154,10.1271973 C63.5740955,11.6777344 64.3175037,12.6335449 65.5140369,12.6335449 Z M70.8746017,14 L70.8746017,6.25439453 L72.5667404,6.25439453 L72.5667404,7.50756836 L72.6871017,7.50756836 C73.0198654,6.62255859 73.8128342,6.09863281 74.8394455,6.09863281 C75.9085373,6.09863281 76.6519455,6.63671875 76.9776291,7.50756836 L77.0979904,7.50756836 C77.4803146,6.65795898 78.3724045,6.09863281 79.4485763,6.09863281 C80.9991135,6.09863281 81.9336838,7.06860352 81.9336838,8.67578125 L81.9336838,14 L80.1849045,14 L80.1849045,9.12182617 C80.1849045,8.12353516 79.7105392,7.62792969 78.7688888,7.62792969 C77.8555588,7.62792969 77.2537521,8.29345703 77.2537521,9.1784668 L77.2537521,14 L75.5474533,14 L75.5474533,8.99438477 C75.5474533,8.14477539 75.0093674,7.62792969 74.1455978,7.62792969 C73.2747482,7.62792969 72.6304611,8.34301758 72.6304611,9.29174805 L72.6304611,14 L70.8746017,14 Z" opacity=".562"/>
              <path fill="#FFF" fill-opacity=".144" d="M10,0 C12.6521649,0 15.195704,1.0535684 17.0710678,2.92893219 C18.9464316,4.80429597 20,7.3478351 20,10 C20,15.5228475 15.5228475,20 10,20 C4.4771525,20 0,15.5228475 0,10 C0,4.4771525 4.4771525,0 10,0 Z M10,18 C12.1217319,18 14.1565632,17.1571453 15.6568542,15.6568542 C17.1571453,14.1565632 18,12.1217319 18,10 C18,5.581722 14.418278,2 10,2 C5.581722,2 2,5.581722 2,10 C2,14.418278 5.581722,18 10,18 Z M14,9 C14.5522847,9 15,9.44771525 15,10 C15,10.5522847 14.5522847,11 14,11 L10,11 C9.44771525,11 9,10.5522847 9,10 L9,6 C9,5.44771525 9.44771525,5 10,5 C10.5522847,5 11,5.44771525 11,6 L11,9 L14,9 Z"/>
            </g>
          </g>
          <g transform="translate(0 99)">
            <rect width="173" height="39" fill="#4988FE" rx="5"/>
            <path fill="#FFF" fill-rule="nonzero" d="M36.8843512,20.3833008 C36.8843512,23.3652344 35.0376715,25.189209 31.9270758,25.189209 C28.5591559,25.189209 26.5308356,23.1079102 26.5308356,19.5205078 C26.5308356,15.9785156 28.5591559,13.8896484 31.8589606,13.8896484 C34.5078864,13.8896484 36.4907965,15.4562988 36.7708258,17.6813965 L34.0235114,17.6813965 C33.7510504,16.7126465 32.9336676,16.1223145 31.866529,16.1223145 C30.2923102,16.1223145 29.361402,17.355957 29.361402,19.482666 C29.361402,21.6472168 30.3906989,22.956543 31.9876227,22.956543 C33.2439704,22.956543 34.1219001,22.2148438 34.1975837,21.1174316 L34.205152,20.9509277 L32.2071051,20.9509277 L32.2071051,19.0437012 L36.8843512,19.0437012 L36.8843512,20.3833008 Z M46.6553147,22.7597656 L46.6553147,25 L39.1702072,25 L39.1702072,14.0788574 L46.6553147,14.0788574 L46.6553147,16.3190918 L41.9477951,16.3190918 L41.9477951,18.4912109 L46.3752854,18.4912109 L46.3752854,20.534668 L41.9477951,20.534668 L41.9477951,22.7597656 L46.6553147,22.7597656 Z M54.4357996,25 L51.6657801,25 L51.6657801,16.3190918 L48.653573,16.3190918 L48.653573,14.0788574 L57.4480066,14.0788574 L57.4480066,16.3190918 L54.4357996,16.3190918 L54.4357996,25 Z M66.0309491,25 L66.0309491,16.5158691 L65.9779706,16.5158691 L63.2457929,18.3625488 L63.2457929,15.9709473 L66.0233807,14.0788574 L68.7934003,14.0788574 L68.7934003,25 L66.0309491,25 Z M76.4982016,25.2724609 C73.6373618,25.2724609 71.8663657,23.0927734 71.8663657,19.5205078 C71.8663657,15.9331055 73.6600668,13.7988281 76.4982016,13.7988281 C79.328768,13.7988281 81.1149008,15.9255371 81.1149008,19.5129395 C81.1149008,23.0776367 79.3514731,25.2724609 76.4982016,25.2724609 Z M76.4982016,23.1079102 C77.580477,23.1079102 78.2919028,21.8818359 78.2919028,19.5205078 C78.2919028,17.1591797 77.580477,15.9633789 76.4982016,15.9633789 C75.4159262,15.9633789 74.6893637,17.166748 74.6893637,19.5129395 C74.6893637,21.8742676 75.4083579,23.1079102 76.4982016,23.1079102 Z M88.1309814,16.7202148 C88.1309814,18.5063477 87.131958,19.6113281 85.5350342,19.6113281 C83.9381104,19.6113281 82.9390869,18.5063477 82.9390869,16.7202148 C82.9390869,14.9416504 83.9381104,13.8291016 85.5350342,13.8291016 C87.131958,13.8291016 88.1309814,14.9416504 88.1309814,16.7202148 Z M85.5350342,18.0522461 C85.9361572,18.0522461 86.1783447,17.5527344 86.1783447,16.7050781 C86.1783447,15.8574219 85.9361572,15.3579102 85.5350342,15.3579102 C85.1339111,15.3579102 84.8917236,15.8574219 84.8917236,16.7050781 C84.8917236,17.5527344 85.1339111,18.0522461 85.5350342,18.0522461 Z M86.352417,25 L84.2484131,25 L88.5018311,19.1723633 L92.2103271,14.0788574 L94.3143311,14.0788574 L90.1820068,19.7475586 L86.352417,25 Z M95.6236572,22.282959 C95.6236572,24.0690918 94.6246338,25.1740723 93.02771,25.1740723 C91.4307861,25.1740723 90.4317627,24.0690918 90.4317627,22.282959 C90.4317627,20.5043945 91.4307861,19.3994141 93.02771,19.3994141 C94.6246338,19.3994141 95.6236572,20.5043945 95.6236572,22.282959 Z M93.02771,23.6149902 C93.428833,23.6149902 93.6710205,23.1154785 93.6710205,22.2678223 C93.6710205,21.420166 93.428833,20.9206543 93.02771,20.9206543 C92.6265869,20.9206543 92.3843994,21.420166 92.3843994,22.2678223 C92.3843994,23.1154785 92.6265869,23.6149902 93.02771,23.6149902 Z M106.802547,25 L101.587947,25 L101.587947,14.0788574 L106.666317,14.0788574 C108.815731,14.0788574 110.10992,15.1157227 110.10992,16.8034668 C110.10992,18.029541 109.18658,19.0058594 107.975643,19.1723633 L107.975643,19.2329102 C109.451473,19.3010254 110.617,20.3984375 110.617,21.8515625 C110.617,23.7663574 109.14117,25 106.802547,25 Z M104.365535,16.0466309 L104.365535,18.5290527 L105.795955,18.5290527 C106.802547,18.5290527 107.408016,18.0522461 107.408016,17.2651367 C107.408016,16.5007324 106.863094,16.0466309 105.932186,16.0466309 L104.365535,16.0466309 Z M104.365535,23.0322266 L106.015438,23.0322266 C107.15826,23.0322266 107.794002,22.5327148 107.794002,21.609375 C107.794002,20.7163086 107.143123,20.2167969 106.000301,20.2167969 L104.365535,20.2167969 L104.365535,23.0322266 Z M119.880883,25 L119.192163,22.6008301 L115.619897,22.6008301 L114.923608,25 L112.093042,25 L115.763696,14.0788574 L119.161889,14.0788574 L122.832544,25 L119.880883,25 Z M117.375757,16.3947754 L116.157251,20.6027832 L118.647241,20.6027832 L117.436303,16.3947754 L117.375757,16.3947754 Z M129.137198,25.189209 C125.867667,25.189209 123.831779,23.1079102 123.831779,19.5356445 C123.831779,15.9709473 125.882804,13.8896484 129.137198,13.8896484 C131.89965,13.8896484 133.996085,15.6682129 134.079337,18.2490234 L131.407706,18.2490234 C131.271476,16.9624023 130.355704,16.1147461 129.137198,16.1147461 C127.623527,16.1147461 126.662345,17.4089355 126.662345,19.5280762 C126.662345,21.6699219 127.615958,22.9641113 129.144767,22.9641113 C130.363273,22.9641113 131.248771,22.1618652 131.422843,20.8828125 L134.094474,20.8828125 C133.965812,23.4787598 131.952628,25.189209 129.137198,25.189209 Z M139.082234,25 L136.304646,25 L136.304646,14.0788574 L139.082234,14.0788574 L139.082234,18.8771973 L139.142781,18.8771973 L142.858845,14.0788574 L145.840779,14.0788574 L142.033894,18.9301758 L146.060262,25 L142.798299,25 L140.013142,20.7314453 L139.082234,21.9121094 L139.082234,25 Z"/>
          </g>
          <path fill="#F8F7FD" fill-rule="nonzero" d="M9.91845703,11.9584961 L9.91845703,14 L1.60791016,14 L1.60791016,0.965087891 L3.93847656,0.965087891 L3.93847656,11.9584961 L9.91845703,11.9584961 Z M15.8337299,14.1987305 C12.8708393,14.1987305 11.0822651,12.265625 11.0822651,9.05883789 C11.0822651,5.87011719 12.8979389,3.91894531 15.8337299,3.91894531 C18.7785542,3.91894531 20.5851948,5.86108398 20.5851948,9.05883789 C20.5851948,12.265625 18.7875874,14.1987305 15.8337299,14.1987305 Z M15.8337299,12.3198242 C17.3964741,12.3198242 18.281728,11.1274414 18.281728,9.05883789 C18.281728,6.99926758 17.3874409,5.79785156 15.8337299,5.79785156 C14.2709858,5.79785156 13.3766987,6.99926758 13.3766987,9.05883789 C13.3766987,11.1274414 14.2709858,12.3198242 15.8337299,12.3198242 Z M31.2067665,7.44189453 L29.0749306,7.44189453 C28.8671669,6.484375 28.1264442,5.79785156 26.8979286,5.79785156 C25.3622841,5.79785156 24.4499306,6.98120117 24.4499306,9.03173828 C24.4499306,11.109375 25.3713173,12.3198242 26.8979286,12.3198242 C28.0632118,12.3198242 28.8400673,11.7687988 29.0749306,10.7390137 L31.2067665,10.7390137 C30.96287,12.8076172 29.4091591,14.1987305 26.9069618,14.1987305 C23.935038,14.1987305 22.1825966,12.2836914 22.1825966,9.03173828 C22.1825966,5.82495117 23.9260048,3.91894531 26.8979286,3.91894531 C29.4362587,3.91894531 30.9719032,5.36425781 31.2067665,7.44189453 Z M36.5529476,12.401123 C37.9079281,12.401123 38.9196468,11.5249023 38.9196468,10.3776855 L38.9196468,9.59179688 L36.6884457,9.73632812 C35.4328304,9.81762695 34.8456722,10.2692871 34.8456722,11.0732422 C34.8456722,11.9042969 35.5592953,12.401123 36.5529476,12.401123 Z M35.8935238,14.1625977 C33.9875179,14.1625977 32.6235043,13.0063477 32.6235043,11.199707 C32.6235043,9.41113281 33.9694515,8.38134766 36.3722836,8.23681641 L38.9196468,8.08325195 L38.9196468,7.25219727 C38.9196468,6.28564453 38.2692562,5.74365234 37.058807,5.74365234 C36.0290218,5.74365234 35.324432,6.10498047 35.1166683,6.7734375 L33.0028988,6.7734375 C33.1835629,5.0300293 34.8185726,3.91894531 37.1672054,3.91894531 C39.7055355,3.91894531 41.1327816,5.15649414 41.1327816,7.25219727 L41.1327816,14 L38.9738461,14 L38.9738461,12.6450195 L38.8202816,12.6450195 C38.2692562,13.6025391 37.1852718,14.1625977 35.8935238,14.1625977 Z M43.7419022,14 L43.7419022,0.296630859 L45.9821365,0.296630859 L45.9821365,14 L43.7419022,14 Z M53.0341179,10.4589844 L55.3104851,10.4589844 C55.4550163,11.6242676 56.6112663,12.3740234 58.2643425,12.3740234 C59.799987,12.3740234 60.911071,11.5881348 60.911071,10.4951172 C60.911071,9.55566406 60.197448,9.00463867 58.5263054,8.61621094 L56.8370964,8.2277832 C54.4703972,7.69482422 53.3593132,6.52050781 53.3593132,4.57836914 C53.3593132,2.21166992 55.2924187,0.639892578 58.2101433,0.639892578 C60.9472038,0.639892578 62.9254753,2.21166992 63.0338738,4.4519043 L60.8026726,4.4519043 C60.6400749,3.3046875 59.6283562,2.58203125 58.2011101,2.58203125 C56.7015984,2.58203125 55.707946,3.3046875 55.707946,4.41577148 C55.707946,5.29199219 56.3673699,5.80688477 57.9843132,6.17724609 L59.4838249,6.52050781 C62.1305535,7.11669922 63.2416374,8.21875 63.2416374,10.2060547 C63.2416374,12.7443848 61.2814324,14.3251953 58.1198113,14.3251953 C55.129821,14.3251953 53.1515495,12.8256836 53.0341179,10.4589844 Z M66.1669201,1.69677734 L68.3981213,1.69677734 L68.3981213,4.1809082 L70.5118908,4.1809082 L70.5118908,5.96948242 L68.3981213,5.96948242 L68.3981213,10.8203125 C68.3981213,11.7958984 68.8136486,12.2294922 69.7531017,12.2294922 C70.0692639,12.2294922 70.2408947,12.2114258 70.5118908,12.1843262 L70.5118908,13.9367676 C70.1866955,14 69.7711682,14.045166 69.3375744,14.045166 C67.0702404,14.045166 66.1669201,13.2773438 66.1669201,11.3623047 L66.1669201,5.96948242 L64.604176,5.96948242 L64.604176,4.1809082 L66.1669201,4.1809082 L66.1669201,1.69677734 Z M76.752359,14.1987305 C73.7894684,14.1987305 72.0008942,12.265625 72.0008942,9.05883789 C72.0008942,5.87011719 73.816568,3.91894531 76.752359,3.91894531 C79.6971832,3.91894531 81.5038239,5.86108398 81.5038239,9.05883789 C81.5038239,12.265625 79.7062165,14.1987305 76.752359,14.1987305 Z M76.752359,12.3198242 C78.3151032,12.3198242 79.2003571,11.1274414 79.2003571,9.05883789 C79.2003571,6.99926758 78.30607,5.79785156 76.752359,5.79785156 C75.1896149,5.79785156 74.2953278,6.99926758 74.2953278,9.05883789 C74.2953278,11.1274414 75.1896149,12.3198242 76.752359,12.3198242 Z M83.5890187,14 L83.5890187,4.11767578 L85.7479542,4.11767578 L85.7479542,5.65332031 L85.9015187,5.65332031 C86.1725147,4.67773438 87.2384327,3.95507812 88.5121144,3.95507812 C88.8373097,3.95507812 89.2347706,3.99121094 89.4425343,4.05444336 L89.4425343,6.13208008 C89.2709034,6.06884766 88.674712,6.00561523 88.2953175,6.00561523 C86.8409718,6.00561523 85.829253,6.90893555 85.829253,8.29101562 L85.829253,14 L83.5890187,14 Z M95.0055123,5.69848633 C93.6685982,5.69848633 92.7291451,6.65600586 92.6297798,8.10131836 L97.2818795,8.10131836 C97.2367134,6.63793945 96.3514595,5.69848633 95.0055123,5.69848633 Z M97.2999459,11.2810059 L99.4227486,11.2810059 C98.998188,13.0786133 97.3631783,14.1987305 95.0326119,14.1987305 C92.1239205,14.1987305 90.3714791,12.2746582 90.3714791,9.0949707 C90.3714791,5.9152832 92.1510201,3.91894531 95.0145455,3.91894531 C97.8329048,3.91894531 99.5221138,5.78881836 99.5221138,8.90527344 L99.5221138,9.62792969 L92.6207466,9.62792969 L92.6207466,9.74536133 C92.6749459,11.3894043 93.6234322,12.4191895 95.0958443,12.4191895 C96.2069283,12.4191895 96.9747505,12.0126953 97.2999459,11.2810059 Z M110.62097,14.1987305 C107.65808,14.1987305 105.869505,12.265625 105.869505,9.05883789 C105.869505,5.87011719 107.685179,3.91894531 110.62097,3.91894531 C113.565794,3.91894531 115.372435,5.86108398 115.372435,9.05883789 C115.372435,12.265625 113.574828,14.1987305 110.62097,14.1987305 Z M110.62097,12.3198242 C112.183714,12.3198242 113.068968,11.1274414 113.068968,9.05883789 C113.068968,6.99926758 112.174681,5.79785156 110.62097,5.79785156 C109.058226,5.79785156 108.163939,6.99926758 108.163939,9.05883789 C108.163939,11.1274414 109.058226,12.3198242 110.62097,12.3198242 Z M117.45763,14 L117.45763,4.11767578 L119.616565,4.11767578 L119.616565,5.65332031 L119.77013,5.65332031 C120.041126,4.67773438 121.107044,3.95507812 122.380726,3.95507812 C122.705921,3.95507812 123.103382,3.99121094 123.311145,4.05444336 L123.311145,6.13208008 C123.139515,6.06884766 122.543323,6.00561523 122.163929,6.00561523 C120.709583,6.00561523 119.697864,6.90893555 119.697864,8.29101562 L119.697864,14 L117.45763,14 Z M132.296232,2.89819336 L132.296232,7.26123047 L134.988127,7.26123047 C136.469572,7.26123047 137.318693,6.46630859 137.318693,5.08422852 C137.318693,3.72924805 136.415373,2.89819336 134.933928,2.89819336 L132.296232,2.89819336 Z M132.296232,9.11303711 L132.296232,14 L129.965666,14 L129.965666,0.965087891 L135.259123,0.965087891 C137.996183,0.965087891 139.712492,2.53686523 139.712492,5.0390625 C139.712492,6.75537109 138.809172,8.19165039 137.255461,8.75170898 L140.10092,14 L137.436125,14 L134.879728,9.11303711 L132.296232,9.11303711 Z M145.971027,5.69848633 C144.634113,5.69848633 143.694659,6.65600586 143.595294,8.10131836 L148.247394,8.10131836 C148.202228,6.63793945 147.316974,5.69848633 145.971027,5.69848633 Z M148.26546,11.2810059 L150.388263,11.2810059 C149.963702,13.0786133 148.328693,14.1987305 145.998126,14.1987305 C143.089435,14.1987305 141.336993,12.2746582 141.336993,9.0949707 C141.336993,5.9152832 143.116534,3.91894531 145.98006,3.91894531 C148.798419,3.91894531 150.487628,5.78881836 150.487628,8.90527344 L150.487628,9.62792969 L143.586261,9.62792969 L143.586261,9.74536133 C143.64046,11.3894043 144.588947,12.4191895 146.061359,12.4191895 C147.172443,12.4191895 147.940265,12.0126953 148.26546,11.2810059 Z M152.33796,6.94506836 C152.33796,5.15649414 153.963936,3.91894531 156.294503,3.91894531 C158.643135,3.91894531 160.115548,4.95776367 160.278145,6.75537109 L158.173409,6.75537109 C158.010811,6.05981445 157.351387,5.6171875 156.303536,5.6171875 C155.282784,5.6171875 154.514962,6.10498047 154.514962,6.81860352 C154.514962,7.37866211 154.984688,7.72192383 155.978341,7.94775391 L157.721749,8.34521484 C159.609688,8.76977539 160.485909,9.58276367 160.485909,11.0371094 C160.485909,12.934082 158.742501,14.1987305 156.276436,14.1987305 C153.810372,14.1987305 152.256661,13.1328125 152.08503,11.3352051 L154.298165,11.3352051 C154.514962,12.0668945 155.210518,12.5004883 156.330635,12.5004883 C157.459786,12.5004883 158.245675,12.0036621 158.245675,11.2719727 C158.245675,10.7119141 157.821114,10.3596191 156.881661,10.1518555 L155.129219,9.74536133 C153.232247,9.31176758 152.33796,8.43554688 152.33796,6.94506836 Z M163.230528,1.69677734 L165.461729,1.69677734 L165.461729,4.1809082 L167.575498,4.1809082 L167.575498,5.96948242 L165.461729,5.96948242 L165.461729,10.8203125 C165.461729,11.7958984 165.877256,12.2294922 166.816709,12.2294922 C167.132871,12.2294922 167.304502,12.2114258 167.575498,12.1843262 L167.575498,13.9367676 C167.250303,14 166.834776,14.045166 166.401182,14.045166 C164.133848,14.045166 163.230528,13.2773438 163.230528,11.3623047 L163.230528,5.96948242 L161.667783,5.96948242 L161.667783,4.1809082 L163.230528,4.1809082 L163.230528,1.69677734 Z M173.021045,12.401123 C174.376025,12.401123 175.387744,11.5249023 175.387744,10.3776855 L175.387744,9.59179688 L173.156543,9.73632812 C171.900927,9.81762695 171.313769,10.2692871 171.313769,11.0732422 C171.313769,11.9042969 172.027392,12.401123 173.021045,12.401123 Z M172.361621,14.1625977 C170.455615,14.1625977 169.091601,13.0063477 169.091601,11.199707 C169.091601,9.41113281 170.437549,8.38134766 172.840381,8.23681641 L175.387744,8.08325195 L175.387744,7.25219727 C175.387744,6.28564453 174.737353,5.74365234 173.526904,5.74365234 C172.497119,5.74365234 171.792529,6.10498047 171.584765,6.7734375 L169.470996,6.7734375 C169.65166,5.0300293 171.28667,3.91894531 173.635302,3.91894531 C176.173632,3.91894531 177.600879,5.15649414 177.600879,7.25219727 L177.600879,14 L175.441943,14 L175.441943,12.6450195 L175.288379,12.6450195 C174.737353,13.6025391 173.653369,14.1625977 172.361621,14.1625977 Z M188.719276,4.11767578 L188.719276,14 L186.560341,14 L186.560341,12.4282227 L186.406776,12.4282227 C185.928017,13.557373 184.961464,14.1987305 183.452919,14.1987305 C181.293984,14.1987305 180.029335,12.8527832 180.029335,10.5402832 L180.029335,4.11767578 L182.269569,4.11767578 L182.269569,9.98022461 C182.269569,11.4887695 182.89286,12.2294922 184.229775,12.2294922 C185.68412,12.2294922 186.479042,11.3352051 186.479042,9.87182617 L186.479042,4.11767578 L188.719276,4.11767578 Z M191.292264,14 L191.292264,4.11767578 L193.4512,4.11767578 L193.4512,5.65332031 L193.604764,5.65332031 C193.87576,4.67773438 194.941678,3.95507812 196.21536,3.95507812 C196.540555,3.95507812 196.938016,3.99121094 197.14578,4.05444336 L197.14578,6.13208008 C196.974149,6.06884766 196.377958,6.00561523 195.998563,6.00561523 C194.544217,6.00561523 193.532499,6.90893555 193.532499,8.29101562 L193.532499,14 L191.292264,14 Z M202.0674,12.401123 C203.422381,12.401123 204.4341,11.5249023 204.4341,10.3776855 L204.4341,9.59179688 L202.202898,9.73632812 C200.947283,9.81762695 200.360125,10.2692871 200.360125,11.0732422 C200.360125,11.9042969 201.073748,12.401123 202.0674,12.401123 Z M201.407977,14.1625977 C199.501971,14.1625977 198.137957,13.0063477 198.137957,11.199707 C198.137957,9.41113281 199.483904,8.38134766 201.886736,8.23681641 L204.4341,8.08325195 L204.4341,7.25219727 C204.4341,6.28564453 203.783709,5.74365234 202.57326,5.74365234 C201.543475,5.74365234 200.838885,6.10498047 200.631121,6.7734375 L198.517352,6.7734375 C198.698016,5.0300293 200.333025,3.91894531 202.681658,3.91894531 C205.219988,3.91894531 206.647234,5.15649414 206.647234,7.25219727 L206.647234,14 L204.488299,14 L204.488299,12.6450195 L204.334734,12.6450195 C203.783709,13.6025391 202.699725,14.1625977 201.407977,14.1625977 Z M209.166023,14 L209.166023,4.11767578 L211.324958,4.11767578 L211.324958,5.69848633 L211.478523,5.69848633 C211.94825,4.59643555 212.941902,3.91894531 214.414314,3.91894531 C216.618416,3.91894531 217.819832,5.24682617 217.819832,7.60449219 L217.819832,14 L215.579597,14 L215.579597,8.13745117 C215.579597,6.62890625 214.947273,5.87011719 213.583259,5.87011719 C212.246345,5.87011719 211.406257,6.79150391 211.406257,8.24584961 L211.406257,14 L209.166023,14 Z M221.01611,1.69677734 L223.247311,1.69677734 L223.247311,4.1809082 L225.361081,4.1809082 L225.361081,5.96948242 L223.247311,5.96948242 L223.247311,10.8203125 C223.247311,11.7958984 223.662839,12.2294922 224.602292,12.2294922 C224.918454,12.2294922 225.090085,12.2114258 225.361081,12.1843262 L225.361081,13.9367676 C225.035886,14 224.620358,14.045166 224.186765,14.045166 C221.919431,14.045166 221.01611,13.2773438 221.01611,11.3623047 L221.01611,5.96948242 L219.453366,5.96948242 L219.453366,4.1809082 L221.01611,4.1809082 L221.01611,1.69677734 Z" opacity=".918"/>
          <g transform="translate(0 27)">
            <path fill="#B5ED3C" fill-rule="nonzero" d="M12.4743681,15.2034706 L12.474368,15.2034706 C12.3458585,15.2039853 12.2190991,15.173808 12.1047252,15.1154706 L8.0065109,12.9794706 L3.90829661,15.1154706 L3.90829666,15.1154705 C3.51549246,15.3211041 3.02961541,15.1707872 2.82306541,14.7797289 C2.74004282,14.6225441 2.71191541,14.4423249 2.74311616,14.2674705 L3.54668758,9.76347055 L0.235973299,6.56347055 L0.235973343,6.56347059 C0.0254826292,6.35435139 -0.0517984423,6.04660179 0.0350804863,5.76347059 L0.0350804529,5.76347069 C0.130097953,5.47340829 0.382563221,5.26240429 0.68597331,5.21947069 L5.26633045,4.55547069 L7.28329474,0.451470692 L7.28329474,0.45147068 C7.47674251,0.05382588 7.95735778,-0.11240532 8.35677778,0.08018268 C8.51951144,0.15864796 8.65090823,0.28946028 8.72972332,0.45147068 L10.7707947,4.54747068 L15.3511519,5.21147068 L15.351152,5.21147069 C15.6545621,5.25440421 15.9070273,5.46540829 16.0020448,5.75547069 L16.0020448,5.75547068 C16.0889237,6.03860188 16.0116425,6.34635148 15.801152,6.55547068 L12.4904377,9.75547068 L13.2940091,14.2594707 L13.2940091,14.2594708 C13.3525838,14.5657084 13.2271379,14.8779292 12.9725805,15.0594708 L12.9725806,15.0594708 C12.8270682,15.1609884 12.6518623,15.2116284 12.4743663,15.2034708 L12.4743681,15.2034706 Z"/>
            <path fill="#FFF" fill-opacity=".339" fill-rule="nonzero" d="M86.4029395,15.2034706 L86.4029395,15.2034706 C86.2744299,15.2039853 86.1476705,15.173808 86.0332966,15.1154706 L81.9350823,12.9794706 L77.836868,15.1154706 L77.8368681,15.1154705 C77.4440639,15.3211041 76.9581868,15.1707872 76.7516368,14.7797289 C76.6686142,14.6225441 76.6404868,14.4423249 76.6716876,14.2674705 L77.475259,9.76347055 L74.1645447,6.56347055 L74.1645448,6.56347059 C73.9540541,6.35435139 73.876773,6.04660179 73.9636519,5.76347059 L73.9636519,5.76347069 C74.0586694,5.47340829 74.3111346,5.26240429 74.6145447,5.21947069 L79.1949019,4.55547069 L81.2118662,0.451470692 L81.2118662,0.45147068 C81.4053139,0.05382588 81.8859292,-0.11240532 82.2853492,0.08018268 C82.4480829,0.15864796 82.5794797,0.28946028 82.6582947,0.45147068 L84.6993662,4.54747068 L89.2797233,5.21147068 L89.2797234,5.21147069 C89.5831335,5.25440421 89.8355988,5.46540829 89.9306163,5.75547069 L89.9306162,5.75547068 C90.0174952,6.03860188 89.9402139,6.34635148 89.7297234,6.55547068 L86.4190091,9.75547068 L87.2225805,14.2594707 L87.2225805,14.2594708 C87.2811552,14.5657084 87.1557093,14.8779292 86.901152,15.0594708 L86.901152,15.0594708 C86.7556397,15.1609884 86.5804338,15.2116284 86.4029377,15.2034708 L86.4029395,15.2034706 Z"/>
            <path fill="#B5ED3C" fill-rule="nonzero" d="M30.9565109 15.2034706L30.9565109 15.2034706C30.8280013 15.2039853 30.701242 15.173808 30.586868 15.1154706L26.4886538 12.9794706 22.3904395 15.1154706 22.3904395 15.1154705C21.9976353 15.3211041 21.5117583 15.1707872 21.3052083 14.7797289 21.2221857 14.6225441 21.1940583 14.4423249 21.225259 14.2674705L22.0288304 9.76347055 18.7181162 6.56347055 18.7181162 6.56347059C18.5076255 6.35435139 18.4303444 6.04660179 18.5172233 5.76347059L18.5172233 5.76347069C18.6122408 5.47340829 18.8647061 5.26240429 19.1681162 5.21947069L23.7484733 4.55547069 25.7654376.451470692 25.7654376.45147068C25.9588854.05382588 26.4395006-.11240532 26.8389206.08018268 27.0016543.15864796 27.1330511.28946028 27.2118662.45147068L29.2529376 4.54747068 33.8332947 5.21147068 33.8332948 5.21147069C34.1367049 5.25440421 34.3891702 5.46540829 34.4841877 5.75547069L34.4841877 5.75547068C34.5710666 6.03860188 34.4937854 6.34635148 34.2832948 6.55547068L30.9725805 9.75547068 31.776152 14.2594707 31.776152 14.2594708C31.8347266 14.5657084 31.7092808 14.8779292 31.4547234 15.0594708L31.4547234 15.0594708C31.3092111 15.1609884 31.1340052 15.2116284 30.9565091 15.2034708L30.9565109 15.2034706zM49.4386538 15.2034706L49.4386538 15.2034706C49.3101442 15.2039853 49.1833848 15.173808 49.0690109 15.1154706L44.9707966 12.9794706 40.8725823 15.1154706 40.8725824 15.1154705C40.4797782 15.3211041 39.9939011 15.1707872 39.7873511 14.7797289 39.7043285 14.6225441 39.6762011 14.4423249 39.7074019 14.2674705L40.5109733 9.76347055 37.200259 6.56347055 37.2002591 6.56347059C36.9897683 6.35435139 36.9124873 6.04660179 36.9993662 5.76347059L36.9993662 5.76347069C37.0943837 5.47340829 37.3468489 5.26240429 37.650259 5.21947069L42.2306162 4.55547069 44.2475805.451470692 44.2475805.45147068C44.4410282.05382588 44.9216435-.11240532 45.3210635.08018268 45.4837972.15864796 45.6151939.28946028 45.694009.45147068L47.7350805 4.54747068 52.3154376 5.21147068 52.3154377 5.21147069C52.6188478 5.25440421 52.871313 5.46540829 52.9663305 5.75547069L52.9663305 5.75547068C53.0532095 6.03860188 52.9759282 6.34635148 52.7654377 6.55547068L49.4547234 9.75547068 50.2582948 14.2594707 50.2582948 14.2594708C50.3168695 14.5657084 50.1914236 14.8779292 49.9368663 15.0594708L49.9368663 15.0594708C49.7913539 15.1609884 49.6161481 15.2116284 49.438652 15.2034708L49.4386538 15.2034706zM67.9207967 15.2034706L67.9207966 15.2034706C67.7922871 15.2039853 67.6655277 15.173808 67.5511538 15.1154706L63.4529395 12.9794706 59.3547252 15.1154706 59.3547252 15.1154705C58.961921 15.3211041 58.476044 15.1707872 58.269494 14.7797289 58.1864714 14.6225441 58.158344 14.4423249 58.1895447 14.2674705L58.9931162 9.76347055 55.6824019 6.56347055 55.6824019 6.56347059C55.4719112 6.35435139 55.3946301 6.04660179 55.4815091 5.76347059L55.481509 5.76347069C55.5765265 5.47340829 55.8289918 5.26240429 56.1324019 5.21947069L60.712759 4.55547069 62.7297233.451470692 62.7297233.45147068C62.9231711.05382588 63.4037864-.11240532 63.8032064.08018268 63.96594.15864796 64.0973368.28946028 64.1761519.45147068L66.2172233 4.54747068 70.7975805 5.21147068 70.7975805 5.21147069C71.1009906 5.25440421 71.3534559 5.46540829 71.4484734 5.75547069L71.4484734 5.75547068C71.5353523 6.03860188 71.4580711 6.34635148 71.2475805 6.55547068L67.9368662 9.75547068 68.7404377 14.2594707 68.7404377 14.2594708C68.7990123 14.5657084 68.6735665 14.8779292 68.4190091 15.0594708L68.4190091 15.0594708C68.2734968 15.1609884 68.0982909 15.2116284 67.9207948 15.2034708L67.9207967 15.2034706z"/>
          </g>
        </g>
      </g>
      <rect width="87" height="11" x="16" y="16" fill="#2A293F" mask="url(#hero-publisher-l)" opacity=".356" rx="5.5"/>
    </g>
  </g>
</svg>
