<svg xmlns="http://www.w3.org/2000/svg" xmlns:xlink="http://www.w3.org/1999/xlink" width="818" height="667"><defs><filter id="a" width="118.6%" height="121.2%" x="-9.3%" y="-10.6%" filterUnits="objectBoundingBox"><feOffset dy="12" in="SourceAlpha" result="shadowOffsetOuter1"/><feGaussianBlur in="shadowOffsetOuter1" result="shadowBlurOuter1" stdDeviation="11"/><feColorMatrix in="shadowBlurOuter1" result="shadowMatrixOuter1" values="0 0 0 0 0.127266525 0 0 0 0 0.0889654473 0 0 0 0 0.216966712 0 0 0 0.294990166 0"/><feMerge><feMergeNode in="shadowMatrixOuter1"/><feMergeNode in="SourceGraphic"/></feMerge></filter><rect id="b" width="711" height="623" x="0" y="0" rx="21"/><rect id="d" width="142" height="92" x="0" y="0" rx="7.7"/><rect id="f" width="142" height="92" x="0" y="0" rx="7.7"/><rect id="h" width="142" height="92" x="0" y="0" rx="7.7"/><filter id="j" width="140.4%" height="159.2%" x="-20.2%" y="-29.6%" filterUnits="objectBoundingBox"><feOffset dy="12" in="SourceAlpha" result="shadowOffsetOuter1"/><feGaussianBlur in="shadowOffsetOuter1" result="shadowBlurOuter1" stdDeviation="11"/><feColorMatrix in="shadowBlurOuter1" result="shadowMatrixOuter1" values="0 0 0 0 0.127266525 0 0 0 0 0.0889654473 0 0 0 0 0.216966712 0 0 0 0.294990166 0"/><feMerge><feMergeNode in="shadowMatrixOuter1"/><feMergeNode in="SourceGraphic"/></feMerge></filter><rect id="k" width="327" height="223" x="0" y="0" rx="14.014"/></defs><g fill="none" fill-rule="evenodd"><g filter="url(#a)" transform="translate(85 10)"><mask id="c" fill="#fff"><use xlink:href="#b"/></mask><path fill="#FFF" mask="url(#c)" d="M0 49h1066v639H0z"/><g mask="url(#c)"><g transform="translate(91 155)"><path fill="#F9F9FC" d="M0 0h687v135H0zm0 287h687v135H0z"/><rect width="154" height="9" x="197" y="30" fill="#7E7DA0" rx="4.5"/><rect width="118" height="9" x="197" y="79" fill="#D7D8D9" rx="4.5"/><rect width="77" height="9" x="197" y="55" fill="#D0C778" rx="4.5"/><g opacity=".131" transform="translate(28 22)"><mask id="e" fill="#fff"><use xlink:href="#d"/></mask><use fill="#142C38" opacity=".23" xlink:href="#d"/><path fill="#47515D" mask="url(#e)" d="M0 0h142v22H0z"/><path fill="#142C38" mask="url(#e)" d="M0 22h142v70H0z"/><rect width="48" height="6" x="9" y="8" fill="#FFF" mask="url(#e)" rx="3"/><rect width="20" height="6" x="9" y="31" fill="#008DFA" mask="url(#e)" rx="3"/><rect width="67" height="6" x="20" y="46" fill="#89919A" mask="url(#e)" rx="3"/><circle cx="12" cy="49" r="3" fill="#89919A" mask="url(#e)"/><circle cx="12" cy="63" r="3" fill="#89919A" mask="url(#e)"/><circle cx="12" cy="75" r="3" fill="#89919A" mask="url(#e)"/><rect width="38" height="6" x="20" y="60" fill="#89919A" mask="url(#e)" rx="3"/><rect width="50" height="6" x="20" y="72" fill="#89919A" mask="url(#e)" rx="3"/></g></g><g transform="translate(119 320)"><g transform="translate(169 8)"><rect width="114" height="9" fill="#7E7DA0" rx="4.5"/><rect width="198" height="9" y="49" fill="#D7D8D9" rx="4.5"/><rect width="77" height="9" y="25" fill="#D0C778" rx="4.5"/></g><mask id="g" fill="#fff"><use xlink:href="#f"/></mask><use fill="#142C38" opacity=".23" xlink:href="#f"/><path fill="#47515D" mask="url(#g)" d="M0 0h142v22H0z"/><path fill="#2A293F" mask="url(#g)" d="M0 22h142v70H0z"/><rect width="48" height="6" x="9" y="8" fill="#FFF" mask="url(#g)" opacity=".62" rx="3"/><rect width="20" height="6" x="9" y="31" fill="#4988FE" mask="url(#g)" rx="3"/><rect width="47" height="6" x="9" y="46" fill="#89919A" mask="url(#g)" rx="3"/><rect width="38" height="6" x="9" y="60" fill="#89919A" mask="url(#g)" rx="3"/><rect width="80" height="6" x="9" y="72" fill="#89919A" mask="url(#g)" rx="3"/></g><g transform="translate(119 457)"><g transform="translate(169 8)"><rect width="114" height="9" fill="#7E7DA0" rx="4.5"/><rect width="198" height="9" y="49" fill="#D7D8D9" rx="4.5"/><rect width="77" height="9" y="25" fill="#D0C778" rx="4.5"/></g><mask id="i" fill="#fff"><use xlink:href="#h"/></mask><use fill="#142C38" opacity=".23" xlink:href="#h"/><path fill="#47515D" mask="url(#i)" d="M0 0h142v22H0z"/><path fill="#2A293F" mask="url(#i)" d="M0 22h142v70H0z"/><rect width="48" height="6" x="9" y="8" fill="#FFF" mask="url(#i)" opacity=".62" rx="3"/><rect width="20" height="6" x="9" y="31" fill="#4988FE" mask="url(#i)" rx="3"/><rect width="47" height="6" x="9" y="46" fill="#89919A" mask="url(#i)" rx="3"/><rect width="38" height="6" x="9" y="60" fill="#89919A" mask="url(#i)" rx="3"/><rect width="80" height="6" x="9" y="72" fill="#89919A" mask="url(#i)" rx="3"/></g><g transform="translate(119 74)"><rect width="190" height="9" fill="#7E7DA0" opacity=".159" rx="4.5"/><rect width="49" height="9" x="210" fill="#7E7DA0" opacity=".259" rx="4.5"/><rect width="169" height="9" y="33" fill="#D7D8D9" rx="4.5"/></g></g><path fill="#343358" mask="url(#c)" d="M0 0h779v49H0z"/><rect width="87" height="11" x="27" y="19" fill="#FFF" mask="url(#c)" opacity=".121" rx="5.5"/><g mask="url(#c)"><g transform="translate(0 50)"><path fill="#F9F9FC" d="M0 0h92v527H0z"/><path fill="#35556F" opacity=".077" d="M0 113h92v24H0z"/><rect width="55" height="9" x="13" y="44" fill="#B9BDC3" rx="4.5"/><rect width="55" height="9" x="13" y="71" fill="#D7D8D9" opacity=".517" rx="4.5"/><rect width="55" height="9" x="13" y="96" fill="#D7D8D9" opacity=".517" rx="4.5"/><rect width="33" height="9" x="13" y="120" fill="#000" opacity=".241" rx="4.5"/><rect width="55" height="9" x="13" y="144" fill="#D7D8D9" opacity=".517" rx="4.5"/><rect width="55" height="9" x="13" y="208" fill="#B9BDC3" rx="4.5"/><rect width="61" height="9" x="13" y="308" fill="#D7D8D9" opacity=".517" rx="4.5"/><rect width="61" height="9" x="13" y="258" fill="#D7D8D9" opacity=".517" rx="4.5"/><rect width="48" height="9" x="13" y="233" fill="#D7D8D9" opacity=".517" rx="4.5"/><rect width="48" height="9" x="13" y="283" fill="#D7D8D9" opacity=".517" rx="4.5"/></g></g></g><g filter="url(#j)" transform="translate(22 83)"><mask id="l" fill="#fff"><use xlink:href="#k"/></mask><path fill="#636274" mask="url(#l)" d="M0 0h327v42H0z"/><path fill="#2A293F" mask="url(#l)" d="M0 42h327v181H0z"/><g mask="url(#l)"><g fill-rule="nonzero"><path fill="#FFF" fill-opacity=".144" d="M35 122c5.523 0 10 4.477 10 10s-4.477 10-10 10-10-4.477-10-10 4.477-10 10-10zm0 18a8 8 0 1 0 0-16 8 8 0 0 0 0 16zm.707-12.707a1 1 0 1 1-1.414 1.414 1 1 0 0 1 1.414-1.414zM35 130a1 1 0 0 1 1 1v5a1 1 0 1 1-2 0v-5a1 1 0 0 1 1-1z"/><path fill="#F8F7FD" d="M56.087 127.299v3.42h2.11c1.16 0 1.826-.624 1.826-1.707 0-1.062-.708-1.713-1.869-1.713h-2.067zm0 4.87V136H54.26v-10.217h4.15c2.144 0 3.49 1.232 3.49 3.194 0 1.345-.708 2.47-1.926 2.91l2.23 4.113h-2.089l-2.003-3.83h-2.025zm10.706-2.676c-1.048 0-1.784.75-1.862 1.884h3.646c-.035-1.147-.73-1.884-1.784-1.884zm1.798 4.376h1.664c-.333 1.409-1.614 2.287-3.44 2.287-2.28 0-3.654-1.508-3.654-4 0-2.493 1.395-4.057 3.639-4.057 2.209 0 3.533 1.465 3.533 3.908v.566h-5.41v.092c.043 1.289.787 2.096 1.94 2.096.872 0 1.473-.319 1.728-.892zm3.917-7.512h1.748v1.947h1.657v1.402h-1.657v3.802c0 .764.326 1.104 1.062 1.104.248 0 .383-.014.595-.035v1.373a4.93 4.93 0 0 1-.92.085c-1.777 0-2.485-.601-2.485-2.102v-4.227h-1.225v-1.402h1.225v-1.947zm7.661 8.39c1.062 0 1.855-.687 1.855-1.586v-.616l-1.749.113c-.984.064-1.444.418-1.444 1.048 0 .651.56 1.04 1.338 1.04zm-.517 1.38c-1.494 0-2.563-.906-2.563-2.322 0-1.402 1.055-2.209 2.938-2.322l1.997-.12v-.652c0-.757-.51-1.182-1.458-1.182-.808 0-1.36.283-1.523.807h-1.656c.141-1.367 1.423-2.237 3.264-2.237 1.989 0 3.108.97 3.108 2.612V136h-1.692v-1.062h-.12c-.433.75-1.282 1.19-2.295 1.19zm6.09-.127v-7.746h1.749V136h-1.749zm.87-9.006c-.636 0-1.082-.41-1.082-.97s.446-.97 1.083-.97c.644 0 1.083.41 1.083.97s-.439.97-1.083.97zM89.588 136v-10.74h1.756V136h-1.756zm58.945 0v-8.376h-.12l-2.542 1.784v-1.755l2.669-1.87h1.82V136h-1.827zm5.523.149c-.665 0-1.132-.482-1.132-1.119 0-.644.467-1.119 1.132-1.119.673 0 1.133.475 1.133 1.119 0 .637-.46 1.119-1.133 1.119zm7.754-.149v-1.905h-4.991v-1.628c.92-1.692 2.357-3.965 4.163-6.684h2.577v6.769h1.38v1.543h-1.38V136h-1.749zm-3.3-3.512v.106h3.328v-5.324h-.099a76.943 76.943 0 0 0-3.228 5.218zm8.172 3.512v-7.746h1.692v1.254h.12c.333-.885 1.126-1.41 2.153-1.41 1.069 0 1.812.539 2.138 1.41h.12c.383-.85 1.275-1.41 2.351-1.41 1.55 0 2.485.97 2.485 2.578V136h-1.749v-4.878c0-.998-.474-1.494-1.416-1.494-.913 0-1.515.665-1.515 1.55V136h-1.706v-5.006c0-.85-.538-1.366-1.402-1.366-.87 0-1.515.715-1.515 1.664V136h-1.756zm13.014 0v-7.746h1.749V136h-1.749zm.871-9.006c-.637 0-1.083-.41-1.083-.97s.446-.97 1.083-.97c.644 0 1.083.41 1.083.97s-.439.97-1.083.97z" opacity=".562"/><g fill="#FFF" fill-opacity=".144"><path d="M138.727 129.364c0 2.814-1.495 5.556-3.956 8.153a25.651 25.651 0 0 1-3.505 3.072c-.162.116-.28.198-.348.243a1 1 0 0 1-1.11 0 12.247 12.247 0 0 1-.346-.243 25.651 25.651 0 0 1-3.506-3.071c-2.46-2.598-3.956-5.34-3.956-8.154a8.364 8.364 0 0 1 16.727 0zm-7.836 8.997a23.675 23.675 0 0 0 2.429-2.22c2.141-2.26 3.407-4.58 3.407-6.777a6.364 6.364 0 0 0-12.727 0c0 2.196 1.266 4.517 3.408 6.778a23.675 23.675 0 0 0 2.956 2.627c.165-.124.342-.26.527-.408z"/><path d="M130.364 132.818a3.455 3.455 0 1 0 0-6.909 3.455 3.455 0 0 0 0 6.91zm0-2a1.455 1.455 0 1 1 0-2.909 1.455 1.455 0 0 1 0 2.91z"/></g><path fill="#F8F7FD" d="M239.75 136.255c-2.116 0-3.582-1.289-3.667-3.087h1.714c.113.942.913 1.565 1.968 1.565 1.196 0 2.01-.807 2.01-2.025 0-1.225-.82-2.053-1.996-2.053-.842 0-1.5.375-1.876 1.005h-1.657l.531-5.877h6.153v1.544h-4.737l-.248 2.867h.12c.454-.609 1.176-.955 2.16-.955 1.94 0 3.314 1.423 3.314 3.426 0 2.131-1.523 3.59-3.788 3.59zm6.876-1.338c-.665 0-1.132-.482-1.132-1.119 0-.644.467-1.119 1.132-1.119.673 0 1.133.475 1.133 1.12 0 .636-.46 1.118-1.133 1.118zm0-5.31c-.665 0-1.132-.475-1.132-1.112 0-.644.467-1.119 1.132-1.119.673 0 1.133.475 1.133 1.12 0 .636-.46 1.11-1.133 1.11zm6.99 6.648c-2.45 0-3.902-1.983-3.902-5.374 0-3.377 1.473-5.352 3.901-5.352 2.422 0 3.894 1.975 3.894 5.366 0 3.377-1.451 5.36-3.894 5.36zm0-1.515c1.295 0 2.046-1.345 2.046-3.859 0-2.5-.765-3.83-2.047-3.83-1.281 0-2.053 1.338-2.053 3.83 0 2.514.758 3.859 2.053 3.859zm9.488 1.515c-2.45 0-3.901-1.983-3.901-5.374 0-3.377 1.472-5.352 3.9-5.352 2.422 0 3.895 1.975 3.895 5.366 0 3.377-1.452 5.36-3.894 5.36zm0-1.515c1.295 0 2.046-1.345 2.046-3.859 0-2.5-.765-3.83-2.046-3.83-1.282 0-2.054 1.338-2.054 3.83 0 2.514.758 3.859 2.054 3.859zm9.962-6.613c1.961 0 3.193 1.515 3.193 4 0 2.471-1.217 4-3.171 4-1.112 0-1.969-.481-2.365-1.302h-.12v3.752h-1.756v-10.323h1.692v1.282h.12c.446-.878 1.345-1.409 2.407-1.409zm-.552 6.507c1.218 0 1.94-.942 1.94-2.507 0-1.565-.73-2.506-1.933-2.506-1.196 0-1.947.963-1.954 2.506.007 1.55.75 2.507 1.947 2.507zm5.36 1.366v-7.746h1.693v1.254h.12c.333-.885 1.126-1.41 2.152-1.41 1.07 0 1.813.539 2.139 1.41h.12c.382-.85 1.274-1.41 2.35-1.41 1.551 0 2.486.97 2.486 2.578V136h-1.75v-4.878c0-.998-.473-1.494-1.415-1.494-.913 0-1.515.665-1.515 1.55V136h-1.707v-5.006c0-.85-.538-1.366-1.401-1.366-.871 0-1.516.715-1.516 1.664V136h-1.755z" opacity=".562"/><path fill="#FFF" fill-opacity=".144" d="M217 122a10 10 0 0 1 10 10c0 5.523-4.477 10-10 10s-10-4.477-10-10 4.477-10 10-10zm0 18a8 8 0 1 0 0-16 8 8 0 0 0 0 16zm4-9a1 1 0 0 1 0 2h-4a1 1 0 0 1-1-1v-4a1 1 0 1 1 2 0v3h3z"/></g><g transform="translate(25 161)"><rect width="173" height="39" fill="#4988FE" rx="5"/><path fill="#FFF" fill-rule="nonzero" d="M36.884 20.383c0 2.982-1.846 4.806-4.957 4.806-3.368 0-5.396-2.081-5.396-5.668 0-3.542 2.028-5.631 5.328-5.631 2.649 0 4.632 1.566 4.912 3.791h-2.747c-.273-.968-1.09-1.559-2.157-1.559-1.575 0-2.506 1.234-2.506 3.36 0 2.165 1.03 3.475 2.627 3.475 1.256 0 2.134-.742 2.21-1.84l.007-.166h-1.998v-1.907h4.677v1.34zm9.771 2.377V25H39.17V14.079h7.485v2.24h-4.707v2.172h4.427v2.044h-4.427v2.225h4.707zm7.78 2.24h-2.77v-8.68h-3.011v-2.241h8.794v2.24h-3.012V25zm11.596 0v-8.484h-.053l-2.732 1.847V15.97l2.777-1.892h2.77V25h-2.762zm10.467.272c-2.86 0-4.632-2.18-4.632-5.751 0-3.588 1.794-5.722 4.632-5.722 2.83 0 4.617 2.127 4.617 5.714 0 3.565-1.764 5.76-4.617 5.76zm0-2.164c1.082 0 1.794-1.226 1.794-3.587 0-2.362-.712-3.558-1.794-3.558s-1.809 1.204-1.809 3.55c0 2.361.72 3.595 1.81 3.595zm11.633-6.388c0 1.786-.999 2.891-2.596 2.891s-2.596-1.105-2.596-2.89c0-1.78 1-2.892 2.596-2.892 1.597 0 2.596 1.113 2.596 2.891zm-2.596 1.332c.401 0 .643-.5.643-1.347 0-.848-.242-1.347-.643-1.347s-.643.5-.643 1.347c0 .848.242 1.347.643 1.347zM86.352 25h-2.104l4.254-5.828 3.708-5.093h2.104l-4.132 5.669L86.352 25zm9.272-2.717c0 1.786-1 2.891-2.596 2.891-1.597 0-2.596-1.105-2.596-2.891 0-1.779.999-2.884 2.596-2.884s2.596 1.105 2.596 2.884zm-2.596 1.332c.4 0 .643-.5.643-1.347 0-.848-.242-1.347-.643-1.347s-.644.5-.644 1.347.243 1.347.644 1.347zM106.803 25h-5.215V14.079h5.078c2.15 0 3.444 1.037 3.444 2.724 0 1.227-.923 2.203-2.134 2.37v.06c1.475.068 2.641 1.165 2.641 2.619 0 1.914-1.476 3.148-3.814 3.148zm-2.437-8.953v2.482h1.43c1.007 0 1.612-.477 1.612-1.264 0-.764-.545-1.218-1.476-1.218h-1.566zm0 6.985h1.65c1.142 0 1.778-.5 1.778-1.423 0-.893-.65-1.392-1.794-1.392h-1.634v2.815zM119.88 25l-.689-2.4h-3.572l-.696 2.4h-2.831l3.67-10.921h3.399L122.832 25h-2.951zm-2.505-8.605l-1.219 4.208h2.49l-1.21-4.208h-.061zm11.761 8.794c-3.27 0-5.305-2.081-5.305-5.653 0-3.565 2.05-5.646 5.305-5.646 2.763 0 4.86 1.778 4.942 4.359h-2.671c-.137-1.287-1.052-2.134-2.27-2.134-1.514 0-2.476 1.294-2.476 3.413 0 2.142.954 3.436 2.483 3.436 1.218 0 2.104-.802 2.278-2.081h2.671c-.128 2.596-2.141 4.306-4.957 4.306zm9.945-.189h-2.777V14.079h2.777v4.798h.06l3.717-4.798h2.982l-3.807 4.851L146.06 25h-3.262l-2.785-4.269-.93 1.181V25z"/></g><path fill="#F8F7FD" fill-rule="nonzero" d="M34.918 73.958V76h-8.31V62.965h2.33v10.993h5.98zm5.916 2.24c-2.963 0-4.752-1.932-4.752-5.14 0-3.188 1.816-5.14 4.752-5.14 2.945 0 4.751 1.943 4.751 5.14 0 3.208-1.797 5.14-4.751 5.14zm0-1.878c1.562 0 2.448-1.193 2.448-3.261 0-2.06-.895-3.261-2.448-3.261-1.563 0-2.457 1.201-2.457 3.26 0 2.07.894 3.262 2.457 3.262zm15.373-4.878h-2.132c-.208-.958-.949-1.644-2.177-1.644-1.536 0-2.448 1.183-2.448 3.234 0 2.077.921 3.288 2.448 3.288 1.165 0 1.942-.551 2.177-1.581h2.132c-.244 2.069-1.798 3.46-4.3 3.46-2.972 0-4.724-1.915-4.724-5.167 0-3.207 1.743-5.113 4.715-5.113 2.538 0 4.074 1.445 4.309 3.523zm5.346 4.96c1.355 0 2.367-.877 2.367-2.024v-.786l-2.232.144c-1.255.082-1.842.533-1.842 1.337 0 .831.713 1.328 1.707 1.328zm-.66 1.76c-1.905 0-3.27-1.156-3.27-2.962 0-1.789 1.346-2.819 3.75-2.963l2.547-.154v-.83c0-.967-.65-1.51-1.861-1.51-1.03 0-1.735.362-1.942 1.03h-2.114c.18-1.743 1.816-2.854 4.164-2.854 2.539 0 3.966 1.237 3.966 3.333V76h-2.16v-1.355h-.153c-.55.958-1.635 1.518-2.926 1.518zm7.85-.162V62.297h2.24V76h-2.24zm9.292-3.541h2.276c.145 1.165 1.301 1.915 2.954 1.915 1.536 0 2.647-.786 2.647-1.879 0-.94-.714-1.49-2.385-1.879l-1.689-.388c-2.367-.533-3.478-1.707-3.478-3.65 0-2.366 1.933-3.938 4.851-3.938 2.737 0 4.715 1.572 4.824 3.812h-2.231c-.163-1.147-1.175-1.87-2.602-1.87-1.5 0-2.493.723-2.493 1.834 0 .876.66 1.39 2.276 1.761l1.5.344c2.647.596 3.758 1.698 3.758 3.685 0 2.538-1.96 4.12-5.122 4.12-2.99 0-4.968-1.5-5.086-3.867zm13.133-8.762h2.231v2.484h2.114v1.788h-2.114v4.851c0 .976.416 1.41 1.355 1.41.316 0 .488-.019.759-.046v1.753c-.325.063-.74.108-1.174.108-2.268 0-3.171-.768-3.171-2.683V67.97h-1.563v-1.788h1.563v-2.484zm10.585 12.502c-2.963 0-4.751-1.933-4.751-5.14 0-3.189 1.816-5.14 4.751-5.14 2.945 0 4.752 1.942 4.752 5.14 0 3.207-1.798 5.14-4.752 5.14zm0-1.88c1.563 0 2.448-1.192 2.448-3.26 0-2.06-.894-3.261-2.448-3.261-1.562 0-2.457 1.201-2.457 3.26 0 2.07.895 3.262 2.457 3.262zM108.59 76v-9.882h2.159v1.535h.154c.27-.975 1.336-1.698 2.61-1.698.325 0 .723.036.93.1v2.077c-.171-.063-.767-.126-1.147-.126-1.454 0-2.466.903-2.466 2.285V76h-2.24zm11.417-8.302c-1.337 0-2.277.958-2.376 2.403h4.652c-.045-1.463-.93-2.403-2.276-2.403zm2.294 5.583h2.123c-.425 1.798-2.06 2.918-4.39 2.918-2.91 0-4.662-1.924-4.662-5.104s1.78-5.176 4.644-5.176c2.818 0 4.507 1.87 4.507 4.986v.723h-6.901v.117c.054 1.644 1.002 2.674 2.475 2.674 1.11 0 1.879-.406 2.204-1.138zm13.321 2.918c-2.963 0-4.751-1.933-4.751-5.14 0-3.189 1.815-5.14 4.751-5.14 2.945 0 4.751 1.942 4.751 5.14 0 3.207-1.797 5.14-4.751 5.14zm0-1.88c1.563 0 2.448-1.192 2.448-3.26 0-2.06-.894-3.261-2.448-3.261-1.563 0-2.457 1.201-2.457 3.26 0 2.07.894 3.262 2.457 3.262zM142.458 76v-9.882h2.159v1.535h.153c.271-.975 1.337-1.698 2.61-1.698.326 0 .723.036.931.1v2.077c-.171-.063-.768-.126-1.147-.126-1.454 0-2.466.903-2.466 2.285V76h-2.24zm14.838-11.102v4.363h2.692c1.482 0 2.33-.795 2.33-2.177 0-1.355-.903-2.186-2.384-2.186h-2.638zm0 6.215V76h-2.33V62.965h5.293c2.737 0 4.453 1.572 4.453 4.074 0 1.716-.903 3.153-2.457 3.713L165.101 76h-2.665l-2.556-4.887h-2.584zm13.675-3.415c-1.337 0-2.276.958-2.376 2.403h4.652c-.045-1.463-.93-2.403-2.276-2.403zm2.294 5.583h2.123c-.424 1.798-2.06 2.918-4.39 2.918-2.909 0-4.661-1.924-4.661-5.104s1.78-5.176 4.643-5.176c2.818 0 4.508 1.87 4.508 4.986v.723h-6.902v.117c.054 1.644 1.003 2.674 2.475 2.674 1.111 0 1.88-.406 2.204-1.138zm4.073-4.336c0-1.789 1.626-3.026 3.957-3.026 2.348 0 3.82 1.039 3.983 2.836h-2.105c-.162-.695-.822-1.138-1.87-1.138-1.02 0-1.788.488-1.788 1.202 0 .56.47.903 1.463 1.129l1.744.397c1.888.425 2.764 1.238 2.764 2.692 0 1.897-1.743 3.162-4.21 3.162-2.466 0-4.02-1.066-4.191-2.864h2.213c.217.732.913 1.165 2.033 1.165 1.129 0 1.915-.496 1.915-1.228 0-.56-.425-.912-1.364-1.12l-1.753-.407c-1.897-.433-2.791-1.31-2.791-2.8zm10.893-5.248h2.23v2.484h2.114v1.788h-2.113v4.851c0 .976.415 1.41 1.355 1.41.316 0 .488-.019.758-.046v1.753c-.325.063-.74.108-1.174.108-2.267 0-3.17-.768-3.17-2.683V67.97h-1.563v-1.788h1.563v-2.484zm9.79 10.704c1.355 0 2.367-.876 2.367-2.023v-.786l-2.231.144c-1.256.082-1.843.533-1.843 1.337 0 .831.713 1.328 1.707 1.328zm-.66 1.762c-1.905 0-3.27-1.157-3.27-2.963 0-1.789 1.347-2.819 3.75-2.963l2.547-.154v-.83c0-.967-.65-1.51-1.861-1.51-1.03 0-1.734.362-1.942 1.03h-2.114c.18-1.743 1.816-2.854 4.164-2.854 2.539 0 3.966 1.237 3.966 3.333V76h-2.16v-1.355h-.153c-.55.958-1.635 1.518-2.926 1.518zm16.358-10.045V76h-2.159v-1.572h-.153c-.479 1.13-1.446 1.77-2.954 1.77-2.159 0-3.424-1.345-3.424-3.658v-6.422h2.24v5.862c0 1.509.624 2.25 1.96 2.25 1.455 0 2.25-.895 2.25-2.358v-5.754h2.24zM216.292 76v-9.882h2.16v1.535h.153c.27-.975 1.337-1.698 2.61-1.698.326 0 .723.036.93.1v2.077c-.17-.063-.767-.126-1.146-.126-1.455 0-2.467.903-2.467 2.285V76h-2.24zm10.775-1.599c1.355 0 2.367-.876 2.367-2.023v-.786l-2.231.144c-1.256.082-1.843.533-1.843 1.337 0 .831.714 1.328 1.707 1.328zm-.659 1.762c-1.906 0-3.27-1.157-3.27-2.963 0-1.789 1.346-2.819 3.749-2.963l2.547-.154v-.83c0-.967-.65-1.51-1.86-1.51-1.03 0-1.735.362-1.943 1.03h-2.114c.181-1.743 1.816-2.854 4.165-2.854 2.538 0 3.965 1.237 3.965 3.333V76h-2.159v-1.355h-.153c-.551.958-1.635 1.518-2.927 1.518zm7.758-.163v-9.882h2.159v1.58h.154c.47-1.102 1.463-1.78 2.935-1.78 2.204 0 3.406 1.329 3.406 3.686V76h-2.24v-5.863c0-1.508-.633-2.267-1.997-2.267-1.337 0-2.177.922-2.177 2.376V76h-2.24zm11.85-12.303h2.231v2.484h2.114v1.788h-2.114v4.851c0 .976.416 1.41 1.355 1.41.316 0 .488-.019.76-.046v1.753a6.386 6.386 0 0 1-1.175.108c-2.268 0-3.17-.768-3.17-2.683V67.97h-1.564v-1.788h1.563v-2.484z" opacity=".918"/><g fill-rule="nonzero"><path fill="#B5ED3C" d="M37.474 104.203a.806.806 0 0 1-.37-.088l-4.097-2.136-4.099 2.136a.805.805 0 0 1-1.085-.335.797.797 0 0 1-.08-.513l.804-4.504-3.311-3.2a.798.798 0 0 1-.2-.8.803.803 0 0 1 .65-.544l4.58-.664 2.017-4.104a.805.805 0 0 1 1.447 0l2.04 4.096 4.581.664a.803.803 0 0 1 .651.544.797.797 0 0 1-.2.8l-3.312 3.2.804 4.504a.798.798 0 0 1-.321.8.806.806 0 0 1-.499.144z"/><path fill="#FFF" fill-opacity=".339" d="M111.403 104.203a.806.806 0 0 1-.37-.088l-4.098-2.136-4.098 2.136a.805.805 0 0 1-1.085-.335.797.797 0 0 1-.08-.513l.803-4.504-3.31-3.2a.798.798 0 0 1-.201-.8.803.803 0 0 1 .65-.544l4.58-.664 2.018-4.104a.805.805 0 0 1 1.446 0l2.041 4.096 4.58.664a.803.803 0 0 1 .652.544.798.798 0 0 1-.201.8l-3.311 3.2.804 4.504a.798.798 0 0 1-.322.8.806.806 0 0 1-.498.144z"/><path fill="#B5ED3C" d="M55.957 104.203a.806.806 0 0 1-.37-.088l-4.098-2.136-4.099 2.136a.805.805 0 0 1-1.085-.335.797.797 0 0 1-.08-.513l.804-4.504-3.31-3.2a.798.798 0 0 1-.202-.8.803.803 0 0 1 .651-.544l4.58-.664 2.017-4.104a.805.805 0 0 1 1.447 0l2.04 4.096 4.581.664a.803.803 0 0 1 .651.544.797.797 0 0 1-.2.8l-3.311 3.2.803 4.504a.798.798 0 0 1-.321.8.806.806 0 0 1-.498.144zm18.482 0a.806.806 0 0 1-.37-.088l-4.098-2.136-4.098 2.136a.805.805 0 0 1-1.086-.335.797.797 0 0 1-.08-.513l.804-4.504-3.31-3.2a.798.798 0 0 1-.202-.8.803.803 0 0 1 .651-.544l4.58-.664 2.018-4.104a.805.805 0 0 1 1.446 0l2.041 4.096 4.58.664a.803.803 0 0 1 .651.544.797.797 0 0 1-.2.8l-3.311 3.2.803 4.504a.798.798 0 0 1-.321.8.806.806 0 0 1-.498.144zm18.482 0a.806.806 0 0 1-.37-.088l-4.098-2.136-4.098 2.136a.805.805 0 0 1-1.086-.335.797.797 0 0 1-.08-.513l.804-4.504-3.31-3.2a.798.798 0 0 1-.201-.8.803.803 0 0 1 .65-.544l4.58-.664 2.018-4.104a.805.805 0 0 1 1.446 0l2.041 4.096 4.58.664a.803.803 0 0 1 .651.544.797.797 0 0 1-.2.8l-3.311 3.2.803 4.504a.798.798 0 0 1-.321.8.806.806 0 0 1-.498.144z"/></g></g><rect width="87" height="11" x="16" y="16" fill="#2A293F" mask="url(#l)" opacity=".356" rx="5.5"/></g></g></svg>