<svg xmlns="http://www.w3.org/2000/svg" width="66" height="58"><g fill="none"><path fill="#657386" d="M32.45 55.68h4.725V58H32.45v-2.32zm3.422-22.231l-2.274.461a8.283 8.283 0 0 1-.165-1.653c0-1.3.293-2.542.873-3.696l2.074 1.041a5.868 5.868 0 0 0-.627 2.655c0 .4.041.8.12 1.192zM23 55.679h4.726V58H23v-2.32zm26.676-7.789l2.321-.067.003.273a9.91 9.91 0 0 1-1.274 4.86l-2.022-1.14a7.564 7.564 0 0 0 .975-3.72l-.003-.206zm-7.58 7.79c1.32 0 2.616-.346 3.75-.993l1.152 2.016A9.91 9.91 0 0 1 42.095 58h-.194v-2.32h.194zm4.427-16.446a9.924 9.924 0 0 1 3.925 3.539l-1.955 1.247a7.63 7.63 0 0 0-3.009-2.71l1.039-2.076zM43.283 24v2.324H41.69c-.888 0-1.741.188-2.536.565l-.992-2.097A8.176 8.176 0 0 1 41.69 24h1.592zm-6.935 14.552l1.503-1.767a5.88 5.88 0 0 0 3.615 1.404l-.087 2.318a8.283 8.283 0 0 1-5.03-1.955z" opacity=".246"/><path fill="#233651" d="M14.472 43.748c7.952 0 14.358 5.823 14.358 12.975v.831H.17c-.055-.277-.055-.554-.055-.831 0-7.154 6.46-12.975 14.357-12.975zm7.125-9.15c0 3.95-3.19 7.153-7.124 7.153-3.934 0-7.124-3.203-7.124-7.153 0-3.95 3.19-7.154 7.124-7.154 3.933 0 7.124 3.204 7.124 7.154"/><path fill="#AEC1E1" d="M55.981 11.345c5.484 0 9.902 3.945 9.902 8.79v.563H46.117c-.038-.188-.038-.375-.038-.563 0-4.846 4.456-8.79 9.902-8.79zm4.913-6.198c0 2.676-2.2 4.846-4.913 4.846s-4.913-2.17-4.913-4.846S53.268.3 55.981.3s4.913 2.17 4.913 4.846"/></g></svg>