<svg xmlns="http://www.w3.org/2000/svg" width="56" height="58" viewBox="0 0 56 58">
  <g fill="none">
    <path fill="#E9E7F5" d="M0,50.2781065 C0,54.5371941 3.14181,58 7,58 L49,58 C52.85819,58 56,54.5371941 56,50.2781065 L56,17.8461538 L0,17.8461538 L0,50.2781065 Z"/>
    <path fill="#253853" d="M34.8341863,28.2378152 C34.2622917,27.6465136 34.2622917,26.6885861 34.8341863,26.0973223 C35.4060808,25.5060586 36.3325682,25.5060208 36.9044262,26.0973223 L45.6887262,35.1797148 C46.2606207,35.7710164 46.2606207,36.7289439 45.6887262,37.3202076 L36.9044262,46.4026001 C36.6184826,46.6982547 36.2438907,46.8460782 35.8692696,46.8460782 C35.4946485,46.8460782 35.1201152,46.6982547 34.8341131,46.4026001 C34.2622185,45.8112985 34.2622185,44.853371 34.8341131,44.2621072 L42.5833297,36.2499234 L34.8341863,28.2378152 Z M11.4093863,35.1797148 L20.1936863,26.0973223 C20.7655808,25.5060208 21.6920682,25.5060208 22.2639262,26.0973223 C22.8357841,26.6886239 22.8358207,27.6465514 22.2639262,28.2378152 L14.5147095,36.2499991 L22.2639262,44.2621829 C22.8358207,44.8534845 22.8358207,45.811412 22.2639262,46.4026758 C21.9779826,46.6983303 21.6033907,46.8461538 21.2287696,46.8461538 C20.8541485,46.8461538 20.4796152,46.6983303 20.1936131,46.4026758 L11.4093131,37.3202833 C10.8374185,36.7289817 10.8374185,35.7710542 11.4093131,35.1797905 L11.4093863,35.1797148 Z"/>
    <path fill="#73839B" d="M49,0 L7,0 C3.14181,0 0,3.33455385 0,7.43589744 L0,17.8461538 L56,17.8461538 L56,7.43589744 C56,3.33455385 52.85819,0 49,0 Z M15.4,11.8974359 L9.8,11.8974359 C9.02615,11.8974359 8.4,11.2322726 8.4,10.4102564 C8.4,9.58824026 9.026171,8.92307692 9.8,8.92307692 L15.4,8.92307692 C16.17385,8.92307692 16.8,9.58824026 16.8,10.4102564 C16.8,11.2322726 16.173829,11.8974359 15.4,11.8974359 Z M26.6,11.8974359 L21,11.8974359 C20.22615,11.8974359 19.6,11.2322726 19.6,10.4102564 C19.6,9.58824026 20.226171,8.92307692 21,8.92307692 L26.6,8.92307692 C27.37385,8.92307692 28,9.58824026 28,10.4102564 C28,11.2322726 27.373829,11.8974359 26.6,11.8974359 Z"/>
  </g>
</svg>
