<svg xmlns="http://www.w3.org/2000/svg" width="44" height="60"><g fill="none"><path fill="#E9E7F5" opacity=".482" d="M16 16L16 0 44 0 44 60 0 60 0 16z"/><path fill="#CBE1F0" d="M0 16L16 0 16 16z"/><path fill="#FFF" opacity=".12" d="M0 16L16 0 16 16z"/><path fill="#000064" opacity=".12" d="M0 32L0 16 16 16z"/><path fill="#506788" d="M8 46a1 1 0 0 1-.707-1.707l10.641-10.641 5.989 4.917 9.338-10.242a1 1 0 1 1 1.478 1.347L24.122 41.32l-6.056-4.972-9.359 9.358A1 1 0 0 1 8 46z"/><path fill="#233651" d="M34 53H7V24a1 1 0 0 1 2 0v27h25a1 1 0 0 1 0 2z"/></g></svg>