<svg xmlns="http://www.w3.org/2000/svg" xmlns:xlink="http://www.w3.org/1999/xlink" width="116" height="116"><defs><circle id="b" cx="43" cy="43" r="43"/><filter id="a" width="166.3%" height="166.3%" x="-33.1%" y="-22.7%" filterUnits="objectBoundingBox"><feMorphology in="SourceAlpha" radius="6" result="shadowSpreadOuter1"/><feOffset dy="9" in="shadowSpreadOuter1" result="shadowOffsetOuter1"/><feGaussianBlur in="shadowOffsetOuter1" result="shadowBlurOuter1" stdDeviation="14"/><feColorMatrix in="shadowBlurOuter1" values="0 0 0 0 0.0843464759 0 0 0 0 0.16459626 0 0 0 0 0.416808197 0 0 0 0.27305507 0"/></filter><filter id="c" width="144.2%" height="144.2%" x="-22.1%" y="-11.6%" filterUnits="objectBoundingBox"><feOffset dy="-6" in="SourceAlpha" result="shadowOffsetInner1"/><feComposite in="shadowOffsetInner1" in2="SourceAlpha" k2="-1" k3="1" operator="arithmetic" result="shadowInnerInner1"/><feColorMatrix in="shadowInnerInner1" values="0 0 0 0 0.91876679 0 0 0 0 0.911388906 0 0 0 0 0.932716259 0 0 0 0.544088724 0"/></filter></defs><g fill="none" fill-rule="evenodd" transform="translate(15 6)"><use fill="#000" filter="url(#a)" xlink:href="#b"/><use fill="#FFF" xlink:href="#b"/><use fill="#000" filter="url(#c)" xlink:href="#b"/><g fill-rule="nonzero"><path fill="#028DFF" d="M65.573 30.68l.16-1.537c.052-.74-.16-1.482-.586-2.013-.479-.583-1.116-.953-1.862-1.005l-25.53-2.755a2.806 2.806 0 0 0-3.085 2.49l-.16 1.537 31.063 3.283zm-31.382-.37l-1.01 9.322 14.948-3.285c1.17-.264 2.393-.052 3.457.583a4.508 4.508 0 0 1 2.022 2.86l1.33 5.934 6.223.635h.32a2.805 2.805 0 0 0 2.765-2.49l1.117-10.33-31.172-3.23z"/><path fill="#6EBEFF" d="M21.638 48.426l30.531-6.727-.32-1.536c-.159-.741-.585-1.324-1.223-1.749a2.646 2.646 0 0 0-2.073-.37l-25.107 5.562c-.744.159-1.33.583-1.756 1.218a2.617 2.617 0 0 0-.372 2.065l.32 1.537zm33.404 6.304l-2.235-10.17-30.53 6.78 2.235 10.17c.159.742.585 1.325 1.223 1.75.479.264.957.424 1.488.424.214 0 .427 0 .586-.052l25.052-5.51c1.597-.426 2.5-1.908 2.18-3.392z"/></g></g></svg>