<svg xmlns="http://www.w3.org/2000/svg" xmlns:xlink="http://www.w3.org/1999/xlink" width="48" height="48" viewBox="0 0 48 48">
  <defs>
    <path id="icon-dropdown-3-a" d="M24,0 C37.254834,-2.4348735e-15 48,10.745166 48,24 C48,37.254834 37.254834,48 24,48 C10.745166,48 1.623249e-15,37.254834 0,24 C-1.623249e-15,10.745166 10.745166,2.4348735e-15 24,0 Z"/>
  </defs>
  <g fill="none" fill-rule="evenodd">
    <mask id="icon-dropdown-3-b" fill="#fff">
      <use xlink:href="#icon-dropdown-3-a"/>
    </mask>
    <use fill="#E4E7F1" xlink:href="#icon-dropdown-3-a"/>
    <g fill-rule="nonzero" mask="url(#icon-dropdown-3-b)">
      <g transform="matrix(1 0 0 -1 11 37)">
        <path fill="#9EAEC1" d="M16.180441,17.55 L1.15289229,17.55 C0.516053871,17.55 0,17.0274955 0,16.3826966 L0,1.16730345 C0,0.522504545 0.516053871,0 1.15289229,0 L16.180441,0 C16.8172795,0 17.3333333,0.522504545 17.3333333,1.16730345 L17.3333333,16.3826966 C17.3333333,17.0274955 16.8172795,17.55 16.180441,17.55 Z"/>
        <path fill="#37485B" d="M24.8471077,27 L9.81955896,27 C9.18272054,27 8.66666667,26.4774955 8.66666667,25.8326966 L8.66666667,10.6173034 C8.66666667,9.97250454 9.18272054,9.45 9.81955896,9.45 L24.8471077,9.45 C25.4839461,9.45 26,9.97250454 26,10.6173034 L26,25.8326966 C26,26.4774955 25.4839461,27 24.8471077,27 Z"/>
        <path fill="#617288" d="M8.66666667,17.55 L8.66666667,10.5908939 C8.66666667,9.96068317 9.18272054,9.45 9.81955896,9.45 L17.3333333,9.45 L17.3333333,16.4091061 C17.3333333,17.0393168 16.8172795,17.55 16.180441,17.55 L8.66666667,17.55 Z"/>
      </g>
    </g>
  </g>
</svg>
