<svg xmlns="http://www.w3.org/2000/svg" xmlns:xlink="http://www.w3.org/1999/xlink" width="58" height="60" viewBox="0 0 58 60">
  <defs>
    <path id="icon-pub-1-a" d="M24.5,9 C38.0309764,9 49,19.9690236 49,33.5 C49,47.0309764 38.0309764,58 24.5,58 C10.9690236,58 1.65706669e-15,47.0309764 0,33.5 C-1.65706669e-15,19.9690236 10.9690236,9 24.5,9 Z"/>
    <filter id="icon-pub-1-b" width="118.4%" height="118.4%" x="-9.2%" y="-9.2%" filterUnits="objectBoundingBox">
      <feOffset dx="9" dy="-9" in="SourceAlpha" result="shadowOffsetInner1"/>
      <feComposite in="shadowOffsetInner1" in2="SourceAlpha" k2="-1" k3="1" operator="arithmetic" result="shadowInnerInner1"/>
      <feColorMatrix in="shadowInnerInner1" values="0 0 0 0 0.682352941   0 0 0 0 0.756862745   0 0 0 0 0.882352941  0 0 0 0.266253278 0"/>
    </filter>
  </defs>
  <g fill="none" fill-rule="evenodd" transform="translate(0 2)">
    <use fill="#E9E7F5" xlink:href="#icon-pub-1-a"/>
    <use fill="#000" filter="url(#icon-pub-1-b)" xlink:href="#icon-pub-1-a"/>
    <path fill="#233651" fill-rule="nonzero" d="M27.6913386,20.6740315 L37.3487453,26.1089603 C38.0136771,26.4831661 38.8535721,26.2985967 39.3003523,25.6800891 L57.215944,0.878339479 C57.7010375,0.206792163 57.5498868,-0.730850479 56.8783395,-1.21594398 C56.2067922,-1.70103748 55.2691495,-1.5498868 54.784056,-0.878339479 L37.6527856,22.8376218 L28.0700714,17.4447279 C27.4375919,17.0887855 26.6410033,17.236711 26.1784801,17.7959941 L11.8440718,35.1291618 C11.3161182,35.7675634 11.4056539,36.713081 12.0440555,37.2410346 C12.682457,37.7689882 13.6279746,37.6794524 14.1559282,37.0410509 L27.6913386,20.6740315 Z"/>
    <g fill-rule="nonzero" transform="translate(37 29)">
      <path fill="#AEC1E1" d="M16.2163396,16.2191702 C19.9278868,12.5082689 19.9278868,6.49407732 16.2163396,2.783176 C12.5047925,-0.927725332 6.49520751,-0.927725332 2.78366036,2.783176 C-0.927886787,6.4995277 -0.927886787,12.5082689 2.78366036,16.2191702 C6.48955428,19.9238137 12.5047925,19.9300715 16.2163396,16.2191702 Z"/>
      <path fill="#FFF" d="M4.92179256,9.70031383 C5.15365574,9.468491 5.53379505,9.468491 5.764891,9.70031383 L7.70108176,11.6298695 L13.2351898,6.10843266 C13.472585,5.88290804 13.8471922,5.88290804 14.0782882,6.11395228 C14.3101514,6.34577511 14.3101514,6.71955006 14.0782882,6.95137289 L8.11594806,12.8882498 C8.00316815,13.0073184 7.84859068,13.0601507 7.70031454,13.0601507 C7.54573303,13.0601507 7.39746295,13.0065311 7.27838171,12.8882498 L4.92098496,10.5431733 C4.6899092,10.3113505 4.6899092,9.93127732 4.92177379,9.70022158 L4.92179256,9.70031383 Z"/>
    </g>
  </g>
</svg>
