<svg xmlns="http://www.w3.org/2000/svg" width="69" height="69" viewBox="0 0 69 69">
  <g fill="none" fill-rule="evenodd">
    <path fill="#FBEADF" d="M34.5,0 C53.5538239,-3.50013066e-15 69,15.4461761 69,34.5 C69,53.5538239 53.5538239,69 34.5,69 C15.4461761,69 2.33342044e-15,53.5538239 0,34.5 C-2.33342044e-15,15.4461761 15.4461761,3.50013066e-15 34.5,0 Z"/>
    <g stroke="#F56646" stroke-linecap="round" stroke-linejoin="round" stroke-width="2.917" transform="translate(19 19)">
      <path d="M30.0832606,14.1582964 L30.0832606,15.49996 L30.0832606,15.4987425 C30.079328,23.5528803 23.5469818,30.0788487 15.4928148,30.0749276 C7.43867699,30.0709931 0.912708571,23.538647 0.916629711,15.48448 C0.920564157,7.43034216 7.45291029,0.904373748 15.5070773,0.908294888 C17.5493664,0.90929387 19.5686868,1.33924338 21.4342408,2.1703019"/>
      <polyline points="30.083 3.833 15.5 18.431 11.125 14.056"/>
    </g>
  </g>
</svg>
