<svg xmlns="http://www.w3.org/2000/svg" width="52" height="52"><defs><linearGradient id="a" x1="23.481%" x2="67.016%" y1="0%" y2="100%"><stop offset="0%" stop-color="#55B6FF"/><stop offset="100%" stop-color="#057EFF"/></linearGradient><linearGradient id="b" x1="23.623%" x2="67.016%" y1=".327%" y2="100%"><stop offset="0%" stop-color="#BCDCFF"/><stop offset="100%" stop-color="#6DBEFF"/></linearGradient></defs><g fill="none"><path fill="url(#a)" d="M18.2 5.2h15.6v5.2H18.2V5.2zm0 36.4h15.6v5.2H18.2v-5.2zm-13-23.4h5.2v15.6H5.2V18.2zm36.4 0h5.2v15.6h-5.2V18.2z"/><path fill="url(#b)" d="M7.8 15.6A7.8 7.8 0 1 1 7.8 0a7.8 7.8 0 0 1 0 15.6zm36.4 0a7.8 7.8 0 1 1 0-15.6 7.8 7.8 0 0 1 0 15.6zm-.226 36.174a7.8 7.8 0 1 1 0-15.6 7.8 7.8 0 0 1 0 15.6zm-36.174 0a7.8 7.8 0 1 1 0-15.6 7.8 7.8 0 0 1 0 15.6z"/></g></svg>