<svg xmlns="http://www.w3.org/2000/svg" width="62" height="59" viewBox="0 0 62 59">
  <g fill="none" fill-rule="evenodd">
    <path fill="#37485B" d="M1.69551118,37.7151589 L26.8053004,24.1195651 C29.5440042,22.636705 32.8948474,22.6995316 35.5723143,24.2839421 L60.2304496,38.8755728 C61.7664165,39.7844924 62.2512367,41.7279763 61.3133257,43.2164656 C61.0212752,43.6799573 60.6108178,44.0626276 60.1216036,44.3275107 L35.0118144,57.9231044 C32.2731105,59.4059646 28.9222673,59.343138 26.2448004,57.7587275 L1.58666519,43.1670968 C0.0506982402,42.2581772 -0.434121895,40.3146933 0.503789114,38.826204 C0.795839542,38.3627123 1.20629698,37.980042 1.69551118,37.7151589 Z"/>
    <rect width="2.172" height="34.576" x="29.414" y="18.305" fill="#A6AAAF" opacity=".647" rx="1.086"/>
    <path fill="#617288" d="M1.69551118,26.329194 L26.8053004,12.7336002 C29.5440042,11.2507401 32.8948474,11.3135667 35.5723143,12.8979772 L60.2304496,27.4896079 C61.7664165,28.3985275 62.2512367,30.3420114 61.3133257,31.8305007 C61.0212752,32.2939923 60.6108178,32.6766627 60.1216036,32.9415458 L35.0118144,46.5371395 C32.2731105,48.0199997 28.9222673,47.9571731 26.2448004,46.3727626 L1.58666519,31.7811319 C0.0506982402,30.8722123 -0.434121895,28.9287284 0.503789114,27.4402391 C0.795839542,26.9767474 1.20629698,26.594077 1.69551118,26.329194 Z"/>
    <rect width="2.172" height="22.373" x="29.414" y="18.305" fill="#A6AAAF" opacity=".647" rx="1.086"/>
    <path fill="#9EAEC1" d="M1.69551118,14.9432291 L26.8053004,1.34763532 C29.5440042,-0.135224809 32.8948474,-0.0723982483 35.5723143,1.51201226 L60.2304496,16.103643 C61.7664165,17.0125626 62.2512367,18.9560465 61.3133257,20.4445358 C61.0212752,20.9080274 60.6108178,21.2906978 60.1216036,21.5555808 L35.0118144,35.1511746 C32.2731105,36.6340347 28.9222673,36.5712082 26.2448004,34.9867977 L1.58666519,20.3951669 C0.0506982402,19.4862473 -0.434121895,17.5427634 0.503789114,16.0542742 C0.795839542,15.5907825 1.20629698,15.2081121 1.69551118,14.9432291 Z"/>
    <g fill="#C1EBFF" transform="translate(26.155 10.17)">
      <ellipse cx="4.345" cy="4.067" rx="4.345" ry="4.067"/>
      <rect width="2.172" height="6.102" x="3.259" y="12.203" rx="1.086"/>
    </g>
  </g>
</svg>
