<svg xmlns="http://www.w3.org/2000/svg" xmlns:xlink="http://www.w3.org/1999/xlink" width="77" height="77"><defs><path id="a" d="M38.5 0C59.763 0 77 17.237 77 38.5S59.763 77 38.5 77 0 59.763 0 38.5 17.237 0 38.5 0z"/><linearGradient id="c" x1="50%" x2="50%" y1="142.333%" y2="-116.533%"><stop offset="0%" stop-color="#273A9B"/><stop offset="56%" stop-color="#202F65"/><stop offset="100%" stop-color="#021E2F"/></linearGradient></defs><g fill="none" fill-rule="evenodd"><mask id="b" fill="#fff"><use xlink:href="#a"/></mask><use fill="#DFE6FF" xlink:href="#a"/><g mask="url(#b)"><path fill="#FFF" d="M94.503 17.646H30.066a4.164 4.164 0 0 0-4.164 4.164v43.659a2.426 2.426 0 0 0 2.425 2.425h66.176c2.3 0 4.164-1.864 4.164-4.163V21.81c0-2.3-1.864-4.164-4.164-4.164z"/><path fill="url(#c)" fill-rule="nonzero" d="M28.58 18.119H4.165c-2.3 0-4.164-3.16-4.164-7.058V.473h72.765v10.588c0 3.898-1.864 7.058-4.164 7.058H44.164V21.4c0 2.355 1.168 4.264 2.608 4.264 1.259.182 2.257 1.814 2.368 3.873.126 2.346-.934 4.415-2.368 4.623H25.973c-1.259-.182-2.257-1.814-2.368-3.873-.127-2.346.934-4.416 2.368-4.623 1.44 0 2.608-1.909 2.608-4.264V18.12z" transform="matrix(-1 0 0 1 98.667 58.75)"/><path fill="#157AEE" fill-rule="nonzero" d="M41.183 92.45a5.83 5.83 0 0 0 5.83-5.83V35.668a5.83 5.83 0 0 0-5.83-5.83H22.9a5.83 5.83 0 0 0-5.83 5.83V86.62a5.83 5.83 0 0 0 5.83 5.83h18.283z"/><path fill="#DFE6FF" fill-rule="nonzero" d="M22.728 33.167h3.622c.595-.005 1.13.434 1.345 1.102l.104.333c.215.669.75 1.108 1.345 1.102h5.795c.595.006 1.13-.433 1.346-1.102l.103-.333c.22-.683.773-1.125 1.38-1.102h3.622c1.286 0 2.329 1.257 2.329 2.808v42.509c0 1.55-1.043 2.807-2.329 2.807H22.728c-1.286 0-2.329-1.257-2.329-2.807v-42.51c0-1.55 1.043-2.807 2.329-2.807z"/></g></g></svg>