<svg xmlns="http://www.w3.org/2000/svg" width="60" height="58"><g fill="none"><path fill="#233651" d="M23.075 45.992L36.926 45.992 36.926 56.422 23.075 56.422z"/><path fill="#233651" d="M13.1 57.776H42.748c1.363 0 2.729.034 4.092 0h.06c.719 0 1.405-.635 1.372-1.381-.033-.746-.604-1.381-1.372-1.381H17.253c-1.364 0-2.73-.034-4.093 0h-.06c-.719 0-1.404.635-1.372 1.381.033.746.604 1.381 1.372 1.381z"/><path fill="#E9E7F5" d="M60 4.714C59.97 2.628 58.58.652 56.642.307a5.525 5.525 0 0 0-.997-.083H5.427c-.427 0-.845-.005-1.272 0C2.577.246 1.045 1.241.4 2.83a5.55 5.55 0 0 0-.395 2.113v37.551c0 .2-.005.41.005.608.128 2.271 1.71 4.02 3.78 4.277.453.056.916.022 1.369.022h50.698c1.777-.022 3.288-1.23 3.907-3.017.305-.878.229-1.873.229-2.796V4.727c0-.724.02.76.007-.013z"/><path fill="#BAC2CD" d="M21.333 37.052v.196l.193-.196h-.193zm-4.666.192v-.192h-.189l.189.192zm.285-11.23a.352.352 0 0 1 .1-.014h3.895c.038 0 .075.006.11.018v-.116c0-.614.937-.614.943-.006v11.628a.48.48 0 0 1-.469.476H16.484a.48.48 0 0 1-.469-.477v-.042c-.034-.927 0-1.856 0-2.781v-8.413c0-.48.008-.97.529-1.205.204-.096.42-.08.641-.08h3.22c.215 0 .43-.004.646 0 .53.007.906.366.943.9.02.258-.23.477-.468.477a.443.443 0 0 1-.202-.047.415.415 0 0 0-.245-.306.586.586 0 0 1-.022-.124c.005.105.094.023.004.057-.081.02-.194 0-.272 0h-3.424c-.071 0-.413.048-.465 0 .056.054.024-.13.047.02l.005.035z"/><path fill="#73839B" d="M32.333 37.084v.182l.187-.182h-.187zm-4.666.179v-.179h-.184l.184.179zm.299-17.253a.368.368 0 0 1 .085-.01h3.896c.036 0 .072.004.105.013v-.14c0-.585.936-.585.936.003v.032c.028.714 0 1.439 0 2.152v15.485a.469.469 0 0 1-.468.455h-5.037a.469.469 0 0 1-.468-.455v-.051c-.034-1.129 0-2.267 0-3.395V20.256c0-.115-.004-.233 0-.346.013-.504.382-.877.902-.895.866-.033 1.736 0 2.597 0h1.343c.083 0 .163-.004.247 0 .506.018.846.376.884.859.018.246-.23.455-.468.455a.458.458 0 0 1-.204-.046.392.392 0 0 0-.23-.259.534.534 0 0 1-.034-.15c.006.069.094.045-.05.045h-3.939a1.7 1.7 0 0 0-.154.004c.014.013.032-.055.042-.046.003.006-.004.024 0 .028a.288.288 0 0 1 .015.105z"/><path fill="#233651" d="M43.333 11.283v-.567c0-.268-.08-.503-.196-.625.222-.571.861-.42.856.453v26.639c0 .441-.215.817-.468.817h-5.042c-.253 0-.468-.376-.468-.817V37.1c-.034-1.821 0-3.659 0-5.483V10.733c0-.464.06-.922.262-1.275.276-.484.613-.458.965-.458h3.727c.552 0 .989.523 1.03 1.543.019.442-.23.818-.468.818a.302.302 0 0 1-.198-.078zm0 25.083v.344l.198-.344h-.198zm-.166.634h-.104v.183l.104-.183zm-4.21 0h-.105l.105.183V37zm-.29-.324v-.31h-.178l.178.31z"/><path fill="#FFF" d="M10.691 38.914H49.3c.719 0 1.405-.636 1.372-1.382-.033-.746-.604-1.381-1.372-1.381H10.683c-.718 0-1.404.635-1.37 1.381.04.752.61 1.382 1.379 1.382z"/></g></svg>