<svg xmlns="http://www.w3.org/2000/svg" xmlns:xlink="http://www.w3.org/1999/xlink" width="77" height="77"><defs><path id="a" d="M38.5 0C59.763 0 77 17.237 77 38.5S59.763 77 38.5 77 0 59.763 0 38.5 17.237 0 38.5 0z"/><linearGradient id="c" x1="50%" x2="50%" y1="113.208%" y2="-96.875%"><stop offset="0%" stop-color="#273A9B"/><stop offset="56%" stop-color="#202F65"/><stop offset="100%" stop-color="#021E2F"/></linearGradient><linearGradient id="d" x1="50%" x2="50%" y1="142.333%" y2="-116.533%"><stop offset="0%" stop-color="#273A9B"/><stop offset="56%" stop-color="#202F65"/><stop offset="100%" stop-color="#021E2F"/></linearGradient><linearGradient id="e" x1="50%" x2="50%" y1="142.333%" y2="-116.533%"><stop offset="0%" stop-color="#273A9B"/><stop offset="56%" stop-color="#202F65"/><stop offset="100%" stop-color="#021E2F"/></linearGradient></defs><g fill="none" fill-rule="evenodd"><mask id="b" fill="#fff"><use xlink:href="#a"/></mask><use fill="#DFE6FF" xlink:href="#a"/><g mask="url(#b)"><path fill="url(#c)" fill-rule="nonzero" d="M14.646 57.75a5.021 5.021 0 0 1-5.021-5.021V24.271a5.021 5.021 0 0 1 5.021-5.021h47.708a5.021 5.021 0 0 1 5.021 5.021v28.458a5.021 5.021 0 0 1-5.021 5.021H14.646z" transform="translate(18.646 20.854)"/><path fill="url(#d)" fill-rule="nonzero" d="M60.75 19.25H13.042c-2.773 0-5.021 2.435-5.021 5.44v30.829c0 3.004 2.248 5.44 5.02 5.44h43.105V48.462c-.005-1.583.806-3.038 2.101-3.77 1.666-.927 2.713-2.786 2.711-4.815V19.476l-.208-.226z" transform="translate(18.646 20.854)"/><path fill="#FFF" d="M27.851 59.354c-5.084 0-9.205-2.248-9.205-5.021V25.875c0-2.773 4.121-5.021 9.205-5.021h87.465c5.084 0 9.205 2.248 9.205 5.021v28.458c0 2.773-4.121 5.021-9.205 5.021H27.85z"/><path fill="url(#e)" fill-rule="nonzero" d="M15.316 19.25c-3.143 0-5.691 2.248-5.691 5.021V38.5h48.851c3.143 0 5.69-2.248 5.69-5.021V19.25h-48.85z" opacity=".049" transform="translate(18.646 20.854)"/><path fill="#157AEE" fill-rule="nonzero" d="M52.723 33.298A9.625 9.625 0 1 1 39.11 46.91a9.625 9.625 0 0 1 13.612-13.612"/><path fill="#8EC3FB" d="M30.305 26.841a4.01 4.01 0 1 1-5.672 5.672 4.01 4.01 0 0 1 5.672-5.672m35.291 20.854a4.01 4.01 0 1 1-5.671 5.672 4.01 4.01 0 0 1 5.671-5.672"/></g></g></svg>