<svg xmlns="http://www.w3.org/2000/svg" width="45" height="41" viewBox="0 0 45 41">
  <g fill="none">
    <path fill="#028DFF" d="M44.5734574 7.67987209L44.732408 6.1434686C44.7847707 5.40227442 44.5734574 4.66108023 44.1470729 4.13032093 43.6683495 3.54740581 43.0306899 3.17683256 42.2845516 3.12467674L16.7551899.370382558C15.212408.212089186 13.8304771 1.32387093 13.6696739 2.86027442L13.5107234 4.39667791 44.5734574 7.67987209zM13.1912234 7.30944186L12.1814043 16.6321744 27.1285851 13.3471209C28.2992074 13.0826757 29.5222021 13.2949747 30.5862606 13.930036 31.5960798 14.5650593 32.3422181 15.5725628 32.607766 16.7905012L33.9373245 22.7235826 40.1607287 23.3586058 40.4805016 23.3586058C41.8642995 23.3586058 43.0872941 22.2989465 43.2462303 20.868714L44.3626133 10.5386209 13.1912234 7.30944186z"/>
    <path fill="#6EBEFF" d="M.637659574 25.4257209L31.1692021 18.6993372 30.8494293 17.1629337C30.6904787 16.4217395 30.2640941 15.8388721 29.6264346 15.414236 28.988775 14.9896 28.2426367 14.885336 27.5526048 15.0436437L2.44595585 20.6062949C1.70168457 20.7645883 1.11639734 21.18921.689998404 21.8242333.263637766 22.4592565.15890266 23.20231.317867553 23.8894891L.637659574 25.4257209zM34.0415426 31.7297093L31.8068617 21.5598023 1.27723404 28.3405349 3.51191489 38.5104419C3.67086543 39.251636 4.09725 39.8345035 4.73490957 40.2591395 5.21363298 40.5235848 5.69235638 40.6837422 6.22345213 40.6837422 6.43663245 40.6837422 6.64981277 40.6837422 6.80878723 40.6315959L31.8613404 35.1228169C33.4583138 34.6963549 34.3615691 33.2139808 34.0417819 31.7297331L34.0415426 31.7297093z"/>
  </g>
</svg>
