<svg xmlns="http://www.w3.org/2000/svg" width="58" height="59" viewBox="0 0 58 59">
  <g fill="none">
    <path fill="#9EAEC1" d="M36.09483,38.6181818 L2.57183666,38.6181818 C1.1511971,38.6181818 0,37.4684282 0,36.04957 L0,2.56861178 C0,1.14975359 1.1511971,0 2.57183666,0 L36.09483,0 C37.5154696,0 38.6666667,1.14975359 38.6666667,2.56861178 L38.6666667,36.04957 C38.6666667,37.4684282 37.5154696,38.6181818 36.09483,38.6181818 Z"/>
    <path fill="#37485B" d="M55.4281633,59 L21.90517,59 C20.4845304,59 19.3333333,57.8502464 19.3333333,56.4313882 L19.3333333,22.95043 C19.3333333,21.5315718 20.4845304,20.3818182 21.90517,20.3818182 L55.4281633,20.3818182 C56.8488029,20.3818182 58,21.5315718 58,22.95043 L58,56.4313882 C58,57.8502464 56.8488029,59 55.4281633,59 Z"/>
    <path fill="#617288" d="M19.3333333,38.6181818 L19.3333333,22.95043 C19.3333333,21.5315718 20.4845304,20.3818182 21.90517,20.3818182 L38.6666667,20.3818182 L38.6666667,36.04957 C38.6666667,37.4684282 37.5154696,38.6181818 36.09483,38.6181818 L19.3333333,38.6181818 Z"/>
  </g>
</svg>
