<svg xmlns="http://www.w3.org/2000/svg" xmlns:xlink="http://www.w3.org/1999/xlink" width="48" height="48" viewBox="0 0 48 48">
  <defs>
    <path id="icon-dropdown-2-a" d="M24,0 C37.254834,-2.4348735e-15 48,10.745166 48,24 C48,37.254834 37.254834,48 24,48 C10.745166,48 1.623249e-15,37.254834 0,24 C-1.623249e-15,10.745166 10.745166,2.4348735e-15 24,0 Z"/>
  </defs>
  <g fill="none" fill-rule="evenodd">
    <mask id="icon-dropdown-2-b" fill="#fff">
      <use xlink:href="#icon-dropdown-2-a"/>
    </mask>
    <use fill="#E4E7F1" xlink:href="#icon-dropdown-2-a"/>
    <g mask="url(#icon-dropdown-2-b)">
      <g transform="translate(10 11)">
        <path fill="#37485B" d="M1.27883817,17.2713904 L12.8227186,11.1436319 C14.0818001,10.4752824 15.6223042,10.5035993 16.8532328,11.2177193 L28.1894715,17.7944081 C28.8956112,18.2040732 29.1185006,19.0800335 28.6873089,19.7509201 C28.5530427,19.9598235 28.3643406,20.1322993 28.1394311,20.2516865 L16.5955506,26.379445 C15.3364692,27.0477946 13.7959651,27.0194776 12.5650365,26.3053576 L1.22879773,19.7286688 C0.522658033,19.3190037 0.29976864,18.4430435 0.730960334,17.7721568 C0.865226504,17.5632534 1.05392867,17.3907776 1.27883817,17.2713904 Z"/>
        <rect width="1.208" height="15.6" x="13.803" y="8.262" fill="#A6AAAF" opacity=".647" rx=".604"/>
        <path fill="#617288" d="M1.27883817,11.8713904 L12.8227186,5.74363189 C14.0818001,5.07528236 15.6223042,5.10359932 16.8532328,5.81771929 L28.1894715,12.3944081 C28.8956112,12.8040732 29.1185006,13.6800335 28.6873089,14.3509201 C28.5530427,14.5598235 28.3643406,14.7322993 28.1394311,14.8516865 L16.5955506,20.979445 C15.3364692,21.6477946 13.7959651,21.6194776 12.5650365,20.9053576 L1.22879773,14.3286688 C0.522658033,13.9190037 0.29976864,13.0430435 0.730960334,12.3721568 C0.865226504,12.1632534 1.05392867,11.9907776 1.27883817,11.8713904 Z"/>
        <rect width="1.208" height="10.2" x="13.803" y="8.262" fill="#A6AAAF" opacity=".647" rx=".604"/>
        <path fill="#9EAEC1" d="M1.27883817,7.07139042 L12.8227186,0.943631894 C14.0818001,0.275282357 15.6223042,0.303599324 16.8532328,1.01771929 L28.1894715,7.59440812 C28.8956112,8.00407319 29.1185006,8.88003346 28.6873089,9.55092015 C28.5530427,9.75982349 28.3643406,9.93229934 28.1394311,10.0516865 L16.5955506,16.179445 C15.3364692,16.8477946 13.7959651,16.8194776 12.5650365,16.1053576 L1.22879773,9.52866881 C0.522658033,9.11900374 0.29976864,8.24304346 0.730960334,7.57215677 C0.865226504,7.36325343 1.05392867,7.19077758 1.27883817,7.07139042 Z"/>
        <g transform="translate(12.595 4.662)">
          <ellipse cx="2.042" cy="1.866" fill="#C1EBFF" rx="2.042" ry="1.866"/>
          <rect width="1.021" height="2.8" x="1.531" y="5.6" fill="#C1EBFF" rx=".51"/>
        </g>
      </g>
    </g>
  </g>
</svg>
