<svg xmlns="http://www.w3.org/2000/svg" xmlns:xlink="http://www.w3.org/1999/xlink" width="48" height="48" viewBox="0 0 48 48">
  <defs>
    <path id="icon-dropdown-1-a" d="M24,0 C37.254834,-2.4348735e-15 48,10.745166 48,24 C48,37.254834 37.254834,48 24,48 C10.745166,48 1.623249e-15,37.254834 0,24 C-1.623249e-15,10.745166 10.745166,2.4348735e-15 24,0 Z"/>
    <path id="icon-dropdown-1-c" d="M24.1074618,0 L4.46272174,0 L0,7.83991228 C0,9.80803228 1.59944651,11.4035088 3.57246377,11.4035088 C5.54548103,11.4035088 7.14492754,9.80803228 7.14492754,7.83991228 C7.14492758,9.80803225 8.74437408,11.4035088 10.7173913,11.4035088 C12.6904085,11.4035088 14.289855,9.80803225 14.2898551,7.83991228 C14.2898551,9.80803224 15.8893016,11.4035088 17.8623188,11.4035088 C19.8353361,11.4035088 21.4347825,9.80803224 21.4347826,7.83991228 C21.4347826,9.80803228 23.0342291,11.4035088 25.0072464,11.4035088 C26.9802636,11.4035088 28.5797101,9.80803228 28.5797101,7.83991228 L24.1074618,0 Z"/>
    <path id="icon-dropdown-1-e" d="M3.46513083,11.4035088 C5.36209207,11.4036426 6.90615691,9.83349637 6.92841458,7.8817248 L6.92194978,7.83991193 L6.92194978,0 L2.30423812,0 L0,7.83991193 C0,8.78536583 0.365134043,9.69206865 1.01502528,10.3604273 C1.66491652,11.0287859 2.54629089,11.4040125 3.46513083,11.4035088 Z M11.6916996,0 L14.0659627,7.83991228 L14.0702475,7.96630117 C14.0702475,7.92401316 14.0769128,7.88220029 14.0769128,7.83991228 C14.0769128,9.80803228 15.67556,11.4035088 17.6475912,11.4035088 C19.6196225,11.4035088 21.2182697,9.80803228 21.2182697,7.83991228 L16.7473042,0 L11.6916996,0 Z"/>
  </defs>
  <g fill="none" fill-rule="evenodd">
    <mask id="icon-dropdown-1-b" fill="#fff">
      <use xlink:href="#icon-dropdown-1-a"/>
    </mask>
    <use fill="#E4E7F1" xlink:href="#icon-dropdown-1-a"/>
    <g mask="url(#icon-dropdown-1-b)">
      <g transform="translate(10 12)">
        <path fill="#AFBFD2" fill-rule="nonzero" d="M2.52173913,8.05084746 L2.52173913,24.1541667 C2.52173913,24.6213075 2.90043161,25 3.36757245,25 L24.7918478,25 C25.2589887,25 25.6376812,24.6213075 25.6376812,24.1541667 L25.6376812,8.05084746 L2.52173913,8.05084746 Z"/>
        <polygon fill="#37485B" fill-rule="nonzero" points="22.079 8.051 4.7 8.051 2.522 10.206 2.522 25 9.015 25 25.638 11.57" opacity=".131"/>
        <polygon fill="#617288" fill-rule="nonzero" points="15.971 14.407 21.435 14.407 21.435 25 15.971 25"/>
        <polygon fill="#37485B" fill-rule="nonzero" points="6.304 14.407 12.609 14.407 12.609 19.915 6.304 19.915" opacity=".725"/>
        <path fill="#D35E5E" fill-rule="nonzero" d="M14.0865494,8.74023684 L14.0601348,8.04923684 C14.0648981,8.28223684 14.0731256,8.51223684 14.0865494,8.74023684 Z M6.73355292,7.89473684 L6.69025033,8.89473684 C6.71754663,8.5641033 6.73202348,8.2297849 6.73355292,7.89473684 L6.73355292,7.89473684 Z"/>
        <mask id="icon-dropdown-1-d" fill="#fff">
          <use xlink:href="#icon-dropdown-1-c"/>
        </mask>
        <use fill="#54687F" fill-rule="nonzero" xlink:href="#icon-dropdown-1-c"/>
        <path fill="#4B5B6D" d="M0,7.89473684 L7.36144049,7.89473684 L7.36144049,11.8421053 L0,11.8421053 L0,7.89473684 Z M14.2898551,7.89473684 L21.6512956,7.89473684 L21.6512956,11.8421053 L14.2898551,11.8421053 L14.2898551,7.89473684 Z" mask="url(#icon-dropdown-1-d)"/>
        <polygon fill="#AFBACA" points="7.535 7.895 11.692 7.895 11.692 12.719 7.361 12.719 7.361 8.43" mask="url(#icon-dropdown-1-d)"/>
        <g transform="translate(7.361)">
          <mask id="icon-dropdown-1-f" fill="#fff">
            <use xlink:href="#icon-dropdown-1-e"/>
          </mask>
          <use fill="#B0C0D4" fill-rule="nonzero" opacity=".765" xlink:href="#icon-dropdown-1-e"/>
          <rect width="21.651" height="3.509" x="-.433" y="7.895" fill="#7589A5" mask="url(#icon-dropdown-1-f)"/>
        </g>
      </g>
    </g>
  </g>
</svg>
