<svg xmlns="http://www.w3.org/2000/svg" xmlns:xlink="http://www.w3.org/1999/xlink" width="48" height="48" viewBox="0 0 48 48">
  <defs>
    <path id="icon-dropdown-2-a" d="M24,0 C37.254834,-2.4348735e-15 48,10.745166 48,24 C48,37.254834 37.254834,48 24,48 C10.745166,48 1.623249e-15,37.254834 0,24 C-1.623249e-15,10.745166 10.745166,2.4348735e-15 24,0 Z"/>
    <linearGradient id="icon-dropdown-2-c" x1="50%" x2="50%" y1="142.333%" y2="-116.533%">
      <stop offset="0%" stop-color="#273A9B"/>
      <stop offset="56%" stop-color="#202F65"/>
      <stop offset="100%" stop-color="#021E2F"/>
    </linearGradient>
  </defs>
  <g fill="none" fill-rule="evenodd">
    <mask id="icon-dropdown-2-b" fill="#fff">
      <use xlink:href="#icon-dropdown-2-a"/>
    </mask>
    <use fill="#DFE6FF" xlink:href="#icon-dropdown-2-a"/>
    <g mask="url(#icon-dropdown-2-b)">
      <g transform="matrix(-1 0 0 1 64 11)">
        <path fill="#FFF" d="M2.59560558,1.0658141e-14 L42.7644884,1.0658141e-14 L42.7644883,1.0658141e-14 C44.1980059,1.0658141e-14 45.3600937,1.16209197 45.3600937,2.59560575 C45.3600937,2.59560575 45.3600937,2.59560575 45.3600937,2.59560575 L45.3600937,29.8116619 L45.3600937,29.8116619 C45.3600937,30.6467185 44.6831472,31.323665 43.8480905,31.323665 L2.59560547,31.323665 L2.59560535,31.323665 C1.1620878,31.323665 -5.32907052e-14,30.1615722 -5.32907052e-14,28.7280596 C-5.32907052e-14,28.7280596 -5.32907052e-14,28.7280596 -5.32907052e-14,28.7280596 L-5.32907052e-14,2.59560575 L-5.32907052e-14,2.59560535 C-5.32907052e-14,1.1620878 1.16209284,1.0658141e-14 2.59560535,1.0658141e-14 L2.59560558,1.0658141e-14 Z"/>
        <path fill="url(#icon-dropdown-2-c)" fill-rule="nonzero" d="M17.8164369,11.9182535 L2.59560558,11.9182535 C1.1620918,11.9182535 2.26915098e-07,9.94831365 2.26915098e-07,7.51825412 L2.26915098e-07,0.918253455 L45.3600937,0.918253455 L45.3600937,7.51825345 C45.3600937,9.94830724 44.1980059,11.9182535 42.7644884,11.9182535 L27.5310569,11.9182535 L27.5310569,13.9643141 C27.5310569,15.4323867 28.2587752,16.6224958 29.1564603,16.6224959 C29.9412114,16.7358086 30.5632958,17.7531731 30.6325912,19.0365577 C30.7115555,20.4989451 30.0506665,21.7891221 29.1564603,21.9182535 L16.1910336,21.9182535 C15.4062813,21.8049407 14.7841981,20.7875762 14.7149027,19.5041916 C14.6359384,18.0418042 15.2968274,16.7516273 16.1910335,16.6224959 C17.0887186,16.6224959 17.8164369,15.4323867 17.8164369,13.9643141 L17.8164369,11.9182535 Z" transform="translate(0 25)"/>
        <g transform="translate(32.2 7.6)">
          <path fill="#157AEE" fill-rule="nonzero" d="M3.63418306,39.0304564 C1.62709257,39.0304564 0,37.4033638 0,35.3962734 L0,3.63418306 C0,1.62709257 1.62709257,7.10542736e-15 3.63418306,7.10542736e-15 L15.0313252,7.10542736e-15 C17.0384157,7.10542736e-15 18.6655083,1.62709257 18.6655083,3.63418306 L18.6655083,35.3962734 C18.6655083,37.4033638 17.0384157,39.0304564 15.0313252,39.0304564 L3.63418306,39.0304564 Z"/>
          <path fill="#DFE6FF" fill-rule="nonzero" d="M15.1388454,2.07523049 L12.880921,2.07523049 L12.8809211,2.07523049 C12.5101269,2.07194187 12.1762788,2.34546297 12.0422634,2.76234022 L11.9777513,2.96976957 L11.9777513,2.96976955 C11.843736,3.3866468 11.5098879,3.66016833 11.1390937,3.65687928 L7.52641467,3.65687928 L7.5264147,3.65687928 C7.15562051,3.6601679 6.82177241,3.3866468 6.68775707,2.96976955 L6.62324495,2.76234019 L6.62324498,2.76234029 C6.48651906,2.33640486 6.14168669,2.06094775 5.76308331,2.07523056 L3.50515892,2.07523056 L3.50515886,2.07523056 C2.70350538,2.0752306 2.05363604,2.85881568 2.05363604,3.82541572 C2.05363604,3.82541572 2.05363604,3.82541572 2.05363604,3.82541572 L2.05363604,30.3245155 L2.05363604,30.3245152 C2.05363604,31.2911153 2.70350431,32.0747004 3.50515886,32.0747004 C3.50515886,32.0747004 3.50515886,32.0747004 3.50515886,32.0747004 L15.1388455,32.0747004 L15.1388454,32.0747004 C15.9404989,32.0747004 16.5903682,31.2911153 16.5903682,30.3245152 C16.5903682,30.3245152 16.5903682,30.3245152 16.5903682,30.3245152 L16.5903682,3.82541546 L16.5903682,3.82541546 C16.5903682,2.85881542 15.9404989,2.07523029 15.1388454,2.07523029 C15.1388454,2.07523029 15.1388454,2.07523029 15.1388454,2.07523029 L15.1388454,2.07523049 Z"/>
        </g>
      </g>
    </g>
  </g>
</svg>
