<svg xmlns="http://www.w3.org/2000/svg" width="50" height="50"><g fill="none"><path fill="#3D3F5B" d="M11.387 22.823C5.108 22.823 0 17.705 0 11.415 0 5.125 5.108.007 11.387.007c6.28 0 11.388 5.117 11.388 11.408 0 6.29-5.109 11.408-11.388 11.408zm0-20.562c-5.038 0-9.136 4.106-9.136 9.154 0 5.047 4.098 9.153 9.136 9.153 5.038 0 9.137-4.106 9.137-9.153 0-5.048-4.099-9.154-9.137-9.154zm27.226 20.562c-6.28 0-11.388-5.118-11.388-11.408 0-6.29 5.109-11.408 11.388-11.408S50 5.124 50 11.415c0 6.29-5.108 11.408-11.387 11.408zm0-20.562c-5.038 0-9.137 4.106-9.137 9.154 0 5.047 4.099 9.153 9.137 9.153s9.136-4.106 9.136-9.153c0-5.048-4.098-9.154-9.136-9.154z"/><path fill="#028DFF" fill-opacity=".76" d="M38.613 16.643c-2.878 0-5.219-2.346-5.219-5.228 0-2.883 2.341-5.229 5.219-5.229 2.877 0 5.218 2.346 5.218 5.229 0 2.882-2.34 5.228-5.218 5.228zm0-8.202a2.974 2.974 0 0 0 0 5.947 2.974 2.974 0 0 0 0-5.947z"/><path fill="#3D3F5B" d="M11.387 49.993C5.108 49.993 0 44.876 0 38.585c0-6.29 5.108-11.408 11.387-11.408 6.28 0 11.388 5.118 11.388 11.408 0 6.29-5.109 11.408-11.388 11.408zm0-20.56c-5.038 0-9.136 4.105-9.136 9.152 0 5.047 4.098 9.154 9.136 9.154 5.038 0 9.137-4.107 9.137-9.154s-4.099-9.153-9.137-9.153z"/><path fill="#028DFF" fill-opacity=".76" d="M11.387 43.814c-2.877 0-5.218-2.346-5.218-5.229 0-2.882 2.34-5.228 5.218-5.228s5.219 2.346 5.219 5.228c0 2.883-2.341 5.229-5.219 5.229zm0-8.202a2.974 2.974 0 0 0 0 5.947 2.974 2.974 0 0 0 0-5.947z"/><path fill="#3D3F5B" d="M38.613 49.993c-6.28 0-11.388-5.117-11.388-11.408 0-6.29 5.109-11.408 11.388-11.408S50 32.295 50 38.585c0 6.29-5.108 11.408-11.387 11.408zm0-20.56c-5.038 0-9.137 4.105-9.137 9.152 0 5.047 4.099 9.154 9.137 9.154s9.136-4.107 9.136-9.154-4.098-9.153-9.136-9.153z"/><path fill="#028DFF" fill-opacity=".76" d="M38.613 43.814c-2.878 0-5.219-2.346-5.219-5.229 0-2.882 2.341-5.228 5.219-5.228 2.877 0 5.218 2.346 5.218 5.228 0 2.883-2.34 5.229-5.218 5.229zm0-8.202a2.974 2.974 0 0 0 0 5.947 2.974 2.974 0 0 0 0-5.947zm-27.226-19.88h-.008a1.125 1.125 0 0 1-.797-.34l-4.664-4.78a1.129 1.129 0 0 1 .018-1.594 1.124 1.124 0 0 1 1.592.018l3.871 3.968L22 2.456a1.124 1.124 0 0 1 1.59.006 1.129 1.129 0 0 1-.004 1.594L12.18 15.405c-.21.21-.496.327-.793.327z"/></g></svg>