<svg xmlns="http://www.w3.org/2000/svg" xmlns:xlink="http://www.w3.org/1999/xlink" width="48" height="48"><defs><path id="a" d="M24 0c13.255 0 24 10.745 24 24S37.255 48 24 48 0 37.255 0 24 10.745 0 24 0z"/><linearGradient id="c" x1="50%" x2="50%" y1="113.208%" y2="-96.875%"><stop offset="0%" stop-color="#273A9B"/><stop offset="56%" stop-color="#202F65"/><stop offset="100%" stop-color="#021E2F"/></linearGradient><linearGradient id="d" x1="50%" x2="50%" y1="142.333%" y2="-116.533%"><stop offset="0%" stop-color="#273A9B"/><stop offset="56%" stop-color="#202F65"/><stop offset="100%" stop-color="#021E2F"/></linearGradient><linearGradient id="e" x1="50%" x2="50%" y1="142.333%" y2="-116.533%"><stop offset="0%" stop-color="#273A9B"/><stop offset="56%" stop-color="#202F65"/><stop offset="100%" stop-color="#021E2F"/></linearGradient></defs><g fill="none" fill-rule="evenodd"><mask id="b" fill="#fff"><use xlink:href="#a"/></mask><use fill="#DFE6FF" xlink:href="#a"/><g mask="url(#b)"><path fill="url(#c)" fill-rule="nonzero" d="M9.13 36A3.13 3.13 0 0 1 6 32.87V15.13A3.13 3.13 0 0 1 9.13 12h29.74A3.13 3.13 0 0 1 42 15.13v17.74A3.13 3.13 0 0 1 38.87 36H9.13z" transform="translate(11 13)"/><path fill="url(#d)" fill-rule="nonzero" d="M37.87 12H8.13C6.401 12 5 13.518 5 15.39v19.22C5 36.481 6.401 38 8.13 38H35v-7.79c-.003-.986.502-1.893 1.31-2.35 1.039-.577 1.691-1.736 1.69-3V12.14l-.13-.14z" transform="translate(11 13)"/><path fill="#FFF" d="M16.738 37C13.57 37 11 35.599 11 33.87V16.13c0-1.729 2.57-3.13 5.738-3.13h54.524C74.43 13 77 14.401 77 16.13v17.74c0 1.729-2.57 3.13-5.738 3.13H16.738z"/><path fill="url(#e)" fill-rule="nonzero" d="M9.547 12C7.588 12 6 13.401 6 15.13V24h30.453C38.412 24 40 22.599 40 20.87V12H9.547z" opacity=".049" transform="translate(11 13)"/><path fill="#157AEE" fill-rule="nonzero" d="M32.243 20.757a6 6 0 1 1-8.486 8.486 6 6 0 0 1 8.486-8.486"/><path fill="#8EC3FB" d="M18.268 16.732a2.5 2.5 0 1 1-3.536 3.536 2.5 2.5 0 0 1 3.536-3.536m22 13a2.5 2.5 0 1 1-3.536 3.536 2.5 2.5 0 0 1 3.536-3.536"/></g></g></svg>