<svg xmlns="http://www.w3.org/2000/svg" width="50" height="50" viewBox="0 0 50 50">
  <g fill="none">
    <path fill="#3D3F5B" d="M25,50 C11.2148636,50 0,38.7851364 0,25 C0,11.2148636 11.2148636,0 25,0 C38.7851364,0 50,11.2148636 50,25 C50,38.7851364 38.7851364,50 25,50 Z M25,2.23527273 C12.4475,2.23527273 2.23527273,12.4475 2.23527273,25 C2.23527273,37.5525 12.4475,47.7647273 25,47.7647273 C37.5525,47.7647273 47.7647273,37.5525 47.7647273,25 C47.7647273,12.4475 37.5525,2.23527273 25,2.23527273 Z"/>
    <path fill="#028DFF" fill-opacity=".76" d="M26.2333619,18.2222549 L23.6593182,19.3186364 C23.0912273,19.5599091 22.435,19.2963182 22.1929091,18.7284091 C21.951,18.1605 22.2152273,17.5039091 22.7831364,17.262 L27.6325455,15.1964091 C27.9053182,15.0803636 28.2131818,15.0772273 28.4880455,15.1878636 C28.7629091,15.2986818 28.9826818,15.5140909 29.0989545,15.7868636 L31.1643636,20.6362727 C31.4062727,21.2041818 31.1418182,21.8605909 30.5739091,22.1024545 C30.4311364,22.1630909 30.2825455,22.1921364 30.1364545,22.1921364 C29.7019091,22.1921364 29.2886818,21.9370909 29.1077273,21.5119545 L28.1837077,19.3424017 C26.0169758,24.2034596 21.1179607,27.5048636 15.6310455,27.5048636 C9.15954545,27.5048636 3.506,22.9125909 2.18818182,16.5855455 C2.06231818,15.9811364 2.45031818,15.3892273 3.05454545,15.2633636 C3.65813636,15.1391818 4.25068182,15.5255 4.37672727,16.1297273 C5.47977273,21.4257273 10.2129091,25.2695455 15.6310455,25.2695455 C20.305476,25.2695455 24.4698806,22.4085288 26.2333619,18.2222549 Z M5.02842006,9.3234213 L7.603,8.22686364 C8.17027273,7.98536364 8.82731818,8.24918182 9.06918182,8.81731818 C9.31109091,9.38522727 9.04663636,10.0416364 8.47872727,10.2835 L3.62931818,12.3489091 C3.48659091,12.4096364 3.338,12.4386364 3.19190909,12.4386364 C2.75736364,12.4386364 2.34431818,12.1835909 2.16318182,11.7584545 L0.0977727273,6.90927273 C-0.144136364,6.34136364 0.120090909,5.68495455 0.688227273,5.44309091 C1.25572727,5.20159091 1.91231818,5.46540909 2.15440909,6.03354545 L3.07829835,8.20279233 C5.24512448,3.34191437 10.1440807,0.0406363636 15.6310455,0.0406363636 C22.1023182,0.0406363636 27.7559091,4.63290909 29.0736818,10.9599545 C29.1995455,11.5643636 28.8115455,12.1562727 28.2073182,12.2821364 C28.1305455,12.2979545 28.0537273,12.3056818 27.9783636,12.3056818 C27.4599091,12.3056818 26.9951364,11.9431364 26.8851364,11.4157273 C25.7821364,6.11972727 21.0491818,2.27590909 15.6310455,2.27590909 C10.9565324,2.27590909 6.79189409,5.13702679 5.02842006,9.3234213 Z" transform="translate(9.273 11.227)"/>
  </g>
</svg>
