<svg xmlns="http://www.w3.org/2000/svg" width="52" height="52"><defs><linearGradient id="a" x1="23.481%" x2="67.016%" y1="0%" y2="100%"><stop offset="0%" stop-color="#55B6FF"/><stop offset="100%" stop-color="#057EFF"/></linearGradient></defs><g fill="none"><path fill="url(#a)" d="M25.96 51.26c-13.973 0-25.3-11.327-25.3-25.3S11.987.66 25.96.66s25.3 11.327 25.3 25.3-11.327 25.3-25.3 25.3z"/><path fill="#FFF" d="M36.925 37.509A15.939 15.939 0 0 0 19.192 11.51l2.22 3.996a11.385 11.385 0 0 1 15.923 10.445h-6.831l6.42 11.558z"/><path fill="#97E8FF" d="M32.708 40.392l-2.22-3.997a11.385 11.385 0 0 1-15.923-10.444h6.83l-6.42-11.558a15.939 15.939 0 0 0 17.733 25.999z"/></g></svg>