<svg height="50" width="55" xmlns="http://www.w3.org/2000/svg"><g fill="none"><path d="M27.454 49.288c-.436 0-.84-.224-1.067-.59-.615-.994-15.046-24.431-15.046-32.777 0-8.762 7.228-15.89 16.113-15.89s16.113 7.128 16.113 15.89c0 8.346-14.432 31.783-15.046 32.776a1.253 1.253 0 0 1-1.067.591zm0-46.792c-7.506 0-13.613 6.023-13.613 13.425 0 6.427 10.233 24.076 13.613 29.729 3.38-5.653 13.613-23.302 13.613-29.729 0-7.402-6.107-13.425-13.613-13.425z" fill="#3d3f5b"/><path d="M53.75 49.969H1.25c-.69 0-1.25-.552-1.25-1.233 0-.68.56-1.232 1.25-1.232h52.5c.69 0 1.25.551 1.25 1.232s-.56 1.233-1.25 1.233zM27.454 24.766c-5.027 0-9.116-4.033-9.116-8.99 0-4.958 4.09-8.99 9.116-8.99 5.027 0 9.116 4.032 9.116 8.99 0 4.957-4.09 8.99-9.116 8.99zm0-15.515c-3.648 0-6.617 2.927-6.617 6.525s2.969 6.525 6.617 6.525 6.616-2.927 6.616-6.525-2.968-6.525-6.616-6.525z" fill="#028dff" fill-opacity=".76"/></g></svg>