<svg xmlns="http://www.w3.org/2000/svg" width="44" height="60" viewBox="0 0 44 60">
  <g fill="none">
    <polygon fill="#E9E7F5" points="16 16 16 0 44 0 44 60 0 60 0 16" opacity=".482"/>
    <polygon fill="#CBE1F0" points="0 16 16 0 16 16"/>
    <polygon fill="#FFF" points="0 16 16 0 16 16" opacity=".12"/>
    <polygon fill="#000064" points="0 32 0 16 16 16" opacity=".12"/>
    <path fill="#506788" d="M8,46 C7.5956041,46 7.23106595,45.7562725 7.07632202,45.3826546 C6.92157809,45.0090366 7.00709208,44.5789943 7.293,44.293 L17.934,33.652 L23.923,38.569 L33.261,28.327 C33.4998475,28.0560024 33.8662814,27.9348836 34.2195829,28.0101559 C34.5728844,28.0854282 34.8581276,28.3453894 34.965773,28.6902087 C35.0734183,29.0350279 34.9867306,29.4110982 34.739,29.674 L24.122,41.32 L18.066,36.348 L8.707,45.706 C8.51967112,45.8939162 8.26533844,45.9996783 8,46 Z"/>
    <path fill="#233651" d="M34,53 L7,53 L7,24 C7,23.4477153 7.44771525,23 8,23 C8.55228475,23 9,23.4477153 9,24 L9,51 L34,51 C34.5522847,51 35,51.4477153 35,52 C35,52.5522847 34.5522847,53 34,53 Z"/>
  </g>
</svg>
