<svg xmlns="http://www.w3.org/2000/svg" xmlns:xlink="http://www.w3.org/1999/xlink" width="68" height="59" viewBox="0 0 68 59">
  <defs>
    <path id="icon-natl-dark-1-a" d="M57.3591333,0 L10.6182,0 L0,18.502193 C0,23.1469562 3.80557963,26.9122807 8.5,26.9122807 C13.1944204,26.9122807 17,23.1469562 17,18.502193 C17,23.1469561 20.8055797,26.9122807 25.5,26.9122807 C30.1944203,26.9122807 34,23.1469561 34,18.502193 C34,23.1469561 37.8055797,26.9122807 42.5,26.9122807 C47.1944203,26.9122807 51,23.1469561 51,18.502193 C51,23.1469562 54.8055796,26.9122807 59.5,26.9122807 C64.1944204,26.9122807 68,23.1469562 68,18.502193 L57.3591333,0 Z"/>
    <path id="icon-natl-dark-1-c" d="M8.24462164,26.9122807 C12.7580811,26.9125966 16.4318906,23.2070514 16.4848485,18.6008705 L16.4694667,18.5021922 L16.4694667,0 L5.4824976,0 L0,18.5021922 C0,20.7334634 0.868767206,22.873282 2.41506015,24.4506083 C3.9613531,26.0279347 6.05841625,26.9134695 8.24462164,26.9122807 Z M27.8181818,0 L33.4672906,18.502193 L33.4774855,18.8004708 C33.4774855,18.7006711 33.4933442,18.6019927 33.4933442,18.502193 C33.4933442,23.1469562 37.297022,26.9122807 41.9890964,26.9122807 C46.6811707,26.9122807 50.4848485,23.1469562 50.4848485,18.502193 L39.8470341,0 L27.8181818,0 Z"/>
  </defs>
  <g fill="none" fill-rule="evenodd">
    <path fill="#AFBFD2" fill-rule="nonzero" d="M6,19 L6,57 C6,58.1045695 6.8954305,59 8,59 L59,59 C60.1045695,59 61,58.1045695 61,57 L61,19 L6,19 Z"/>
    <polygon fill="#37485B" fill-rule="nonzero" points="52.533 19 11.184 19.001 6 24.086 6 59 21.448 59 61 27.305" opacity=".131"/>
    <polygon fill="#617288" fill-rule="nonzero" points="38 34 51 34 51 59 38 59"/>
    <polygon fill="#37485B" fill-rule="nonzero" points="15 34 30 34 30 47 15 47" opacity=".725"/>
    <path fill="#D35E5E" fill-rule="nonzero" d="M33.5162727,19.5067456 L33.4534242,18.7915 C33.4647576,19.0326754 33.4843333,19.2707456 33.5162727,19.5067456 Z M16.0212121,18.6315789 L15.9181818,19.6666667 C15.9831282,19.3244319 16.0175731,18.9783831 16.0212121,18.6315789 L16.0212121,18.6315789 Z"/>
    <mask id="icon-natl-dark-1-b" fill="#fff">
      <use xlink:href="#icon-natl-dark-1-a"/>
    </mask>
    <use fill="#54687F" fill-rule="nonzero" xlink:href="#icon-natl-dark-1-a"/>
    <path fill="#4B5B6D" d="M0,18.6315789 L17.5151515,18.6315789 L17.5151515,27.9473684 L0,27.9473684 L0,18.6315789 Z M34,18.6315789 L51.5151515,18.6315789 L51.5151515,27.9473684 L34,27.9473684 L34,18.6315789 Z" mask="url(#icon-natl-dark-1-b)"/>
    <polygon fill="#AFBACA" points="17.927 18.632 27.818 18.632 27.818 30.018 17.515 30.018 17.515 19.896" mask="url(#icon-natl-dark-1-b)"/>
    <g transform="translate(17.515)">
      <mask id="icon-natl-dark-1-d" fill="#fff">
        <use xlink:href="#icon-natl-dark-1-c"/>
      </mask>
      <use fill="#B0C0D4" fill-rule="nonzero" opacity=".765" xlink:href="#icon-natl-dark-1-c"/>
      <rect width="51.515" height="8.281" x="-1.03" y="18.632" fill="#7589A5" mask="url(#icon-natl-dark-1-d)"/>
    </g>
  </g>
</svg>
