<svg xmlns="http://www.w3.org/2000/svg" xmlns:xlink="http://www.w3.org/1999/xlink" width="48" height="48" viewBox="0 0 48 48">
  <defs>
    <path id="icon-dropdown-3-a" d="M24,0 C37.254834,-2.4348735e-15 48,10.745166 48,24 C48,37.254834 37.254834,48 24,48 C10.745166,48 1.623249e-15,37.254834 0,24 C-1.623249e-15,10.745166 10.745166,2.4348735e-15 24,0 Z"/>
    <linearGradient id="icon-dropdown-3-c" x1="50%" x2="50%" y1="113.208%" y2="-96.875%">
      <stop offset="0%" stop-color="#273A9B"/>
      <stop offset="56%" stop-color="#202F65"/>
      <stop offset="100%" stop-color="#021E2F"/>
    </linearGradient>
    <linearGradient id="icon-dropdown-3-d" x1="50%" x2="50%" y1="142.333%" y2="-116.533%">
      <stop offset="0%" stop-color="#273A9B"/>
      <stop offset="56%" stop-color="#202F65"/>
      <stop offset="100%" stop-color="#021E2F"/>
    </linearGradient>
    <linearGradient id="icon-dropdown-3-e" x1="50%" x2="50%" y1="142.333%" y2="-116.533%">
      <stop offset="0%" stop-color="#273A9B"/>
      <stop offset="56%" stop-color="#202F65"/>
      <stop offset="100%" stop-color="#021E2F"/>
    </linearGradient>
  </defs>
  <g fill="none" fill-rule="evenodd">
    <mask id="icon-dropdown-3-b" fill="#fff">
      <use xlink:href="#icon-dropdown-3-a"/>
    </mask>
    <use fill="#DFE6FF" xlink:href="#icon-dropdown-3-a"/>
    <g mask="url(#icon-dropdown-3-b)">
      <g transform="translate(11 13)">
        <path fill="url(#icon-dropdown-3-c)" fill-rule="nonzero" d="M9.13,36 C7.40136,36 6,34.59864 6,32.87 L6,15.13 C6,13.40136 7.40136,12 9.13,12 L38.87,12 C40.59864,12 42,13.40136 42,15.13 L42,32.87 C42,34.59864 40.59864,36 38.87,36 L9.13,36 Z"/>
        <path fill="url(#icon-dropdown-3-d)" fill-rule="nonzero" d="M37.8699985,12 L8.12999999,12 L8.12999985,12 C6.40134993,12 5,13.5181292 5,15.3908334 C5,15.3908334 5,15.3908334 5,15.3908334 L5,34.6091671 L5,34.6091666 C5,36.4818708 6.40134993,38 8.12999985,38 L35,38 L35,30.2108332 L35,30.2107967 C34.9972378,29.2236677 35.5024254,28.3171192 36.3100284,27.859985 L36.3100285,27.859985 C37.3485585,27.2825704 38.0011684,26.1237591 38,24.8591732 L38,12.1408396 L37.8699985,12 Z"/>
        <path fill="#FFF" d="M5.73833333,24 C2.56916,24 0,22.59864 0,20.87 L0,3.13 C0,1.40136 2.56916,0 5.73833333,0 L60.2616667,0 C63.43084,0 66,1.40136 66,3.13 L66,20.87 C66,22.59864 63.43084,24 60.2616667,24 L5.73833333,24 Z"/>
        <path fill="url(#icon-dropdown-3-e)" fill-rule="nonzero" d="M9.5473335,12 L9.54733335,12 C7.58819667,12 6,13.40135 6,15.13 C6,15.13 6,15.13 6,15.13 L6,24 L36.4526668,24 L36.4526667,24 C38.4118033,24 40,22.59865 40,20.87 C40,20.87 40,20.87 40,20.87 L40,12 L9.5473335,12 Z" opacity=".049"/>
        <path fill="#157AEE" fill-rule="nonzero" d="M21.2426414,7.75735859 C23.5857862,10.1005034 23.5857862,13.8994966 21.2426414,16.2426414 C18.8994966,18.5857862 15.1005034,18.5857862 12.7573586,16.2426414 C10.4142138,13.8994966 10.4142138,10.1005034 12.7573586,7.75735859 C15.1005034,5.4142138 18.8994966,5.4142138 21.2426414,7.75735859"/>
        <path fill="#8EC3FB" d="M7.26776626 3.73223374C8.24407791 4.70854538 8.24407791 6.29145462 7.26776626 7.26776626 6.29145462 8.24407791 4.70854538 8.24407791 3.73223374 7.26776626 2.75592209 6.29145462 2.75592209 4.70854538 3.73223374 3.73223374 4.70854538 2.75592209 6.29145462 2.75592209 7.26776626 3.73223374M29.2677663 16.7322337C30.2440779 17.7085454 30.2440779 19.2914546 29.2677663 20.2677663 28.2914546 21.2440779 26.7085454 21.2440779 25.7322337 20.2677663 24.7559221 19.2914546 24.7559221 17.7085454 25.7322337 16.7322337 26.7085454 15.7559221 28.2914546 15.7559221 29.2677663 16.7322337"/>
      </g>
    </g>
  </g>
</svg>
