<svg xmlns="http://www.w3.org/2000/svg" width="43" height="52"><defs><linearGradient id="a" x1="32.015%" x2="61.54%" y1="0%" y2="100%"><stop offset="0%" stop-color="#55B6FF"/><stop offset="100%" stop-color="#057EFF"/></linearGradient><linearGradient id="b" x1="23.623%" x2="67.016%" y1=".327%" y2="100%"><stop offset="0%" stop-color="#BCDCFF"/><stop offset="100%" stop-color="#6DBEFF"/></linearGradient></defs><g fill="none"><path fill="url(#a)" d="M36.552 36.77L21.412 52 6.272 36.77c-8.362-8.412-8.362-22.05 0-30.461 8.361-8.412 21.918-8.412 30.28 0 8.362 8.411 8.362 22.049 0 30.46z"/><path fill="url(#b)" stroke="#FFF" stroke-width="9" d="M21.412 32.03c-5.864 0-10.618-4.754-10.618-10.618 0-5.864 4.754-10.618 10.618-10.618 5.864 0 10.617 4.754 10.617 10.618 0 5.864-4.753 10.617-10.617 10.617z"/></g></svg>