<svg xmlns="http://www.w3.org/2000/svg" xmlns:xlink="http://www.w3.org/1999/xlink" width="77" height="77"><defs><path id="a" d="M38.5 0C59.763 0 77 17.237 77 38.5S59.763 77 38.5 77 0 59.763 0 38.5 17.237 0 38.5 0z"/><linearGradient id="c" x1="50%" x2="50%" y1="142.333%" y2="-116.533%"><stop offset="0%" stop-color="#273A9B"/><stop offset="56%" stop-color="#202F65"/><stop offset="100%" stop-color="#021E2F"/></linearGradient><linearGradient id="d" x1="50.002%" x2="50.002%" y1="-274.002%" y2="-1100.002%"><stop offset="0%" stop-color="#FFF"/><stop offset="52%" stop-color="#CCE2E6"/><stop offset="100%" stop-color="#8FA1BB"/></linearGradient></defs><g fill="none" fill-rule="evenodd"><mask id="b" fill="#fff"><use xlink:href="#a"/></mask><use fill="#DFEEFE" xlink:href="#a"/><g mask="url(#b)"><path fill="#8EC3FB" d="M24.063 40.104h54.541v34.65a8.663 8.663 0 0 1-8.662 8.663H32.725a8.663 8.663 0 0 1-8.662-8.663v-34.65z"/><path fill="#FFF" d="M77.532 25.667h-54l-5.416 10.859a4.694 4.694 0 0 0-.47 1.967v3.364c0 .804.519 1.456 1.158 1.456H82.26c.64 0 1.158-.652 1.158-1.456v-3.305a4.694 4.694 0 0 0-.47-1.967l-5.415-10.918z"/><path fill="url(#c)" fill-rule="nonzero" d="M9.347 0h47.076c1.619 0 2.931.915 2.931 2.043v4.374H6.417V2.043C6.417.915 7.729 0 9.347 0z" transform="translate(17.646 17.646)"/><path fill="#157AEE" fill-rule="nonzero" d="M17.648 38.09v3.645c0 .871.519 1.578 1.159 1.578h63.451c.64 0 1.159-.707 1.159-1.578V38.09a5.54 5.54 0 0 0-.125-1.194h-65.55c-.073.39-.104.792-.094 1.194z"/><path fill="url(#d)" fill-rule="nonzero" d="M2.738.47A1.604 1.604 0 1 1 .47 2.738 1.604 1.604 0 0 1 2.738.47m6.417 0a1.604 1.604 0 1 1-2.268 2.268A1.604 1.604 0 0 1 9.155.47m6.417 0a1.604 1.604 0 1 1-2.269 2.268A1.604 1.604 0 0 1 15.572.47" transform="translate(28.876 19.25)"/><path fill="#DFE6FF" fill-rule="nonzero" d="M35.965 52.938h6.675c2.143 0 3.881 2.188 3.881 4.889v20.777H32.084V57.9c-.032-2.7 1.68-4.921 3.822-4.962h.059z"/></g></g></svg>