<svg xmlns="http://www.w3.org/2000/svg" width="69" height="69"><g fill="none" fill-rule="evenodd"><path fill="#FBEADF" d="M34.5 0C53.554 0 69 15.446 69 34.5 69 53.554 53.554 69 34.5 69 15.446 69 0 53.554 0 34.5 0 15.446 15.446 0 34.5 0z"/><g stroke="#F56646" stroke-linecap="round" stroke-linejoin="round" stroke-width="2.917" transform="translate(19 19)"><path d="M30.083 14.158V15.5v-.001c-.004 8.054-6.536 14.58-14.59 14.576C7.439 30.07.913 23.539.917 15.485.92 7.43 7.453.904 15.507.907c2.042.001 4.062.431 5.927 1.262"/><path d="M30.083 3.833L15.5 18.431 11.125 14.056"/></g></g></svg>