<svg xmlns="http://www.w3.org/2000/svg" width="616" height="530"><g fill="none" fill-rule="evenodd" transform="translate(3)"><g transform="translate(.017)"><path fill="#263456" d="M0 243.417H263.609V448.695H0z"/><path fill="#FFF" fill-rule="nonzero" d="M33.565 412.406c1.712.527 2.678 1.976 2.678 3.776 0 2.656-1.976 4.324-5.203 4.324h-7.025v-15.63h6.52c3.337 0 5.16 1.603 5.16 4.105 0 1.317-.528 2.766-2.13 3.425zm-.374-3.117c0-1.34-.922-2.261-2.787-2.261h-3.908v4.544h4.105c1.647 0 2.59-.9 2.59-2.283zm-2.414 9.066c1.866 0 2.875-.878 2.875-2.349 0-1.515-1.031-2.415-2.744-2.415h-4.412v4.764h4.28zm17.691.351h.417v1.8h-1.36c-.923 0-1.757-.35-1.932-1.427-.637.988-2.02 1.647-3.776 1.647-2.48 0-4.061-1.295-4.061-3.447 0-1.91 1.207-3.314 4.28-3.314h3.271v-.571c0-1.647-.988-2.415-2.458-2.415-1.493 0-2.46.746-2.525 1.91h-2.217c.066-2.437 2.063-3.842 4.83-3.842 2.634 0 4.785 1.317 4.785 4.369v4.544c0 .615.241.746.746.746zm-3.16-2.634v-.461h-2.942c-1.625 0-2.13.724-2.13 1.559 0 1.141.9 1.646 2.13 1.646 1.668 0 2.941-.9 2.941-2.744zm4.563 1.032h2.393c.022 1.163 1.098 1.844 2.569 1.844 1.47 0 2.348-.55 2.348-1.537 0-.856-.439-1.317-1.712-1.515l-2.26-.395c-2.196-.373-3.052-1.515-3.052-3.117 0-2.02 1.997-3.337 4.544-3.337 2.744 0 4.742 1.317 4.764 3.556h-2.371c-.022-1.141-1.01-1.778-2.393-1.778-1.317 0-2.151.55-2.151 1.471 0 .812.57 1.186 1.822 1.405l2.217.395c2.085.373 3.051 1.405 3.051 3.096 0 2.326-2.151 3.534-4.764 3.534-2.963 0-4.96-1.427-5.005-3.622zm22.565-2.459v.9h-8.605c.044 2.108 1.427 3.205 3.183 3.205 1.317 0 2.415-.615 2.876-1.844h2.437c-.593 2.283-2.613 3.82-5.357 3.82-3.358 0-5.576-2.327-5.576-5.861 0-3.513 2.218-5.84 5.554-5.84 3.271 0 5.488 2.24 5.488 5.62zm-5.488-3.71c-1.602 0-2.92.988-3.095 2.942H70c-.132-1.954-1.427-2.942-3.052-2.942zm10.14-6.74v16.311h-2.392v-16.31h2.392zm2.545 2.964v-2.502h2.656v2.502h-2.656zm.132 13.347v-11.24h2.392v11.24h-2.392zm10.974-11.459c2.832 0 4.5 1.866 4.5 4.742v6.717h-2.415v-6.212c0-2.108-1.075-3.14-2.722-3.14-1.866 0-2.876 1.318-2.876 3.315v6.037h-2.392v-11.24h2.173l.175 1.515c.637-1.075 1.844-1.734 3.557-1.734zm17.735 5.598v.9H99.87c.044 2.108 1.427 3.205 3.183 3.205 1.317 0 2.415-.615 2.876-1.844h2.437c-.593 2.283-2.613 3.82-5.357 3.82-3.359 0-5.576-2.327-5.576-5.861 0-3.513 2.217-5.84 5.554-5.84 3.271 0 5.488 2.24 5.488 5.62zm-5.488-3.71c-1.602 0-2.92.988-3.095 2.942h6.147c-.132-1.954-1.427-2.942-3.052-2.942zm23.134 5.203c0 2.898-2.612 4.588-5.97 4.588-3.82 0-6.17-1.866-6.17-4.654h2.547c0 1.493 1.23 2.524 3.644 2.524 1.888 0 3.359-.9 3.359-2.414 0-1.361-.834-1.954-2.48-2.261l-2.525-.483c-2.766-.505-4.215-2.02-4.215-4.281 0-2.634 2.239-4.5 5.751-4.5 3.161 0 5.796 1.449 5.796 4.61h-2.48c0-1.69-1.34-2.547-3.382-2.547-1.8 0-3.117.834-3.117 2.261 0 1.274.79 1.91 2.525 2.24l2.524.46c2.854.527 4.193 2.086 4.193 4.457zm12.226 2.568h.417v1.8h-1.361c-.922 0-1.757-.35-1.932-1.427-.637.988-2.02 1.647-3.776 1.647-2.48 0-4.061-1.295-4.061-3.447 0-1.91 1.207-3.314 4.28-3.314h3.271v-.571c0-1.647-.987-2.415-2.458-2.415-1.493 0-2.459.746-2.525 1.91h-2.217c.066-2.437 2.064-3.842 4.83-3.842 2.634 0 4.785 1.317 4.785 4.369v4.544c0 .615.242.746.747.746zm-3.162-2.634v-.461h-2.941c-1.625 0-2.13.724-2.13 1.559 0 1.141.9 1.646 2.13 1.646 1.668 0 2.941-.9 2.941-2.744zm7.792-11.876v16.31h-2.393v-16.31h2.393zm13.389 10.449v.9h-8.606c.044 2.108 1.427 3.205 3.183 3.205 1.317 0 2.415-.615 2.876-1.844h2.437c-.593 2.283-2.613 3.82-5.357 3.82-3.358 0-5.575-2.327-5.575-5.861 0-3.513 2.217-5.84 5.553-5.84 3.271 0 5.489 2.24 5.489 5.62zm-5.489-3.71c-1.602 0-2.92.988-3.095 2.942h6.147c-.132-1.954-1.427-2.942-3.052-2.942zm7.045 6.169h2.393c.022 1.163 1.098 1.844 2.568 1.844 1.471 0 2.35-.55 2.35-1.537 0-.856-.44-1.317-1.713-1.515l-2.261-.395c-2.195-.373-3.051-1.515-3.051-3.117 0-2.02 1.997-3.337 4.544-3.337 2.744 0 4.741 1.317 4.763 3.556h-2.37c-.022-1.141-1.01-1.778-2.393-1.778-1.317 0-2.152.55-2.152 1.471 0 .812.571 1.186 1.822 1.405l2.218.395c2.085.373 3.051 1.405 3.051 3.096 0 2.326-2.151 3.534-4.764 3.534-2.963 0-4.96-1.427-5.005-3.622z"/><g transform="translate(308.478)"><path fill="#E1F0FF" d="M0 0h263.609v272.583H0V0z"/><path fill="#263456" d="M0 243.417H263.609V448.695H0z"/><path fill="#FFF" fill-rule="nonzero" d="M33.565 412.406c1.712.527 2.678 1.976 2.678 3.776 0 2.656-1.976 4.324-5.203 4.324h-7.025v-15.63h6.52c3.337 0 5.16 1.603 5.16 4.105 0 1.317-.528 2.766-2.13 3.425zm-.374-3.117c0-1.34-.922-2.261-2.787-2.261h-3.908v4.544h4.105c1.647 0 2.59-.9 2.59-2.283zm-2.414 9.066c1.866 0 2.875-.878 2.875-2.349 0-1.515-1.031-2.415-2.744-2.415h-4.412v4.764h4.28zm17.691.351h.417v1.8h-1.36c-.923 0-1.757-.35-1.932-1.427-.637.988-2.02 1.647-3.776 1.647-2.48 0-4.061-1.295-4.061-3.447 0-1.91 1.207-3.314 4.28-3.314h3.271v-.571c0-1.647-.988-2.415-2.458-2.415-1.493 0-2.46.746-2.525 1.91h-2.217c.066-2.437 2.063-3.842 4.83-3.842 2.634 0 4.785 1.317 4.785 4.369v4.544c0 .615.241.746.746.746zm-3.16-2.634v-.461h-2.942c-1.625 0-2.13.724-2.13 1.559 0 1.141.9 1.646 2.13 1.646 1.668 0 2.941-.9 2.941-2.744zm4.563 1.032h2.393c.022 1.163 1.098 1.844 2.569 1.844 1.47 0 2.348-.55 2.348-1.537 0-.856-.439-1.317-1.712-1.515l-2.26-.395c-2.196-.373-3.052-1.515-3.052-3.117 0-2.02 1.997-3.337 4.544-3.337 2.744 0 4.742 1.317 4.764 3.556h-2.371c-.022-1.141-1.01-1.778-2.393-1.778-1.317 0-2.151.55-2.151 1.471 0 .812.57 1.186 1.822 1.405l2.217.395c2.085.373 3.051 1.405 3.051 3.096 0 2.326-2.151 3.534-4.764 3.534-2.963 0-4.96-1.427-5.005-3.622zm22.565-2.459v.9h-8.605c.044 2.108 1.427 3.205 3.183 3.205 1.317 0 2.415-.615 2.876-1.844h2.437c-.593 2.283-2.613 3.82-5.357 3.82-3.358 0-5.576-2.327-5.576-5.861 0-3.513 2.218-5.84 5.554-5.84 3.271 0 5.488 2.24 5.488 5.62zm-5.488-3.71c-1.602 0-2.92.988-3.095 2.942H70c-.132-1.954-1.427-2.942-3.052-2.942zm10.14-6.74v16.311h-2.392v-16.31h2.392zm2.545 2.964v-2.502h2.656v2.502h-2.656zm.132 13.347v-11.24h2.392v11.24h-2.392zm10.974-11.459c2.832 0 4.5 1.866 4.5 4.742v6.717h-2.415v-6.212c0-2.108-1.075-3.14-2.722-3.14-1.866 0-2.876 1.318-2.876 3.315v6.037h-2.392v-11.24h2.173l.175 1.515c.637-1.075 1.844-1.734 3.557-1.734zm17.735 5.598v.9H99.87c.044 2.108 1.427 3.205 3.183 3.205 1.317 0 2.415-.615 2.876-1.844h2.437c-.593 2.283-2.613 3.82-5.357 3.82-3.359 0-5.576-2.327-5.576-5.861 0-3.513 2.217-5.84 5.554-5.84 3.271 0 5.488 2.24 5.488 5.62zm-5.488-3.71c-1.602 0-2.92.988-3.095 2.942h6.147c-.132-1.954-1.427-2.942-3.052-2.942zm23.134 5.203c0 2.898-2.612 4.588-5.97 4.588-3.82 0-6.17-1.866-6.17-4.654h2.547c0 1.493 1.23 2.524 3.644 2.524 1.888 0 3.359-.9 3.359-2.414 0-1.361-.834-1.954-2.48-2.261l-2.525-.483c-2.766-.505-4.215-2.02-4.215-4.281 0-2.634 2.239-4.5 5.751-4.5 3.161 0 5.796 1.449 5.796 4.61h-2.48c0-1.69-1.34-2.547-3.382-2.547-1.8 0-3.117.834-3.117 2.261 0 1.274.79 1.91 2.525 2.24l2.524.46c2.854.527 4.193 2.086 4.193 4.457zm12.226 2.568h.417v1.8h-1.361c-.922 0-1.757-.35-1.932-1.427-.637.988-2.02 1.647-3.776 1.647-2.48 0-4.061-1.295-4.061-3.447 0-1.91 1.207-3.314 4.28-3.314h3.271v-.571c0-1.647-.987-2.415-2.458-2.415-1.493 0-2.459.746-2.525 1.91h-2.217c.066-2.437 2.064-3.842 4.83-3.842 2.634 0 4.785 1.317 4.785 4.369v4.544c0 .615.242.746.747.746zm-3.162-2.634v-.461h-2.941c-1.625 0-2.13.724-2.13 1.559 0 1.141.9 1.646 2.13 1.646 1.668 0 2.941-.9 2.941-2.744zm7.792-11.876v16.31h-2.393v-16.31h2.393zm13.389 10.449v.9h-8.606c.044 2.108 1.427 3.205 3.183 3.205 1.317 0 2.415-.615 2.876-1.844h2.437c-.593 2.283-2.613 3.82-5.357 3.82-3.358 0-5.575-2.327-5.575-5.861 0-3.513 2.217-5.84 5.553-5.84 3.271 0 5.489 2.24 5.489 5.62zm-5.489-3.71c-1.602 0-2.92.988-3.095 2.942h6.147c-.132-1.954-1.427-2.942-3.052-2.942zm7.045 6.169h2.393c.022 1.163 1.098 1.844 2.568 1.844 1.471 0 2.35-.55 2.35-1.537 0-.856-.44-1.317-1.713-1.515l-2.261-.395c-2.195-.373-3.051-1.515-3.051-3.117 0-2.02 1.997-3.337 4.544-3.337 2.744 0 4.741 1.317 4.763 3.556h-2.37c-.022-1.141-1.01-1.778-2.393-1.778-1.317 0-2.152.55-2.152 1.471 0 .812.571 1.186 1.822 1.405l2.218.395c2.085.373 3.051 1.405 3.051 3.096 0 2.326-2.151 3.534-4.764 3.534-2.963 0-4.96-1.427-5.005-3.622z"/><path fill="#000A12" fill-rule="nonzero" d="M26.496 197.354v15.63h-2.48v-15.63h2.48zm8.713 4.171c2.832 0 4.5 1.866 4.5 4.742v6.718h-2.414v-6.213c0-2.107-1.076-3.14-2.723-3.14-1.865 0-2.875 1.318-2.875 3.316v6.037h-2.393v-11.24h2.173l.176 1.515c.636-1.076 1.844-1.735 3.556-1.735zm15.014 4.26c-.396-1.406-1.471-2.196-2.788-2.196-1.866 0-3.14 1.361-3.14 3.754 0 2.524 1.318 3.754 3.074 3.754 1.405 0 2.436-.79 2.897-2.283h2.547c-.57 2.722-2.634 4.39-5.4 4.39-3.337 0-5.576-2.327-5.576-5.861 0-3.513 2.239-5.84 5.598-5.84 2.744 0 4.785 1.56 5.378 4.281h-2.59zm9.723-4.04h1.47v2.151h-1.602c-1.866 0-2.59 1.186-2.59 3.096v5.993h-2.415v-11.24h2.195l.285 1.449c.417-.79 1.361-1.449 2.657-1.449zm13.498 5.378v.9H64.84c.044 2.108 1.427 3.205 3.183 3.205 1.317 0 2.415-.614 2.876-1.844h2.436c-.592 2.283-2.612 3.82-5.356 3.82-3.359 0-5.576-2.327-5.576-5.861 0-3.513 2.217-5.84 5.554-5.84 3.271 0 5.488 2.24 5.488 5.62zm-5.488-3.71c-1.602 0-2.92.988-3.095 2.942h6.147c-.132-1.954-1.427-2.942-3.052-2.942zm20.348-1.888c2.37 0 4.215 1.537 4.215 4.457v7.003h-2.437v-6.564c0-1.91-.9-2.722-2.327-2.722-1.36 0-2.415.856-2.48 2.788v6.498h-2.35v-6.41c0-1.954-.877-2.876-2.304-2.876-1.559 0-2.525.966-2.525 2.766v6.52h-2.393v-11.24h2.174l.285 1.273c.593-.988 1.712-1.493 3.03-1.493 1.624 0 2.941.681 3.6 2.042.658-1.427 2.107-2.042 3.512-2.042zm17.45 5.598v.9H97.15c.044 2.108 1.427 3.205 3.183 3.205 1.317 0 2.415-.614 2.876-1.844h2.436c-.592 2.283-2.612 3.82-5.356 3.82-3.359 0-5.576-2.327-5.576-5.861 0-3.513 2.217-5.84 5.554-5.84 3.271 0 5.488 2.24 5.488 5.62zm-5.488-3.71c-1.602 0-2.92.988-3.095 2.942h6.147c-.132-1.954-1.427-2.942-3.052-2.942zm13.653-1.888c2.831 0 4.5 1.866 4.5 4.742v6.718h-2.415v-6.213c0-2.107-1.076-3.14-2.722-3.14-1.866 0-2.876 1.318-2.876 3.316v6.037h-2.393v-11.24h2.174l.175 1.515c.637-1.076 1.844-1.735 3.557-1.735zm10.71 11.46c-1.953 0-3.03-1.098-3.03-3.052v-6.059h-1.887v-2.129h.966c.702 0 .922-.351.922-1.054v-1.954h2.393v3.008h2.612v2.13h-2.612v5.597c0 .9.263 1.383 1.317 1.383h1.273v2.13h-1.954zm14.18-1.8h.417v1.8h-1.361c-.922 0-1.757-.352-1.932-1.427-.637.988-2.02 1.646-3.776 1.646-2.48 0-4.061-1.295-4.061-3.446 0-1.91 1.207-3.315 4.28-3.315h3.271v-.571c0-1.646-.987-2.415-2.458-2.415-1.493 0-2.459.747-2.525 1.91h-2.217c.066-2.437 2.064-3.842 4.83-3.842 2.634 0 4.785 1.318 4.785 4.369v4.544c0 .615.242.747.747.747zm-3.162-2.635v-.46h-2.941c-1.625 0-2.13.724-2.13 1.558 0 1.141.9 1.646 2.13 1.646 1.668 0 2.941-.9 2.941-2.744zm7.792-11.876v16.31h-2.393v-16.31h2.393zm18.062 11.942c0 2.898-2.612 4.588-5.97 4.588-3.82 0-6.17-1.866-6.17-4.654h2.547c0 1.493 1.23 2.525 3.644 2.525 1.888 0 3.36-.9 3.36-2.415 0-1.361-.835-1.954-2.482-2.261l-2.524-.483c-2.766-.505-4.215-2.02-4.215-4.28 0-2.635 2.24-4.501 5.752-4.501 3.16 0 5.795 1.449 5.795 4.61h-2.48c0-1.69-1.34-2.547-3.381-2.547-1.8 0-3.118.835-3.118 2.262 0 1.273.79 1.91 2.525 2.239l2.525.46c2.853.528 4.192 2.086 4.192 4.457zm12.226 2.569h.417v1.8h-1.361c-.922 0-1.756-.352-1.932-1.427-.636.988-2.02 1.646-3.776 1.646-2.48 0-4.06-1.295-4.06-3.446 0-1.91 1.207-3.315 4.28-3.315h3.27v-.571c0-1.646-.987-2.415-2.458-2.415-1.493 0-2.459.747-2.524 1.91h-2.218c.066-2.437 2.064-3.842 4.83-3.842 2.634 0 4.786 1.318 4.786 4.369v4.544c0 .615.241.747.746.747zm-3.161-2.635v-.46h-2.942c-1.624 0-2.13.724-2.13 1.558 0 1.141.9 1.646 2.13 1.646 1.669 0 2.942-.9 2.942-2.744zm7.79-11.876v16.31h-2.392v-16.31h2.393zm13.39 10.45v.9h-8.605c.043 2.107 1.426 3.204 3.183 3.204 1.317 0 2.414-.614 2.875-1.844h2.437c-.593 2.283-2.612 3.82-5.356 3.82-3.359 0-5.576-2.327-5.576-5.861 0-3.513 2.217-5.84 5.554-5.84 3.27 0 5.488 2.24 5.488 5.62zm-5.488-3.71c-1.603 0-2.92.987-3.095 2.941h6.146c-.132-1.954-1.427-2.942-3.051-2.942zm7.045 6.168h2.392c.022 1.163 1.098 1.844 2.569 1.844 1.47 0 2.349-.549 2.349-1.537 0-.856-.44-1.317-1.713-1.514l-2.26-.396c-2.196-.373-3.052-1.514-3.052-3.117 0-2.02 1.998-3.337 4.544-3.337 2.744 0 4.742 1.318 4.764 3.557h-2.371c-.022-1.142-1.01-1.778-2.393-1.778-1.317 0-2.151.548-2.151 1.47 0 .813.57 1.186 1.822 1.405l2.217.395c2.085.374 3.051 1.405 3.051 3.096 0 2.327-2.15 3.534-4.763 3.534-2.964 0-4.962-1.427-5.005-3.622z"/></g></g><path fill="#263456" d="M0 448H572V455H0z"/><path fill="#263456" fill-rule="nonzero" stroke="#FFF" stroke-linejoin="round" stroke-width="3" d="M583.833 60.708H429.51c-36.574 0-68.697 14.597-98.885 44.357l-.901.894c-22.897 22.829-42.708 51.188-71.113 101.052-.196.343-10.947 19.433-15.608 27.686l-.127.224c-6.788 12.018-11.674 20.614-14.13 24.833-19.02 32.677-33.286 53-48.137 68.174-18.967 19.381-38.184 28.92-59.084 28.92H-1.049v-7h122.573c18.88 0 36.393-8.741 54.082-26.816 14.379-14.693 28.367-34.632 47.09-66.8 2.44-4.194 7.322-12.781 14.106-24.793l.126-.223c4.637-8.21 15.39-27.303 15.6-27.67 28.725-50.425 48.833-79.194 72.252-102.544 31.737-31.643 65.861-47.293 104.729-47.293l154.324-.001V46.64c0-1.514 1.153-2.775 2.723-2.923l.138-.007.071-.001c.455 0 .904.106 1.311.31l21.137 10.567a2.932 2.932 0 0 1 0 5.245l-21.137 10.568a2.932 2.932 0 0 1-4.242-2.622v-7.069z"/><g transform="translate(.017)"><circle cx="34.213" cy="34.213" r="34.213" fill="#E1F0FF"/><path fill="#889CF4" fill-rule="nonzero" d="M16.49 48.235L28.604 35.769 36.681 44.059 53.843 24.246 50.997 21.313 36.681 37.841 28.604 29.551 13.461 45.126z"/><path fill="#0F0626" fill-rule="nonzero" d="M5.823 86.522v19.965H1.858V86.522h3.965zM17.19 91.79c3.688 0 5.795 2.44 5.795 6.128v8.569h-3.91v-7.765c0-2.384-1.137-3.604-3.022-3.604-2.052 0-3.161 1.414-3.161 3.743v7.626H9.01v-14.42h3.604l.222 1.72c.749-1.193 2.19-1.997 4.354-1.997zm18.354 5.879c-.36-1.664-1.497-2.551-2.94-2.551-2.024 0-3.327 1.608-3.327 4.16 0 2.8 1.387 4.13 3.217 4.13 1.553 0 2.579-.887 3.05-2.578h4.132c-.694 3.743-3.439 5.962-7.071 5.962-4.354 0-7.293-2.995-7.293-7.515 0-4.492 2.94-7.487 7.32-7.487 3.66 0 6.406 2.108 7.044 5.879h-4.132zm13.446-5.602h1.97v3.467h-2.192c-2.301 0-3.022 1.358-3.022 3.549v7.404h-3.91v-14.42h3.633l.416 1.664c.471-.887 1.497-1.664 3.105-1.664zm17.3 6.988v1.276H55.866c.055 2.135 1.552 3.327 3.41 3.327 1.415 0 2.551-.637 2.995-1.885h3.91c-.638 2.994-3.383 5.019-7.016 5.019-4.325 0-7.21-2.995-7.21-7.515 0-4.492 2.885-7.487 7.183-7.487s7.154 2.856 7.154 7.265zm-7.153-4.242c-1.664 0-3.078.97-3.245 2.967h6.517c-.167-1.997-1.58-2.967-3.272-2.967zm26.34-3.023c2.884 0 5.574 1.83 5.574 5.823v8.901h-3.91V98.39c0-2.163-1.026-3.134-2.607-3.134-1.525 0-2.69.999-2.745 3.245v7.986h-3.743v-7.903c0-2.357-1.054-3.328-2.607-3.328-1.636 0-2.745 1.026-2.745 3.161v8.07h-3.882v-14.42h3.605l.416 1.581c.693-1.192 2.024-1.858 3.77-1.858 1.942 0 3.606.777 4.493 2.468.86-1.691 2.579-2.468 4.381-2.468zm22.32 7.265v1.276H97.37c.056 2.135 1.553 3.327 3.411 3.327 1.414 0 2.551-.637 2.995-1.885h3.91c-.638 2.994-3.383 5.019-7.016 5.019-4.325 0-7.21-2.995-7.21-7.515 0-4.492 2.885-7.487 7.183-7.487s7.154 2.856 7.154 7.265zm-7.154-4.242c-1.664 0-3.078.97-3.245 2.967h6.517c-.167-1.997-1.58-2.967-3.272-2.967zm17.855-3.023c3.688 0 5.795 2.44 5.795 6.128v8.569h-3.91v-7.765c0-2.384-1.137-3.604-3.022-3.604-2.052 0-3.161 1.414-3.161 3.743v7.626h-3.882v-14.42h3.604l.222 1.72c.749-1.193 2.19-1.997 4.354-1.997zm13.668 14.697c-2.856 0-4.243-1.664-4.243-4.27v-6.711h-2.218v-3.439h1.081c.888 0 1.137-.443 1.137-1.414V88.13h3.882v3.937h3.3v3.439h-3.3v5.85c0 1.249.333 1.72 1.609 1.72h1.691v3.41h-2.94zm18.604-2.829h.582v2.829h-2.107c-1.276 0-2.33-.444-2.635-1.692-.804 1.22-2.468 1.969-4.603 1.969-3.189 0-5.24-1.664-5.24-4.437 0-2.579 1.719-4.325 5.407-4.325h3.854v-.638c0-1.609-1.026-2.496-2.634-2.496-1.609 0-2.69.86-2.745 2.135h-3.522c0-3.244 2.662-5.213 6.433-5.213 3.134 0 6.378 1.414 6.378 5.657v5.38c0 .72.36.831.832.831zm-4.742-2.606v-.527h-3.161c-1.664 0-2.108.776-2.108 1.553 0 1.192.971 1.636 2.247 1.636 1.913 0 3.022-.943 3.022-2.662zm11.2-15.39v20.825h-3.882V85.662h3.882zm12.113 17.192h9.095v3.633h-13.06V86.522h3.965v16.332zm11.31-13.005v-3.743h3.939v3.743h-3.938zm.056 16.638v-14.42h3.883v14.42h-3.883zm5.738-14.42h2.218V90.21c0-2.801 1.276-4.576 4.908-4.576h2.302v3.161h-1.442c-1.58 0-1.858.777-1.858 1.803v1.47h3.3v3.382h-3.3v11.037h-3.91V95.45h-2.218v-3.383zm16.995 14.42c-2.856 0-4.242-1.664-4.242-4.27v-6.711h-2.218v-3.439h1.081c.887 0 1.137-.443 1.137-1.414V88.13h3.882v3.937h3.3v3.439h-3.3v5.85c0 1.249.333 1.72 1.608 1.72h1.692v3.41h-2.94zM16.832 135.414c0 3.855-3.439 6.018-7.848 6.018-5.074 0-8.18-2.44-8.18-6.129h4.02c0 1.636 1.36 2.801 4.16 2.801 2.219 0 3.716-.998 3.716-2.579 0-1.386-.832-2.052-2.773-2.412l-3.133-.61c-3.577-.666-5.546-2.579-5.546-5.574 0-3.383 2.8-5.99 7.57-5.99 3.91 0 7.681 1.664 7.681 6.073h-3.91c0-1.996-1.636-2.828-3.827-2.828-2.107 0-3.438.943-3.438 2.385 0 1.303.804 2.024 2.94 2.44l3.16.582c3.689.721 5.408 2.69 5.408 5.823zm10.84-8.928c3.937 0 6.82 2.69 6.82 7.514 0 4.576-2.661 7.487-6.82 7.487-2.108 0-3.883-.86-4.631-2.135v7.376h-3.883v-19.965h3.633l.222 1.969c.72-1.248 2.44-2.246 4.658-2.246zm-.86 11.535c2.135 0 3.688-1.497 3.688-4.02 0-2.496-1.553-4.022-3.688-4.05-2.108 0-3.688 1.554-3.688 4.077 0 2.496 1.58 3.993 3.688 3.993zm23.9-4.27v1.275H40.286c.055 2.135 1.553 3.328 3.41 3.328 1.415 0 2.552-.638 2.995-1.886h3.91c-.638 2.995-3.383 5.02-7.015 5.02-4.326 0-7.21-2.996-7.21-7.516 0-4.492 2.884-7.486 7.182-7.486s7.154 2.856 7.154 7.265zm-7.154-4.243c-1.664 0-3.078.97-3.245 2.967h6.517c-.166-1.996-1.58-2.967-3.272-2.967zm17.855-3.022c3.688 0 5.795 2.44 5.795 6.128v8.568h-3.91v-7.764c0-2.385-1.136-3.605-3.022-3.605-2.052 0-3.161 1.414-3.161 3.744v7.625h-3.882v-14.42h3.605l.222 1.72c.748-1.192 2.19-1.996 4.353-1.996zm19.574-6.129h3.883v20.825h-3.605l-.25-1.969c-.72 1.248-2.44 2.246-4.658 2.246-4.132 0-6.822-2.883-6.822-7.487 0-4.797 2.884-7.486 6.822-7.486 2.163 0 3.882.86 4.63 2.107v-8.236zm-3.743 17.636c2.08 0 3.66-1.497 3.66-4.02 0-2.496-1.58-4.021-3.66-4.021-2.163 0-3.716 1.553-3.716 4.02 0 2.524 1.553 4.021 3.716 4.021zm28.778 3.19l-1.525-4.188h-7.515l-1.553 4.187h-4.048l7.57-19.965h3.882l7.543 19.965h-4.354zm-7.93-7.21h5.324l-2.635-7.293-2.69 7.292zm22.153-7.487c3.688 0 5.795 2.44 5.795 6.128v8.568h-3.91v-7.764c0-2.385-1.137-3.605-3.022-3.605-2.052 0-3.161 1.414-3.161 3.744v7.625h-3.882v-14.42h3.604l.222 1.72c.749-1.192 2.19-1.996 4.354-1.996zm21.959 11.868h.582v2.828h-2.107c-1.276 0-2.33-.444-2.635-1.691-.804 1.22-2.467 1.968-4.603 1.968-3.188 0-5.24-1.663-5.24-4.436 0-2.58 1.719-4.326 5.407-4.326h3.854v-.638c0-1.608-1.026-2.496-2.634-2.496-1.608 0-2.69.86-2.745 2.136h-3.522c0-3.245 2.662-5.213 6.433-5.213 3.134 0 6.378 1.414 6.378 5.656v5.38c0 .72.36.832.832.832zm-4.742-2.607v-.527h-3.161c-1.664 0-2.107.777-2.107 1.553 0 1.192.97 1.636 2.246 1.636 1.913 0 3.022-.943 3.022-2.662zm11.2-15.39v20.825h-3.882v-20.825h3.882zm5.738 6.406l3.771 10.925 3.577-10.925h3.965l-6.017 16.72c-.998 2.801-2.995 3.245-5.185 3.245h-3.522v-3.438h3.522c.942 0 1.442-.444 1.442-1.331 0-.333-.084-.638-.25-1.082l-5.463-14.114h4.16zm11.81 9.9h3.799c.028 1.302 1.248 2.023 2.8 2.023 1.526 0 2.385-.526 2.385-1.497 0-.887-.499-1.386-2.052-1.664l-2.773-.527c-2.883-.526-3.799-2.135-3.799-4.076 0-2.69 2.718-4.436 6.073-4.436 3.66 0 6.322 1.802 6.322 4.686h-3.798c-.028-1.22-1.082-1.914-2.524-1.914-1.414 0-2.218.61-2.218 1.498 0 .832.693 1.192 2.107 1.442l2.718.554c2.717.555 3.91 1.97 3.91 4.077 0 3.105-2.912 4.63-6.295 4.63-3.827 0-6.627-1.885-6.655-4.797zm15.11-12.119v-3.743h3.938v3.743h-3.938zm.055 16.638v-14.42h3.883v14.42h-3.883zm5.987-4.52h3.8c.027 1.303 1.247 2.024 2.8 2.024 1.525 0 2.385-.526 2.385-1.497 0-.887-.5-1.386-2.052-1.664l-2.773-.527c-2.884-.526-3.8-2.135-3.8-4.076 0-2.69 2.718-4.436 6.074-4.436 3.66 0 6.322 1.802 6.322 4.686h-3.799c-.028-1.22-1.081-1.914-2.523-1.914-1.415 0-2.219.61-2.219 1.498 0 .832.694 1.192 2.108 1.442l2.717.554c2.718.555 3.91 1.97 3.91 4.077 0 3.105-2.912 4.63-6.294 4.63-3.827 0-6.628-1.885-6.656-4.797z"/><path fill="#88809D" fill-rule="nonzero" d="M7.233 168.392v12.062H5.026v-12.062H.434v-1.97h11.391v1.97H7.233zm13.972 6.8V176h-7.726c.04 1.892 1.281 2.877 2.858 2.877 1.182 0 2.168-.551 2.582-1.655h2.188c-.533 2.05-2.346 3.43-4.81 3.43-3.015 0-5.006-2.09-5.006-5.263 0-3.153 1.991-5.243 4.987-5.243 2.936 0 4.927 2.01 4.927 5.046zm-4.927-3.33c-1.439 0-2.621.886-2.78 2.64h5.52c-.119-1.754-1.282-2.64-2.74-2.64zm6.325 5.537h2.148c.02 1.045.985 1.656 2.306 1.656 1.32 0 2.109-.493 2.109-1.38 0-.768-.395-1.182-1.538-1.36l-2.03-.354c-1.97-.336-2.74-1.36-2.74-2.8 0-1.812 1.794-2.995 4.08-2.995 2.464 0 4.258 1.183 4.277 3.193h-2.128c-.02-1.025-.907-1.596-2.148-1.596-1.183 0-1.932.492-1.932 1.32 0 .73.513 1.064 1.636 1.261l1.99.355c1.873.335 2.74 1.262 2.74 2.78 0 2.088-1.931 3.172-4.277 3.172-2.66 0-4.454-1.28-4.493-3.252zm13.833 3.055c-1.754 0-2.72-.985-2.72-2.74v-5.439h-1.694v-1.912h.867c.63 0 .828-.315.828-.946v-1.754h2.148v2.7h2.345v1.912h-2.345v5.026c0 .808.236 1.241 1.182 1.241h1.144v1.912h-1.755zm8.353-10.11l3.016 7.824 2.976-7.825h2.326l-4.14 10.111h-2.404l-4.04-10.11h2.266zm8.572 7.055h2.148c.02 1.045.986 1.656 2.306 1.656s2.11-.493 2.11-1.38c0-.768-.395-1.182-1.538-1.36l-2.03-.354c-1.971-.336-2.74-1.36-2.74-2.8 0-1.812 1.794-2.995 4.08-2.995 2.464 0 4.257 1.183 4.277 3.193h-2.129c-.02-1.025-.906-1.596-2.148-1.596-1.182 0-1.931.492-1.931 1.32 0 .73.512 1.064 1.635 1.261l1.991.355c1.872.335 2.74 1.262 2.74 2.78 0 2.088-1.932 3.172-4.277 3.172-2.661 0-4.454-1.28-4.494-3.252zm20.494 1.183c1.872 0 3.291-.848 4-2.68H80.3c-.769 2.837-3.075 4.73-6.465 4.73-4.02 0-6.72-2.858-6.72-7.096 0-4.217 2.64-7.312 6.799-7.312 3.311 0 5.617 1.814 6.386 4.71h-2.444c-.69-1.793-2.11-2.68-3.981-2.68-2.74 0-4.455 2.129-4.455 5.203 0 3.055 1.695 5.125 4.435 5.125zm7.921-3.173c0-3.114 2.129-5.263 5.184-5.263 3.074 0 5.203 2.149 5.203 5.263s-2.129 5.242-5.203 5.242c-3.055 0-5.184-2.128-5.184-5.242zm2.207-.02c0 2.07 1.183 3.41 2.977 3.41 1.813 0 2.995-1.34 2.995-3.41 0-2.09-1.182-3.41-2.995-3.41-1.794 0-2.977 1.32-2.977 3.41zm15.51-5.223c2.542 0 4.04 1.675 4.04 4.257v6.031h-2.168v-5.577c0-1.893-.966-2.819-2.444-2.819-1.675 0-2.582 1.183-2.582 2.976v5.42h-2.148v-10.09h1.951l.158 1.36c.571-.967 1.655-1.558 3.193-1.558zm9.616 10.288c-1.754 0-2.72-.985-2.72-2.74v-5.439h-1.695v-1.912h.867c.63 0 .828-.315.828-.946v-1.754h2.148v2.7h2.346v1.912h-2.346v5.026c0 .808.237 1.241 1.183 1.241h1.143v1.912h-1.754zm8.236-10.09h1.32v1.93h-1.438c-1.675 0-2.326 1.065-2.326 2.78v5.38h-2.168v-10.09h1.971l.257 1.3c.374-.71 1.222-1.3 2.384-1.3zm2.147 5.045c0-3.114 2.128-5.263 5.183-5.263 3.075 0 5.203 2.149 5.203 5.263s-2.128 5.242-5.203 5.242c-3.055 0-5.183-2.128-5.183-5.242zm2.207-.02c0 2.07 1.183 3.41 2.976 3.41 1.814 0 2.996-1.34 2.996-3.41 0-2.09-1.183-3.41-2.996-3.41-1.793 0-2.976 1.32-2.976 3.41zm12.356-9.579v14.644h-2.148V165.81h2.148z"/></g><path fill="#FFF" stroke="#E8EFFB" stroke-width="1.155" d="M350.56 484.048c-12.38 0-22.417 10.037-22.417 22.418 0 12.38 10.037 22.418 22.418 22.418h178.356c12.381 0 22.418-10.037 22.418-22.418 0-12.381-10.037-22.418-22.418-22.418H350.561z"/><path fill="#7E719A" fill-rule="nonzero" d="M354.455 512.635v-11.23h4.695c2.277 0 3.93 1.544 3.93 3.712 0 2.2-1.684 3.728-3.93 3.728h-2.433v3.79h-2.262zm2.262-5.709h2.105c1.217 0 1.903-.686 1.903-1.793 0-1.108-.686-1.763-1.903-1.763h-2.105v3.556zm16.15 5.865c-3.26 0-5.475-2.37-5.475-5.755 0-3.4 2.215-5.787 5.475-5.787s5.459 2.386 5.459 5.787c0 3.384-2.2 5.755-5.46 5.755zm0-2.106c1.95 0 3.073-1.419 3.073-3.65 0-2.245-1.123-3.68-3.073-3.68-1.966 0-3.104 1.435-3.104 3.68 0 2.247 1.138 3.65 3.104 3.65zm18.724-1.294c0 2.168-1.935 3.385-4.415 3.385-2.854 0-4.601-1.373-4.601-3.448h2.262c0 .92.764 1.576 2.34 1.576 1.247 0 2.09-.562 2.09-1.45 0-.78-.468-1.155-1.56-1.358l-1.763-.343c-2.012-.374-3.12-1.45-3.12-3.135 0-1.903 1.576-3.37 4.259-3.37 2.199 0 4.32.937 4.32 3.417h-2.199c0-1.123-.92-1.591-2.152-1.591-1.186 0-1.935.53-1.935 1.341 0 .733.453 1.139 1.654 1.373l1.778.327c2.074.406 3.042 1.513 3.042 3.276zm9.474-6.02v9.264h-2.215v-9.265h-3.494v-1.965h9.203v1.965h-3.494zm6.994 3.649h4.976V509h-4.976v-1.98zm15.198 3.712c1.295 0 2.356-.608 2.808-1.871h2.449c-.562 2.34-2.511 3.915-5.288 3.915-3.244 0-5.412-2.246-5.412-5.662 0-3.37 2.09-5.865 5.521-5.865 2.683 0 4.602 1.482 5.179 3.915h-2.449c-.452-1.248-1.466-1.872-2.776-1.872-1.95 0-3.167 1.498-3.167 3.728 0 2.23 1.186 3.712 3.135 3.712zm16.977 1.903l-.858-2.355h-4.227l-.873 2.355h-2.277l4.258-11.23h2.183l4.243 11.23h-2.449zm-4.46-4.055h2.994l-1.482-4.102-1.513 4.102zm17.366 1.606l3.244-8.781h2.667v11.23h-2.199v-4.149c0-1.154.047-2.511.156-3.525l-2.885 7.674h-2.06l-2.9-7.97c.14 1.17.155 2.651.124 3.821v4.15h-2.183v-11.231h2.792l3.244 8.781zm11.237 2.45v-11.231h4.695c2.277 0 3.93 1.544 3.93 3.712 0 2.2-1.684 3.728-3.93 3.728h-2.434v3.79h-2.261zm2.261-5.71h2.106c1.217 0 1.903-.686 1.903-1.793 0-1.108-.686-1.763-1.903-1.763h-2.106v3.556zm17.242 5.71l-.858-2.356h-4.227l-.873 2.355h-2.277l4.258-11.23h2.184l4.242 11.23h-2.449zm-4.46-4.056h2.994l-1.482-4.102-1.513 4.102zm13.56-7.175v11.23h-2.23v-11.23h2.23zm10.036 4.788h5.553v6.442h-1.872l-.187-1.357c-.765.967-1.966 1.513-3.51 1.513-2.995 0-5.194-2.106-5.194-5.553 0-3.54 2.215-5.99 5.584-5.99 2.683 0 4.633 1.467 5.116 3.775h-2.48c-.436-1.2-1.466-1.73-2.667-1.73-1.95 0-3.229 1.403-3.229 3.743 0 2.324 1.264 3.727 3.167 3.727 1.263 0 2.932-.67 3.041-2.573l.14.015v-.187h-3.462v-1.825zm10.722 6.442v-11.23h2.246l4.726 7.612v-7.612h2.2v11.23h-2.231l-4.726-7.44v7.44h-2.215z"/><path fill="#FFF" stroke="#E8EFFB" stroke-width="1.155" d="M42.083 484.048c-12.381 0-22.418 10.037-22.418 22.418 0 12.38 10.037 22.418 22.418 22.418h178.356c12.381 0 22.418-10.037 22.418-22.418 0-12.381-10.037-22.418-22.418-22.418H42.083z"/><path fill="#7E719A" fill-rule="nonzero" d="M53.077 512.635v-11.23h4.695c2.277 0 3.93 1.544 3.93 3.712 0 2.2-1.684 3.728-3.93 3.728H55.34v3.79h-2.262zm2.262-5.709h2.106c1.216 0 1.903-.686 1.903-1.793 0-1.108-.687-1.763-1.903-1.763h-2.106v3.556zm11.159 5.71v-11.231h5.053c2.215 0 3.869 1.404 3.869 3.665 0 1.747-.89 3.073-2.278 3.494l2.075 4.071h-2.511l-1.872-3.774h-2.121v3.774h-2.215zm2.215-5.663h2.48c1.232 0 1.887-.655 1.887-1.825s-.655-1.778-1.887-1.778h-2.48v3.603zm13.826 3.697h5.615v1.965h-7.846v-11.23h7.659v1.965h-5.428v2.667h4.117v1.919H82.54v2.714zm9.942-3.65h4.975V509h-4.975v-1.98zm15.198 3.712c1.295 0 2.356-.608 2.808-1.871h2.449c-.562 2.34-2.511 3.915-5.288 3.915-3.244 0-5.412-2.246-5.412-5.662 0-3.37 2.09-5.865 5.521-5.865 2.683 0 4.602 1.482 5.179 3.915h-2.45c-.451-1.248-1.465-1.872-2.776-1.872-1.95 0-3.166 1.498-3.166 3.728 0 2.23 1.186 3.712 3.135 3.712zm16.977 1.903l-.858-2.355h-4.227l-.873 2.355h-2.278l4.259-11.23h2.183l4.243 11.23h-2.449zm-4.46-4.055h2.994l-1.482-4.102-1.513 4.102zm17.366 1.606l3.244-8.781h2.667v11.23h-2.199v-4.149c0-1.154.047-2.511.156-3.525l-2.886 7.674h-2.058l-2.902-7.97c.14 1.17.156 2.651.125 3.821v4.15h-2.184v-11.231h2.792l3.245 8.781zm11.237 2.45v-11.231h4.694c2.278 0 3.931 1.544 3.931 3.712 0 2.2-1.684 3.728-3.93 3.728h-2.434v3.79H148.8zm2.261-5.71h2.106c1.217 0 1.903-.686 1.903-1.793 0-1.108-.686-1.763-1.903-1.763h-2.106v3.556zm17.242 5.71l-.858-2.356h-4.227l-.873 2.355h-2.278l4.259-11.23h2.183l4.243 11.23h-2.449zm-4.46-4.056h2.994l-1.482-4.102-1.513 4.102zm13.56-7.175v11.23h-2.23v-11.23h2.23zm10.036 4.788h5.553v6.442h-1.872l-.187-1.357c-.765.967-1.966 1.513-3.51 1.513-2.995 0-5.194-2.106-5.194-5.553 0-3.54 2.215-5.99 5.584-5.99 2.683 0 4.633 1.467 5.116 3.775h-2.48c-.437-1.2-1.466-1.73-2.667-1.73-1.95 0-3.229 1.403-3.229 3.743 0 2.324 1.264 3.727 3.166 3.727 1.264 0 2.933-.67 3.042-2.573l.14.015v-.187h-3.462v-1.825zm10.722 6.442v-11.23h2.246l4.726 7.612v-7.612h2.2v11.23H205.1l-4.726-7.44v7.44h-2.215z"/></g></svg>