<svg xmlns="http://www.w3.org/2000/svg" width="616" height="455" viewBox="0 0 616 455">
  <g fill="none" fill-rule="evenodd" transform="translate(3)">
    <g transform="translate(.017)">
      <rect width="263.609" height="205.278" y="243.417" fill="#17164F"/>
      <path fill="#FFF" fill-rule="nonzero" d="M33.564667,412.405899 C35.276957,412.932758 36.2428641,414.381619 36.2428641,416.181718 C36.2428641,418.837963 34.267145,420.506348 31.040137,420.506348 L24.0153579,420.506348 L24.0153579,404.876214 L30.535231,404.876214 C33.8720011,404.876214 35.6940532,406.478742 35.6940532,408.98132 C35.6940532,410.298466 35.1671948,411.747326 33.564667,412.405899 Z M33.1914757,409.288654 C33.1914757,407.949555 32.2694734,407.027553 30.4035164,407.027553 L26.495983,407.027553 L26.495983,411.571707 L30.6010883,411.571707 C32.247521,411.571707 33.1914757,410.671657 33.1914757,409.288654 Z M30.7767078,418.355009 C32.6426648,418.355009 33.6524768,417.476912 33.6524768,416.006099 C33.6524768,414.491381 32.6207123,413.591331 30.9084224,413.591331 L26.495983,413.591331 L26.495983,418.355009 L30.7767078,418.355009 Z M48.4683746,418.706248 L48.8854709,418.706248 L48.8854709,420.506348 L47.5244199,420.506348 C46.6024177,420.506348 45.7682252,420.155109 45.5926057,419.07944 C44.9559851,420.067299 43.5729817,420.725872 41.8167869,420.725872 C39.3361618,420.725872 37.7555865,419.430679 37.7555865,417.27934 C37.7555865,415.369478 38.9629704,413.964522 42.0363112,413.964522 L45.307224,413.964522 L45.307224,413.393759 C45.307224,411.747326 44.3193645,410.978991 42.8485513,410.978991 C41.3557858,410.978991 40.3898786,411.725374 40.3240213,412.888853 L38.1068254,412.888853 C38.1726827,410.452133 40.1703543,409.047177 42.9363611,409.047177 C45.5706532,409.047177 47.7219919,410.364323 47.7219919,413.415711 L47.7219919,417.959865 C47.7219919,418.574534 47.9634686,418.706248 48.4683746,418.706248 Z M45.307224,416.071956 L45.307224,415.610955 L42.3655978,415.610955 C40.7411176,415.610955 40.2362116,416.335385 40.2362116,417.169578 C40.2362116,418.311104 41.1362614,418.81601 42.3655978,418.81601 C44.0339828,418.81601 45.307224,417.915961 45.307224,416.071956 Z M49.8713348,417.10372 L52.2641502,417.10372 C52.2861027,418.267199 53.361772,418.947725 54.8325851,418.947725 C56.3033982,418.947725 57.1814956,418.398914 57.1814956,417.411055 C57.1814956,416.55491 56.7424469,416.093908 55.4692057,415.896337 L53.2081049,415.501193 C51.0128614,415.128001 50.1567165,413.986475 50.1567165,412.383947 C50.1567165,410.364323 52.1543881,409.047177 54.7008705,409.047177 C57.4449248,409.047177 59.4425964,410.364323 59.4645488,412.603471 L57.0936859,412.603471 C57.0717334,411.461945 56.0838739,410.825324 54.7008705,410.825324 C53.3837244,410.825324 52.5495319,411.374135 52.5495319,412.296137 C52.5495319,413.108377 53.1202952,413.481569 54.371584,413.701093 L56.5887799,414.096237 C58.6742612,414.469428 59.6401683,415.501193 59.6401683,417.19153 C59.6401683,419.518488 57.4888297,420.725872 54.87649,420.725872 C51.9129113,420.725872 49.9152397,419.298964 49.8713348,417.10372 Z M72.4364422,414.645048 L72.4364422,415.545098 L63.8310877,415.545098 C63.8749926,417.652531 65.257996,418.750153 67.0141908,418.750153 C68.3313369,418.750153 69.4289586,418.135485 69.8899597,416.906149 L72.32668,416.906149 C71.7339643,419.189202 69.7143403,420.725872 66.9702859,420.725872 C63.6115634,420.725872 61.3943675,418.398914 61.3943675,414.864572 C61.3943675,411.352183 63.6115634,409.025224 66.9483335,409.025224 C70.2192463,409.025224 72.4364422,411.264373 72.4364422,414.645048 Z M66.9483335,410.935086 C65.3458057,410.935086 64.0286597,411.922946 63.8530402,413.876713 L69.9997219,413.876713 C69.8680073,411.922946 68.5728137,410.935086 66.9483335,410.935086 Z M77.0883627,404.195689 L77.0883627,420.506348 L74.6955473,420.506348 L74.6955473,404.195689 L77.0883627,404.195689 Z M79.6328495,407.159267 L79.6328495,404.65669 L82.2890941,404.65669 L82.2890941,407.159267 L79.6328495,407.159267 Z M79.7645641,420.506348 L79.7645641,409.266701 L82.1573795,409.266701 L82.1573795,420.506348 L79.7645641,420.506348 Z M90.7387859,409.047177 C93.57065,409.047177 95.239035,410.913134 95.239035,413.788903 L95.239035,420.506348 L92.8242672,420.506348 L92.8242672,414.293809 C92.8242672,412.186375 91.7485979,411.154611 90.1021653,411.154611 C88.2362083,411.154611 87.2263963,412.471757 87.2263963,414.469428 L87.2263963,420.506348 L84.833581,420.506348 L84.833581,409.266701 L87.006872,409.266701 L87.1824915,410.781419 C87.8191121,409.70575 89.026496,409.047177 90.7387859,409.047177 Z M108.474358,414.645048 L108.474358,415.545098 L99.8690032,415.545098 C99.912908,417.652531 101.295911,418.750153 103.052106,418.750153 C104.369252,418.750153 105.466874,418.135485 105.927875,416.906149 L108.364595,416.906149 C107.77188,419.189202 105.752256,420.725872 103.008201,420.725872 C99.6494788,420.725872 97.4322829,418.398914 97.4322829,414.864572 C97.4322829,411.352183 99.6494788,409.025224 102.986249,409.025224 C106.257162,409.025224 108.474358,411.264373 108.474358,414.645048 Z M102.986249,410.935086 C101.383721,410.935086 100.066575,411.922946 99.8909556,413.876713 L106.037637,413.876713 C105.905923,411.922946 104.610729,410.935086 102.986249,410.935086 Z M126.120124,416.137813 C126.120124,419.035535 123.507784,420.725872 120.149062,420.725872 C116.329338,420.725872 113.980427,418.859915 113.980427,416.071956 L116.52691,416.071956 C116.52691,417.564722 117.756246,418.596486 120.171014,418.596486 C122.058923,418.596486 123.529737,417.696436 123.529737,416.181718 C123.529737,414.820667 122.695544,414.227951 121.049111,413.920617 L118.524581,413.437664 C115.758575,412.932758 114.309714,411.41804 114.309714,409.156939 C114.309714,406.522647 116.548862,404.65669 120.061252,404.65669 C123.222403,404.65669 125.856695,406.105551 125.856695,409.266701 L123.37607,409.266701 C123.37607,407.576364 122.036971,406.720219 119.995395,406.720219 C118.195295,406.720219 116.878149,407.554411 116.878149,408.98132 C116.878149,410.254561 117.668437,410.891181 119.402679,411.220468 L121.927209,411.681469 C124.781025,412.208327 126.120124,413.76695 126.120124,416.137813 Z M138.345634,418.706248 L138.762731,418.706248 L138.762731,420.506348 L137.40168,420.506348 C136.479678,420.506348 135.645485,420.155109 135.469866,419.07944 C134.833245,420.067299 133.450242,420.725872 131.694047,420.725872 C129.213422,420.725872 127.632846,419.430679 127.632846,417.27934 C127.632846,415.369478 128.84023,413.964522 131.913571,413.964522 L135.184484,413.964522 L135.184484,413.393759 C135.184484,411.747326 134.196624,410.978991 132.725811,410.978991 C131.233046,410.978991 130.267138,411.725374 130.201281,412.888853 L127.984085,412.888853 C128.049943,410.452133 130.047614,409.047177 132.813621,409.047177 C135.447913,409.047177 137.599252,410.364323 137.599252,413.415711 L137.599252,417.959865 C137.599252,418.574534 137.840728,418.706248 138.345634,418.706248 Z M135.184484,416.071956 L135.184484,415.610955 L132.242858,415.610955 C130.618377,415.610955 130.113471,416.335385 130.113471,417.169578 C130.113471,418.311104 131.013521,418.81601 132.242858,418.81601 C133.911243,418.81601 135.184484,417.915961 135.184484,416.071956 Z M142.975603,404.195689 L142.975603,420.506348 L140.582787,420.506348 L140.582787,404.195689 L142.975603,404.195689 Z M156.364592,414.645048 L156.364592,415.545098 L147.759238,415.545098 C147.803143,417.652531 149.186146,418.750153 150.942341,418.750153 C152.259487,418.750153 153.357109,418.135485 153.81811,416.906149 L156.25483,416.906149 C155.662114,419.189202 153.64249,420.725872 150.898436,420.725872 C147.539713,420.725872 145.322517,418.398914 145.322517,414.864572 C145.322517,411.352183 147.539713,409.025224 150.876483,409.025224 C154.147396,409.025224 156.364592,411.264373 156.364592,414.645048 Z M150.876483,410.935086 C149.273956,410.935086 147.95681,411.922946 147.78119,413.876713 L153.927872,413.876713 C153.796157,411.922946 152.500964,410.935086 150.876483,410.935086 Z M157.921219,417.10372 L160.314035,417.10372 C160.335987,418.267199 161.411657,418.947725 162.88247,418.947725 C164.353283,418.947725 165.23138,418.398914 165.23138,417.411055 C165.23138,416.55491 164.792332,416.093908 163.51909,415.896337 L161.25799,415.501193 C159.062746,415.128001 158.206601,413.986475 158.206601,412.383947 C158.206601,410.364323 160.204273,409.047177 162.750755,409.047177 C165.494809,409.047177 167.492481,410.364323 167.514433,412.603471 L165.14357,412.603471 C165.121618,411.461945 164.133758,410.825324 162.750755,410.825324 C161.433609,410.825324 160.599416,411.374135 160.599416,412.296137 C160.599416,413.108377 161.17018,413.481569 162.421469,413.701093 L164.638664,414.096237 C166.724146,414.469428 167.690053,415.501193 167.690053,417.19153 C167.690053,419.518488 165.538714,420.725872 162.926375,420.725872 C159.962796,420.725872 157.965124,419.298964 157.921219,417.10372 Z"/>
      <g transform="translate(308.478)">
        <path fill="#E1F0FF" d="M0,0 L263.608696,0 L263.608696,272.582609 L0,272.582609 L0,0 Z"/>
        <rect width="263.609" height="205.278" y="243.417" fill="#17164F"/>
        <path fill="#FFF" fill-rule="nonzero" d="M33.564667,412.405899 C35.276957,412.932758 36.2428641,414.381619 36.2428641,416.181718 C36.2428641,418.837963 34.267145,420.506348 31.040137,420.506348 L24.0153579,420.506348 L24.0153579,404.876214 L30.535231,404.876214 C33.8720011,404.876214 35.6940532,406.478742 35.6940532,408.98132 C35.6940532,410.298466 35.1671948,411.747326 33.564667,412.405899 Z M33.1914757,409.288654 C33.1914757,407.949555 32.2694734,407.027553 30.4035164,407.027553 L26.495983,407.027553 L26.495983,411.571707 L30.6010883,411.571707 C32.247521,411.571707 33.1914757,410.671657 33.1914757,409.288654 Z M30.7767078,418.355009 C32.6426648,418.355009 33.6524768,417.476912 33.6524768,416.006099 C33.6524768,414.491381 32.6207123,413.591331 30.9084224,413.591331 L26.495983,413.591331 L26.495983,418.355009 L30.7767078,418.355009 Z M48.4683746,418.706248 L48.8854709,418.706248 L48.8854709,420.506348 L47.5244199,420.506348 C46.6024177,420.506348 45.7682252,420.155109 45.5926057,419.07944 C44.9559851,420.067299 43.5729817,420.725872 41.8167869,420.725872 C39.3361618,420.725872 37.7555865,419.430679 37.7555865,417.27934 C37.7555865,415.369478 38.9629704,413.964522 42.0363112,413.964522 L45.307224,413.964522 L45.307224,413.393759 C45.307224,411.747326 44.3193645,410.978991 42.8485513,410.978991 C41.3557858,410.978991 40.3898786,411.725374 40.3240213,412.888853 L38.1068254,412.888853 C38.1726827,410.452133 40.1703543,409.047177 42.9363611,409.047177 C45.5706532,409.047177 47.7219919,410.364323 47.7219919,413.415711 L47.7219919,417.959865 C47.7219919,418.574534 47.9634686,418.706248 48.4683746,418.706248 Z M45.307224,416.071956 L45.307224,415.610955 L42.3655978,415.610955 C40.7411176,415.610955 40.2362116,416.335385 40.2362116,417.169578 C40.2362116,418.311104 41.1362614,418.81601 42.3655978,418.81601 C44.0339828,418.81601 45.307224,417.915961 45.307224,416.071956 Z M49.8713348,417.10372 L52.2641502,417.10372 C52.2861027,418.267199 53.361772,418.947725 54.8325851,418.947725 C56.3033982,418.947725 57.1814956,418.398914 57.1814956,417.411055 C57.1814956,416.55491 56.7424469,416.093908 55.4692057,415.896337 L53.2081049,415.501193 C51.0128614,415.128001 50.1567165,413.986475 50.1567165,412.383947 C50.1567165,410.364323 52.1543881,409.047177 54.7008705,409.047177 C57.4449248,409.047177 59.4425964,410.364323 59.4645488,412.603471 L57.0936859,412.603471 C57.0717334,411.461945 56.0838739,410.825324 54.7008705,410.825324 C53.3837244,410.825324 52.5495319,411.374135 52.5495319,412.296137 C52.5495319,413.108377 53.1202952,413.481569 54.371584,413.701093 L56.5887799,414.096237 C58.6742612,414.469428 59.6401683,415.501193 59.6401683,417.19153 C59.6401683,419.518488 57.4888297,420.725872 54.87649,420.725872 C51.9129113,420.725872 49.9152397,419.298964 49.8713348,417.10372 Z M72.4364422,414.645048 L72.4364422,415.545098 L63.8310877,415.545098 C63.8749926,417.652531 65.257996,418.750153 67.0141908,418.750153 C68.3313369,418.750153 69.4289586,418.135485 69.8899597,416.906149 L72.32668,416.906149 C71.7339643,419.189202 69.7143403,420.725872 66.9702859,420.725872 C63.6115634,420.725872 61.3943675,418.398914 61.3943675,414.864572 C61.3943675,411.352183 63.6115634,409.025224 66.9483335,409.025224 C70.2192463,409.025224 72.4364422,411.264373 72.4364422,414.645048 Z M66.9483335,410.935086 C65.3458057,410.935086 64.0286597,411.922946 63.8530402,413.876713 L69.9997219,413.876713 C69.8680073,411.922946 68.5728137,410.935086 66.9483335,410.935086 Z M77.0883627,404.195689 L77.0883627,420.506348 L74.6955473,420.506348 L74.6955473,404.195689 L77.0883627,404.195689 Z M79.6328495,407.159267 L79.6328495,404.65669 L82.2890941,404.65669 L82.2890941,407.159267 L79.6328495,407.159267 Z M79.7645641,420.506348 L79.7645641,409.266701 L82.1573795,409.266701 L82.1573795,420.506348 L79.7645641,420.506348 Z M90.7387859,409.047177 C93.57065,409.047177 95.239035,410.913134 95.239035,413.788903 L95.239035,420.506348 L92.8242672,420.506348 L92.8242672,414.293809 C92.8242672,412.186375 91.7485979,411.154611 90.1021653,411.154611 C88.2362083,411.154611 87.2263963,412.471757 87.2263963,414.469428 L87.2263963,420.506348 L84.833581,420.506348 L84.833581,409.266701 L87.006872,409.266701 L87.1824915,410.781419 C87.8191121,409.70575 89.026496,409.047177 90.7387859,409.047177 Z M108.474358,414.645048 L108.474358,415.545098 L99.8690032,415.545098 C99.912908,417.652531 101.295911,418.750153 103.052106,418.750153 C104.369252,418.750153 105.466874,418.135485 105.927875,416.906149 L108.364595,416.906149 C107.77188,419.189202 105.752256,420.725872 103.008201,420.725872 C99.6494788,420.725872 97.4322829,418.398914 97.4322829,414.864572 C97.4322829,411.352183 99.6494788,409.025224 102.986249,409.025224 C106.257162,409.025224 108.474358,411.264373 108.474358,414.645048 Z M102.986249,410.935086 C101.383721,410.935086 100.066575,411.922946 99.8909556,413.876713 L106.037637,413.876713 C105.905923,411.922946 104.610729,410.935086 102.986249,410.935086 Z M126.120124,416.137813 C126.120124,419.035535 123.507784,420.725872 120.149062,420.725872 C116.329338,420.725872 113.980427,418.859915 113.980427,416.071956 L116.52691,416.071956 C116.52691,417.564722 117.756246,418.596486 120.171014,418.596486 C122.058923,418.596486 123.529737,417.696436 123.529737,416.181718 C123.529737,414.820667 122.695544,414.227951 121.049111,413.920617 L118.524581,413.437664 C115.758575,412.932758 114.309714,411.41804 114.309714,409.156939 C114.309714,406.522647 116.548862,404.65669 120.061252,404.65669 C123.222403,404.65669 125.856695,406.105551 125.856695,409.266701 L123.37607,409.266701 C123.37607,407.576364 122.036971,406.720219 119.995395,406.720219 C118.195295,406.720219 116.878149,407.554411 116.878149,408.98132 C116.878149,410.254561 117.668437,410.891181 119.402679,411.220468 L121.927209,411.681469 C124.781025,412.208327 126.120124,413.76695 126.120124,416.137813 Z M138.345634,418.706248 L138.762731,418.706248 L138.762731,420.506348 L137.40168,420.506348 C136.479678,420.506348 135.645485,420.155109 135.469866,419.07944 C134.833245,420.067299 133.450242,420.725872 131.694047,420.725872 C129.213422,420.725872 127.632846,419.430679 127.632846,417.27934 C127.632846,415.369478 128.84023,413.964522 131.913571,413.964522 L135.184484,413.964522 L135.184484,413.393759 C135.184484,411.747326 134.196624,410.978991 132.725811,410.978991 C131.233046,410.978991 130.267138,411.725374 130.201281,412.888853 L127.984085,412.888853 C128.049943,410.452133 130.047614,409.047177 132.813621,409.047177 C135.447913,409.047177 137.599252,410.364323 137.599252,413.415711 L137.599252,417.959865 C137.599252,418.574534 137.840728,418.706248 138.345634,418.706248 Z M135.184484,416.071956 L135.184484,415.610955 L132.242858,415.610955 C130.618377,415.610955 130.113471,416.335385 130.113471,417.169578 C130.113471,418.311104 131.013521,418.81601 132.242858,418.81601 C133.911243,418.81601 135.184484,417.915961 135.184484,416.071956 Z M142.975603,404.195689 L142.975603,420.506348 L140.582787,420.506348 L140.582787,404.195689 L142.975603,404.195689 Z M156.364592,414.645048 L156.364592,415.545098 L147.759238,415.545098 C147.803143,417.652531 149.186146,418.750153 150.942341,418.750153 C152.259487,418.750153 153.357109,418.135485 153.81811,416.906149 L156.25483,416.906149 C155.662114,419.189202 153.64249,420.725872 150.898436,420.725872 C147.539713,420.725872 145.322517,418.398914 145.322517,414.864572 C145.322517,411.352183 147.539713,409.025224 150.876483,409.025224 C154.147396,409.025224 156.364592,411.264373 156.364592,414.645048 Z M150.876483,410.935086 C149.273956,410.935086 147.95681,411.922946 147.78119,413.876713 L153.927872,413.876713 C153.796157,411.922946 152.500964,410.935086 150.876483,410.935086 Z M157.921219,417.10372 L160.314035,417.10372 C160.335987,418.267199 161.411657,418.947725 162.88247,418.947725 C164.353283,418.947725 165.23138,418.398914 165.23138,417.411055 C165.23138,416.55491 164.792332,416.093908 163.51909,415.896337 L161.25799,415.501193 C159.062746,415.128001 158.206601,413.986475 158.206601,412.383947 C158.206601,410.364323 160.204273,409.047177 162.750755,409.047177 C165.494809,409.047177 167.492481,410.364323 167.514433,412.603471 L165.14357,412.603471 C165.121618,411.461945 164.133758,410.825324 162.750755,410.825324 C161.433609,410.825324 160.599416,411.374135 160.599416,412.296137 C160.599416,413.108377 161.17018,413.481569 162.421469,413.701093 L164.638664,414.096237 C166.724146,414.469428 167.690053,415.501193 167.690053,417.19153 C167.690053,419.518488 165.538714,420.725872 162.926375,420.725872 C159.962796,420.725872 157.965124,419.298964 157.921219,417.10372 Z"/>
        <path fill="#000A12" fill-rule="nonzero" d="M26.495983,197.354475 L26.495983,212.984609 L24.0153579,212.984609 L24.0153579,197.354475 L26.495983,197.354475 Z M35.209104,201.525438 C38.0409681,201.525438 39.7093532,203.391395 39.7093532,206.267164 L39.7093532,212.984609 L37.2945853,212.984609 L37.2945853,206.77207 C37.2945853,204.664636 36.218916,203.632871 34.5724834,203.632871 C32.7065265,203.632871 31.6967145,204.950018 31.6967145,206.947689 L31.6967145,212.984609 L29.3038991,212.984609 L29.3038991,201.744962 L31.4771901,201.744962 L31.6528096,203.25968 C32.2894302,202.184011 33.4968141,201.525438 35.209104,201.525438 Z M50.2225738,205.78421 C49.82743,204.379254 48.7517607,203.588967 47.4346146,203.588967 C45.5686576,203.588967 44.2954164,204.950018 44.2954164,207.342833 C44.2954164,209.867363 45.6125625,211.096699 47.3687573,211.096699 C48.7737131,211.096699 49.8054775,210.306412 50.2664787,208.813646 L52.8129611,208.813646 C52.2421978,211.535748 50.1786689,213.204133 47.4126621,213.204133 C44.0758921,213.204133 41.8367437,210.877175 41.8367437,207.342833 C41.8367437,203.830443 44.0758921,201.503485 47.4346146,201.503485 C50.1786689,201.503485 52.2202454,203.062108 52.8129611,205.78421 L50.2225738,205.78421 Z M59.9455068,201.744962 L61.4163199,201.744962 L61.4163199,203.896301 L59.8137922,203.896301 C57.9478352,203.896301 57.2234049,205.081732 57.2234049,206.991594 L57.2234049,212.984609 L54.808637,212.984609 L54.808637,201.744962 L57.0038805,201.744962 L57.2892622,203.193823 C57.7063584,202.403535 58.6503131,201.744962 59.9455068,201.744962 Z M73.4442586,207.123309 L73.4442586,208.023358 L64.8389041,208.023358 C64.882809,210.130792 66.2658124,211.228414 68.0220072,211.228414 C69.3391532,211.228414 70.436775,210.613746 70.8977761,209.384409 L73.3344964,209.384409 C72.7417806,211.667463 70.7221566,213.204133 67.9781023,213.204133 C64.6193798,213.204133 62.4021839,210.877175 62.4021839,207.342833 C62.4021839,203.830443 64.6193798,201.503485 67.9561499,201.503485 C71.2270626,201.503485 73.4442586,203.742634 73.4442586,207.123309 Z M67.9561499,203.413347 C66.3536221,203.413347 65.036476,204.401207 64.8608566,206.354973 L71.0075383,206.354973 C70.8758237,204.401207 69.58063,203.413347 67.9561499,203.413347 Z M88.3040613,201.525438 C90.6749242,201.525438 92.5189288,203.062108 92.5189288,205.981782 L92.5189288,212.984609 L90.0822085,212.984609 L90.0822085,206.420831 C90.0822085,204.510969 89.1821587,203.698729 87.7552504,203.698729 C86.3941994,203.698729 85.3404826,204.554874 85.2746253,206.486688 L85.2746253,212.984609 L82.9257148,212.984609 L82.9257148,206.574498 C82.9257148,204.620731 82.0476174,203.698729 80.6207091,203.698729 C79.0620862,203.698729 78.0961791,204.664636 78.0961791,206.464736 L78.0961791,212.984609 L75.7033637,212.984609 L75.7033637,201.744962 L77.8766548,201.744962 L78.1620364,203.018203 C78.7547521,202.030344 79.8743263,201.525438 81.1914724,201.525438 C82.8159526,201.525438 84.1330987,202.205963 84.7916717,203.567014 C85.4502448,202.140106 86.8991054,201.525438 88.3040613,201.525438 Z M105.754251,207.123309 L105.754251,208.023358 L97.1488969,208.023358 C97.1928017,210.130792 98.5758051,211.228414 100.332,211.228414 C101.649146,211.228414 102.746768,210.613746 103.207769,209.384409 L105.644489,209.384409 C105.051773,211.667463 103.032149,213.204133 100.288095,213.204133 C96.9293725,213.204133 94.7121766,210.877175 94.7121766,207.342833 C94.7121766,203.830443 96.9293725,201.503485 100.266143,201.503485 C103.537055,201.503485 105.754251,203.742634 105.754251,207.123309 Z M100.266143,203.413347 C98.6636149,203.413347 97.3464688,204.401207 97.1708493,206.354973 L103.317531,206.354973 C103.185816,204.401207 101.890623,203.413347 100.266143,203.413347 Z M113.918561,201.525438 C116.750426,201.525438 118.418811,203.391395 118.418811,206.267164 L118.418811,212.984609 L116.004043,212.984609 L116.004043,206.77207 C116.004043,204.664636 114.928373,203.632871 113.281941,203.632871 C111.415984,203.632871 110.406172,204.950018 110.406172,206.947689 L110.406172,212.984609 L108.013356,212.984609 L108.013356,201.744962 L110.186648,201.744962 L110.362267,203.25968 C110.998888,202.184011 112.206272,201.525438 113.918561,201.525438 Z M124.629354,212.984609 C122.675587,212.984609 121.599918,211.886987 121.599918,209.93322 L121.599918,203.874348 L119.712009,203.874348 L119.712009,201.744962 L120.677916,201.744962 C121.380394,201.744962 121.599918,201.393723 121.599918,200.691245 L121.599918,198.737479 L123.992733,198.737479 L123.992733,201.744962 L126.605073,201.744962 L126.605073,203.874348 L123.992733,203.874348 L123.992733,209.472219 C123.992733,210.372269 124.256163,210.855223 125.309879,210.855223 L126.583121,210.855223 L126.583121,212.984609 L124.629354,212.984609 Z M138.808631,211.184509 L139.225727,211.184509 L139.225727,212.984609 L137.864677,212.984609 C136.942674,212.984609 136.108482,212.63337 135.932862,211.5577 C135.296242,212.54556 133.913238,213.204133 132.157043,213.204133 C129.676418,213.204133 128.095843,211.908939 128.095843,209.757601 C128.095843,207.847739 129.303227,206.442783 132.376568,206.442783 L135.647481,206.442783 L135.647481,205.87202 C135.647481,204.225587 134.659621,203.457252 133.188808,203.457252 C131.696042,203.457252 130.730135,204.203635 130.664278,205.367114 L128.447082,205.367114 C128.512939,202.930394 130.510611,201.525438 133.276618,201.525438 C135.91091,201.525438 138.062248,202.842584 138.062248,205.893972 L138.062248,210.438126 C138.062248,211.052794 138.303725,211.184509 138.808631,211.184509 Z M135.647481,208.550217 L135.647481,208.089216 L132.705854,208.089216 C131.081374,208.089216 130.576468,208.813646 130.576468,209.647839 C130.576468,210.789365 131.476518,211.294271 132.705854,211.294271 C134.374239,211.294271 135.647481,210.394221 135.647481,208.550217 Z M143.438599,196.67395 L143.438599,212.984609 L141.045784,212.984609 L141.045784,196.67395 L143.438599,196.67395 Z M161.501462,208.616074 C161.501462,211.513796 158.889122,213.204133 155.5304,213.204133 C151.710676,213.204133 149.361765,211.338176 149.361765,208.550217 L151.908248,208.550217 C151.908248,210.042982 153.137584,211.074747 155.552352,211.074747 C157.440261,211.074747 158.911075,210.174697 158.911075,208.659979 C158.911075,207.298928 158.076882,206.706212 156.430449,206.398878 L153.905919,205.915925 C151.139913,205.411019 149.691052,203.896301 149.691052,201.6352 C149.691052,199.000908 151.9302,197.134951 155.44259,197.134951 C158.603741,197.134951 161.238033,198.583811 161.238033,201.744962 L158.757408,201.744962 C158.757408,200.054625 157.418309,199.19848 155.376733,199.19848 C153.576633,199.19848 152.259487,200.032672 152.259487,201.45958 C152.259487,202.732822 153.049775,203.369442 154.784017,203.698729 L157.308547,204.15973 C160.162363,204.686588 161.501462,206.245211 161.501462,208.616074 Z M173.726972,211.184509 L174.144069,211.184509 L174.144069,212.984609 L172.783018,212.984609 C171.861016,212.984609 171.026823,212.63337 170.851204,211.5577 C170.214583,212.54556 168.83158,213.204133 167.075385,213.204133 C164.59476,213.204133 163.014184,211.908939 163.014184,209.757601 C163.014184,207.847739 164.221568,206.442783 167.294909,206.442783 L170.565822,206.442783 L170.565822,205.87202 C170.565822,204.225587 169.577962,203.457252 168.107149,203.457252 C166.614384,203.457252 165.648476,204.203635 165.582619,205.367114 L163.365423,205.367114 C163.431281,202.930394 165.428952,201.525438 168.194959,201.525438 C170.829251,201.525438 172.98059,202.842584 172.98059,205.893972 L172.98059,210.438126 C172.98059,211.052794 173.222066,211.184509 173.726972,211.184509 Z M170.565822,208.550217 L170.565822,208.089216 L167.624196,208.089216 C165.999715,208.089216 165.494809,208.813646 165.494809,209.647839 C165.494809,210.789365 166.394859,211.294271 167.624196,211.294271 C169.292581,211.294271 170.565822,210.394221 170.565822,208.550217 Z M178.356941,196.67395 L178.356941,212.984609 L175.964125,212.984609 L175.964125,196.67395 L178.356941,196.67395 Z M191.74593,207.123309 L191.74593,208.023358 L183.140576,208.023358 C183.184481,210.130792 184.567484,211.228414 186.323679,211.228414 C187.640825,211.228414 188.738447,210.613746 189.199448,209.384409 L191.636168,209.384409 C191.043452,211.667463 189.023828,213.204133 186.279774,213.204133 C182.921051,213.204133 180.703855,210.877175 180.703855,207.342833 C180.703855,203.830443 182.921051,201.503485 186.257821,201.503485 C189.528734,201.503485 191.74593,203.742634 191.74593,207.123309 Z M186.257821,203.413347 C184.655294,203.413347 183.338148,204.401207 183.162528,206.354973 L189.30921,206.354973 C189.177495,204.401207 187.882302,203.413347 186.257821,203.413347 Z M193.302557,209.581981 L195.695373,209.581981 C195.717325,210.74546 196.792995,211.425986 198.263808,211.425986 C199.734621,211.425986 200.612718,210.877175 200.612718,209.889315 C200.612718,209.03317 200.17367,208.572169 198.900428,208.374597 L196.639328,207.979454 C194.444084,207.606262 193.587939,206.464736 193.587939,204.862208 C193.587939,202.842584 195.585611,201.525438 198.132093,201.525438 C200.876147,201.525438 202.873819,202.842584 202.895771,205.081732 L200.524908,205.081732 C200.502956,203.940206 199.515096,203.303585 198.132093,203.303585 C196.814947,203.303585 195.980754,203.852396 195.980754,204.774398 C195.980754,205.586638 196.551518,205.95983 197.802807,206.179354 L200.020002,206.574498 C202.105484,206.947689 203.071391,207.979454 203.071391,209.669791 C203.071391,211.996749 200.920052,213.204133 198.307713,213.204133 C195.344134,213.204133 193.346462,211.777225 193.302557,209.581981 Z"/>
      </g>
    </g>
    <rect width="572" height="7" y="448" fill="#17164F"/>
    <path fill="#263456" fill-rule="nonzero" stroke="#FFF" stroke-linejoin="round" stroke-width="3" d="M583.833097,60.7080067 L429.50887,60.7086957 C392.935407,60.7086957 360.812264,75.3052918 330.624043,105.065204 L329.722531,105.958976 C306.826102,128.787599 287.015491,157.146757 258.609956,207.010693 C258.414149,207.354418 247.662884,226.444247 243.001776,234.696777 C242.938505,234.808798 242.938505,234.808798 242.875232,234.920818 C236.086577,246.939499 231.200517,255.535086 228.745208,259.753643 C209.725867,292.431484 195.458515,312.753948 180.608485,327.927845 C161.640971,347.309026 142.42394,356.847826 121.524174,356.847826 L-1.04901165,356.847826 L-1.04901165,349.847826 L121.524174,349.847826 C140.403109,349.847826 157.916532,341.106665 175.605636,323.031775 C189.984808,308.339005 203.973037,288.399898 222.695316,256.23245 C225.136347,252.038423 230.017614,243.451032 236.802454,231.438912 C236.865401,231.327467 236.865401,231.327467 236.928347,231.21602 C241.565272,223.006179 252.318644,203.912685 252.527628,203.545829 C281.252964,153.120505 301.360795,124.351873 324.780129,101.001894 C356.516851,69.3591562 390.64138,53.7086957 429.508863,53.7086957 L583.833097,53.7080067 L583.833556,46.640322 C583.833556,45.1260367 584.98594,43.8652588 586.556089,43.7169409 L586.693964,43.7103873 L586.765182,43.7086957 C587.220303,43.7086957 587.669173,43.8146596 588.076246,44.0181957 L609.212679,54.5864125 C610.66084,55.3104927 611.247823,57.0714416 610.523742,58.519602 C610.240067,59.086952 609.780029,59.5469901 609.212679,59.8306651 L588.076246,70.398882 C586.628085,71.1229622 584.867136,70.5359792 584.143056,69.0878189 C583.93952,68.6807466 583.833556,68.2318763 583.833556,67.7768531 L583.833097,60.7080067 Z"/>
    <g transform="translate(.017)">
      <circle cx="34.213" cy="34.213" r="34.213" fill="#E1F0FF"/>
      <polygon fill="#889CF4" fill-rule="nonzero" points="16.49 48.235 28.604 35.769 36.681 44.059 53.843 24.246 50.997 21.313 36.681 37.841 28.604 29.551 13.461 45.126"/>
      <path fill="#0F0626" fill-rule="nonzero" d="M5.82317217,86.5215339 L5.82317217,106.486696 L1.85786922,106.486696 L1.85786922,86.5215339 L5.82317217,86.5215339 Z M17.1897015,91.7901183 C20.8777106,91.7901183 22.9851443,94.2303047 22.9851443,97.9183137 L22.9851443,106.486696 L19.0753002,106.486696 L19.0753002,98.7224661 C19.0753002,96.3377384 17.9383951,95.1176452 16.0527965,95.1176452 C14.0008215,95.1176452 12.8916459,96.5318442 12.8916459,98.861113 L12.8916459,106.486696 L9.00953111,106.486696 L9.00953111,92.0674122 L12.614352,92.0674122 L12.8361871,93.7866344 C13.5848807,92.5942706 15.026809,91.7901183 17.1897015,91.7901183 Z M35.5440375,97.6687492 C35.1835554,96.0049857 34.0466504,95.1176452 32.6047221,95.1176452 C30.5804765,95.1176452 29.2771951,96.7259499 29.2771951,99.2770539 C29.2771951,102.077722 30.6636647,103.408733 32.4938045,103.408733 C34.0466504,103.408733 35.0726379,102.521393 35.5440375,100.8299 L39.6757168,100.8299 C38.9824821,104.573368 36.2372723,106.791719 32.6047221,106.791719 C28.2512076,106.791719 25.3118921,103.796945 25.3118921,99.2770539 C25.3118921,94.7848925 28.2512076,91.7901183 32.6324514,91.7901183 C36.2927311,91.7901183 39.0379408,93.897552 39.6757168,97.6687492 L35.5440375,97.6687492 Z M48.9902713,92.0674122 L50.959058,92.0674122 L50.959058,95.5335861 L48.7684361,95.5335861 C46.4668966,95.5335861 45.7459325,96.8923263 45.7459325,99.0829482 L45.7459325,106.486696 L41.8360883,106.486696 L41.8360883,92.0674122 L45.4686386,92.0674122 L45.8845794,93.7311757 C46.3559791,92.8438351 47.3819666,92.0674122 48.9902713,92.0674122 Z M66.2908904,99.0552188 L66.2908904,100.330771 L55.8646392,100.330771 C55.920098,102.465934 57.4174851,103.658298 59.2753544,103.658298 C60.6895533,103.658298 61.8264584,103.020522 62.2701286,101.772699 L66.1799728,101.772699 C65.5421968,104.767473 62.7969871,106.791719 59.1644368,106.791719 C54.8386518,106.791719 51.9547951,103.796945 51.9547951,99.2770539 C51.9547951,94.7848925 54.8386518,91.7901183 59.1367074,91.7901183 C63.4347631,91.7901183 66.2908904,94.6462456 66.2908904,99.0552188 Z M59.1367074,94.8126219 C57.4729439,94.8126219 56.058745,95.7831506 55.8923686,97.7796668 L62.4087756,97.7796668 C62.2423992,95.7831506 60.8282003,94.8126219 59.1367074,94.8126219 Z M85.4771081,91.7901183 C88.3609648,91.7901183 91.0507157,93.6202581 91.0507157,97.6132904 L91.0507157,106.514425 L87.1408716,106.514425 L87.1408716,98.3897134 C87.1408716,96.2268209 86.1148841,95.2562922 84.5343088,95.2562922 C83.0091923,95.2562922 81.8445578,96.2545503 81.789099,98.500631 L81.789099,106.486696 L78.0456312,106.486696 L78.0456312,98.5838191 C78.0456312,96.2268209 76.9919143,95.2562922 75.4390684,95.2562922 C73.8030343,95.2562922 72.6938587,96.2822797 72.6938587,98.4174428 L72.6938587,106.486696 L68.8117439,106.486696 L68.8117439,92.0674122 L72.4165648,92.0674122 L72.8325057,93.6479875 C73.5257404,92.4556237 74.8567512,91.7901183 76.6037029,91.7901183 C78.5447603,91.7901183 80.2085237,92.5665412 81.0958643,94.2580341 C81.9554754,92.5665412 83.6746977,91.7901183 85.4771081,91.7901183 Z M107.796747,99.0552188 L107.796747,100.330771 L97.3704959,100.330771 C97.4259547,102.465934 98.9233418,103.658298 100.781211,103.658298 C102.19541,103.658298 103.332315,103.020522 103.775985,101.772699 L107.685829,101.772699 C107.048053,104.767473 104.302844,106.791719 100.670293,106.791719 C96.3445084,106.791719 93.4606517,103.796945 93.4606517,99.2770539 C93.4606517,94.7848925 96.3445084,91.7901183 100.642564,91.7901183 C104.94062,91.7901183 107.796747,94.6462456 107.796747,99.0552188 Z M100.642564,94.8126219 C98.9788006,94.8126219 97.5646016,95.7831506 97.3982253,97.7796668 L103.914632,97.7796668 C103.748256,95.7831506 102.334057,94.8126219 100.642564,94.8126219 Z M118.497771,91.7901183 C122.18578,91.7901183 124.293214,94.2303047 124.293214,97.9183137 L124.293214,106.486696 L120.38337,106.486696 L120.38337,98.7224661 C120.38337,96.3377384 119.246465,95.1176452 117.360866,95.1176452 C115.308891,95.1176452 114.199715,96.5318442 114.199715,98.861113 L114.199715,106.486696 L110.317601,106.486696 L110.317601,92.0674122 L113.922421,92.0674122 L114.144257,93.7866344 C114.89295,92.5942706 116.334878,91.7901183 118.497771,91.7901183 Z M132.16584,106.486696 C129.309713,106.486696 127.923243,104.822932 127.923243,102.216369 L127.923243,95.5058567 L125.704892,95.5058567 L125.704892,92.0674122 L126.786338,92.0674122 C127.673678,92.0674122 127.923243,91.6237419 127.923243,90.6532132 L127.923243,88.1298386 L131.805358,88.1298386 L131.805358,92.0674122 L135.105155,92.0674122 L135.105155,95.5058567 L131.805358,95.5058567 L131.805358,101.356758 C131.805358,102.604581 132.13811,103.075981 133.413662,103.075981 L135.105155,103.075981 L135.105155,106.486696 L132.16584,106.486696 Z M150.76974,103.658298 L151.352058,103.658298 L151.352058,106.486696 L149.244624,106.486696 C147.969072,106.486696 146.915355,106.043025 146.610332,104.795203 C145.806179,106.015296 144.142416,106.76399 142.007253,106.76399 C138.818373,106.76399 136.766398,105.100226 136.766398,102.327287 C136.766398,99.7484536 138.48562,98.0015019 142.173629,98.0015019 L146.028014,98.0015019 L146.028014,97.3637259 C146.028014,95.7554212 145.002027,94.8680807 143.393722,94.8680807 C141.785418,94.8680807 140.703971,95.7276918 140.648513,97.0032438 L137.12688,97.0032438 C137.12688,93.758905 139.788901,91.7901183 143.560099,91.7901183 C146.69352,91.7901183 149.937859,93.2043172 149.937859,97.4469141 L149.937859,102.826416 C149.937859,103.54738 150.298341,103.658298 150.76974,103.658298 Z M146.028014,101.051735 L146.028014,100.524877 L142.866864,100.524877 C141.2031,100.524877 140.75943,101.301299 140.75943,102.077722 C140.75943,103.270086 141.729959,103.713757 143.005511,103.713757 C144.918839,103.713757 146.028014,102.770957 146.028014,101.051735 Z M157.228167,85.6619228 L157.228167,106.486696 L153.346053,106.486696 L153.346053,85.6619228 L157.228167,85.6619228 Z M169.340869,102.854145 L178.43611,102.854145 L178.43611,106.486696 L165.375566,106.486696 L165.375566,86.5215339 L169.340869,86.5215339 L169.340869,102.854145 Z M180.65194,89.8490609 L180.65194,86.105593 L184.589514,86.105593 L184.589514,89.8490609 L180.65194,89.8490609 Z M180.707399,106.486696 L180.707399,92.0674122 L184.589514,92.0674122 L184.589514,106.486696 L180.707399,106.486696 Z M186.444862,92.0674122 L188.663213,92.0674122 L188.663213,90.209543 C188.663213,87.4088744 189.938765,85.6341934 193.571315,85.6341934 L195.872855,85.6341934 L195.872855,88.795344 L194.430926,88.795344 C192.850351,88.795344 192.573057,89.571767 192.573057,90.5977544 L192.573057,92.0674122 L195.872855,92.0674122 L195.872855,95.4503979 L192.573057,95.4503979 L192.573057,106.486696 L188.663213,106.486696 L188.663213,95.4503979 L186.444862,95.4503979 L186.444862,92.0674122 Z M203.440457,106.486696 C200.58433,106.486696 199.197861,104.822932 199.197861,102.216369 L199.197861,95.5058567 L196.979509,95.5058567 L196.979509,92.0674122 L198.060956,92.0674122 C198.948296,92.0674122 199.197861,91.6237419 199.197861,90.6532132 L199.197861,88.1298386 L203.079975,88.1298386 L203.079975,92.0674122 L206.379773,92.0674122 L206.379773,95.5058567 L203.079975,95.5058567 L203.079975,101.356758 C203.079975,102.604581 203.412728,103.075981 204.68828,103.075981 L206.379773,103.075981 L206.379773,106.486696 L203.440457,106.486696 Z M16.8317405,135.414374 C16.8317405,139.268759 13.393296,141.431651 8.98432278,141.431651 C3.90984417,141.431651 0.804152348,138.991465 0.804152348,135.303456 L4.82491409,135.303456 C4.82491409,136.93949 6.18365426,138.104125 8.98432278,138.104125 C11.2026741,138.104125 12.7000612,137.105866 12.7000612,135.525291 C12.7000612,134.138822 11.8681795,133.473316 9.92712209,133.112834 L6.79370087,132.502787 C3.21660939,131.837282 1.24782261,129.923954 1.24782261,126.92918 C1.24782261,123.546194 4.04849113,120.939631 8.81794643,120.939631 C12.7277906,120.939631 16.4989878,122.603395 16.4989878,127.012368 L12.5891437,127.012368 C12.5891437,125.015852 10.9531096,124.18397 8.76248765,124.18397 C6.65505391,124.18397 5.32404313,125.126769 5.32404313,126.568698 C5.32404313,127.871979 6.12819548,128.592943 8.26335861,129.008884 L11.4245092,129.591201 C15.1125183,130.312166 16.8317405,132.280952 16.8317405,135.414374 Z M27.6714115,126.48551 C31.608985,126.48551 34.4928417,129.175261 34.4928417,134.000175 C34.4928417,138.575524 31.8308202,141.48711 27.6714115,141.48711 C25.5639777,141.48711 23.7892967,140.627499 23.0406031,139.351947 L23.0406031,146.727965 L19.1584883,146.727965 L19.1584883,126.762803 L22.7910386,126.762803 L23.0128737,128.73159 C23.7338379,127.483768 25.4530602,126.48551 27.6714115,126.48551 Z M26.8118003,138.020936 C28.9469635,138.020936 30.4998094,136.523549 30.4998094,134.000175 C30.4998094,131.504529 28.9469635,129.979413 26.8118003,129.951683 C24.7043666,129.951683 23.1237913,131.504529 23.1237913,134.027904 C23.1237913,136.523549 24.7043666,138.020936 26.8118003,138.020936 Z M50.7120146,133.75061 L50.7120146,135.026162 L40.2857634,135.026162 C40.3412222,137.161325 41.8386094,138.353689 43.6964786,138.353689 C45.1106775,138.353689 46.2475826,137.715913 46.6912528,136.46809 L50.601097,136.46809 C49.963321,139.462865 47.2181113,141.48711 43.585561,141.48711 C39.259776,141.48711 36.3759193,138.492336 36.3759193,133.972445 C36.3759193,129.480284 39.259776,126.48551 43.5578316,126.48551 C47.8558873,126.48551 50.7120146,129.341637 50.7120146,133.75061 Z M43.5578316,129.508013 C41.8940681,129.508013 40.4798692,130.478542 40.3134928,132.475058 L46.8298998,132.475058 C46.6635234,130.478542 45.2493245,129.508013 43.5578316,129.508013 Z M61.4130386,126.48551 C65.1010476,126.48551 67.2084813,128.925696 67.2084813,132.613705 L67.2084813,141.182087 L63.2986372,141.182087 L63.2986372,133.417857 C63.2986372,131.03313 62.1617321,129.813037 60.2761335,129.813037 C58.2241586,129.813037 57.1149829,131.227235 57.1149829,133.556504 L57.1149829,141.182087 L53.2328681,141.182087 L53.2328681,126.762803 L56.837689,126.762803 L57.0595241,128.482026 C57.8082177,127.289662 59.250146,126.48551 61.4130386,126.48551 Z M80.9874678,120.357314 L84.8695825,120.357314 L84.8695825,141.182087 L81.2647617,141.182087 L81.0151971,139.2133 C80.294233,140.461123 78.5750107,141.459381 76.3566594,141.459381 C72.2249801,141.459381 69.5352291,138.575524 69.5352291,133.972445 C69.5352291,129.175261 72.4190858,126.48551 76.3566594,126.48551 C78.5195519,126.48551 80.2387742,127.345121 80.9874678,128.592943 L80.9874678,120.357314 Z M77.2439999,137.993207 C79.3237043,137.993207 80.9042796,136.49582 80.9042796,133.972445 C80.9042796,131.4768 79.3237043,129.951683 77.2439999,129.951683 C75.0811074,129.951683 73.5282615,131.504529 73.5282615,133.972445 C73.5282615,136.49582 75.0811074,137.993207 77.2439999,137.993207 Z M106.022066,141.182087 L104.496949,136.994949 L96.9822844,136.994949 L95.4294385,141.182087 L91.3809474,141.182087 L98.9510712,121.216925 L102.833186,121.216925 L110.37558,141.182087 L106.022066,141.182087 Z M98.0914601,133.972445 L103.415503,133.972445 L100.781211,126.679615 L98.0914601,133.972445 Z M120.244723,126.48551 C123.932732,126.48551 126.040165,128.925696 126.040165,132.613705 L126.040165,141.182087 L122.130321,141.182087 L122.130321,133.417857 C122.130321,131.03313 120.993416,129.813037 119.107818,129.813037 C117.055843,129.813037 115.946667,131.227235 115.946667,133.556504 L115.946667,141.182087 L112.064552,141.182087 L112.064552,126.762803 L115.669373,126.762803 L115.891208,128.482026 C116.639902,127.289662 118.08183,126.48551 120.244723,126.48551 Z M142.20388,138.353689 L142.786197,138.353689 L142.786197,141.182087 L140.678763,141.182087 C139.403211,141.182087 138.349494,140.738417 138.044471,139.490594 C137.240318,140.710687 135.576555,141.459381 133.441392,141.459381 C130.252512,141.459381 128.200537,139.795617 128.200537,137.022678 C128.200537,134.443845 129.919759,132.696893 133.607768,132.696893 L137.462154,132.696893 L137.462154,132.059117 C137.462154,130.450813 136.436166,129.563472 134.827861,129.563472 C133.219557,129.563472 132.13811,130.423083 132.082652,131.698635 L128.561019,131.698635 C128.561019,128.454296 131.223041,126.48551 134.994238,126.48551 C138.127659,126.48551 141.371998,127.899709 141.371998,132.142305 L141.371998,137.521807 C141.371998,138.242771 141.73248,138.353689 142.20388,138.353689 Z M137.462154,135.747126 L137.462154,135.220268 L134.301003,135.220268 C132.63724,135.220268 132.193569,135.996691 132.193569,136.773114 C132.193569,137.965478 133.164098,138.409148 134.43965,138.409148 C136.352978,138.409148 137.462154,137.466349 137.462154,135.747126 Z M148.662307,120.357314 L148.662307,141.182087 L144.780192,141.182087 L144.780192,120.357314 L148.662307,120.357314 Z M154.39977,126.762803 L158.170967,137.688184 L161.748058,126.762803 L165.713361,126.762803 L159.696083,143.483626 C158.697825,146.284295 156.701309,146.727965 154.510687,146.727965 L150.989054,146.727965 L150.989054,143.289521 L154.510687,143.289521 C155.453486,143.289521 155.952615,142.84585 155.952615,141.95851 C155.952615,141.625757 155.869427,141.320734 155.703051,140.877064 L150.240361,126.762803 L154.39977,126.762803 Z M166.209969,136.662196 L170.008896,136.662196 C170.036625,137.965478 171.256718,138.686442 172.809564,138.686442 C174.334681,138.686442 175.194292,138.159583 175.194292,137.189055 C175.194292,136.301714 174.695163,135.802585 173.142317,135.525291 L170.369378,134.998433 C167.485521,134.471574 166.570451,132.86327 166.570451,130.922212 C166.570451,128.232461 169.287932,126.48551 172.643188,126.48551 C176.303468,126.48551 178.965489,128.28792 178.965489,131.171777 L175.166563,131.171777 C175.138833,129.951683 174.085116,129.258449 172.643188,129.258449 C171.228989,129.258449 170.424837,129.868495 170.424837,130.755836 C170.424837,131.587718 171.118071,131.9482 172.53227,132.197764 L175.249751,132.752352 C177.967231,133.30694 179.159595,134.721139 179.159595,136.828573 C179.159595,139.934264 176.248009,141.459381 172.865023,141.459381 C169.038367,141.459381 166.237699,139.573782 166.209969,136.662196 Z M181.319966,124.544452 L181.319966,120.800984 L185.25754,120.800984 L185.25754,124.544452 L181.319966,124.544452 Z M181.375425,141.182087 L181.375425,126.762803 L185.25754,126.762803 L185.25754,141.182087 L181.375425,141.182087 Z M187.362453,136.662196 L191.161379,136.662196 C191.189109,137.965478 192.409202,138.686442 193.962048,138.686442 C195.487164,138.686442 196.346775,138.159583 196.346775,137.189055 C196.346775,136.301714 195.847646,135.802585 194.2948,135.525291 L191.521861,134.998433 C188.638005,134.471574 187.722935,132.86327 187.722935,130.922212 C187.722935,128.232461 190.440415,126.48551 193.795671,126.48551 C197.455951,126.48551 200.117973,128.28792 200.117973,131.171777 L196.319046,131.171777 C196.291317,129.951683 195.2376,129.258449 193.795671,129.258449 C192.381472,129.258449 191.57732,129.868495 191.57732,130.755836 C191.57732,131.587718 192.270555,131.9482 193.684754,132.197764 L196.402234,132.752352 C199.119715,133.30694 200.312078,134.721139 200.312078,136.828573 C200.312078,139.934264 197.400492,141.459381 194.017507,141.459381 C190.190851,141.459381 187.390182,139.573782 187.362453,136.662196 Z"/>
      <path fill="#88809D" fill-rule="nonzero" d="M7.23318704,168.392293 L7.23318704,180.454174 L5.02578391,180.454174 L5.02578391,168.392293 L0.433597043,168.392293 L0.433597043,166.421397 L11.8253739,166.421397 L11.8253739,168.392293 L7.23318704,168.392293 Z M21.2050455,175.191883 L21.2050455,175.99995 L13.4791346,175.99995 C13.5185525,177.89201 14.7602168,178.877457 16.3369333,178.877457 C17.5194707,178.877457 18.5049185,178.325607 18.9188066,177.221905 L21.1065008,177.221905 C20.5743589,179.271637 18.7611349,180.651263 16.2975154,180.651263 C13.282045,180.651263 11.2914404,178.562114 11.2914404,175.388972 C11.2914404,172.235539 13.282045,170.14639 16.2778064,170.14639 C19.2144409,170.14639 21.2050455,172.156703 21.2050455,175.191883 Z M16.2778064,171.861069 C14.8390526,171.861069 13.6565152,172.747972 13.4988435,174.502069 L19.0173514,174.502069 C18.8990976,172.747972 17.7362692,171.861069 16.2778064,171.861069 Z M22.6025898,177.399286 L24.750866,177.399286 C24.770575,178.44386 25.7363139,179.054838 27.056814,179.054838 C28.377314,179.054838 29.1656723,178.562114 29.1656723,177.675211 C29.1656723,176.906562 28.7714932,176.492674 27.6283737,176.315293 L25.5983512,175.960532 C23.6274555,175.62548 22.8588062,174.600614 22.8588062,173.16186 C22.8588062,171.348636 24.6523213,170.166099 26.9385602,170.166099 C29.4021798,170.166099 31.1956948,171.348636 31.2154038,173.35895 L29.0868365,173.35895 C29.0671275,172.334084 28.1802245,171.762524 26.9385602,171.762524 C25.7560228,171.762524 25.0070825,172.255248 25.0070825,173.083024 C25.0070825,173.812256 25.5195153,174.147308 26.6429259,174.344397 L28.6335305,174.699159 C30.5058813,175.034211 31.3730754,175.960532 31.3730754,177.478121 C31.3730754,179.567271 29.4415977,180.651263 27.0962319,180.651263 C24.4355227,180.651263 22.6420077,179.370181 22.6025898,177.399286 Z M36.4364856,180.454174 C34.6823884,180.454174 33.7166496,179.468726 33.7166496,177.714629 L33.7166496,172.274957 L32.0216793,172.274957 L32.0216793,170.363188 L32.8888734,170.363188 C33.51956,170.363188 33.7166496,170.047845 33.7166496,169.417158 L33.7166496,167.663061 L35.8649258,167.663061 L35.8649258,170.363188 L38.2102917,170.363188 L38.2102917,172.274957 L35.8649258,172.274957 L35.8649258,177.300741 C35.8649258,178.108808 36.1014333,178.542405 37.0474632,178.542405 L38.1905827,178.542405 L38.1905827,180.454174 L36.4364856,180.454174 Z M44.7894998,170.343479 L47.8049701,178.167935 L50.7810226,170.343479 L53.1066794,170.343479 L48.9677986,180.454174 L46.5633059,180.454174 L42.5229698,170.343479 L44.7894998,170.343479 Z M53.3611042,177.399286 L55.5093805,177.399286 C55.5290894,178.44386 56.4948283,179.054838 57.8153284,179.054838 C59.1358285,179.054838 59.9241867,178.562114 59.9241867,177.675211 C59.9241867,176.906562 59.5300076,176.492674 58.3868881,176.315293 L56.3568656,175.960532 C54.3859699,175.62548 53.6173206,174.600614 53.6173206,173.16186 C53.6173206,171.348636 55.4108357,170.166099 57.6970746,170.166099 C60.1606942,170.166099 61.9542092,171.348636 61.9739182,173.35895 L59.8453509,173.35895 C59.8256419,172.334084 58.9387389,171.762524 57.6970746,171.762524 C56.5145372,171.762524 55.7655969,172.255248 55.7655969,173.083024 C55.7655969,173.812256 56.2780298,174.147308 57.4014403,174.344397 L59.3920449,174.699159 C61.2643958,175.034211 62.1315899,175.960532 62.1315899,177.478121 C62.1315899,179.567271 60.2001121,180.651263 57.8547463,180.651263 C55.1940372,180.651263 53.4005221,179.370181 53.3611042,177.399286 Z M73.8548356,178.581823 C75.7271865,178.581823 77.1462314,177.734338 77.8557538,175.901405 L80.2996644,175.901405 C79.5310151,178.739495 77.2250672,180.631555 73.8351267,180.631555 C69.8144995,180.631555 67.1143725,177.773756 67.1143725,173.53633 C67.1143725,169.318613 69.7553727,166.224307 73.9139625,166.224307 C77.2250672,166.224307 79.5310151,168.037531 80.2996644,170.934748 L77.8557538,170.934748 C77.1659403,169.141233 75.7468955,168.25433 73.8745446,168.25433 C71.1349996,168.25433 69.4203204,170.382897 69.4203204,173.457494 C69.4203204,176.512383 71.1152907,178.581823 73.8548356,178.581823 Z M81.7760445,175.408681 C81.7760445,172.294666 83.9046118,170.14639 86.9595,170.14639 C90.0340973,170.14639 92.1626646,172.294666 92.1626646,175.408681 C92.1626646,178.522696 90.0340973,180.651263 86.9595,180.651263 C83.9046118,180.651263 81.7760445,178.522696 81.7760445,175.408681 Z M83.9834476,175.388972 C83.9834476,177.458413 85.165985,178.798622 86.9595,178.798622 C88.772724,178.798622 89.9552614,177.458413 89.9552614,175.388972 C89.9552614,173.299823 88.772724,171.979323 86.9595,171.979323 C85.165985,171.979323 83.9834476,173.299823 83.9834476,175.388972 Z M99.4926047,170.166099 C102.03506,170.166099 103.532941,171.84136 103.532941,174.423233 L103.532941,180.454174 L101.364956,180.454174 L101.364956,174.876539 C101.364956,172.984479 100.399217,172.058158 98.921045,172.058158 C97.2457837,172.058158 96.3391717,173.240696 96.3391717,175.034211 L96.3391717,180.454174 L94.1908954,180.454174 L94.1908954,170.363188 L96.1420821,170.363188 L96.2997538,171.723106 C96.8713135,170.757367 97.9553061,170.166099 99.4926047,170.166099 Z M109.108784,180.454174 C107.354687,180.454174 106.388948,179.468726 106.388948,177.714629 L106.388948,172.274957 L104.693978,172.274957 L104.693978,170.363188 L105.561172,170.363188 C106.191858,170.363188 106.388948,170.047845 106.388948,169.417158 L106.388948,167.663061 L108.537224,167.663061 L108.537224,170.363188 L110.88259,170.363188 L110.88259,172.274957 L108.537224,172.274957 L108.537224,177.300741 C108.537224,178.108808 108.773732,178.542405 109.719761,178.542405 L110.862881,178.542405 L110.862881,180.454174 L109.108784,180.454174 Z M117.345336,170.363188 L118.665836,170.363188 L118.665836,172.294666 L117.227082,172.294666 C115.551821,172.294666 114.901425,173.35895 114.901425,175.073629 L114.901425,180.454174 L112.73344,180.454174 L112.73344,170.363188 L114.704336,170.363188 L114.960552,171.663979 C115.335022,170.954457 116.182508,170.363188 117.345336,170.363188 Z M119.491821,175.408681 C119.491821,172.294666 121.620388,170.14639 124.675276,170.14639 C127.749873,170.14639 129.878441,172.294666 129.878441,175.408681 C129.878441,178.522696 127.749873,180.651263 124.675276,180.651263 C121.620388,180.651263 119.491821,178.522696 119.491821,175.408681 Z M121.699224,175.388972 C121.699224,177.458413 122.881761,178.798622 124.675276,178.798622 C126.4885,178.798622 127.671038,177.458413 127.671038,175.388972 C127.671038,173.299823 126.4885,171.979323 124.675276,171.979323 C122.881761,171.979323 121.699224,173.299823 121.699224,175.388972 Z M134.054948,165.810419 L134.054948,180.454174 L131.906671,180.454174 L131.906671,165.810419 L134.054948,165.810419 Z"/>
    </g>
  </g>
</svg>
