<svg xmlns="http://www.w3.org/2000/svg" xmlns:xlink="http://www.w3.org/1999/xlink" width="573" height="381" viewBox="0 0 573 381">
  <defs>
    <rect id="img-method-control-a" width="534" height="347" x="0" y="0"/>
    <path id="img-method-control-c" d="M0,232.714286 L72.5093857,221.142857 L152.571429,138.381475 L225.959805,157.392318 C227.559961,157.806829 229.950209,157.351518 231.279897,156.388875 L308.127675,100.753982 C309.465725,99.7852846 311.880607,99.1833397 313.522229,99.4096061 L376.483389,108.087604 C378.124669,108.313823 380.412286,107.562192 381.602279,106.39965 L458.755585,31.0261309 C459.941389,29.8676808 462.156035,28.4325484 463.701111,27.8210782 L534,0 L534,324 L-2.48294197e-13,324 L0,232.714286 Z"/>
    <rect id="img-method-control-d" width="23" height="23" x="0" y="0" rx="11.5"/>
  </defs>
  <g fill="none" fill-rule="evenodd">
    <mask id="img-method-control-b" fill="#fff">
      <use xlink:href="#img-method-control-a"/>
    </mask>
    <use fill="#FFF" xlink:href="#img-method-control-a"/>
    <g mask="url(#img-method-control-b)">
      <g transform="translate(0 1)">
        <use fill="#EAB561" xlink:href="#img-method-control-c"/>
        <use fill="#51C7FF" xlink:href="#img-method-control-c"/>
        <use fill="#28BAFF" xlink:href="#img-method-control-c"/>
        <path fill="#AEE5FF" d="M0,257.056537 L74.4891304,257.056537 L152.571429,232.596426 L225.866652,238.993558 C227.518255,239.137708 230.165174,238.941564 231.777644,238.555712 L302.222356,221.698853 C303.835304,221.312887 306.356526,221.566922 307.857906,222.268237 L378.713522,255.365881 C380.213003,256.066309 382.642241,256.067196 384.14362,255.365881 L454.999237,222.268237 C456.498717,221.567809 459.038367,221.201278 460.681363,221.451035 L534,232.596426 L534,324 L0,324 L0,257.056537 Z"/>
        <rect width="75" height="324" x="459" y="1" fill="#FFF" style="mix-blend-mode:soft-light"/>
      </g>
    </g>
    <g transform="translate(0 325)">
      <path fill="#110E35" d="M0,0 L533,0 L533,46.0044683 C533,51.524848 528.532414,56 523.00422,56 L9.99578033,56 C4.47526329,56 0,51.5237216 0,46.0044683 L0,0 Z"/>
      <g transform="translate(19 20)">
        <path fill="#FFF" fill-rule="nonzero" d="M2.864642,11.297 L7.128642,11.297 L7.128642,13 L1.005642,13 L1.005642,3.64 L2.864642,3.64 L2.864642,11.297 Z M16.393928,13 L15.678928,11.037 L12.155928,11.037 L11.427928,13 L9.529928,13 L13.078928,3.64 L14.898928,3.64 L18.434928,13 L16.393928,13 Z M12.675928,9.62 L15.171928,9.62 L13.936928,6.201 L12.675928,9.62 Z M22.578214,3.64 L22.578214,9.516 C22.578214,10.816 23.397214,11.505 24.567214,11.505 C25.737214,11.505 26.556214,10.816 26.556214,9.516 L26.556214,3.64 L28.441214,3.64 L28.441214,9.334 C28.441214,11.661 26.985214,13.13 24.567214,13.13 C22.123214,13.13 20.693214,11.661 20.693214,9.334 L20.693214,3.64 L22.578214,3.64 Z M31.8305,13 L31.8305,3.64 L33.7025,3.64 L37.6415,9.984 L37.6415,3.64 L39.4745,3.64 L39.4745,13 L37.6155,13 L33.6765,6.799 L33.6765,13 L31.8305,13 Z M47.114786,11.414 C48.193786,11.414 49.077786,10.907 49.454786,9.854 L51.495786,9.854 C51.027786,11.804 49.402786,13.117 47.088786,13.117 C44.384786,13.117 42.577786,11.245 42.577786,8.398 C42.577786,5.59 44.319786,3.51 47.179786,3.51 C49.415786,3.51 51.014786,4.745 51.495786,6.773 L49.454786,6.773 C49.077786,5.733 48.232786,5.213 47.140786,5.213 C45.515786,5.213 44.501786,6.461 44.501786,8.32 C44.501786,10.179 45.489786,11.414 47.114786,11.414 Z M60.384072,9.074 L56.367072,9.074 L56.367072,13 L54.508072,13 L54.508072,3.64 L56.367072,3.64 L56.367072,7.384 L60.384072,7.384 L60.384072,3.64 L62.243072,3.64 L62.243072,13 L60.384072,13 L60.384072,9.074 Z" opacity=".633"/>
        <polygon fill="#9493A7" points="99 5 105 5 105 11 99 11" opacity=".668"/>
        <polygon fill="#9493A7" points="402 5 408 5 408 11 402 11" opacity=".668"/>
        <polygon fill="#9493A7" points="327 5 333 5 333 11 327 11" opacity=".668"/>
        <polygon fill="#9493A7" points="250 5 256 5 256 11 250 11" opacity=".668"/>
        <polygon fill="#9493A7" points="175 5 181 5 181 11 175 11" opacity=".668"/>
        <path fill="#FFF" fill-rule="nonzero" d="M465.239071,11.362 L469.919071,11.362 L469.919071,13 L463.380071,13 L463.380071,3.64 L469.763071,3.64 L469.763071,5.278 L465.239071,5.278 L465.239071,7.501 L468.671071,7.501 L468.671071,9.1 L465.239071,9.1 L465.239071,11.362 Z M472.983357,13 L472.983357,3.64 L474.855357,3.64 L478.794357,9.984 L478.794357,3.64 L480.627357,3.64 L480.627357,13 L478.768357,13 L474.829357,6.799 L474.829357,13 L472.983357,13 Z M487.552643,13 L484.133643,13 L484.133643,3.64 L487.552643,3.64 C490.477643,3.64 492.258643,5.564 492.258643,8.32 C492.258643,11.115 490.477643,13 487.552643,13 Z M485.992643,5.278 L485.992643,11.362 L487.448643,11.362 C489.216643,11.362 490.308643,10.179 490.308643,8.268 C490.308643,6.357 489.216643,5.278 487.448643,5.278 L485.992643,5.278 Z" opacity=".633"/>
      </g>
    </g>
    <g transform="translate(429 32)">
      <path fill="#110E35" fill-rule="nonzero" d="M67,-4.5 C69.4852814,-4.5 71.5,-2.48528137 71.5,-2.7554553e-16 C71.5,2.31603406 69.7503421,4.2234136 67.5007074,4.47245735 L67.5007074,267.527543 C69.7503421,267.776586 71.5,269.683966 71.5,272 C71.5,274.485281 69.4852814,276.5 67,276.5 C64.5147186,276.5 62.5,274.485281 62.5,272 C62.5,269.683621 64.2501788,267.776019 66.500297,267.527432 L66.500297,4.47256844 C64.2501788,4.22398135 62.5,2.31637876 62.5,2.7554553e-16 C62.5,-2.48528137 64.5147186,-4.5 67,-4.5 Z"/>
      <g transform="translate(0 107)">
        <path fill="#110E35" d="M8.9735982,-3.62544108e-16 L135.026402,3.62544108e-16 C138.146717,-2.10648567e-16 139.278219,0.324889639 140.41896,0.934964463 C141.559701,1.54503929 142.454961,2.4402993 143.065036,3.58104004 C143.67511,4.72178078 144,5.85328261 144,8.9735982 L144,52.0264018 C144,55.1467174 143.67511,56.2782192 143.065036,57.41896 C142.454961,58.5597007 141.559701,59.4549607 140.41896,60.0650355 C139.278219,60.6751104 138.146717,61 135.026402,61 L8.9735982,61 C5.85328261,61 4.72178078,60.6751104 3.58104004,60.0650355 C2.4402993,59.4549607 1.54503929,58.5597007 0.934964463,57.41896 C0.324889639,56.2782192 1.40432378e-16,55.1467174 -2.41696072e-16,52.0264018 L2.41696072e-16,8.9735982 C-1.40432378e-16,5.85328261 0.324889639,4.72178078 0.934964463,3.58104004 C1.54503929,2.4402993 2.4402993,1.54503929 3.58104004,0.934964463 C4.72178078,0.324889639 5.85328261,2.10648567e-16 8.9735982,-3.62544108e-16 Z"/>
        <path fill="#FFF" fill-rule="nonzero" d="M38.206365,11.266 C41.930365,11.266 46.158365,13.534 46.158365,21.486 C46.158365,28.318 43.442365,32.182 37.926365,32.182 C33.502365,32.182 30.982365,29.802 30.534365,26.33 L35.126365,26.33 C35.378365,27.59 36.722365,28.122 37.982365,28.122 C39.942365,28.122 41.062365,26.834 41.062365,24.762 L41.062365,24.482 C40.194365,25.238 38.934365,25.658 37.450365,25.658 C33.894365,25.658 30.394365,23.25 30.394365,18.602 C30.394365,13.954 33.838365,11.266 38.206365,11.266 Z M38.122365,21.766 C39.914365,21.766 41.230365,20.534 41.230365,18.602 C41.230365,16.67 39.914365,15.382 38.122365,15.382 C36.330365,15.382 35.014365,16.67 35.014365,18.602 C35.014365,20.534 36.330365,21.766 38.122365,21.766 Z M55.419819,11.266 C59.143819,11.266 63.371819,13.534 63.371819,21.486 C63.371819,28.318 60.655819,32.182 55.139819,32.182 C50.715819,32.182 48.195819,29.802 47.747819,26.33 L52.339819,26.33 C52.591819,27.59 53.935819,28.122 55.195819,28.122 C57.155819,28.122 58.275819,26.834 58.275819,24.762 L58.275819,24.482 C57.407819,25.238 56.147819,25.658 54.663819,25.658 C51.107819,25.658 47.607819,23.25 47.607819,18.602 C47.607819,13.954 51.051819,11.266 55.419819,11.266 Z M55.335819,21.766 C57.127819,21.766 58.443819,20.534 58.443819,18.602 C58.443819,16.67 57.127819,15.382 55.335819,15.382 C53.543819,15.382 52.227819,16.67 52.227819,18.602 C52.227819,20.534 53.543819,21.766 55.335819,21.766 Z M64.513273,31.93 L64.513273,26.526 L70.057273,26.526 L70.057273,31.93 L64.513273,31.93 Z M80.690727,31.93 L80.690727,28.486 L71.562727,28.486 L71.562727,24.202 L80.522727,11.546 L85.674727,11.546 L85.674727,24.23 L88.194727,24.23 L88.194727,28.486 L85.674727,28.486 L85.674727,31.93 L80.690727,31.93 Z M76.350727,24.23 L80.690727,24.23 L80.690727,18.406 L76.350727,24.23 Z M94.600181,23.11 C91.520181,23.11 89.420181,20.758 89.420181,17.202 C89.420181,13.646 91.548181,11.266 94.600181,11.266 C97.652181,11.266 99.780181,13.646 99.780181,17.202 C99.780181,20.758 97.652181,23.11 94.600181,23.11 Z M93.228181,31.93 L105.968181,11.546 L110.028181,11.546 L97.316181,31.93 L93.228181,31.93 Z M94.600181,19.694 C95.748181,19.694 95.944181,18.322 95.944181,17.202 C95.944181,16.082 95.748181,14.71 94.600181,14.71 C93.452181,14.71 93.256181,16.082 93.256181,17.202 C93.256181,18.322 93.452181,19.694 94.600181,19.694 Z M108.628181,32.21 C105.548181,32.21 103.448181,29.858 103.448181,26.302 C103.448181,22.746 105.576181,20.366 108.628181,20.366 C111.680181,20.366 113.808181,22.746 113.808181,26.302 C113.808181,29.858 111.680181,32.21 108.628181,32.21 Z M108.628181,28.794 C109.776181,28.794 109.972181,27.422 109.972181,26.302 C109.972181,25.182 109.776181,23.81 108.628181,23.81 C107.480181,23.81 107.284181,25.182 107.284181,26.302 C107.284181,27.422 107.480181,28.794 108.628181,28.794 Z"/>
        <path fill="#FFF" fill-rule="nonzero" d="M14.8728837,49 L14.8728837,40.504 L18.6960837,40.504 C20.3716837,40.504 21.6224837,41.566 21.6224837,43.277 C21.6224837,44.5986 20.9498837,45.6016 19.8996837,45.9202 L21.4690837,49 L19.5692837,49 L18.1532837,46.1444 L16.5484837,46.1444 L16.5484837,49 L14.8728837,49 Z M16.5484837,44.7166 L18.4246837,44.7166 C19.3568837,44.7166 19.8524837,44.221 19.8524837,43.336 C19.8524837,42.451 19.3568837,41.9908 18.4246837,41.9908 L16.5484837,41.9908 L16.5484837,44.7166 Z M27.5306531,47.5132 L31.7786531,47.5132 L31.7786531,49 L25.8432531,49 L25.8432531,40.504 L31.6370531,40.504 L31.6370531,41.9908 L27.5306531,41.9908 L27.5306531,44.0086 L30.6458531,44.0086 L30.6458531,45.46 L27.5306531,45.46 L27.5306531,47.5132 Z M39.3978225,46.9586 L41.6752225,40.504 L43.4806225,40.504 L40.2356225,49 L38.4656225,49 L35.2324225,40.504 L37.0614225,40.504 L39.3978225,46.9586 Z M49.0229919,47.5132 L53.2709919,47.5132 L53.2709919,49 L47.3355919,49 L47.3355919,40.504 L53.1293919,40.504 L53.1293919,41.9908 L49.0229919,41.9908 L49.0229919,44.0086 L52.1381919,44.0086 L52.1381919,45.46 L49.0229919,45.46 L49.0229919,47.5132 Z M57.4209612,49 L57.4209612,40.504 L59.1201612,40.504 L62.6955612,46.2624 L62.6955612,40.504 L64.3593612,40.504 L64.3593612,49 L62.6719612,49 L59.0965612,43.3714 L59.0965612,49 L57.4209612,49 Z M70.5271306,40.504 L70.5271306,45.8376 C70.5271306,47.0176 71.2705306,47.643 72.3325306,47.643 C73.3945306,47.643 74.1379306,47.0176 74.1379306,45.8376 L74.1379306,40.504 L75.8489306,40.504 L75.8489306,45.6724 C75.8489306,47.7846 74.5273306,49.118 72.3325306,49.118 C70.1141306,49.118 68.8161306,47.7846 68.8161306,45.6724 L68.8161306,40.504 L70.5271306,40.504 Z M81.9813,47.5132 L86.2293,47.5132 L86.2293,49 L80.2939,49 L80.2939,40.504 L86.0877,40.504 L86.0877,41.9908 L81.9813,41.9908 L81.9813,44.0086 L85.0965,44.0086 L85.0965,45.46 L81.9813,45.46 L81.9813,47.5132 Z M97.2314388,47.4542 L101.101839,47.4542 L101.101839,49 L95.5440388,49 L95.5440388,40.504 L97.2314388,40.504 L97.2314388,47.4542 Z M106.903808,40.504 L106.903808,49 L105.216408,49 L105.216408,40.504 L106.903808,40.504 Z M117.142578,41.9908 L113.130578,41.9908 L113.130578,44.0912 L116.493578,44.0912 L116.493578,45.5426 L113.130578,45.5426 L113.130578,49 L111.443178,49 L111.443178,40.504 L117.142578,40.504 L117.142578,41.9908 Z M125.056747,41.9908 L125.056747,49 L123.381147,49 L123.381147,41.9908 L120.737947,41.9908 L120.737947,40.504 L127.699947,40.504 L127.699947,41.9908 L125.056747,41.9908 Z" opacity=".731"/>
      </g>
    </g>
    <g transform="translate(0 4)">
      <g transform="translate(0 76)">
        <use fill="#EAB561" xlink:href="#img-method-control-d"/>
        <use fill="#51C7FF" xlink:href="#img-method-control-d"/>
        <path fill="#4F475C" fill-rule="nonzero" d="M36.5875,8.35 L36.5875,16 L35.1875,16 L35.1875,8.35 L32.275,8.35 L32.275,7.1 L39.5,7.1 L39.5,8.35 L36.5875,8.35 Z M45.9336538,14.7375 L50.6711538,14.7375 L50.6711538,16 L44.5211538,16 L44.5211538,7.1 L50.4711538,7.1 L50.4711538,8.35 L45.9336538,8.35 L45.9336538,10.9 L49.4586538,10.9 L49.4586538,12.1375 L45.9336538,12.1375 L45.9336538,14.7375 Z M62.2048077,13.5125 C62.2048077,15.1625 60.7173077,16.125 58.8048077,16.125 C56.6298077,16.125 55.2923077,15.0625 55.2923077,13.475 L56.7423077,13.475 C56.7423077,14.325 57.4423077,14.9125 58.8173077,14.9125 C59.8923077,14.9125 60.7298077,14.4 60.7298077,13.5375 C60.7298077,12.7625 60.2548077,12.425 59.3173077,12.25 L57.8798077,11.975 C56.3048077,11.6875 55.4798077,10.825 55.4798077,9.5375 C55.4798077,8.0375 56.7548077,6.975 58.7548077,6.975 C60.5548077,6.975 62.0548077,7.8 62.0548077,9.6 L60.6423077,9.6 C60.6423077,8.6375 59.8798077,8.15 58.7173077,8.15 C57.6923077,8.15 56.9423077,8.625 56.9423077,9.4375 C56.9423077,10.1625 57.3923077,10.525 58.3798077,10.7125 L59.8173077,10.975 C61.4423077,11.275 62.2048077,12.1625 62.2048077,13.5125 Z M70.8259615,8.35 L70.8259615,16 L69.4259615,16 L69.4259615,8.35 L66.5134615,8.35 L66.5134615,7.1 L73.7384615,7.1 L73.7384615,8.35 L70.8259615,8.35 Z"/>
        <g transform="translate(90)">
          <rect width="23" height="23" fill="#AEE5FF" rx="11.5"/>
          <path fill="#4F475C" fill-rule="nonzero" d="M36.7875,14.8125 C37.975,14.8125 38.875,14.275 39.325,13.1125 L40.875,13.1125 C40.3875,14.9125 38.925,16.1125 36.775,16.1125 C34.225,16.1125 32.5125,14.3 32.5125,11.6125 C32.5125,8.9375 34.1875,6.975 36.825,6.975 C38.925,6.975 40.3875,8.125 40.875,9.9625 L39.325,9.9625 C38.8875,8.825 37.9875,8.2625 36.8,8.2625 C35.0625,8.2625 33.975,9.6125 33.975,11.5625 C33.975,13.5 35.05,14.8125 36.7875,14.8125 Z M49.9961538,16.1125 C47.4336538,16.1125 45.6961538,14.25 45.6961538,11.575 C45.6961538,8.8875 47.4336538,6.975 49.9961538,6.975 C52.5461538,6.975 54.2711538,8.8875 54.2711538,11.575 C54.2711538,14.25 52.5461538,16.1125 49.9961538,16.1125 Z M49.9961538,14.7875 C51.7336538,14.7875 52.7711538,13.5125 52.7711538,11.5625 C52.7711538,9.6125 51.7336538,8.3 49.9961538,8.3 C48.2461538,8.3 47.1961538,9.6125 47.1961538,11.5625 C47.1961538,13.5125 48.2461538,14.7875 49.9961538,14.7875 Z M59.5298077,16 L59.5298077,7.1 L60.9798077,7.1 L65.2798077,13.7375 L65.2798077,7.1 L66.6673077,7.1 L66.6673077,16 L65.2298077,16 L60.9173077,9.4375 L60.9173077,16 L59.5298077,16 Z M76.0009615,8.35 L76.0009615,16 L74.6009615,16 L74.6009615,8.35 L71.6884615,8.35 L71.6884615,7.1 L78.9134615,7.1 L78.9134615,8.35 L76.0009615,8.35 Z M83.9346154,16 L83.9346154,7.1 L87.7471154,7.1 C89.5971154,7.1 90.8221154,8.2 90.8221154,9.95 C90.8221154,11.325 90.0971154,12.375 88.8721154,12.6875 L90.6346154,16 L89.0471154,16 L87.3971154,12.875 L85.3346154,12.875 L85.3346154,16 L83.9346154,16 Z M85.3346154,11.65 L87.6096154,11.65 C88.7346154,11.65 89.3471154,11.0625 89.3471154,9.9875 C89.3471154,8.925 88.7346154,8.35 87.6096154,8.35 L85.3346154,8.35 L85.3346154,11.65 Z M99.9932692,16.1125 C97.4307692,16.1125 95.6932692,14.25 95.6932692,11.575 C95.6932692,8.8875 97.4307692,6.975 99.9932692,6.975 C102.543269,6.975 104.268269,8.8875 104.268269,11.575 C104.268269,14.25 102.543269,16.1125 99.9932692,16.1125 Z M99.9932692,14.7875 C101.730769,14.7875 102.768269,13.5125 102.768269,11.5625 C102.768269,9.6125 101.730769,8.3 99.9932692,8.3 C98.2432692,8.3 97.1932692,9.6125 97.1932692,11.5625 C97.1932692,13.5125 98.2432692,14.7875 99.9932692,14.7875 Z M110.939423,14.7 L115.214423,14.7 L115.214423,16 L109.526923,16 L109.526923,7.1 L110.939423,7.1 L110.939423,14.7 Z"/>
        </g>
      </g>
      <g fill-rule="nonzero">
        <path fill="#0F0626" d="M16.389,22.314 C16.389,26.067 13.041,28.173 8.748,28.173 C3.807,28.173 0.783,25.797 0.783,22.206 L4.698,22.206 C4.698,23.799 6.021,24.933 8.748,24.933 C10.908,24.933 12.366,23.961 12.366,22.422 C12.366,21.072 11.556,20.424 9.666,20.073 L6.615,19.479 C3.132,18.831 1.215,16.968 1.215,14.052 C1.215,10.758 3.942,8.22 8.586,8.22 C12.393,8.22 16.065,9.84 16.065,14.133 L12.258,14.133 C12.258,12.189 10.665,11.379 8.532,11.379 C6.48,11.379 5.184,12.297 5.184,13.701 C5.184,14.97 5.967,15.672 8.046,16.077 L11.124,16.644 C14.715,17.346 16.389,19.263 16.389,22.314 Z M26.7506878,13.62 C30.5846878,13.62 33.3926878,16.239 33.3926878,20.937 C33.3926878,25.392 30.8006878,28.227 26.7506878,28.227 C24.6986878,28.227 22.9706878,27.39 22.2416878,26.148 L22.2416878,33.33 L18.4616878,33.33 L18.4616878,13.89 L21.9986878,13.89 L22.2146878,15.807 C22.9166878,14.592 24.5906878,13.62 26.7506878,13.62 Z M25.9136878,24.852 C27.9926878,24.852 29.5046878,23.394 29.5046878,20.937 C29.5046878,18.507 27.9926878,17.022 25.9136878,16.995 C23.8616878,16.995 22.3226878,18.507 22.3226878,20.964 C22.3226878,23.394 23.8616878,24.852 25.9136878,24.852 Z M48.9923756,20.694 L48.9923756,21.936 L38.8403756,21.936 C38.8943756,24.015 40.3523756,25.176 42.1613756,25.176 C43.5383756,25.176 44.6453756,24.555 45.0773756,23.34 L48.8843756,23.34 C48.2633756,26.256 45.5903756,28.227 42.0533756,28.227 C37.8413756,28.227 35.0333756,25.311 35.0333756,20.91 C35.0333756,16.536 37.8413756,13.62 42.0263756,13.62 C46.2113756,13.62 48.9923756,16.401 48.9923756,20.694 Z M42.0263756,16.563 C40.4063756,16.563 39.0293756,17.508 38.8673756,19.452 L45.2123756,19.452 C45.0503756,17.508 43.6733756,16.563 42.0263756,16.563 Z M59.2190634,13.62 C62.8100634,13.62 64.8620634,15.996 64.8620634,19.587 L64.8620634,27.93 L61.0550634,27.93 L61.0550634,20.37 C61.0550634,18.048 59.9480634,16.86 58.1120634,16.86 C56.1140634,16.86 55.0340634,18.237 55.0340634,20.505 L55.0340634,27.93 L51.2540634,27.93 L51.2540634,13.89 L54.7640634,13.89 L54.9800634,15.564 C55.7090634,14.403 57.1130634,13.62 59.2190634,13.62 Z M78.0857511,7.653 L81.8657511,7.653 L81.8657511,27.93 L78.3557511,27.93 L78.1127511,26.013 C77.4107511,27.228 75.7367511,28.2 73.5767511,28.2 C69.5537511,28.2 66.9347511,25.392 66.9347511,20.91 C66.9347511,16.239 69.7427511,13.62 73.5767511,13.62 C75.6827511,13.62 77.3567511,14.457 78.0857511,15.672 L78.0857511,7.653 Z M74.4407511,24.825 C76.4657511,24.825 78.0047511,23.367 78.0047511,20.91 C78.0047511,18.48 76.4657511,16.995 74.4407511,16.995 C72.3347511,16.995 70.8227511,18.507 70.8227511,20.91 C70.8227511,23.367 72.3347511,24.825 74.4407511,24.825 Z M102.076127,27.93 L100.591127,23.853 L93.2741267,23.853 L91.7621267,27.93 L87.8201267,27.93 L95.1911267,8.49 L98.9711267,8.49 L106.315127,27.93 L102.076127,27.93 Z M94.3541267,20.91 L99.5381267,20.91 L96.9731267,13.809 L94.3541267,20.91 Z M115.731815,13.62 C119.322815,13.62 121.374815,15.996 121.374815,19.587 L121.374815,27.93 L117.567815,27.93 L117.567815,20.37 C117.567815,18.048 116.460815,16.86 114.624815,16.86 C112.626815,16.86 111.546815,18.237 111.546815,20.505 L111.546815,27.93 L107.766815,27.93 L107.766815,13.89 L111.276815,13.89 L111.492815,15.564 C112.221815,14.403 113.625815,13.62 115.731815,13.62 Z M136.920502,25.176 L137.487502,25.176 L137.487502,27.93 L135.435502,27.93 C134.193502,27.93 133.167502,27.498 132.870502,26.283 C132.087502,27.471 130.467502,28.2 128.388502,28.2 C125.283502,28.2 123.285502,26.58 123.285502,23.88 C123.285502,21.369 124.959502,19.668 128.550502,19.668 L132.303502,19.668 L132.303502,19.047 C132.303502,17.481 131.304502,16.617 129.738502,16.617 C128.172502,16.617 127.119502,17.454 127.065502,18.696 L123.636502,18.696 C123.636502,15.537 126.228502,13.62 129.900502,13.62 C132.951502,13.62 136.110502,14.997 136.110502,19.128 L136.110502,24.366 C136.110502,25.068 136.461502,25.176 136.920502,25.176 Z M132.303502,22.638 L132.303502,22.125 L129.225502,22.125 C127.605502,22.125 127.173502,22.881 127.173502,23.637 C127.173502,24.798 128.118502,25.23 129.360502,25.23 C131.223502,25.23 132.303502,24.312 132.303502,22.638 Z M143.01619,7.653 L143.01619,27.93 L139.23619,27.93 L139.23619,7.653 L143.01619,7.653 Z M148.409878,13.89 L152.081878,24.528 L155.564878,13.89 L159.425878,13.89 L153.566878,30.171 C152.594878,32.898 150.650878,33.33 148.517878,33.33 L145.088878,33.33 L145.088878,29.982 L148.517878,29.982 C149.435878,29.982 149.921878,29.55 149.921878,28.686 C149.921878,28.362 149.840878,28.065 149.678878,27.633 L144.359878,13.89 L148.409878,13.89 Z M159.716566,23.529 L163.415566,23.529 C163.442566,24.798 164.630566,25.5 166.142566,25.5 C167.627566,25.5 168.464566,24.987 168.464566,24.042 C168.464566,23.178 167.978566,22.692 166.466566,22.422 L163.766566,21.909 C160.958566,21.396 160.067566,19.83 160.067566,17.94 C160.067566,15.321 162.713566,13.62 165.980566,13.62 C169.544566,13.62 172.136566,15.375 172.136566,18.183 L168.437566,18.183 C168.410566,16.995 167.384566,16.32 165.980566,16.32 C164.603566,16.32 163.820566,16.914 163.820566,17.778 C163.820566,18.588 164.495566,18.939 165.872566,19.182 L168.518566,19.722 C171.164566,20.262 172.325566,21.639 172.325566,23.691 C172.325566,26.715 169.490566,28.2 166.196566,28.2 C162.470566,28.2 159.743566,26.364 159.716566,23.529 Z M174.236253,11.73 L174.236253,8.085 L178.070253,8.085 L178.070253,11.73 L174.236253,11.73 Z M174.290253,27.93 L174.290253,13.89 L178.070253,13.89 L178.070253,27.93 L174.290253,27.93 Z M179.926941,23.529 L183.625941,23.529 C183.652941,24.798 184.840941,25.5 186.352941,25.5 C187.837941,25.5 188.674941,24.987 188.674941,24.042 C188.674941,23.178 188.188941,22.692 186.676941,22.422 L183.976941,21.909 C181.168941,21.396 180.277941,19.83 180.277941,17.94 C180.277941,15.321 182.923941,13.62 186.190941,13.62 C189.754941,13.62 192.346941,15.375 192.346941,18.183 L188.647941,18.183 C188.620941,16.995 187.594941,16.32 186.190941,16.32 C184.813941,16.32 184.030941,16.914 184.030941,17.778 C184.030941,18.588 184.705941,18.939 186.082941,19.182 L188.728941,19.722 C191.374941,20.262 192.535941,21.639 192.535941,23.691 C192.535941,26.715 189.700941,28.2 186.406941,28.2 C182.680941,28.2 179.953941,26.364 179.926941,23.529 Z"/>
        <path fill="#88809D" d="M6.606,46.914 L6.606,57.93 L4.59,57.93 L4.59,46.914 L0.396,46.914 L0.396,45.114 L10.8,45.114 L10.8,46.914 L6.606,46.914 Z M19.179,53.124 L19.179,53.862 L12.123,53.862 C12.159,55.59 13.293,56.49 14.733,56.49 C15.813,56.49 16.713,55.986 17.091,54.978 L19.089,54.978 C18.603,56.85 16.947,58.11 14.697,58.11 C11.943,58.11 10.125,56.202 10.125,53.304 C10.125,50.424 11.943,48.516 14.679,48.516 C17.361,48.516 19.179,50.352 19.179,53.124 Z M14.679,50.082 C13.365,50.082 12.285,50.892 12.141,52.494 L17.181,52.494 C17.073,50.892 16.011,50.082 14.679,50.082 Z M20.268,55.14 L22.23,55.14 C22.248,56.094 23.13,56.652 24.336,56.652 C25.542,56.652 26.262,56.202 26.262,55.392 C26.262,54.69 25.902,54.312 24.858,54.15 L23.004,53.826 C21.204,53.52 20.502,52.584 20.502,51.27 C20.502,49.614 22.14,48.534 24.228,48.534 C26.478,48.534 28.116,49.614 28.134,51.45 L26.19,51.45 C26.172,50.514 25.362,49.992 24.228,49.992 C23.148,49.992 22.464,50.442 22.464,51.198 C22.464,51.864 22.932,52.17 23.958,52.35 L25.776,52.674 C27.486,52.98 28.278,53.826 28.278,55.212 C28.278,57.12 26.514,58.11 24.372,58.11 C21.942,58.11 20.304,56.94 20.268,55.14 Z M32.715,57.93 C31.113,57.93 30.231,57.03 30.231,55.428 L30.231,50.46 L28.683,50.46 L28.683,48.714 L29.475,48.714 C30.051,48.714 30.231,48.426 30.231,47.85 L30.231,46.248 L32.193,46.248 L32.193,48.714 L34.335,48.714 L34.335,50.46 L32.193,50.46 L32.193,55.05 C32.193,55.788 32.409,56.184 33.273,56.184 L34.317,56.184 L34.317,57.93 L32.715,57.93 Z M39.969,48.696 L42.723,55.842 L45.441,48.696 L47.565,48.696 L43.785,57.93 L41.589,57.93 L37.899,48.696 L39.969,48.696 Z M47.61,55.14 L49.572,55.14 C49.59,56.094 50.472,56.652 51.678,56.652 C52.884,56.652 53.604,56.202 53.604,55.392 C53.604,54.69 53.244,54.312 52.2,54.15 L50.346,53.826 C48.546,53.52 47.844,52.584 47.844,51.27 C47.844,49.614 49.482,48.534 51.57,48.534 C53.82,48.534 55.458,49.614 55.476,51.45 L53.532,51.45 C53.514,50.514 52.704,49.992 51.57,49.992 C50.49,49.992 49.806,50.442 49.806,51.198 C49.806,51.864 50.274,52.17 51.3,52.35 L53.118,52.674 C54.828,52.98 55.62,53.826 55.62,55.212 C55.62,57.12 53.856,58.11 51.714,58.11 C49.284,58.11 47.646,56.94 47.61,55.14 Z M65.952,56.22 C67.662,56.22 68.958,55.446 69.606,53.772 L71.838,53.772 C71.136,56.364 69.03,58.092 65.934,58.092 C62.262,58.092 59.796,55.482 59.796,51.612 C59.796,47.76 62.208,44.934 66.006,44.934 C69.03,44.934 71.136,46.59 71.838,49.236 L69.606,49.236 C68.976,47.598 67.68,46.788 65.97,46.788 C63.468,46.788 61.902,48.732 61.902,51.54 C61.902,54.33 63.45,56.22 65.952,56.22 Z M72.999,53.322 C72.999,50.478 74.943,48.516 77.733,48.516 C80.541,48.516 82.485,50.478 82.485,53.322 C82.485,56.166 80.541,58.11 77.733,58.11 C74.943,58.11 72.999,56.166 72.999,53.322 Z M75.015,53.304 C75.015,55.194 76.095,56.418 77.733,56.418 C79.389,56.418 80.469,55.194 80.469,53.304 C80.469,51.396 79.389,50.19 77.733,50.19 C76.095,50.19 75.015,51.396 75.015,53.304 Z M88.992,48.534 C91.314,48.534 92.682,50.064 92.682,52.422 L92.682,57.93 L90.702,57.93 L90.702,52.836 C90.702,51.108 89.82,50.262 88.47,50.262 C86.94,50.262 86.112,51.342 86.112,52.98 L86.112,57.93 L84.15,57.93 L84.15,48.714 L85.932,48.714 L86.076,49.956 C86.598,49.074 87.588,48.534 88.992,48.534 Z M97.587,57.93 C95.985,57.93 95.103,57.03 95.103,55.428 L95.103,50.46 L93.555,50.46 L93.555,48.714 L94.347,48.714 C94.923,48.714 95.103,48.426 95.103,47.85 L95.103,46.248 L97.065,46.248 L97.065,48.714 L99.207,48.714 L99.207,50.46 L97.065,50.46 L97.065,55.05 C97.065,55.788 97.281,56.184 98.145,56.184 L99.189,56.184 L99.189,57.93 L97.587,57.93 Z M104.922,48.714 L106.128,48.714 L106.128,50.478 L104.814,50.478 C103.284,50.478 102.69,51.45 102.69,53.016 L102.69,57.93 L100.71,57.93 L100.71,48.714 L102.51,48.714 L102.744,49.902 C103.086,49.254 103.86,48.714 104.922,48.714 Z M106.695,53.322 C106.695,50.478 108.639,48.516 111.429,48.516 C114.237,48.516 116.181,50.478 116.181,53.322 C116.181,56.166 114.237,58.11 111.429,58.11 C108.639,58.11 106.695,56.166 106.695,53.322 Z M108.711,53.304 C108.711,55.194 109.791,56.418 111.429,56.418 C113.085,56.418 114.165,55.194 114.165,53.304 C114.165,51.396 113.085,50.19 111.429,50.19 C109.791,50.19 108.711,51.396 108.711,53.304 Z M119.808,44.556 L119.808,57.93 L117.846,57.93 L117.846,44.556 L119.808,44.556 Z"/>
      </g>
    </g>
  </g>
</svg>
