<svg xmlns="http://www.w3.org/2000/svg" width="69" height="69"><g fill="none" fill-rule="evenodd"><path fill="#E9E7F5" d="M34.5 0C53.554 0 69 15.446 69 34.5 69 53.554 53.554 69 34.5 69 15.446 69 0 53.554 0 34.5 0 15.446 15.446 0 34.5 0z"/><path stroke="#6953BC" stroke-linecap="round" stroke-linejoin="round" stroke-width="2.917" d="M41.792 47.625v-2.917a5.833 5.833 0 0 0-5.834-5.833H24.292a5.833 5.833 0 0 0-5.834 5.833v2.917M34.25 23.084a5.833 5.833 0 1 1-8.25 8.25 5.833 5.833 0 0 1 8.25-8.25m16.292 24.54v-2.916a5.833 5.833 0 0 0-4.375-5.643m-5.834-17.5a5.833 5.833 0 0 1 0 11.302"/></g></svg>