<svg height="681" width="1023" xmlns="http://www.w3.org/2000/svg"><g fill="none" fill-rule="evenodd"><path d="M243.558 56L60.033 561.974A47 47 0 0 0 57.216 578c0 25.957 21.043 47 47 47H966v9c0 25.957-21.043 47-47 47H47.216c-25.957 0-47-21.043-47-47a47 47 0 0 1 2.817-16.026l192.603-531C202.379 68.381 220.04 56 239.819 56h3.74z" fill="#000" opacity=".064"/><path d="M296.819 0H976c25.957 0 47 21.043 47 47v531c0 25.957-21.043 47-47 47H104.216c-25.957 0-47-21.043-47-47a47 47 0 0 1 2.817-16.026l192.603-531C259.379 12.381 277.04 0 296.819 0z" fill="#fff" opacity=".14"/></g></svg>