<svg xmlns="http://www.w3.org/2000/svg" xmlns:xlink="http://www.w3.org/1999/xlink" width="1023" height="681" viewBox="0 0 1023 681">
  <defs>
    <path id="sub-holder2-a" d="M296.818976,0 L976,0 C1001.95738,-1.18737213e-14 1023,21.0426168 1023,47 L1023,578 C1023,603.957383 1001.95738,625 976,625 L104.21632,625 C78.2589368,625 57.2163201,603.957383 57.2163201,578 C57.2163201,572.534856 58.1694935,567.111585 60.0329958,561.973963 L252.635652,30.9739631 C259.379475,12.3814357 277.04118,-1.05777325e-14 296.818976,0 Z"/>
  </defs>
  <g fill="none" fill-rule="evenodd">
    <path fill="#000" d="M243.558286,56 L60.0329958,561.973963 C58.1694935,567.111585 57.2163201,572.534856 57.2163201,578 C57.2163201,603.957383 78.2589368,625 104.21632,625 L966,625 L966,634 C966,659.957383 944.957383,681 919,681 L47.2163201,681 C21.2589368,681 0.216320065,659.957383 0.216320065,634 C0.216320065,628.534856 1.16949355,623.111585 3.03299582,617.973963 L195.635652,86.9739631 C202.379475,68.3814357 220.04118,56 239.818976,56 L243.558286,56 Z" opacity=".064" style="mix-blend-mode:overlay"/>
    <use fill="#FFF" opacity=".14" xlink:href="#sub-holder2-a"/>
  </g>
</svg>
