<svg xmlns="http://www.w3.org/2000/svg" xmlns:xlink="http://www.w3.org/1999/xlink" width="736" height="606"><defs><filter id="a" width="130.2%" height="146.7%" x="-15.1%" y="-23.4%" filterUnits="objectBoundingBox"><feOffset dy="32" in="SourceAlpha" result="shadowOffsetOuter1"/><feGaussianBlur in="shadowOffsetOuter1" result="shadowBlurOuter1" stdDeviation="22"/><feColorMatrix in="shadowBlurOuter1" result="shadowMatrixOuter1" values="0 0 0 0 0.1033364 0 0 0 0 0.445209462 0 0 0 0 0.844061368 0 0 0 0.306490385 0"/><feMerge><feMergeNode in="shadowMatrixOuter1"/><feMergeNode in="SourceGraphic"/></feMerge></filter><linearGradient id="b" x1="50%" x2="54.261%" y1="30.449%" y2="68.258%"><stop offset="0%" stop-color="#6CA1FF"/><stop offset="100%" stop-color="#506FFD"/></linearGradient><path id="c" d="M241.819 0H921c25.957 0 47 21.043 47 47v531c0 25.957-21.043 47-47 47H49.216c-25.957 0-47-21.043-47-47a47 47 0 0 1 2.817-16.026l192.603-531C204.379 12.381 222.04 0 241.819 0z"/></defs><g fill="none" fill-rule="evenodd"><path fill="#0206FD" d="M228.819 68H908c25.957 0 47 21.043 47 47v531c0 25.957-21.043 47-47 47H36.216c-25.957 0-47-21.043-47-47a47 47 0 0 1 2.817-16.026l192.603-531C191.379 80.381 209.04 68 228.819 68z" opacity=".08"/><g filter="url(#a)" transform="translate(44 12)"><use fill="url(#b)" xlink:href="#c"/></g></g></svg>