<svg xmlns="http://www.w3.org/2000/svg" width="69" height="69"><g fill="none" fill-rule="evenodd"><path fill="#DAF7FB" d="M34.5 0C53.554 0 69 15.446 69 34.5 69 53.554 53.554 69 34.5 69 15.446 69 0 53.554 0 34.5 0 15.446 15.446 0 34.5 0z"/><path stroke="#23AFD6" stroke-linecap="round" stroke-linejoin="round" stroke-width="2.917" d="M36.562 32.438a2.917 2.917 0 1 1-4.124 4.124 2.917 2.917 0 0 1 4.124-4.124m4.121-4.121a8.75 8.75 0 0 1 0 12.38m-12.366-.014a8.75 8.75 0 0 1 0-12.38M44.81 24.19c5.693 5.694 5.693 14.926 0 20.62m-20.62 0c-5.693-5.694-5.693-14.926 0-20.62"/></g></svg>